G04 #@! TF.FileFunction,Copper,L3,Inr,Signal*
%FSLAX46Y46*%
G04 Gerber Fmt 4.6, Leading zero omitted, Abs format (unit mm)*
G04 Created by KiCad (PCBNEW 4.0.6) date 02/16/18 09:44:27*
%MOMM*%
%LPD*%
G01*
G04 APERTURE LIST*
%ADD10C,0.100000*%
%ADD11C,0.500000*%
%ADD12C,2.500000*%
%ADD13C,5.000000*%
%ADD14C,0.340000*%
%ADD15C,0.254000*%
%ADD16C,0.250000*%
G04 APERTURE END LIST*
D10*
D11*
X120000000Y-107400000D03*
X120000000Y-106400000D03*
X120000000Y-105400000D03*
X120000000Y-104400000D03*
X120000000Y-103400000D03*
X119000000Y-107400000D03*
X119000000Y-107400000D03*
X119000000Y-106400000D03*
X119000000Y-105400000D03*
X119000000Y-104400000D03*
X119000000Y-103400000D03*
X118000000Y-107400000D03*
X118000000Y-106400000D03*
X118000000Y-105400000D03*
X118000000Y-104400000D03*
X118000000Y-103400000D03*
X106300000Y-88600000D03*
X106300000Y-92600000D03*
X107200000Y-94100000D03*
X108100000Y-87600000D03*
X108100000Y-86600000D03*
X108100000Y-84600000D03*
X108100000Y-85600000D03*
X175600000Y-111600000D03*
X176800000Y-106000000D03*
X171000000Y-104800000D03*
X174460000Y-85150000D03*
X171310000Y-86410000D03*
X169550000Y-96700000D03*
X174530000Y-95690000D03*
X183400000Y-99100000D03*
X181500000Y-104300000D03*
X158100000Y-118100000D03*
X128700000Y-115900000D03*
X161000000Y-112200000D03*
X161000000Y-111200000D03*
X160100000Y-112700000D03*
X160100000Y-111700000D03*
X160100000Y-110700000D03*
X154800000Y-112200000D03*
X154800000Y-111200000D03*
X154000000Y-112700000D03*
X154000000Y-111700000D03*
X154000000Y-110700000D03*
X137800000Y-113700000D03*
X137800000Y-112700000D03*
X137800000Y-111700000D03*
X137800000Y-110700000D03*
X125700000Y-113700000D03*
X125700000Y-112700000D03*
X125700000Y-111700000D03*
X125700000Y-110700000D03*
X118700000Y-113200000D03*
X118700000Y-112200000D03*
X118700000Y-111200000D03*
X117800000Y-113700000D03*
X117800000Y-112700000D03*
X117800000Y-111700000D03*
X117800000Y-110700000D03*
X112600000Y-113200000D03*
X112600000Y-112200000D03*
X112600000Y-111200000D03*
X113500000Y-113700000D03*
X113500000Y-112700000D03*
X113500000Y-111700000D03*
X113500000Y-110700000D03*
X121900000Y-115500000D03*
X114500000Y-116900000D03*
X108700000Y-119500000D03*
X156680000Y-99570000D03*
X139800000Y-99600000D03*
X122700000Y-99800000D03*
X98800000Y-102500000D03*
X98800000Y-104500000D03*
X98800000Y-106500000D03*
X98800000Y-108500000D03*
X98800000Y-91240000D03*
X98800000Y-89440000D03*
X98800000Y-87640000D03*
X98800000Y-85840000D03*
X104900000Y-84740000D03*
X107200000Y-93100000D03*
X107200000Y-86140000D03*
X107200000Y-87140000D03*
X107200000Y-88140000D03*
X161800000Y-107600000D03*
X161800000Y-106600000D03*
X161800000Y-105600000D03*
X161800000Y-104600000D03*
X161800000Y-103600000D03*
X149800000Y-118600000D03*
X148800000Y-118600000D03*
X147800000Y-118600000D03*
X146800000Y-118600000D03*
X149800000Y-117000000D03*
X148800000Y-117000000D03*
X147800000Y-117000000D03*
X146800000Y-117000000D03*
X149800000Y-116000000D03*
X148800000Y-116000000D03*
X147800000Y-116000000D03*
X139000000Y-118600000D03*
X138000000Y-118600000D03*
X137000000Y-118600000D03*
X146800000Y-116000000D03*
X139000000Y-116000000D03*
X138000000Y-117000000D03*
X138000000Y-116000000D03*
X139000000Y-117000000D03*
X137000000Y-117000000D03*
X137000000Y-116000000D03*
X136000000Y-118600000D03*
X136000000Y-117000000D03*
X136000000Y-116000000D03*
X160100000Y-107600000D03*
X160100000Y-106600000D03*
X160100000Y-105600000D03*
X160100000Y-104600000D03*
X160100000Y-103600000D03*
X154000000Y-107600000D03*
X154000000Y-106600000D03*
X154000000Y-105600000D03*
X154000000Y-104600000D03*
X154000000Y-103600000D03*
X147900000Y-107600000D03*
X147900000Y-106600000D03*
X147900000Y-105600000D03*
X147900000Y-104600000D03*
X147900000Y-103600000D03*
X146500000Y-107600000D03*
X146500000Y-106600000D03*
X146500000Y-105600000D03*
X146500000Y-104600000D03*
X146500000Y-103600000D03*
X138500000Y-107600000D03*
X138500000Y-106600000D03*
X138500000Y-105600000D03*
X138500000Y-104600000D03*
X138500000Y-103600000D03*
X137000000Y-107600000D03*
X137000000Y-106600000D03*
X137000000Y-105600000D03*
X137000000Y-104600000D03*
X137000000Y-103600000D03*
X124800000Y-107400000D03*
X124800000Y-106400000D03*
X124800000Y-105400000D03*
X124800000Y-104400000D03*
X124800000Y-103400000D03*
X123300000Y-107400000D03*
X123300000Y-106400000D03*
X123300000Y-105400000D03*
X123300000Y-104400000D03*
X123300000Y-103400000D03*
X113100000Y-107400000D03*
X113100000Y-106400000D03*
X113100000Y-105400000D03*
X113100000Y-104400000D03*
X113100000Y-103400000D03*
X113100000Y-102400000D03*
X113100000Y-101400000D03*
X113100000Y-100400000D03*
X107200000Y-92100000D03*
X107200000Y-91100000D03*
X107200000Y-90100000D03*
X107200000Y-89100000D03*
X107200000Y-85100000D03*
X103100000Y-84740000D03*
X109600000Y-96200000D03*
X109600000Y-95200000D03*
X109600000Y-94240000D03*
X109600000Y-90840000D03*
X109600000Y-89640000D03*
X114500000Y-98000000D03*
X114500000Y-97000000D03*
X114500000Y-96000000D03*
X114500000Y-95000000D03*
X114500000Y-94000000D03*
X132000000Y-97800000D03*
X132000000Y-96800000D03*
X132000000Y-95800000D03*
X132000000Y-94800000D03*
X132000000Y-93800000D03*
X149200000Y-97800000D03*
X149200000Y-96800000D03*
X149200000Y-95800000D03*
X149200000Y-94800000D03*
X149200000Y-93800000D03*
X147000000Y-86700000D03*
X149700000Y-72400000D03*
X125000000Y-90340000D03*
X125000000Y-89360000D03*
X125000000Y-88380000D03*
X125000000Y-87400000D03*
X125000000Y-86420000D03*
X125000000Y-85440000D03*
X125000000Y-84460000D03*
X125000000Y-83480000D03*
X125000000Y-82500000D03*
X124020000Y-90340000D03*
X124020000Y-89360000D03*
X124020000Y-88380000D03*
X124020000Y-87400000D03*
X124020000Y-86420000D03*
X124020000Y-85440000D03*
X124020000Y-84460000D03*
X124020000Y-83480000D03*
X124020000Y-82500000D03*
X123040000Y-90340000D03*
X123040000Y-89360000D03*
X123040000Y-88380000D03*
X123040000Y-87400000D03*
X123040000Y-86420000D03*
X123040000Y-85440000D03*
X123040000Y-84460000D03*
X123040000Y-83480000D03*
X123040000Y-82500000D03*
X122060000Y-90340000D03*
X122060000Y-89360000D03*
X122060000Y-88380000D03*
X122060000Y-87400000D03*
X122060000Y-86420000D03*
X122060000Y-85440000D03*
X122060000Y-84460000D03*
X122060000Y-83480000D03*
X122060000Y-82500000D03*
X121080000Y-90340000D03*
X121080000Y-89360000D03*
X121080000Y-88380000D03*
X121080000Y-87400000D03*
X121080000Y-86420000D03*
X121080000Y-85440000D03*
X121080000Y-84460000D03*
X121080000Y-83480000D03*
X121080000Y-82500000D03*
X120100000Y-90340000D03*
X120100000Y-89360000D03*
X120100000Y-88380000D03*
X120100000Y-87400000D03*
X120100000Y-86420000D03*
X120100000Y-85440000D03*
X120100000Y-84460000D03*
X120100000Y-83480000D03*
X120100000Y-82500000D03*
X119120000Y-90340000D03*
X119120000Y-89360000D03*
X119120000Y-88380000D03*
X119120000Y-87400000D03*
X119120000Y-86420000D03*
X119120000Y-85440000D03*
X119120000Y-84460000D03*
X119120000Y-83480000D03*
X119120000Y-82500000D03*
X118140000Y-90340000D03*
X118140000Y-89360000D03*
X118140000Y-88380000D03*
X118140000Y-87400000D03*
X118140000Y-86420000D03*
X118140000Y-85440000D03*
X118140000Y-84460000D03*
X118140000Y-83480000D03*
X118140000Y-82500000D03*
X117160000Y-90340000D03*
X117160000Y-89360000D03*
X117160000Y-88380000D03*
X117160000Y-87400000D03*
X117160000Y-86420000D03*
X117160000Y-85440000D03*
X117160000Y-84460000D03*
X117160000Y-83480000D03*
X117160000Y-82500000D03*
X116180000Y-90340000D03*
X116180000Y-89360000D03*
X116180000Y-88380000D03*
X116180000Y-87400000D03*
X116180000Y-86420000D03*
X116180000Y-85440000D03*
X116180000Y-84460000D03*
X116180000Y-83480000D03*
X116180000Y-82500000D03*
X115200000Y-90340000D03*
X115200000Y-89360000D03*
X115200000Y-88380000D03*
X115200000Y-87400000D03*
X115200000Y-86420000D03*
X115200000Y-85440000D03*
X115200000Y-84460000D03*
X115200000Y-83480000D03*
X115200000Y-82500000D03*
X149500000Y-82500000D03*
X142100000Y-90340000D03*
X142100000Y-89360000D03*
X142100000Y-88380000D03*
X142100000Y-87400000D03*
X142100000Y-86420000D03*
X142100000Y-85440000D03*
X142100000Y-84460000D03*
X142100000Y-83480000D03*
X142100000Y-82500000D03*
X141120000Y-90340000D03*
X141120000Y-89360000D03*
X141120000Y-88380000D03*
X141120000Y-87400000D03*
X141120000Y-86420000D03*
X141120000Y-85440000D03*
X141120000Y-84460000D03*
X141120000Y-83480000D03*
X141120000Y-82500000D03*
X140140000Y-90340000D03*
X140140000Y-89360000D03*
X140140000Y-88380000D03*
X140140000Y-87400000D03*
X140140000Y-86420000D03*
X140140000Y-85440000D03*
X140140000Y-84460000D03*
X140140000Y-83480000D03*
X140140000Y-82500000D03*
X139160000Y-90340000D03*
X139160000Y-89360000D03*
X139160000Y-88380000D03*
X139160000Y-87400000D03*
X139160000Y-86420000D03*
X139160000Y-85440000D03*
X139160000Y-84460000D03*
X139160000Y-83480000D03*
X139160000Y-82500000D03*
X138180000Y-90340000D03*
X138180000Y-89360000D03*
X138180000Y-88380000D03*
X138180000Y-87400000D03*
X138180000Y-86420000D03*
X138180000Y-85440000D03*
X138180000Y-84460000D03*
X138180000Y-83480000D03*
X138180000Y-82500000D03*
X137200000Y-90340000D03*
X137200000Y-89360000D03*
X137200000Y-88380000D03*
X137200000Y-87400000D03*
X137200000Y-86420000D03*
X137200000Y-85440000D03*
X137200000Y-84460000D03*
X137200000Y-83480000D03*
X137200000Y-82500000D03*
X136220000Y-90340000D03*
X136220000Y-89360000D03*
X136220000Y-88380000D03*
X136220000Y-87400000D03*
X136220000Y-86420000D03*
X136220000Y-85440000D03*
X136220000Y-84460000D03*
X136220000Y-83480000D03*
X136220000Y-82500000D03*
X135240000Y-90340000D03*
X135240000Y-89360000D03*
X135240000Y-88380000D03*
X135240000Y-87400000D03*
X135240000Y-86420000D03*
X135240000Y-85440000D03*
X135240000Y-84460000D03*
X135240000Y-83480000D03*
X135240000Y-82500000D03*
X134260000Y-90340000D03*
X134260000Y-89360000D03*
X134260000Y-88380000D03*
X134260000Y-87400000D03*
X134260000Y-86420000D03*
X134260000Y-85440000D03*
X134260000Y-84460000D03*
X134260000Y-83480000D03*
X134260000Y-82500000D03*
X133280000Y-90340000D03*
X133280000Y-89360000D03*
X133280000Y-88380000D03*
X133280000Y-87400000D03*
X133280000Y-86420000D03*
X133280000Y-85440000D03*
X133280000Y-84460000D03*
X133280000Y-83480000D03*
X133280000Y-82500000D03*
X132300000Y-90340000D03*
X132300000Y-89360000D03*
X132300000Y-88380000D03*
X132300000Y-87400000D03*
X132300000Y-86420000D03*
X132300000Y-85440000D03*
X132300000Y-84460000D03*
X132300000Y-83480000D03*
X132300000Y-82500000D03*
X159300000Y-90340000D03*
X159300000Y-89360000D03*
X159300000Y-88380000D03*
X159300000Y-87400000D03*
X159300000Y-86420000D03*
X159300000Y-85440000D03*
X159300000Y-84460000D03*
X159300000Y-83480000D03*
X159300000Y-82500000D03*
X158320000Y-90340000D03*
X158320000Y-89360000D03*
X158320000Y-88380000D03*
X158320000Y-87400000D03*
X158320000Y-86420000D03*
X158320000Y-85440000D03*
X158320000Y-84460000D03*
X158320000Y-83480000D03*
X158320000Y-82500000D03*
X157340000Y-90340000D03*
X157340000Y-89360000D03*
X157340000Y-88380000D03*
X157340000Y-87400000D03*
X157340000Y-86420000D03*
X157340000Y-85440000D03*
X157340000Y-84460000D03*
X157340000Y-83480000D03*
X157340000Y-82500000D03*
X156360000Y-90340000D03*
X156360000Y-89360000D03*
X156360000Y-88380000D03*
X156360000Y-87400000D03*
X156360000Y-86420000D03*
X156360000Y-85440000D03*
X156360000Y-84460000D03*
X156360000Y-83480000D03*
X156360000Y-82500000D03*
X155380000Y-90340000D03*
X155380000Y-89360000D03*
X155380000Y-88380000D03*
X155380000Y-87400000D03*
X155380000Y-86420000D03*
X155380000Y-85440000D03*
X155380000Y-84460000D03*
X155380000Y-83480000D03*
X155380000Y-82500000D03*
X154400000Y-90340000D03*
X154400000Y-89360000D03*
X154400000Y-88380000D03*
X154400000Y-87400000D03*
X154400000Y-86420000D03*
X154400000Y-85440000D03*
X154400000Y-84460000D03*
X154400000Y-83480000D03*
X154400000Y-82500000D03*
X153420000Y-90340000D03*
X153420000Y-89360000D03*
X153420000Y-88380000D03*
X153420000Y-87400000D03*
X153420000Y-86420000D03*
X153420000Y-85440000D03*
X153420000Y-84460000D03*
X153420000Y-83480000D03*
X153420000Y-82500000D03*
X152440000Y-90340000D03*
X152440000Y-89360000D03*
X152440000Y-88380000D03*
X152440000Y-87400000D03*
X152440000Y-86420000D03*
X152440000Y-85440000D03*
X152440000Y-84460000D03*
X152440000Y-83480000D03*
X152440000Y-82500000D03*
X151460000Y-90340000D03*
X151460000Y-89360000D03*
X151460000Y-88380000D03*
X151460000Y-87400000D03*
X151460000Y-86420000D03*
X151460000Y-85440000D03*
X151460000Y-84460000D03*
X151460000Y-83480000D03*
X151460000Y-82500000D03*
X150480000Y-90340000D03*
X150480000Y-89360000D03*
X150480000Y-88380000D03*
X150480000Y-87400000D03*
X150480000Y-86420000D03*
X150480000Y-85440000D03*
X150480000Y-84460000D03*
X150480000Y-83480000D03*
X150500000Y-82500000D03*
X149500000Y-90340000D03*
X149500000Y-89360000D03*
X149500000Y-88380000D03*
X149500000Y-87400000D03*
X149500000Y-86420000D03*
X149500000Y-85440000D03*
X149500000Y-84460000D03*
X149500000Y-83480000D03*
D12*
X111800000Y-78430000D03*
X104800000Y-86930000D03*
X104800000Y-102930000D03*
X104800000Y-94930000D03*
X104800000Y-110930000D03*
X120100000Y-78430000D03*
X137200000Y-78430000D03*
X154400000Y-78430000D03*
D13*
X100000000Y-118000000D03*
X188000000Y-118000000D03*
X188000000Y-73000000D03*
X100000000Y-73000000D03*
D11*
X167200000Y-115930000D03*
X174940000Y-107340000D03*
X167860000Y-87340000D03*
X182980000Y-96550000D03*
X184430000Y-87140000D03*
X120440000Y-115500000D03*
X111960000Y-117960000D03*
X171660000Y-113070000D03*
X171630000Y-117680000D03*
X173040000Y-106880000D03*
X180100000Y-108740000D03*
X174370000Y-97210000D03*
X158030000Y-116330000D03*
X121110000Y-119000000D03*
X153880000Y-118520000D03*
X116740000Y-71670000D03*
X167700000Y-83010000D03*
X168130000Y-91480000D03*
X146140000Y-72950000D03*
X175340000Y-93970000D03*
X168540000Y-105050000D03*
X176240000Y-94160000D03*
X171940000Y-80940000D03*
X166210000Y-80300000D03*
X152020000Y-73620000D03*
X145690000Y-89280000D03*
X181430000Y-93380000D03*
X168580000Y-90830000D03*
X175360000Y-85260000D03*
X174180000Y-91390000D03*
X174360000Y-96430000D03*
X173650000Y-85710000D03*
X134490000Y-117760000D03*
X174370000Y-98170000D03*
X120570000Y-100710000D03*
X171350000Y-102730000D03*
X171100000Y-101960000D03*
X120530000Y-99560000D03*
X171980000Y-101130000D03*
X137750000Y-100820000D03*
X154940000Y-100480000D03*
X167690000Y-100280000D03*
X178050000Y-100260000D03*
X178160000Y-98760000D03*
X186440000Y-79210000D03*
X177650000Y-99460000D03*
X177360000Y-84520000D03*
X169100000Y-99920000D03*
X154910000Y-99590000D03*
X181540000Y-95280000D03*
X137680000Y-99550000D03*
X169100000Y-100810000D03*
X176660000Y-94850000D03*
X122740000Y-98810000D03*
X167890000Y-97160000D03*
X167680000Y-97960000D03*
X187530000Y-99970000D03*
X140030000Y-98800000D03*
X157140000Y-98910000D03*
X167840000Y-98900000D03*
X109750000Y-102710000D03*
D14*
X167200000Y-115930000D02*
X167980000Y-115150000D01*
X167980000Y-115150000D02*
X167980000Y-106710000D01*
X167980000Y-106710000D02*
X168520000Y-106170000D01*
X168520000Y-106170000D02*
X173770000Y-106170000D01*
X173770000Y-106170000D02*
X174940000Y-107340000D01*
D15*
X184430000Y-87140000D02*
X184430000Y-95100000D01*
X184430000Y-95100000D02*
X182980000Y-96550000D01*
D14*
X114420000Y-115500000D02*
X120440000Y-115500000D01*
X111960000Y-117960000D02*
X114420000Y-115500000D01*
X171660000Y-117650000D02*
X171660000Y-113070000D01*
X171630000Y-117680000D02*
X171660000Y-117650000D01*
X174900000Y-108740000D02*
X173040000Y-106880000D01*
X180100000Y-108740000D02*
X174900000Y-108740000D01*
D15*
X159430000Y-114930000D02*
X164510000Y-114930000D01*
X174370000Y-97210000D02*
X175012998Y-97852998D01*
X175012998Y-97852998D02*
X175012998Y-101243424D01*
X175012998Y-101243424D02*
X172096422Y-104160000D01*
X172096422Y-104160000D02*
X168410000Y-104160000D01*
X168410000Y-104160000D02*
X167390000Y-105180000D01*
X167390000Y-105180000D02*
X167390000Y-113200000D01*
X167390000Y-113200000D02*
X165660000Y-114930000D01*
X165660000Y-114930000D02*
X164510000Y-114930000D01*
X159405000Y-114955000D02*
X159430000Y-114930000D01*
X158030000Y-116330000D02*
X159405000Y-114955000D01*
X159430000Y-114930000D02*
X159405000Y-114955000D01*
D14*
X121440000Y-119330000D02*
X121110000Y-119000000D01*
X153070000Y-119330000D02*
X121440000Y-119330000D01*
X153880000Y-118520000D02*
X153070000Y-119330000D01*
X124720000Y-69740000D02*
X118670000Y-69740000D01*
X124720000Y-69740000D02*
X158920000Y-69740000D01*
X164000000Y-69740000D02*
X158920000Y-69740000D01*
X118670000Y-69740000D02*
X116740000Y-71670000D01*
X164000000Y-69740000D02*
X164090000Y-69830000D01*
X164090000Y-69830000D02*
X164150000Y-69830000D01*
X164150000Y-69830000D02*
X164150000Y-69890000D01*
X167700000Y-73440000D02*
X167700000Y-83010000D01*
X164000000Y-69740000D02*
X164150000Y-69890000D01*
X164150000Y-69890000D02*
X167700000Y-73440000D01*
X163775612Y-70350000D02*
X147580000Y-70350000D01*
X163775612Y-70350000D02*
X166930000Y-73504388D01*
X166930000Y-73504388D02*
X166930000Y-90280000D01*
X166930000Y-90280000D02*
X168130000Y-91480000D01*
X146140000Y-71790000D02*
X146140000Y-72950000D01*
X147580000Y-70350000D02*
X146140000Y-71790000D01*
D15*
X175570000Y-94220000D02*
X175570000Y-94200000D01*
X175570000Y-94200000D02*
X175340000Y-93970000D01*
D14*
X174400000Y-102630000D02*
X175570000Y-101460000D01*
X168540000Y-105050000D02*
X169050000Y-105560000D01*
X169050000Y-105560000D02*
X171470000Y-105560000D01*
X171470000Y-105560000D02*
X174400000Y-102630000D01*
X175570000Y-101460000D02*
X175570000Y-94220000D01*
X175570000Y-94220000D02*
X175570000Y-94170000D01*
X154360000Y-70970000D02*
X152830000Y-70970000D01*
X158390000Y-70970000D02*
X163470000Y-70970000D01*
X172750000Y-80940000D02*
X176240000Y-84430000D01*
X176240000Y-84430000D02*
X176240000Y-94160000D01*
X166210000Y-73710000D02*
X166210000Y-80300000D01*
X163470000Y-70970000D02*
X166210000Y-73710000D01*
X154360000Y-70970000D02*
X158390000Y-70970000D01*
X171940000Y-80940000D02*
X172750000Y-80940000D01*
X152020000Y-71780000D02*
X152020000Y-73620000D01*
X152830000Y-70970000D02*
X152020000Y-71780000D01*
X145690000Y-89280000D02*
X145690000Y-90690000D01*
X152300000Y-95700000D02*
X153080000Y-96480000D01*
X152300000Y-93400000D02*
X152300000Y-95700000D01*
X151600000Y-92700000D02*
X152300000Y-93400000D01*
X147700000Y-92700000D02*
X151600000Y-92700000D01*
X145690000Y-90690000D02*
X147700000Y-92700000D01*
D15*
X168430000Y-96480000D02*
X153080000Y-96480000D01*
X168800000Y-96110000D02*
X168430000Y-96480000D01*
X168800000Y-91880000D02*
X168800000Y-96110000D01*
X168800000Y-91050000D02*
X168800000Y-91880000D01*
X168800000Y-91050000D02*
X168580000Y-90830000D01*
X174180000Y-86440000D02*
X175360000Y-85260000D01*
X174180000Y-91390000D02*
X174180000Y-86440000D01*
X173310000Y-95380000D02*
X174360000Y-96430000D01*
X173310000Y-86050000D02*
X173310000Y-95380000D01*
X173650000Y-85710000D02*
X173310000Y-86050000D01*
X160370000Y-114420000D02*
X165444002Y-114420000D01*
X160370000Y-114420000D02*
X158910000Y-114420000D01*
X158910000Y-114420000D02*
X155570000Y-117760000D01*
X155570000Y-117760000D02*
X134490000Y-117760000D01*
X165450000Y-114425998D02*
X165450000Y-114420000D01*
X165444002Y-114420000D02*
X165450000Y-114425998D01*
X174370000Y-98170000D02*
X174508996Y-98308996D01*
X174508996Y-98308996D02*
X174508996Y-101011004D01*
X174508996Y-101011004D02*
X171880000Y-103640000D01*
X171880000Y-103640000D02*
X168090000Y-103640000D01*
X168090000Y-103640000D02*
X166885998Y-104844002D01*
X166885998Y-104844002D02*
X166885998Y-112984002D01*
X166885998Y-112984002D02*
X165450000Y-114420000D01*
X165450000Y-114420000D02*
X165450000Y-114420000D01*
X127680000Y-102730000D02*
X122590000Y-102730000D01*
X122590000Y-102730000D02*
X122330000Y-102470000D01*
X122590000Y-102730000D02*
X122330000Y-102470000D01*
X122330000Y-102470000D02*
X120570000Y-100710000D01*
X171350000Y-102730000D02*
X127680000Y-102730000D01*
X127680000Y-102730000D02*
X127670000Y-102730000D01*
X122792766Y-102220000D02*
X127872766Y-102220000D01*
X171100000Y-101960000D02*
X170840000Y-102220000D01*
X170840000Y-102220000D02*
X127872766Y-102220000D01*
X122792766Y-102220000D02*
X122686383Y-102113617D01*
X121221383Y-100141383D02*
X120610000Y-99530000D01*
X121221383Y-100141383D02*
X121221383Y-100141383D01*
X121221383Y-100648617D02*
X121221383Y-100141383D01*
X122792766Y-102220000D02*
X122686383Y-102113617D01*
X122686383Y-102113617D02*
X121221383Y-100648617D01*
X143725998Y-101715998D02*
X138645998Y-101715998D01*
X171980000Y-101130000D02*
X171930000Y-101180000D01*
X171930000Y-101180000D02*
X170890000Y-101180000D01*
X170890000Y-101180000D02*
X170354002Y-101715998D01*
X170354002Y-101715998D02*
X143725998Y-101715998D01*
X138645998Y-101715998D02*
X137750000Y-100820000D01*
D16*
X154940000Y-100480000D02*
X155169994Y-100709994D01*
X167260006Y-100709994D02*
X167690000Y-100280000D01*
X155169994Y-100709994D02*
X167260006Y-100709994D01*
D15*
X178160000Y-81430000D02*
X178160000Y-98760000D01*
X180420000Y-79170000D02*
X178160000Y-81430000D01*
X186400000Y-79170000D02*
X180420000Y-79170000D01*
X186440000Y-79210000D02*
X186400000Y-79170000D01*
X177360000Y-99170000D02*
X177650000Y-99460000D01*
X177360000Y-84520000D02*
X177360000Y-99170000D01*
D16*
X154910000Y-99590000D02*
X155070000Y-99590000D01*
D15*
X169100000Y-99920000D02*
X168770000Y-99590000D01*
D16*
X167480000Y-99590000D02*
X168770000Y-99590000D01*
X166860008Y-100209992D02*
X167480000Y-99590000D01*
X155689992Y-100209992D02*
X166860008Y-100209992D01*
X155070000Y-99590000D02*
X155689992Y-100209992D01*
D15*
X144431996Y-101211996D02*
X139351996Y-101211996D01*
X137680000Y-99550000D02*
X137690000Y-99550000D01*
X137690000Y-99550000D02*
X139351996Y-101211996D01*
X144431996Y-101211996D02*
X168698004Y-101211996D01*
X168698004Y-101211996D02*
X169100000Y-100810000D01*
D14*
X122740000Y-98810000D02*
X125540000Y-101610000D01*
X155020000Y-97500000D02*
X157020000Y-97500000D01*
X139700000Y-98100000D02*
X140360000Y-98100000D01*
X139700000Y-98100000D02*
X139700000Y-98100000D01*
X142300000Y-100040000D02*
X152480000Y-100040000D01*
X140360000Y-98100000D02*
X142300000Y-100040000D01*
X152480000Y-100040000D02*
X155020000Y-97500000D01*
X137870000Y-98100000D02*
X139700000Y-98100000D01*
X136720000Y-99250000D02*
X137870000Y-98100000D01*
X136720000Y-100210000D02*
X136720000Y-99250000D01*
X135320000Y-101610000D02*
X136720000Y-100210000D01*
X125540000Y-101610000D02*
X135320000Y-101610000D01*
X122740000Y-98810000D02*
X122750000Y-98800000D01*
X167440000Y-97160000D02*
X167890000Y-97160000D01*
X157020000Y-97500000D02*
X167100000Y-97500000D01*
X167100000Y-97500000D02*
X167440000Y-97160000D01*
X156600000Y-97500000D02*
X156800000Y-97500000D01*
X156800000Y-97500000D02*
X157020000Y-97500000D01*
X152790000Y-100640000D02*
X152790000Y-100620000D01*
X141870000Y-100640000D02*
X152790000Y-100640000D01*
X154610000Y-98800000D02*
X156200000Y-98800000D01*
X167440000Y-98200000D02*
X167680000Y-97960000D01*
X156800000Y-98200000D02*
X167440000Y-98200000D01*
X156200000Y-98800000D02*
X156800000Y-98200000D01*
X140030000Y-98800000D02*
X141870000Y-100640000D01*
X152790000Y-100620000D02*
X154610000Y-98800000D01*
X157140000Y-98910000D02*
X167830000Y-98910000D01*
X167830000Y-98910000D02*
X167840000Y-98900000D01*
D15*
G36*
X116577837Y-71058589D02*
X116385297Y-71138145D01*
X116208765Y-71314369D01*
X116113109Y-71544735D01*
X116112891Y-71794171D01*
X116208145Y-72024703D01*
X116384369Y-72201235D01*
X116614735Y-72296891D01*
X116864171Y-72297109D01*
X117094703Y-72201855D01*
X117271235Y-72025631D01*
X117351682Y-71831892D01*
X118896575Y-70287000D01*
X130873000Y-70287000D01*
X130873000Y-98173000D01*
X117427000Y-98173000D01*
X117427000Y-93000000D01*
X117416994Y-92950590D01*
X117388553Y-92908965D01*
X117346159Y-92881685D01*
X117300000Y-92873000D01*
X114127000Y-92873000D01*
X114127000Y-79886197D01*
X119527687Y-79886197D01*
X119702426Y-80040528D01*
X120349012Y-80070079D01*
X120497574Y-80040528D01*
X120672313Y-79886197D01*
X120100000Y-79313883D01*
X119527687Y-79886197D01*
X114127000Y-79886197D01*
X114127000Y-78679012D01*
X118459921Y-78679012D01*
X118489472Y-78827574D01*
X118643803Y-79002313D01*
X119216117Y-78430000D01*
X120983883Y-78430000D01*
X121556197Y-79002313D01*
X121710528Y-78827574D01*
X121740079Y-78180988D01*
X121710528Y-78032426D01*
X121556197Y-77857687D01*
X120983883Y-78430000D01*
X119216117Y-78430000D01*
X118643803Y-77857687D01*
X118489472Y-78032426D01*
X118459921Y-78679012D01*
X114127000Y-78679012D01*
X114127000Y-76973803D01*
X119527687Y-76973803D01*
X120100000Y-77546117D01*
X120672313Y-76973803D01*
X120497574Y-76819472D01*
X119850988Y-76789921D01*
X119702426Y-76819472D01*
X119527687Y-76973803D01*
X114127000Y-76973803D01*
X114127000Y-69452000D01*
X118184425Y-69452000D01*
X116577837Y-71058589D01*
X116577837Y-71058589D01*
G37*
X116577837Y-71058589D02*
X116385297Y-71138145D01*
X116208765Y-71314369D01*
X116113109Y-71544735D01*
X116112891Y-71794171D01*
X116208145Y-72024703D01*
X116384369Y-72201235D01*
X116614735Y-72296891D01*
X116864171Y-72297109D01*
X117094703Y-72201855D01*
X117271235Y-72025631D01*
X117351682Y-71831892D01*
X118896575Y-70287000D01*
X130873000Y-70287000D01*
X130873000Y-98173000D01*
X117427000Y-98173000D01*
X117427000Y-93000000D01*
X117416994Y-92950590D01*
X117388553Y-92908965D01*
X117346159Y-92881685D01*
X117300000Y-92873000D01*
X114127000Y-92873000D01*
X114127000Y-79886197D01*
X119527687Y-79886197D01*
X119702426Y-80040528D01*
X120349012Y-80070079D01*
X120497574Y-80040528D01*
X120672313Y-79886197D01*
X120100000Y-79313883D01*
X119527687Y-79886197D01*
X114127000Y-79886197D01*
X114127000Y-78679012D01*
X118459921Y-78679012D01*
X118489472Y-78827574D01*
X118643803Y-79002313D01*
X119216117Y-78430000D01*
X120983883Y-78430000D01*
X121556197Y-79002313D01*
X121710528Y-78827574D01*
X121740079Y-78180988D01*
X121710528Y-78032426D01*
X121556197Y-77857687D01*
X120983883Y-78430000D01*
X119216117Y-78430000D01*
X118643803Y-77857687D01*
X118489472Y-78032426D01*
X118459921Y-78679012D01*
X114127000Y-78679012D01*
X114127000Y-76973803D01*
X119527687Y-76973803D01*
X120100000Y-77546117D01*
X120672313Y-76973803D01*
X120497574Y-76819472D01*
X119850988Y-76789921D01*
X119702426Y-76819472D01*
X119527687Y-76973803D01*
X114127000Y-76973803D01*
X114127000Y-69452000D01*
X118184425Y-69452000D01*
X116577837Y-71058589D01*
G36*
X145753213Y-71403213D02*
X145634638Y-71580672D01*
X145593000Y-71790000D01*
X145593000Y-72632335D01*
X145513109Y-72824735D01*
X145512891Y-73074171D01*
X145608145Y-73304703D01*
X145784369Y-73481235D01*
X146014735Y-73576891D01*
X146264171Y-73577109D01*
X146494703Y-73481855D01*
X146671235Y-73305631D01*
X146766891Y-73075265D01*
X146767109Y-72825829D01*
X146687000Y-72631951D01*
X146687000Y-72016574D01*
X147806575Y-70897000D01*
X148173000Y-70897000D01*
X148173000Y-92153000D01*
X147926575Y-92153000D01*
X146237000Y-90463426D01*
X146237000Y-89597665D01*
X146316891Y-89405265D01*
X146317109Y-89155829D01*
X146221855Y-88925297D01*
X146045631Y-88748765D01*
X145815265Y-88653109D01*
X145565829Y-88652891D01*
X145335297Y-88748145D01*
X145158765Y-88924369D01*
X145063109Y-89154735D01*
X145062891Y-89404171D01*
X145143000Y-89598049D01*
X145143000Y-90690000D01*
X145184638Y-90899328D01*
X145303213Y-91076787D01*
X147313212Y-93086787D01*
X147442076Y-93172891D01*
X147490672Y-93205362D01*
X147700000Y-93247000D01*
X148173000Y-93247000D01*
X148173000Y-98173000D01*
X141206574Y-98173000D01*
X140746787Y-97713213D01*
X140569328Y-97594638D01*
X140360000Y-97553000D01*
X137870000Y-97553000D01*
X137660672Y-97594638D01*
X137589592Y-97642132D01*
X137483213Y-97713212D01*
X137023425Y-98173000D01*
X134627000Y-98173000D01*
X134627000Y-93000000D01*
X134616994Y-92950590D01*
X134588553Y-92908965D01*
X134546159Y-92881685D01*
X134500000Y-92873000D01*
X131527000Y-92873000D01*
X131527000Y-86824171D01*
X146372891Y-86824171D01*
X146468145Y-87054703D01*
X146644369Y-87231235D01*
X146874735Y-87326891D01*
X147124171Y-87327109D01*
X147354703Y-87231855D01*
X147531235Y-87055631D01*
X147626891Y-86825265D01*
X147627109Y-86575829D01*
X147531855Y-86345297D01*
X147355631Y-86168765D01*
X147125265Y-86073109D01*
X146875829Y-86072891D01*
X146645297Y-86168145D01*
X146468765Y-86344369D01*
X146373109Y-86574735D01*
X146372891Y-86824171D01*
X131527000Y-86824171D01*
X131527000Y-79886197D01*
X136627687Y-79886197D01*
X136802426Y-80040528D01*
X137449012Y-80070079D01*
X137597574Y-80040528D01*
X137772313Y-79886197D01*
X137200000Y-79313883D01*
X136627687Y-79886197D01*
X131527000Y-79886197D01*
X131527000Y-78679012D01*
X135559921Y-78679012D01*
X135589472Y-78827574D01*
X135743803Y-79002313D01*
X136316117Y-78430000D01*
X138083883Y-78430000D01*
X138656197Y-79002313D01*
X138810528Y-78827574D01*
X138840079Y-78180988D01*
X138810528Y-78032426D01*
X138656197Y-77857687D01*
X138083883Y-78430000D01*
X136316117Y-78430000D01*
X135743803Y-77857687D01*
X135589472Y-78032426D01*
X135559921Y-78679012D01*
X131527000Y-78679012D01*
X131527000Y-76973803D01*
X136627687Y-76973803D01*
X137200000Y-77546117D01*
X137772313Y-76973803D01*
X137597574Y-76819472D01*
X136950988Y-76789921D01*
X136802426Y-76819472D01*
X136627687Y-76973803D01*
X131527000Y-76973803D01*
X131527000Y-70287000D01*
X146869425Y-70287000D01*
X145753213Y-71403213D01*
X145753213Y-71403213D01*
G37*
X145753213Y-71403213D02*
X145634638Y-71580672D01*
X145593000Y-71790000D01*
X145593000Y-72632335D01*
X145513109Y-72824735D01*
X145512891Y-73074171D01*
X145608145Y-73304703D01*
X145784369Y-73481235D01*
X146014735Y-73576891D01*
X146264171Y-73577109D01*
X146494703Y-73481855D01*
X146671235Y-73305631D01*
X146766891Y-73075265D01*
X146767109Y-72825829D01*
X146687000Y-72631951D01*
X146687000Y-72016574D01*
X147806575Y-70897000D01*
X148173000Y-70897000D01*
X148173000Y-92153000D01*
X147926575Y-92153000D01*
X146237000Y-90463426D01*
X146237000Y-89597665D01*
X146316891Y-89405265D01*
X146317109Y-89155829D01*
X146221855Y-88925297D01*
X146045631Y-88748765D01*
X145815265Y-88653109D01*
X145565829Y-88652891D01*
X145335297Y-88748145D01*
X145158765Y-88924369D01*
X145063109Y-89154735D01*
X145062891Y-89404171D01*
X145143000Y-89598049D01*
X145143000Y-90690000D01*
X145184638Y-90899328D01*
X145303213Y-91076787D01*
X147313212Y-93086787D01*
X147442076Y-93172891D01*
X147490672Y-93205362D01*
X147700000Y-93247000D01*
X148173000Y-93247000D01*
X148173000Y-98173000D01*
X141206574Y-98173000D01*
X140746787Y-97713213D01*
X140569328Y-97594638D01*
X140360000Y-97553000D01*
X137870000Y-97553000D01*
X137660672Y-97594638D01*
X137589592Y-97642132D01*
X137483213Y-97713212D01*
X137023425Y-98173000D01*
X134627000Y-98173000D01*
X134627000Y-93000000D01*
X134616994Y-92950590D01*
X134588553Y-92908965D01*
X134546159Y-92881685D01*
X134500000Y-92873000D01*
X131527000Y-92873000D01*
X131527000Y-86824171D01*
X146372891Y-86824171D01*
X146468145Y-87054703D01*
X146644369Y-87231235D01*
X146874735Y-87326891D01*
X147124171Y-87327109D01*
X147354703Y-87231855D01*
X147531235Y-87055631D01*
X147626891Y-86825265D01*
X147627109Y-86575829D01*
X147531855Y-86345297D01*
X147355631Y-86168765D01*
X147125265Y-86073109D01*
X146875829Y-86072891D01*
X146645297Y-86168145D01*
X146468765Y-86344369D01*
X146373109Y-86574735D01*
X146372891Y-86824171D01*
X131527000Y-86824171D01*
X131527000Y-79886197D01*
X136627687Y-79886197D01*
X136802426Y-80040528D01*
X137449012Y-80070079D01*
X137597574Y-80040528D01*
X137772313Y-79886197D01*
X137200000Y-79313883D01*
X136627687Y-79886197D01*
X131527000Y-79886197D01*
X131527000Y-78679012D01*
X135559921Y-78679012D01*
X135589472Y-78827574D01*
X135743803Y-79002313D01*
X136316117Y-78430000D01*
X138083883Y-78430000D01*
X138656197Y-79002313D01*
X138810528Y-78827574D01*
X138840079Y-78180988D01*
X138810528Y-78032426D01*
X138656197Y-77857687D01*
X138083883Y-78430000D01*
X136316117Y-78430000D01*
X135743803Y-77857687D01*
X135589472Y-78032426D01*
X135559921Y-78679012D01*
X131527000Y-78679012D01*
X131527000Y-76973803D01*
X136627687Y-76973803D01*
X137200000Y-77546117D01*
X137772313Y-76973803D01*
X137597574Y-76819472D01*
X136950988Y-76789921D01*
X136802426Y-76819472D01*
X136627687Y-76973803D01*
X131527000Y-76973803D01*
X131527000Y-70287000D01*
X146869425Y-70287000D01*
X145753213Y-71403213D01*
G36*
X151633213Y-71393213D02*
X151514638Y-71570672D01*
X151473000Y-71780000D01*
X151473000Y-73302335D01*
X151393109Y-73494735D01*
X151392891Y-73744171D01*
X151488145Y-73974703D01*
X151664369Y-74151235D01*
X151894735Y-74246891D01*
X152144171Y-74247109D01*
X152374703Y-74151855D01*
X152551235Y-73975631D01*
X152646891Y-73745265D01*
X152647109Y-73495829D01*
X152567000Y-73301951D01*
X152567000Y-72006574D01*
X153056574Y-71517000D01*
X163243426Y-71517000D01*
X165073000Y-73346575D01*
X165073000Y-95976000D01*
X153349575Y-95976000D01*
X152847000Y-95473426D01*
X152847000Y-93400000D01*
X152805362Y-93190672D01*
X152735948Y-93086787D01*
X152686787Y-93013212D01*
X151986787Y-92313213D01*
X151809328Y-92194638D01*
X151600000Y-92153000D01*
X148727000Y-92153000D01*
X148727000Y-79886197D01*
X153827687Y-79886197D01*
X154002426Y-80040528D01*
X154649012Y-80070079D01*
X154797574Y-80040528D01*
X154972313Y-79886197D01*
X154400000Y-79313883D01*
X153827687Y-79886197D01*
X148727000Y-79886197D01*
X148727000Y-78679012D01*
X152759921Y-78679012D01*
X152789472Y-78827574D01*
X152943803Y-79002313D01*
X153516117Y-78430000D01*
X155283883Y-78430000D01*
X155856197Y-79002313D01*
X156010528Y-78827574D01*
X156040079Y-78180988D01*
X156010528Y-78032426D01*
X155856197Y-77857687D01*
X155283883Y-78430000D01*
X153516117Y-78430000D01*
X152943803Y-77857687D01*
X152789472Y-78032426D01*
X152759921Y-78679012D01*
X148727000Y-78679012D01*
X148727000Y-76973803D01*
X153827687Y-76973803D01*
X154400000Y-77546117D01*
X154972313Y-76973803D01*
X154797574Y-76819472D01*
X154150988Y-76789921D01*
X154002426Y-76819472D01*
X153827687Y-76973803D01*
X148727000Y-76973803D01*
X148727000Y-72524171D01*
X149072891Y-72524171D01*
X149168145Y-72754703D01*
X149344369Y-72931235D01*
X149574735Y-73026891D01*
X149824171Y-73027109D01*
X150054703Y-72931855D01*
X150231235Y-72755631D01*
X150326891Y-72525265D01*
X150327109Y-72275829D01*
X150231855Y-72045297D01*
X150055631Y-71868765D01*
X149825265Y-71773109D01*
X149575829Y-71772891D01*
X149345297Y-71868145D01*
X149168765Y-72044369D01*
X149073109Y-72274735D01*
X149072891Y-72524171D01*
X148727000Y-72524171D01*
X148727000Y-70897000D01*
X152129426Y-70897000D01*
X151633213Y-71393213D01*
X151633213Y-71393213D01*
G37*
X151633213Y-71393213D02*
X151514638Y-71570672D01*
X151473000Y-71780000D01*
X151473000Y-73302335D01*
X151393109Y-73494735D01*
X151392891Y-73744171D01*
X151488145Y-73974703D01*
X151664369Y-74151235D01*
X151894735Y-74246891D01*
X152144171Y-74247109D01*
X152374703Y-74151855D01*
X152551235Y-73975631D01*
X152646891Y-73745265D01*
X152647109Y-73495829D01*
X152567000Y-73301951D01*
X152567000Y-72006574D01*
X153056574Y-71517000D01*
X163243426Y-71517000D01*
X165073000Y-73346575D01*
X165073000Y-95976000D01*
X153349575Y-95976000D01*
X152847000Y-95473426D01*
X152847000Y-93400000D01*
X152805362Y-93190672D01*
X152735948Y-93086787D01*
X152686787Y-93013212D01*
X151986787Y-92313213D01*
X151809328Y-92194638D01*
X151600000Y-92153000D01*
X148727000Y-92153000D01*
X148727000Y-79886197D01*
X153827687Y-79886197D01*
X154002426Y-80040528D01*
X154649012Y-80070079D01*
X154797574Y-80040528D01*
X154972313Y-79886197D01*
X154400000Y-79313883D01*
X153827687Y-79886197D01*
X148727000Y-79886197D01*
X148727000Y-78679012D01*
X152759921Y-78679012D01*
X152789472Y-78827574D01*
X152943803Y-79002313D01*
X153516117Y-78430000D01*
X155283883Y-78430000D01*
X155856197Y-79002313D01*
X156010528Y-78827574D01*
X156040079Y-78180988D01*
X156010528Y-78032426D01*
X155856197Y-77857687D01*
X155283883Y-78430000D01*
X153516117Y-78430000D01*
X152943803Y-77857687D01*
X152789472Y-78032426D01*
X152759921Y-78679012D01*
X148727000Y-78679012D01*
X148727000Y-76973803D01*
X153827687Y-76973803D01*
X154400000Y-77546117D01*
X154972313Y-76973803D01*
X154797574Y-76819472D01*
X154150988Y-76789921D01*
X154002426Y-76819472D01*
X153827687Y-76973803D01*
X148727000Y-76973803D01*
X148727000Y-72524171D01*
X149072891Y-72524171D01*
X149168145Y-72754703D01*
X149344369Y-72931235D01*
X149574735Y-73026891D01*
X149824171Y-73027109D01*
X150054703Y-72931855D01*
X150231235Y-72755631D01*
X150326891Y-72525265D01*
X150327109Y-72275829D01*
X150231855Y-72045297D01*
X150055631Y-71868765D01*
X149825265Y-71773109D01*
X149575829Y-71772891D01*
X149345297Y-71868145D01*
X149168765Y-72044369D01*
X149073109Y-72274735D01*
X149072891Y-72524171D01*
X148727000Y-72524171D01*
X148727000Y-70897000D01*
X152129426Y-70897000D01*
X151633213Y-71393213D01*
G36*
X122590000Y-103234001D02*
X122590005Y-103234000D01*
X166673000Y-103234000D01*
X166673000Y-104344236D01*
X166529616Y-104487620D01*
X166420363Y-104651129D01*
X166420363Y-104651130D01*
X166381998Y-104844002D01*
X166381998Y-108573000D01*
X122527000Y-108573000D01*
X122527000Y-103221469D01*
X122590000Y-103234001D01*
X122590000Y-103234001D01*
G37*
X122590000Y-103234001D02*
X122590005Y-103234000D01*
X166673000Y-103234000D01*
X166673000Y-104344236D01*
X166529616Y-104487620D01*
X166420363Y-104651129D01*
X166420363Y-104651130D01*
X166381998Y-104844002D01*
X166381998Y-108573000D01*
X122527000Y-108573000D01*
X122527000Y-103221469D01*
X122590000Y-103234001D01*
G36*
X113573000Y-100100000D02*
X113583006Y-100149410D01*
X113611447Y-100191035D01*
X113653841Y-100218315D01*
X113700000Y-100227000D01*
X120166357Y-100227000D01*
X120038765Y-100354369D01*
X119943109Y-100584735D01*
X119942891Y-100834171D01*
X120038145Y-101064703D01*
X120214369Y-101241235D01*
X120444735Y-101336891D01*
X120484161Y-101336925D01*
X121973000Y-102825764D01*
X121973000Y-108573000D01*
X108627000Y-108573000D01*
X108627000Y-102834171D01*
X109122891Y-102834171D01*
X109218145Y-103064703D01*
X109394369Y-103241235D01*
X109624735Y-103336891D01*
X109874171Y-103337109D01*
X110104703Y-103241855D01*
X110281235Y-103065631D01*
X110376891Y-102835265D01*
X110377109Y-102585829D01*
X110281855Y-102355297D01*
X110105631Y-102178765D01*
X109875265Y-102083109D01*
X109625829Y-102082891D01*
X109395297Y-102178145D01*
X109218765Y-102354369D01*
X109123109Y-102584735D01*
X109122891Y-102834171D01*
X108627000Y-102834171D01*
X108627000Y-88827000D01*
X113573000Y-88827000D01*
X113573000Y-100100000D01*
X113573000Y-100100000D01*
G37*
X113573000Y-100100000D02*
X113583006Y-100149410D01*
X113611447Y-100191035D01*
X113653841Y-100218315D01*
X113700000Y-100227000D01*
X120166357Y-100227000D01*
X120038765Y-100354369D01*
X119943109Y-100584735D01*
X119942891Y-100834171D01*
X120038145Y-101064703D01*
X120214369Y-101241235D01*
X120444735Y-101336891D01*
X120484161Y-101336925D01*
X121973000Y-102825764D01*
X121973000Y-108573000D01*
X108627000Y-108573000D01*
X108627000Y-102834171D01*
X109122891Y-102834171D01*
X109218145Y-103064703D01*
X109394369Y-103241235D01*
X109624735Y-103336891D01*
X109874171Y-103337109D01*
X110104703Y-103241855D01*
X110281235Y-103065631D01*
X110376891Y-102835265D01*
X110377109Y-102585829D01*
X110281855Y-102355297D01*
X110105631Y-102178765D01*
X109875265Y-102083109D01*
X109625829Y-102082891D01*
X109395297Y-102178145D01*
X109218765Y-102354369D01*
X109123109Y-102584735D01*
X109122891Y-102834171D01*
X108627000Y-102834171D01*
X108627000Y-88827000D01*
X113573000Y-88827000D01*
X113573000Y-100100000D01*
G36*
X113573000Y-88273000D02*
X108100000Y-88273000D01*
X108050590Y-88283006D01*
X108008965Y-88311447D01*
X107981685Y-88353841D01*
X107973000Y-88400000D01*
X107973000Y-109000000D01*
X107983006Y-109049410D01*
X108011447Y-109091035D01*
X108053841Y-109118315D01*
X108100000Y-109127000D01*
X166381998Y-109127000D01*
X166381998Y-112775238D01*
X165241236Y-113916000D01*
X158910000Y-113916000D01*
X158717127Y-113954365D01*
X158553618Y-114063618D01*
X155361236Y-117256000D01*
X150372605Y-117256000D01*
X150426891Y-117125265D01*
X150427109Y-116875829D01*
X150331855Y-116645297D01*
X150186713Y-116499901D01*
X150331235Y-116355631D01*
X150426891Y-116125265D01*
X150427109Y-115875829D01*
X150331855Y-115645297D01*
X150155631Y-115468765D01*
X149925265Y-115373109D01*
X149675829Y-115372891D01*
X149445297Y-115468145D01*
X149299901Y-115613287D01*
X149155631Y-115468765D01*
X148925265Y-115373109D01*
X148675829Y-115372891D01*
X148445297Y-115468145D01*
X148299901Y-115613287D01*
X148155631Y-115468765D01*
X147925265Y-115373109D01*
X147675829Y-115372891D01*
X147445297Y-115468145D01*
X147299901Y-115613287D01*
X147155631Y-115468765D01*
X146925265Y-115373109D01*
X146675829Y-115372891D01*
X146445297Y-115468145D01*
X146268765Y-115644369D01*
X146173109Y-115874735D01*
X146172891Y-116124171D01*
X146268145Y-116354703D01*
X146413287Y-116500099D01*
X146268765Y-116644369D01*
X146173109Y-116874735D01*
X146172891Y-117124171D01*
X146227362Y-117256000D01*
X139572605Y-117256000D01*
X139626891Y-117125265D01*
X139627109Y-116875829D01*
X139531855Y-116645297D01*
X139386713Y-116499901D01*
X139531235Y-116355631D01*
X139626891Y-116125265D01*
X139627109Y-115875829D01*
X139531855Y-115645297D01*
X139355631Y-115468765D01*
X139125265Y-115373109D01*
X138875829Y-115372891D01*
X138645297Y-115468145D01*
X138499901Y-115613287D01*
X138355631Y-115468765D01*
X138125265Y-115373109D01*
X137875829Y-115372891D01*
X137645297Y-115468145D01*
X137499901Y-115613287D01*
X137355631Y-115468765D01*
X137125265Y-115373109D01*
X136875829Y-115372891D01*
X136645297Y-115468145D01*
X136499901Y-115613287D01*
X136355631Y-115468765D01*
X136125265Y-115373109D01*
X135875829Y-115372891D01*
X135645297Y-115468145D01*
X135468765Y-115644369D01*
X135373109Y-115874735D01*
X135372891Y-116124171D01*
X135468145Y-116354703D01*
X135613287Y-116500099D01*
X135468765Y-116644369D01*
X135373109Y-116874735D01*
X135372891Y-117124171D01*
X135427362Y-117256000D01*
X134872818Y-117256000D01*
X134845631Y-117228765D01*
X134615265Y-117133109D01*
X134365829Y-117132891D01*
X134135297Y-117228145D01*
X133958765Y-117404369D01*
X133863109Y-117634735D01*
X133862891Y-117884171D01*
X133958145Y-118114703D01*
X134134369Y-118291235D01*
X134364735Y-118386891D01*
X134614171Y-118387109D01*
X134844703Y-118291855D01*
X134872607Y-118264000D01*
X135460614Y-118264000D01*
X135373109Y-118474735D01*
X135372891Y-118724171D01*
X135397199Y-118783000D01*
X121698753Y-118783000D01*
X121641855Y-118645297D01*
X121465631Y-118468765D01*
X121235265Y-118373109D01*
X120985829Y-118372891D01*
X120755297Y-118468145D01*
X120578765Y-118644369D01*
X120483109Y-118874735D01*
X120482891Y-119124171D01*
X120578145Y-119354703D01*
X120754369Y-119531235D01*
X120948107Y-119611682D01*
X121053212Y-119716787D01*
X121230672Y-119835362D01*
X121440000Y-119877000D01*
X153070000Y-119877000D01*
X153279328Y-119835362D01*
X153456787Y-119716787D01*
X154042163Y-119131411D01*
X154234703Y-119051855D01*
X154411235Y-118875631D01*
X154506891Y-118645265D01*
X154507109Y-118395829D01*
X154452638Y-118264000D01*
X155570000Y-118264000D01*
X155762873Y-118225635D01*
X155926382Y-118116382D01*
X156238593Y-117804171D01*
X171002891Y-117804171D01*
X171098145Y-118034703D01*
X171274369Y-118211235D01*
X171504735Y-118306891D01*
X171754171Y-118307109D01*
X171984703Y-118211855D01*
X172001459Y-118195128D01*
X185073132Y-118195128D01*
X185221255Y-118939789D01*
X185472403Y-119292989D01*
X186765392Y-118000000D01*
X189234608Y-118000000D01*
X190527597Y-119292989D01*
X190778745Y-118939789D01*
X190926868Y-117804872D01*
X190778745Y-117060211D01*
X190527597Y-116707011D01*
X189234608Y-118000000D01*
X186765392Y-118000000D01*
X185472403Y-116707011D01*
X185221255Y-117060211D01*
X185073132Y-118195128D01*
X172001459Y-118195128D01*
X172161235Y-118035631D01*
X172256891Y-117805265D01*
X172257109Y-117555829D01*
X172207000Y-117434556D01*
X172207000Y-115472403D01*
X186707011Y-115472403D01*
X188000000Y-116765392D01*
X189292989Y-115472403D01*
X188939789Y-115221255D01*
X187804872Y-115073132D01*
X187060211Y-115221255D01*
X186707011Y-115472403D01*
X172207000Y-115472403D01*
X172207000Y-113387665D01*
X172286891Y-113195265D01*
X172287109Y-112945829D01*
X172191855Y-112715297D01*
X172015631Y-112538765D01*
X171785265Y-112443109D01*
X171535829Y-112442891D01*
X171305297Y-112538145D01*
X171128765Y-112714369D01*
X171033109Y-112944735D01*
X171032891Y-113194171D01*
X171113000Y-113388049D01*
X171113000Y-117310159D01*
X171098765Y-117324369D01*
X171003109Y-117554735D01*
X171002891Y-117804171D01*
X156238593Y-117804171D01*
X157457187Y-116585577D01*
X157498145Y-116684703D01*
X157674369Y-116861235D01*
X157904735Y-116956891D01*
X158154171Y-116957109D01*
X158384703Y-116861855D01*
X158561235Y-116685631D01*
X158656891Y-116455265D01*
X158656925Y-116415839D01*
X159638764Y-115434000D01*
X165660000Y-115434000D01*
X165852873Y-115395635D01*
X166016382Y-115286382D01*
X167433000Y-113869763D01*
X167433000Y-114923425D01*
X167037837Y-115318589D01*
X166845297Y-115398145D01*
X166668765Y-115574369D01*
X166573109Y-115804735D01*
X166572891Y-116054171D01*
X166668145Y-116284703D01*
X166844369Y-116461235D01*
X167074735Y-116556891D01*
X167324171Y-116557109D01*
X167554703Y-116461855D01*
X167731235Y-116285631D01*
X167811682Y-116091892D01*
X168366788Y-115536787D01*
X168475067Y-115374735D01*
X168485362Y-115359328D01*
X168527000Y-115150000D01*
X168527000Y-106936574D01*
X168746575Y-106717000D01*
X172428778Y-106717000D01*
X172413109Y-106754735D01*
X172412891Y-107004171D01*
X172508145Y-107234703D01*
X172684369Y-107411235D01*
X172878108Y-107491682D01*
X174513212Y-109126787D01*
X174690672Y-109245362D01*
X174900000Y-109287000D01*
X179782335Y-109287000D01*
X179974735Y-109366891D01*
X180224171Y-109367109D01*
X180454703Y-109271855D01*
X180631235Y-109095631D01*
X180726891Y-108865265D01*
X180727109Y-108615829D01*
X180631855Y-108385297D01*
X180455631Y-108208765D01*
X180225265Y-108113109D01*
X179975829Y-108112891D01*
X179781951Y-108193000D01*
X175126575Y-108193000D01*
X174900541Y-107966966D01*
X175064171Y-107967109D01*
X175294703Y-107871855D01*
X175471235Y-107695631D01*
X175566891Y-107465265D01*
X175567109Y-107215829D01*
X175471855Y-106985297D01*
X175295631Y-106808765D01*
X175101893Y-106728318D01*
X174156787Y-105783213D01*
X173979328Y-105664638D01*
X173770000Y-105623000D01*
X172180574Y-105623000D01*
X174786788Y-103016787D01*
X174786790Y-103016784D01*
X175956788Y-101846787D01*
X176075362Y-101669328D01*
X176117000Y-101460000D01*
X176117000Y-95177730D01*
X176128145Y-95204703D01*
X176304369Y-95381235D01*
X176534735Y-95476891D01*
X176784171Y-95477109D01*
X176856000Y-95447430D01*
X176856000Y-99170000D01*
X176894365Y-99362873D01*
X177003618Y-99526382D01*
X177022925Y-99545689D01*
X177022891Y-99584171D01*
X177118145Y-99814703D01*
X177294369Y-99991235D01*
X177454999Y-100057934D01*
X177423109Y-100134735D01*
X177422891Y-100384171D01*
X177518145Y-100614703D01*
X177694369Y-100791235D01*
X177924735Y-100886891D01*
X178174171Y-100887109D01*
X178404703Y-100791855D01*
X178581235Y-100615631D01*
X178676891Y-100385265D01*
X178677109Y-100135829D01*
X178659897Y-100094171D01*
X186902891Y-100094171D01*
X186998145Y-100324703D01*
X187174369Y-100501235D01*
X187404735Y-100596891D01*
X187654171Y-100597109D01*
X187884703Y-100501855D01*
X188061235Y-100325631D01*
X188156891Y-100095265D01*
X188157109Y-99845829D01*
X188061855Y-99615297D01*
X187885631Y-99438765D01*
X187655265Y-99343109D01*
X187405829Y-99342891D01*
X187175297Y-99438145D01*
X186998765Y-99614369D01*
X186903109Y-99844735D01*
X186902891Y-100094171D01*
X178659897Y-100094171D01*
X178581855Y-99905297D01*
X178405631Y-99728765D01*
X178245001Y-99662066D01*
X178276891Y-99585265D01*
X178277064Y-99387103D01*
X178284171Y-99387109D01*
X178514703Y-99291855D01*
X178691235Y-99115631D01*
X178786891Y-98885265D01*
X178787109Y-98635829D01*
X178691855Y-98405297D01*
X178664000Y-98377393D01*
X178664000Y-96674171D01*
X182352891Y-96674171D01*
X182448145Y-96904703D01*
X182624369Y-97081235D01*
X182854735Y-97176891D01*
X183104171Y-97177109D01*
X183334703Y-97081855D01*
X183511235Y-96905631D01*
X183606891Y-96675265D01*
X183606925Y-96635839D01*
X184786382Y-95456382D01*
X184895635Y-95292872D01*
X184934000Y-95100000D01*
X184934000Y-87522818D01*
X184961235Y-87495631D01*
X185056891Y-87265265D01*
X185057109Y-87015829D01*
X184961855Y-86785297D01*
X184785631Y-86608765D01*
X184555265Y-86513109D01*
X184305829Y-86512891D01*
X184075297Y-86608145D01*
X183898765Y-86784369D01*
X183803109Y-87014735D01*
X183802891Y-87264171D01*
X183898145Y-87494703D01*
X183926000Y-87522607D01*
X183926000Y-94891236D01*
X182894311Y-95922925D01*
X182855829Y-95922891D01*
X182625297Y-96018145D01*
X182448765Y-96194369D01*
X182353109Y-96424735D01*
X182352891Y-96674171D01*
X178664000Y-96674171D01*
X178664000Y-95404171D01*
X180912891Y-95404171D01*
X181008145Y-95634703D01*
X181184369Y-95811235D01*
X181414735Y-95906891D01*
X181664171Y-95907109D01*
X181894703Y-95811855D01*
X182071235Y-95635631D01*
X182166891Y-95405265D01*
X182167109Y-95155829D01*
X182071855Y-94925297D01*
X181895631Y-94748765D01*
X181665265Y-94653109D01*
X181415829Y-94652891D01*
X181185297Y-94748145D01*
X181008765Y-94924369D01*
X180913109Y-95154735D01*
X180912891Y-95404171D01*
X178664000Y-95404171D01*
X178664000Y-93504171D01*
X180802891Y-93504171D01*
X180898145Y-93734703D01*
X181074369Y-93911235D01*
X181304735Y-94006891D01*
X181554171Y-94007109D01*
X181784703Y-93911855D01*
X181961235Y-93735631D01*
X182056891Y-93505265D01*
X182057109Y-93255829D01*
X181961855Y-93025297D01*
X181785631Y-92848765D01*
X181555265Y-92753109D01*
X181305829Y-92752891D01*
X181075297Y-92848145D01*
X180898765Y-93024369D01*
X180803109Y-93254735D01*
X180802891Y-93504171D01*
X178664000Y-93504171D01*
X178664000Y-81638764D01*
X180628764Y-79674000D01*
X186017251Y-79674000D01*
X186084369Y-79741235D01*
X186314735Y-79836891D01*
X186564171Y-79837109D01*
X186794703Y-79741855D01*
X186971235Y-79565631D01*
X187066891Y-79335265D01*
X187067109Y-79085829D01*
X186971855Y-78855297D01*
X186795631Y-78678765D01*
X186565265Y-78583109D01*
X186315829Y-78582891D01*
X186114690Y-78666000D01*
X180420005Y-78666000D01*
X180420000Y-78665999D01*
X180227128Y-78704365D01*
X180063618Y-78813618D01*
X177803618Y-81073618D01*
X177694365Y-81237127D01*
X177656000Y-81430000D01*
X177656000Y-83964004D01*
X177485265Y-83893109D01*
X177235829Y-83892891D01*
X177005297Y-83988145D01*
X176828765Y-84164369D01*
X176764803Y-84318408D01*
X176745362Y-84220672D01*
X176736992Y-84208145D01*
X176626787Y-84043212D01*
X173136787Y-80553213D01*
X172959328Y-80434638D01*
X172750000Y-80393000D01*
X172257665Y-80393000D01*
X172065265Y-80313109D01*
X171815829Y-80312891D01*
X171585297Y-80408145D01*
X171408765Y-80584369D01*
X171313109Y-80814735D01*
X171312891Y-81064171D01*
X171408145Y-81294703D01*
X171584369Y-81471235D01*
X171814735Y-81566891D01*
X172064171Y-81567109D01*
X172258049Y-81487000D01*
X172523426Y-81487000D01*
X175693000Y-84656575D01*
X175693000Y-84719368D01*
X175485265Y-84633109D01*
X175235829Y-84632891D01*
X175005297Y-84728145D01*
X174828765Y-84904369D01*
X174733109Y-85134735D01*
X174733075Y-85174161D01*
X174277070Y-85630166D01*
X174277109Y-85585829D01*
X174181855Y-85355297D01*
X174005631Y-85178765D01*
X173775265Y-85083109D01*
X173525829Y-85082891D01*
X173295297Y-85178145D01*
X173118765Y-85354369D01*
X173023109Y-85584735D01*
X173023075Y-85624161D01*
X172953618Y-85693618D01*
X172844365Y-85857127D01*
X172814040Y-86009582D01*
X172806000Y-86050000D01*
X172806000Y-95380000D01*
X172844365Y-95572873D01*
X172953618Y-95736382D01*
X173732925Y-96515689D01*
X173732891Y-96554171D01*
X173828145Y-96784703D01*
X173868279Y-96824907D01*
X173838765Y-96854369D01*
X173743109Y-97084735D01*
X173742891Y-97334171D01*
X173838145Y-97564703D01*
X173963287Y-97690064D01*
X173838765Y-97814369D01*
X173743109Y-98044735D01*
X173742891Y-98294171D01*
X173838145Y-98524703D01*
X174004996Y-98691846D01*
X174004996Y-100802240D01*
X171976913Y-102830323D01*
X171977109Y-102605829D01*
X171881855Y-102375297D01*
X171705631Y-102198765D01*
X171683566Y-102189603D01*
X171726891Y-102085265D01*
X171727109Y-101835829D01*
X171664374Y-101684000D01*
X171679193Y-101684000D01*
X171854735Y-101756891D01*
X172104171Y-101757109D01*
X172334703Y-101661855D01*
X172511235Y-101485631D01*
X172606891Y-101255265D01*
X172607109Y-101005829D01*
X172511855Y-100775297D01*
X172335631Y-100598765D01*
X172105265Y-100503109D01*
X171855829Y-100502891D01*
X171625297Y-100598145D01*
X171547306Y-100676000D01*
X170890005Y-100676000D01*
X170890000Y-100675999D01*
X170697128Y-100714365D01*
X170533618Y-100823618D01*
X170145238Y-101211998D01*
X169584787Y-101211998D01*
X169631235Y-101165631D01*
X169726891Y-100935265D01*
X169727109Y-100685829D01*
X169631855Y-100455297D01*
X169541713Y-100364997D01*
X169631235Y-100275631D01*
X169726891Y-100045265D01*
X169727109Y-99795829D01*
X169631855Y-99565297D01*
X169455631Y-99388765D01*
X169225265Y-99293109D01*
X169185838Y-99293075D01*
X169126382Y-99233618D01*
X168962873Y-99124365D01*
X168770000Y-99086000D01*
X168759945Y-99088000D01*
X168440841Y-99088000D01*
X168466891Y-99025265D01*
X168467109Y-98775829D01*
X168371855Y-98545297D01*
X168195631Y-98368765D01*
X168169060Y-98357732D01*
X168211235Y-98315631D01*
X168306891Y-98085265D01*
X168307109Y-97835829D01*
X168246768Y-97689793D01*
X168421235Y-97515631D01*
X168516891Y-97285265D01*
X168517109Y-97035829D01*
X168490704Y-96971925D01*
X168622873Y-96945635D01*
X168786382Y-96836382D01*
X169156382Y-96466382D01*
X169265635Y-96302873D01*
X169304000Y-96110000D01*
X169304000Y-91050000D01*
X169287512Y-90967109D01*
X169265635Y-90857127D01*
X169207053Y-90769453D01*
X169207109Y-90705829D01*
X169111855Y-90475297D01*
X168935631Y-90298765D01*
X168705265Y-90203109D01*
X168455829Y-90202891D01*
X168225297Y-90298145D01*
X168048765Y-90474369D01*
X168004513Y-90580939D01*
X167477000Y-90053426D01*
X167477000Y-87843818D01*
X167504369Y-87871235D01*
X167734735Y-87966891D01*
X167984171Y-87967109D01*
X168214703Y-87871855D01*
X168391235Y-87695631D01*
X168486891Y-87465265D01*
X168487109Y-87215829D01*
X168391855Y-86985297D01*
X168215631Y-86808765D01*
X167985265Y-86713109D01*
X167735829Y-86712891D01*
X167505297Y-86808145D01*
X167477000Y-86836393D01*
X167477000Y-83596308D01*
X167574735Y-83636891D01*
X167824171Y-83637109D01*
X168054703Y-83541855D01*
X168231235Y-83365631D01*
X168326891Y-83135265D01*
X168327109Y-82885829D01*
X168247000Y-82691951D01*
X168247000Y-75527597D01*
X186707011Y-75527597D01*
X187060211Y-75778745D01*
X188195128Y-75926868D01*
X188939789Y-75778745D01*
X189292989Y-75527597D01*
X188000000Y-74234608D01*
X186707011Y-75527597D01*
X168247000Y-75527597D01*
X168247000Y-73440000D01*
X168205362Y-73230672D01*
X168181613Y-73195128D01*
X185073132Y-73195128D01*
X185221255Y-73939789D01*
X185472403Y-74292989D01*
X186765392Y-73000000D01*
X189234608Y-73000000D01*
X190527597Y-74292989D01*
X190778745Y-73939789D01*
X190926868Y-72804872D01*
X190778745Y-72060211D01*
X190527597Y-71707011D01*
X189234608Y-73000000D01*
X186765392Y-73000000D01*
X185472403Y-71707011D01*
X185221255Y-72060211D01*
X185073132Y-73195128D01*
X168181613Y-73195128D01*
X168129810Y-73117601D01*
X168086787Y-73053212D01*
X165627000Y-70593426D01*
X165627000Y-70472403D01*
X186707011Y-70472403D01*
X188000000Y-71765392D01*
X189292989Y-70472403D01*
X188939789Y-70221255D01*
X187804872Y-70073132D01*
X187060211Y-70221255D01*
X186707011Y-70472403D01*
X165627000Y-70472403D01*
X165627000Y-69452000D01*
X191548000Y-69452000D01*
X191548000Y-121548000D01*
X96452000Y-121548000D01*
X96452000Y-120527597D01*
X98707011Y-120527597D01*
X99060211Y-120778745D01*
X100195128Y-120926868D01*
X100939789Y-120778745D01*
X101292989Y-120527597D01*
X186707011Y-120527597D01*
X187060211Y-120778745D01*
X188195128Y-120926868D01*
X188939789Y-120778745D01*
X189292989Y-120527597D01*
X188000000Y-119234608D01*
X186707011Y-120527597D01*
X101292989Y-120527597D01*
X100000000Y-119234608D01*
X98707011Y-120527597D01*
X96452000Y-120527597D01*
X96452000Y-118195128D01*
X97073132Y-118195128D01*
X97221255Y-118939789D01*
X97472403Y-119292989D01*
X98765392Y-118000000D01*
X101234608Y-118000000D01*
X102527597Y-119292989D01*
X102778745Y-118939789D01*
X102890415Y-118084171D01*
X111332891Y-118084171D01*
X111428145Y-118314703D01*
X111604369Y-118491235D01*
X111834735Y-118586891D01*
X112084171Y-118587109D01*
X112314703Y-118491855D01*
X112491235Y-118315631D01*
X112571682Y-118121892D01*
X113873069Y-116820506D01*
X113872891Y-117024171D01*
X113968145Y-117254703D01*
X114144369Y-117431235D01*
X114374735Y-117526891D01*
X114624171Y-117527109D01*
X114854703Y-117431855D01*
X115031235Y-117255631D01*
X115126891Y-117025265D01*
X115127109Y-116775829D01*
X115031855Y-116545297D01*
X114855631Y-116368765D01*
X114625265Y-116273109D01*
X114420645Y-116272930D01*
X114646575Y-116047000D01*
X120122335Y-116047000D01*
X120314735Y-116126891D01*
X120564171Y-116127109D01*
X120794703Y-116031855D01*
X120971235Y-115855631D01*
X121066891Y-115625265D01*
X121067109Y-115375829D01*
X120971855Y-115145297D01*
X120795631Y-114968765D01*
X120565265Y-114873109D01*
X120315829Y-114872891D01*
X120121951Y-114953000D01*
X114420000Y-114953000D01*
X114210672Y-114994638D01*
X114033212Y-115113213D01*
X111797837Y-117348589D01*
X111605297Y-117428145D01*
X111428765Y-117604369D01*
X111333109Y-117834735D01*
X111332891Y-118084171D01*
X102890415Y-118084171D01*
X102926868Y-117804872D01*
X102778745Y-117060211D01*
X102527597Y-116707011D01*
X101234608Y-118000000D01*
X98765392Y-118000000D01*
X97472403Y-116707011D01*
X97221255Y-117060211D01*
X97073132Y-118195128D01*
X96452000Y-118195128D01*
X96452000Y-115472403D01*
X98707011Y-115472403D01*
X100000000Y-116765392D01*
X101292989Y-115472403D01*
X100939789Y-115221255D01*
X99804872Y-115073132D01*
X99060211Y-115221255D01*
X98707011Y-115472403D01*
X96452000Y-115472403D01*
X96452000Y-112386197D01*
X104227687Y-112386197D01*
X104402426Y-112540528D01*
X105049012Y-112570079D01*
X105197574Y-112540528D01*
X105372313Y-112386197D01*
X104800000Y-111813883D01*
X104227687Y-112386197D01*
X96452000Y-112386197D01*
X96452000Y-111179012D01*
X103159921Y-111179012D01*
X103189472Y-111327574D01*
X103343803Y-111502313D01*
X103916117Y-110930000D01*
X105683883Y-110930000D01*
X106256197Y-111502313D01*
X106410528Y-111327574D01*
X106440079Y-110680988D01*
X106410528Y-110532426D01*
X106256197Y-110357687D01*
X105683883Y-110930000D01*
X103916117Y-110930000D01*
X103343803Y-110357687D01*
X103189472Y-110532426D01*
X103159921Y-111179012D01*
X96452000Y-111179012D01*
X96452000Y-109473803D01*
X104227687Y-109473803D01*
X104800000Y-110046117D01*
X105372313Y-109473803D01*
X105197574Y-109319472D01*
X104550988Y-109289921D01*
X104402426Y-109319472D01*
X104227687Y-109473803D01*
X96452000Y-109473803D01*
X96452000Y-103252211D01*
X103172718Y-103252211D01*
X103419892Y-103850418D01*
X103877175Y-104308499D01*
X104474950Y-104556717D01*
X105122211Y-104557282D01*
X105720418Y-104310108D01*
X106178499Y-103852825D01*
X106426717Y-103255050D01*
X106427282Y-102607789D01*
X106180108Y-102009582D01*
X105722825Y-101551501D01*
X105125050Y-101303283D01*
X104477789Y-101302718D01*
X103879582Y-101549892D01*
X103421501Y-102007175D01*
X103173283Y-102604950D01*
X103172718Y-103252211D01*
X96452000Y-103252211D01*
X96452000Y-95252211D01*
X103172718Y-95252211D01*
X103419892Y-95850418D01*
X103877175Y-96308499D01*
X104474950Y-96556717D01*
X105122211Y-96557282D01*
X105720418Y-96310108D01*
X106178499Y-95852825D01*
X106426717Y-95255050D01*
X106427282Y-94607789D01*
X106180108Y-94009582D01*
X105722825Y-93551501D01*
X105125050Y-93303283D01*
X104477789Y-93302718D01*
X103879582Y-93549892D01*
X103421501Y-94007175D01*
X103173283Y-94604950D01*
X103172718Y-95252211D01*
X96452000Y-95252211D01*
X96452000Y-87252211D01*
X103172718Y-87252211D01*
X103419892Y-87850418D01*
X103877175Y-88308499D01*
X104474950Y-88556717D01*
X105122211Y-88557282D01*
X105720418Y-88310108D01*
X105756371Y-88274218D01*
X105673109Y-88474735D01*
X105672891Y-88724171D01*
X105768145Y-88954703D01*
X105944369Y-89131235D01*
X106174735Y-89226891D01*
X106424171Y-89227109D01*
X106572942Y-89165638D01*
X106572891Y-89224171D01*
X106668145Y-89454703D01*
X106813287Y-89600099D01*
X106668765Y-89744369D01*
X106573109Y-89974735D01*
X106572891Y-90224171D01*
X106668145Y-90454703D01*
X106813287Y-90600099D01*
X106668765Y-90744369D01*
X106573109Y-90974735D01*
X106572891Y-91224171D01*
X106668145Y-91454703D01*
X106813287Y-91600099D01*
X106668765Y-91744369D01*
X106573109Y-91974735D01*
X106573057Y-92034477D01*
X106425265Y-91973109D01*
X106175829Y-91972891D01*
X105945297Y-92068145D01*
X105768765Y-92244369D01*
X105673109Y-92474735D01*
X105672891Y-92724171D01*
X105768145Y-92954703D01*
X105944369Y-93131235D01*
X106174735Y-93226891D01*
X106424171Y-93227109D01*
X106572942Y-93165638D01*
X106572891Y-93224171D01*
X106668145Y-93454703D01*
X106813287Y-93600099D01*
X106668765Y-93744369D01*
X106573109Y-93974735D01*
X106572891Y-94224171D01*
X106668145Y-94454703D01*
X106844369Y-94631235D01*
X107074735Y-94726891D01*
X107324171Y-94727109D01*
X107554703Y-94631855D01*
X107731235Y-94455631D01*
X107826891Y-94225265D01*
X107827109Y-93975829D01*
X107731855Y-93745297D01*
X107586713Y-93599901D01*
X107731235Y-93455631D01*
X107826891Y-93225265D01*
X107827109Y-92975829D01*
X107731855Y-92745297D01*
X107586713Y-92599901D01*
X107731235Y-92455631D01*
X107826891Y-92225265D01*
X107827109Y-91975829D01*
X107731855Y-91745297D01*
X107586713Y-91599901D01*
X107731235Y-91455631D01*
X107826891Y-91225265D01*
X107827109Y-90975829D01*
X107731855Y-90745297D01*
X107586713Y-90599901D01*
X107731235Y-90455631D01*
X107826891Y-90225265D01*
X107827109Y-89975829D01*
X107731855Y-89745297D01*
X107586713Y-89599901D01*
X107731235Y-89455631D01*
X107826891Y-89225265D01*
X107827109Y-88975829D01*
X107731855Y-88745297D01*
X107606713Y-88619936D01*
X107731235Y-88495631D01*
X107826891Y-88265265D01*
X107826978Y-88165537D01*
X107974735Y-88226891D01*
X108224171Y-88227109D01*
X108454703Y-88131855D01*
X108631235Y-87955631D01*
X108726891Y-87725265D01*
X108727109Y-87475829D01*
X108631855Y-87245297D01*
X108486713Y-87099901D01*
X108631235Y-86955631D01*
X108726891Y-86725265D01*
X108727109Y-86475829D01*
X108631855Y-86245297D01*
X108486713Y-86099901D01*
X108631235Y-85955631D01*
X108726891Y-85725265D01*
X108727109Y-85475829D01*
X108631855Y-85245297D01*
X108486713Y-85099901D01*
X108631235Y-84955631D01*
X108726891Y-84725265D01*
X108727109Y-84475829D01*
X108631855Y-84245297D01*
X108455631Y-84068765D01*
X108225265Y-83973109D01*
X107975829Y-83972891D01*
X107745297Y-84068145D01*
X107568765Y-84244369D01*
X107473109Y-84474735D01*
X107473057Y-84534477D01*
X107325265Y-84473109D01*
X107075829Y-84472891D01*
X106845297Y-84568145D01*
X106668765Y-84744369D01*
X106573109Y-84974735D01*
X106572891Y-85224171D01*
X106668145Y-85454703D01*
X106833287Y-85620134D01*
X106668765Y-85784369D01*
X106573109Y-86014735D01*
X106572891Y-86264171D01*
X106668145Y-86494703D01*
X106813287Y-86640099D01*
X106668765Y-86784369D01*
X106573109Y-87014735D01*
X106572891Y-87264171D01*
X106668145Y-87494703D01*
X106813287Y-87640099D01*
X106668765Y-87784369D01*
X106573109Y-88014735D01*
X106573092Y-88034492D01*
X106425265Y-87973109D01*
X106175829Y-87972891D01*
X105975167Y-88055803D01*
X106178499Y-87852825D01*
X106426717Y-87255050D01*
X106427282Y-86607789D01*
X106180108Y-86009582D01*
X105722825Y-85551501D01*
X105151780Y-85314382D01*
X105254703Y-85271855D01*
X105431235Y-85095631D01*
X105526891Y-84865265D01*
X105527109Y-84615829D01*
X105431855Y-84385297D01*
X105255631Y-84208765D01*
X105025265Y-84113109D01*
X104775829Y-84112891D01*
X104545297Y-84208145D01*
X104368765Y-84384369D01*
X104273109Y-84614735D01*
X104272891Y-84864171D01*
X104368145Y-85094703D01*
X104544369Y-85271235D01*
X104620489Y-85302843D01*
X104477789Y-85302718D01*
X103879582Y-85549892D01*
X103421501Y-86007175D01*
X103173283Y-86604950D01*
X103172718Y-87252211D01*
X96452000Y-87252211D01*
X96452000Y-84864171D01*
X102472891Y-84864171D01*
X102568145Y-85094703D01*
X102744369Y-85271235D01*
X102974735Y-85366891D01*
X103224171Y-85367109D01*
X103454703Y-85271855D01*
X103631235Y-85095631D01*
X103726891Y-84865265D01*
X103727109Y-84615829D01*
X103631855Y-84385297D01*
X103455631Y-84208765D01*
X103225265Y-84113109D01*
X102975829Y-84112891D01*
X102745297Y-84208145D01*
X102568765Y-84384369D01*
X102473109Y-84614735D01*
X102472891Y-84864171D01*
X96452000Y-84864171D01*
X96452000Y-78752211D01*
X110172718Y-78752211D01*
X110419892Y-79350418D01*
X110877175Y-79808499D01*
X111474950Y-80056717D01*
X112122211Y-80057282D01*
X112720418Y-79810108D01*
X113178499Y-79352825D01*
X113426717Y-78755050D01*
X113427282Y-78107789D01*
X113180108Y-77509582D01*
X112722825Y-77051501D01*
X112125050Y-76803283D01*
X111477789Y-76802718D01*
X110879582Y-77049892D01*
X110421501Y-77507175D01*
X110173283Y-78104950D01*
X110172718Y-78752211D01*
X96452000Y-78752211D01*
X96452000Y-75527597D01*
X98707011Y-75527597D01*
X99060211Y-75778745D01*
X100195128Y-75926868D01*
X100939789Y-75778745D01*
X101292989Y-75527597D01*
X100000000Y-74234608D01*
X98707011Y-75527597D01*
X96452000Y-75527597D01*
X96452000Y-73195128D01*
X97073132Y-73195128D01*
X97221255Y-73939789D01*
X97472403Y-74292989D01*
X98765392Y-73000000D01*
X101234608Y-73000000D01*
X102527597Y-74292989D01*
X102778745Y-73939789D01*
X102926868Y-72804872D01*
X102778745Y-72060211D01*
X102527597Y-71707011D01*
X101234608Y-73000000D01*
X98765392Y-73000000D01*
X97472403Y-71707011D01*
X97221255Y-72060211D01*
X97073132Y-73195128D01*
X96452000Y-73195128D01*
X96452000Y-70472403D01*
X98707011Y-70472403D01*
X100000000Y-71765392D01*
X101292989Y-70472403D01*
X100939789Y-70221255D01*
X99804872Y-70073132D01*
X99060211Y-70221255D01*
X98707011Y-70472403D01*
X96452000Y-70472403D01*
X96452000Y-69452000D01*
X113573000Y-69452000D01*
X113573000Y-88273000D01*
X113573000Y-88273000D01*
G37*
X113573000Y-88273000D02*
X108100000Y-88273000D01*
X108050590Y-88283006D01*
X108008965Y-88311447D01*
X107981685Y-88353841D01*
X107973000Y-88400000D01*
X107973000Y-109000000D01*
X107983006Y-109049410D01*
X108011447Y-109091035D01*
X108053841Y-109118315D01*
X108100000Y-109127000D01*
X166381998Y-109127000D01*
X166381998Y-112775238D01*
X165241236Y-113916000D01*
X158910000Y-113916000D01*
X158717127Y-113954365D01*
X158553618Y-114063618D01*
X155361236Y-117256000D01*
X150372605Y-117256000D01*
X150426891Y-117125265D01*
X150427109Y-116875829D01*
X150331855Y-116645297D01*
X150186713Y-116499901D01*
X150331235Y-116355631D01*
X150426891Y-116125265D01*
X150427109Y-115875829D01*
X150331855Y-115645297D01*
X150155631Y-115468765D01*
X149925265Y-115373109D01*
X149675829Y-115372891D01*
X149445297Y-115468145D01*
X149299901Y-115613287D01*
X149155631Y-115468765D01*
X148925265Y-115373109D01*
X148675829Y-115372891D01*
X148445297Y-115468145D01*
X148299901Y-115613287D01*
X148155631Y-115468765D01*
X147925265Y-115373109D01*
X147675829Y-115372891D01*
X147445297Y-115468145D01*
X147299901Y-115613287D01*
X147155631Y-115468765D01*
X146925265Y-115373109D01*
X146675829Y-115372891D01*
X146445297Y-115468145D01*
X146268765Y-115644369D01*
X146173109Y-115874735D01*
X146172891Y-116124171D01*
X146268145Y-116354703D01*
X146413287Y-116500099D01*
X146268765Y-116644369D01*
X146173109Y-116874735D01*
X146172891Y-117124171D01*
X146227362Y-117256000D01*
X139572605Y-117256000D01*
X139626891Y-117125265D01*
X139627109Y-116875829D01*
X139531855Y-116645297D01*
X139386713Y-116499901D01*
X139531235Y-116355631D01*
X139626891Y-116125265D01*
X139627109Y-115875829D01*
X139531855Y-115645297D01*
X139355631Y-115468765D01*
X139125265Y-115373109D01*
X138875829Y-115372891D01*
X138645297Y-115468145D01*
X138499901Y-115613287D01*
X138355631Y-115468765D01*
X138125265Y-115373109D01*
X137875829Y-115372891D01*
X137645297Y-115468145D01*
X137499901Y-115613287D01*
X137355631Y-115468765D01*
X137125265Y-115373109D01*
X136875829Y-115372891D01*
X136645297Y-115468145D01*
X136499901Y-115613287D01*
X136355631Y-115468765D01*
X136125265Y-115373109D01*
X135875829Y-115372891D01*
X135645297Y-115468145D01*
X135468765Y-115644369D01*
X135373109Y-115874735D01*
X135372891Y-116124171D01*
X135468145Y-116354703D01*
X135613287Y-116500099D01*
X135468765Y-116644369D01*
X135373109Y-116874735D01*
X135372891Y-117124171D01*
X135427362Y-117256000D01*
X134872818Y-117256000D01*
X134845631Y-117228765D01*
X134615265Y-117133109D01*
X134365829Y-117132891D01*
X134135297Y-117228145D01*
X133958765Y-117404369D01*
X133863109Y-117634735D01*
X133862891Y-117884171D01*
X133958145Y-118114703D01*
X134134369Y-118291235D01*
X134364735Y-118386891D01*
X134614171Y-118387109D01*
X134844703Y-118291855D01*
X134872607Y-118264000D01*
X135460614Y-118264000D01*
X135373109Y-118474735D01*
X135372891Y-118724171D01*
X135397199Y-118783000D01*
X121698753Y-118783000D01*
X121641855Y-118645297D01*
X121465631Y-118468765D01*
X121235265Y-118373109D01*
X120985829Y-118372891D01*
X120755297Y-118468145D01*
X120578765Y-118644369D01*
X120483109Y-118874735D01*
X120482891Y-119124171D01*
X120578145Y-119354703D01*
X120754369Y-119531235D01*
X120948107Y-119611682D01*
X121053212Y-119716787D01*
X121230672Y-119835362D01*
X121440000Y-119877000D01*
X153070000Y-119877000D01*
X153279328Y-119835362D01*
X153456787Y-119716787D01*
X154042163Y-119131411D01*
X154234703Y-119051855D01*
X154411235Y-118875631D01*
X154506891Y-118645265D01*
X154507109Y-118395829D01*
X154452638Y-118264000D01*
X155570000Y-118264000D01*
X155762873Y-118225635D01*
X155926382Y-118116382D01*
X156238593Y-117804171D01*
X171002891Y-117804171D01*
X171098145Y-118034703D01*
X171274369Y-118211235D01*
X171504735Y-118306891D01*
X171754171Y-118307109D01*
X171984703Y-118211855D01*
X172001459Y-118195128D01*
X185073132Y-118195128D01*
X185221255Y-118939789D01*
X185472403Y-119292989D01*
X186765392Y-118000000D01*
X189234608Y-118000000D01*
X190527597Y-119292989D01*
X190778745Y-118939789D01*
X190926868Y-117804872D01*
X190778745Y-117060211D01*
X190527597Y-116707011D01*
X189234608Y-118000000D01*
X186765392Y-118000000D01*
X185472403Y-116707011D01*
X185221255Y-117060211D01*
X185073132Y-118195128D01*
X172001459Y-118195128D01*
X172161235Y-118035631D01*
X172256891Y-117805265D01*
X172257109Y-117555829D01*
X172207000Y-117434556D01*
X172207000Y-115472403D01*
X186707011Y-115472403D01*
X188000000Y-116765392D01*
X189292989Y-115472403D01*
X188939789Y-115221255D01*
X187804872Y-115073132D01*
X187060211Y-115221255D01*
X186707011Y-115472403D01*
X172207000Y-115472403D01*
X172207000Y-113387665D01*
X172286891Y-113195265D01*
X172287109Y-112945829D01*
X172191855Y-112715297D01*
X172015631Y-112538765D01*
X171785265Y-112443109D01*
X171535829Y-112442891D01*
X171305297Y-112538145D01*
X171128765Y-112714369D01*
X171033109Y-112944735D01*
X171032891Y-113194171D01*
X171113000Y-113388049D01*
X171113000Y-117310159D01*
X171098765Y-117324369D01*
X171003109Y-117554735D01*
X171002891Y-117804171D01*
X156238593Y-117804171D01*
X157457187Y-116585577D01*
X157498145Y-116684703D01*
X157674369Y-116861235D01*
X157904735Y-116956891D01*
X158154171Y-116957109D01*
X158384703Y-116861855D01*
X158561235Y-116685631D01*
X158656891Y-116455265D01*
X158656925Y-116415839D01*
X159638764Y-115434000D01*
X165660000Y-115434000D01*
X165852873Y-115395635D01*
X166016382Y-115286382D01*
X167433000Y-113869763D01*
X167433000Y-114923425D01*
X167037837Y-115318589D01*
X166845297Y-115398145D01*
X166668765Y-115574369D01*
X166573109Y-115804735D01*
X166572891Y-116054171D01*
X166668145Y-116284703D01*
X166844369Y-116461235D01*
X167074735Y-116556891D01*
X167324171Y-116557109D01*
X167554703Y-116461855D01*
X167731235Y-116285631D01*
X167811682Y-116091892D01*
X168366788Y-115536787D01*
X168475067Y-115374735D01*
X168485362Y-115359328D01*
X168527000Y-115150000D01*
X168527000Y-106936574D01*
X168746575Y-106717000D01*
X172428778Y-106717000D01*
X172413109Y-106754735D01*
X172412891Y-107004171D01*
X172508145Y-107234703D01*
X172684369Y-107411235D01*
X172878108Y-107491682D01*
X174513212Y-109126787D01*
X174690672Y-109245362D01*
X174900000Y-109287000D01*
X179782335Y-109287000D01*
X179974735Y-109366891D01*
X180224171Y-109367109D01*
X180454703Y-109271855D01*
X180631235Y-109095631D01*
X180726891Y-108865265D01*
X180727109Y-108615829D01*
X180631855Y-108385297D01*
X180455631Y-108208765D01*
X180225265Y-108113109D01*
X179975829Y-108112891D01*
X179781951Y-108193000D01*
X175126575Y-108193000D01*
X174900541Y-107966966D01*
X175064171Y-107967109D01*
X175294703Y-107871855D01*
X175471235Y-107695631D01*
X175566891Y-107465265D01*
X175567109Y-107215829D01*
X175471855Y-106985297D01*
X175295631Y-106808765D01*
X175101893Y-106728318D01*
X174156787Y-105783213D01*
X173979328Y-105664638D01*
X173770000Y-105623000D01*
X172180574Y-105623000D01*
X174786788Y-103016787D01*
X174786790Y-103016784D01*
X175956788Y-101846787D01*
X176075362Y-101669328D01*
X176117000Y-101460000D01*
X176117000Y-95177730D01*
X176128145Y-95204703D01*
X176304369Y-95381235D01*
X176534735Y-95476891D01*
X176784171Y-95477109D01*
X176856000Y-95447430D01*
X176856000Y-99170000D01*
X176894365Y-99362873D01*
X177003618Y-99526382D01*
X177022925Y-99545689D01*
X177022891Y-99584171D01*
X177118145Y-99814703D01*
X177294369Y-99991235D01*
X177454999Y-100057934D01*
X177423109Y-100134735D01*
X177422891Y-100384171D01*
X177518145Y-100614703D01*
X177694369Y-100791235D01*
X177924735Y-100886891D01*
X178174171Y-100887109D01*
X178404703Y-100791855D01*
X178581235Y-100615631D01*
X178676891Y-100385265D01*
X178677109Y-100135829D01*
X178659897Y-100094171D01*
X186902891Y-100094171D01*
X186998145Y-100324703D01*
X187174369Y-100501235D01*
X187404735Y-100596891D01*
X187654171Y-100597109D01*
X187884703Y-100501855D01*
X188061235Y-100325631D01*
X188156891Y-100095265D01*
X188157109Y-99845829D01*
X188061855Y-99615297D01*
X187885631Y-99438765D01*
X187655265Y-99343109D01*
X187405829Y-99342891D01*
X187175297Y-99438145D01*
X186998765Y-99614369D01*
X186903109Y-99844735D01*
X186902891Y-100094171D01*
X178659897Y-100094171D01*
X178581855Y-99905297D01*
X178405631Y-99728765D01*
X178245001Y-99662066D01*
X178276891Y-99585265D01*
X178277064Y-99387103D01*
X178284171Y-99387109D01*
X178514703Y-99291855D01*
X178691235Y-99115631D01*
X178786891Y-98885265D01*
X178787109Y-98635829D01*
X178691855Y-98405297D01*
X178664000Y-98377393D01*
X178664000Y-96674171D01*
X182352891Y-96674171D01*
X182448145Y-96904703D01*
X182624369Y-97081235D01*
X182854735Y-97176891D01*
X183104171Y-97177109D01*
X183334703Y-97081855D01*
X183511235Y-96905631D01*
X183606891Y-96675265D01*
X183606925Y-96635839D01*
X184786382Y-95456382D01*
X184895635Y-95292872D01*
X184934000Y-95100000D01*
X184934000Y-87522818D01*
X184961235Y-87495631D01*
X185056891Y-87265265D01*
X185057109Y-87015829D01*
X184961855Y-86785297D01*
X184785631Y-86608765D01*
X184555265Y-86513109D01*
X184305829Y-86512891D01*
X184075297Y-86608145D01*
X183898765Y-86784369D01*
X183803109Y-87014735D01*
X183802891Y-87264171D01*
X183898145Y-87494703D01*
X183926000Y-87522607D01*
X183926000Y-94891236D01*
X182894311Y-95922925D01*
X182855829Y-95922891D01*
X182625297Y-96018145D01*
X182448765Y-96194369D01*
X182353109Y-96424735D01*
X182352891Y-96674171D01*
X178664000Y-96674171D01*
X178664000Y-95404171D01*
X180912891Y-95404171D01*
X181008145Y-95634703D01*
X181184369Y-95811235D01*
X181414735Y-95906891D01*
X181664171Y-95907109D01*
X181894703Y-95811855D01*
X182071235Y-95635631D01*
X182166891Y-95405265D01*
X182167109Y-95155829D01*
X182071855Y-94925297D01*
X181895631Y-94748765D01*
X181665265Y-94653109D01*
X181415829Y-94652891D01*
X181185297Y-94748145D01*
X181008765Y-94924369D01*
X180913109Y-95154735D01*
X180912891Y-95404171D01*
X178664000Y-95404171D01*
X178664000Y-93504171D01*
X180802891Y-93504171D01*
X180898145Y-93734703D01*
X181074369Y-93911235D01*
X181304735Y-94006891D01*
X181554171Y-94007109D01*
X181784703Y-93911855D01*
X181961235Y-93735631D01*
X182056891Y-93505265D01*
X182057109Y-93255829D01*
X181961855Y-93025297D01*
X181785631Y-92848765D01*
X181555265Y-92753109D01*
X181305829Y-92752891D01*
X181075297Y-92848145D01*
X180898765Y-93024369D01*
X180803109Y-93254735D01*
X180802891Y-93504171D01*
X178664000Y-93504171D01*
X178664000Y-81638764D01*
X180628764Y-79674000D01*
X186017251Y-79674000D01*
X186084369Y-79741235D01*
X186314735Y-79836891D01*
X186564171Y-79837109D01*
X186794703Y-79741855D01*
X186971235Y-79565631D01*
X187066891Y-79335265D01*
X187067109Y-79085829D01*
X186971855Y-78855297D01*
X186795631Y-78678765D01*
X186565265Y-78583109D01*
X186315829Y-78582891D01*
X186114690Y-78666000D01*
X180420005Y-78666000D01*
X180420000Y-78665999D01*
X180227128Y-78704365D01*
X180063618Y-78813618D01*
X177803618Y-81073618D01*
X177694365Y-81237127D01*
X177656000Y-81430000D01*
X177656000Y-83964004D01*
X177485265Y-83893109D01*
X177235829Y-83892891D01*
X177005297Y-83988145D01*
X176828765Y-84164369D01*
X176764803Y-84318408D01*
X176745362Y-84220672D01*
X176736992Y-84208145D01*
X176626787Y-84043212D01*
X173136787Y-80553213D01*
X172959328Y-80434638D01*
X172750000Y-80393000D01*
X172257665Y-80393000D01*
X172065265Y-80313109D01*
X171815829Y-80312891D01*
X171585297Y-80408145D01*
X171408765Y-80584369D01*
X171313109Y-80814735D01*
X171312891Y-81064171D01*
X171408145Y-81294703D01*
X171584369Y-81471235D01*
X171814735Y-81566891D01*
X172064171Y-81567109D01*
X172258049Y-81487000D01*
X172523426Y-81487000D01*
X175693000Y-84656575D01*
X175693000Y-84719368D01*
X175485265Y-84633109D01*
X175235829Y-84632891D01*
X175005297Y-84728145D01*
X174828765Y-84904369D01*
X174733109Y-85134735D01*
X174733075Y-85174161D01*
X174277070Y-85630166D01*
X174277109Y-85585829D01*
X174181855Y-85355297D01*
X174005631Y-85178765D01*
X173775265Y-85083109D01*
X173525829Y-85082891D01*
X173295297Y-85178145D01*
X173118765Y-85354369D01*
X173023109Y-85584735D01*
X173023075Y-85624161D01*
X172953618Y-85693618D01*
X172844365Y-85857127D01*
X172814040Y-86009582D01*
X172806000Y-86050000D01*
X172806000Y-95380000D01*
X172844365Y-95572873D01*
X172953618Y-95736382D01*
X173732925Y-96515689D01*
X173732891Y-96554171D01*
X173828145Y-96784703D01*
X173868279Y-96824907D01*
X173838765Y-96854369D01*
X173743109Y-97084735D01*
X173742891Y-97334171D01*
X173838145Y-97564703D01*
X173963287Y-97690064D01*
X173838765Y-97814369D01*
X173743109Y-98044735D01*
X173742891Y-98294171D01*
X173838145Y-98524703D01*
X174004996Y-98691846D01*
X174004996Y-100802240D01*
X171976913Y-102830323D01*
X171977109Y-102605829D01*
X171881855Y-102375297D01*
X171705631Y-102198765D01*
X171683566Y-102189603D01*
X171726891Y-102085265D01*
X171727109Y-101835829D01*
X171664374Y-101684000D01*
X171679193Y-101684000D01*
X171854735Y-101756891D01*
X172104171Y-101757109D01*
X172334703Y-101661855D01*
X172511235Y-101485631D01*
X172606891Y-101255265D01*
X172607109Y-101005829D01*
X172511855Y-100775297D01*
X172335631Y-100598765D01*
X172105265Y-100503109D01*
X171855829Y-100502891D01*
X171625297Y-100598145D01*
X171547306Y-100676000D01*
X170890005Y-100676000D01*
X170890000Y-100675999D01*
X170697128Y-100714365D01*
X170533618Y-100823618D01*
X170145238Y-101211998D01*
X169584787Y-101211998D01*
X169631235Y-101165631D01*
X169726891Y-100935265D01*
X169727109Y-100685829D01*
X169631855Y-100455297D01*
X169541713Y-100364997D01*
X169631235Y-100275631D01*
X169726891Y-100045265D01*
X169727109Y-99795829D01*
X169631855Y-99565297D01*
X169455631Y-99388765D01*
X169225265Y-99293109D01*
X169185838Y-99293075D01*
X169126382Y-99233618D01*
X168962873Y-99124365D01*
X168770000Y-99086000D01*
X168759945Y-99088000D01*
X168440841Y-99088000D01*
X168466891Y-99025265D01*
X168467109Y-98775829D01*
X168371855Y-98545297D01*
X168195631Y-98368765D01*
X168169060Y-98357732D01*
X168211235Y-98315631D01*
X168306891Y-98085265D01*
X168307109Y-97835829D01*
X168246768Y-97689793D01*
X168421235Y-97515631D01*
X168516891Y-97285265D01*
X168517109Y-97035829D01*
X168490704Y-96971925D01*
X168622873Y-96945635D01*
X168786382Y-96836382D01*
X169156382Y-96466382D01*
X169265635Y-96302873D01*
X169304000Y-96110000D01*
X169304000Y-91050000D01*
X169287512Y-90967109D01*
X169265635Y-90857127D01*
X169207053Y-90769453D01*
X169207109Y-90705829D01*
X169111855Y-90475297D01*
X168935631Y-90298765D01*
X168705265Y-90203109D01*
X168455829Y-90202891D01*
X168225297Y-90298145D01*
X168048765Y-90474369D01*
X168004513Y-90580939D01*
X167477000Y-90053426D01*
X167477000Y-87843818D01*
X167504369Y-87871235D01*
X167734735Y-87966891D01*
X167984171Y-87967109D01*
X168214703Y-87871855D01*
X168391235Y-87695631D01*
X168486891Y-87465265D01*
X168487109Y-87215829D01*
X168391855Y-86985297D01*
X168215631Y-86808765D01*
X167985265Y-86713109D01*
X167735829Y-86712891D01*
X167505297Y-86808145D01*
X167477000Y-86836393D01*
X167477000Y-83596308D01*
X167574735Y-83636891D01*
X167824171Y-83637109D01*
X168054703Y-83541855D01*
X168231235Y-83365631D01*
X168326891Y-83135265D01*
X168327109Y-82885829D01*
X168247000Y-82691951D01*
X168247000Y-75527597D01*
X186707011Y-75527597D01*
X187060211Y-75778745D01*
X188195128Y-75926868D01*
X188939789Y-75778745D01*
X189292989Y-75527597D01*
X188000000Y-74234608D01*
X186707011Y-75527597D01*
X168247000Y-75527597D01*
X168247000Y-73440000D01*
X168205362Y-73230672D01*
X168181613Y-73195128D01*
X185073132Y-73195128D01*
X185221255Y-73939789D01*
X185472403Y-74292989D01*
X186765392Y-73000000D01*
X189234608Y-73000000D01*
X190527597Y-74292989D01*
X190778745Y-73939789D01*
X190926868Y-72804872D01*
X190778745Y-72060211D01*
X190527597Y-71707011D01*
X189234608Y-73000000D01*
X186765392Y-73000000D01*
X185472403Y-71707011D01*
X185221255Y-72060211D01*
X185073132Y-73195128D01*
X168181613Y-73195128D01*
X168129810Y-73117601D01*
X168086787Y-73053212D01*
X165627000Y-70593426D01*
X165627000Y-70472403D01*
X186707011Y-70472403D01*
X188000000Y-71765392D01*
X189292989Y-70472403D01*
X188939789Y-70221255D01*
X187804872Y-70073132D01*
X187060211Y-70221255D01*
X186707011Y-70472403D01*
X165627000Y-70472403D01*
X165627000Y-69452000D01*
X191548000Y-69452000D01*
X191548000Y-121548000D01*
X96452000Y-121548000D01*
X96452000Y-120527597D01*
X98707011Y-120527597D01*
X99060211Y-120778745D01*
X100195128Y-120926868D01*
X100939789Y-120778745D01*
X101292989Y-120527597D01*
X186707011Y-120527597D01*
X187060211Y-120778745D01*
X188195128Y-120926868D01*
X188939789Y-120778745D01*
X189292989Y-120527597D01*
X188000000Y-119234608D01*
X186707011Y-120527597D01*
X101292989Y-120527597D01*
X100000000Y-119234608D01*
X98707011Y-120527597D01*
X96452000Y-120527597D01*
X96452000Y-118195128D01*
X97073132Y-118195128D01*
X97221255Y-118939789D01*
X97472403Y-119292989D01*
X98765392Y-118000000D01*
X101234608Y-118000000D01*
X102527597Y-119292989D01*
X102778745Y-118939789D01*
X102890415Y-118084171D01*
X111332891Y-118084171D01*
X111428145Y-118314703D01*
X111604369Y-118491235D01*
X111834735Y-118586891D01*
X112084171Y-118587109D01*
X112314703Y-118491855D01*
X112491235Y-118315631D01*
X112571682Y-118121892D01*
X113873069Y-116820506D01*
X113872891Y-117024171D01*
X113968145Y-117254703D01*
X114144369Y-117431235D01*
X114374735Y-117526891D01*
X114624171Y-117527109D01*
X114854703Y-117431855D01*
X115031235Y-117255631D01*
X115126891Y-117025265D01*
X115127109Y-116775829D01*
X115031855Y-116545297D01*
X114855631Y-116368765D01*
X114625265Y-116273109D01*
X114420645Y-116272930D01*
X114646575Y-116047000D01*
X120122335Y-116047000D01*
X120314735Y-116126891D01*
X120564171Y-116127109D01*
X120794703Y-116031855D01*
X120971235Y-115855631D01*
X121066891Y-115625265D01*
X121067109Y-115375829D01*
X120971855Y-115145297D01*
X120795631Y-114968765D01*
X120565265Y-114873109D01*
X120315829Y-114872891D01*
X120121951Y-114953000D01*
X114420000Y-114953000D01*
X114210672Y-114994638D01*
X114033212Y-115113213D01*
X111797837Y-117348589D01*
X111605297Y-117428145D01*
X111428765Y-117604369D01*
X111333109Y-117834735D01*
X111332891Y-118084171D01*
X102890415Y-118084171D01*
X102926868Y-117804872D01*
X102778745Y-117060211D01*
X102527597Y-116707011D01*
X101234608Y-118000000D01*
X98765392Y-118000000D01*
X97472403Y-116707011D01*
X97221255Y-117060211D01*
X97073132Y-118195128D01*
X96452000Y-118195128D01*
X96452000Y-115472403D01*
X98707011Y-115472403D01*
X100000000Y-116765392D01*
X101292989Y-115472403D01*
X100939789Y-115221255D01*
X99804872Y-115073132D01*
X99060211Y-115221255D01*
X98707011Y-115472403D01*
X96452000Y-115472403D01*
X96452000Y-112386197D01*
X104227687Y-112386197D01*
X104402426Y-112540528D01*
X105049012Y-112570079D01*
X105197574Y-112540528D01*
X105372313Y-112386197D01*
X104800000Y-111813883D01*
X104227687Y-112386197D01*
X96452000Y-112386197D01*
X96452000Y-111179012D01*
X103159921Y-111179012D01*
X103189472Y-111327574D01*
X103343803Y-111502313D01*
X103916117Y-110930000D01*
X105683883Y-110930000D01*
X106256197Y-111502313D01*
X106410528Y-111327574D01*
X106440079Y-110680988D01*
X106410528Y-110532426D01*
X106256197Y-110357687D01*
X105683883Y-110930000D01*
X103916117Y-110930000D01*
X103343803Y-110357687D01*
X103189472Y-110532426D01*
X103159921Y-111179012D01*
X96452000Y-111179012D01*
X96452000Y-109473803D01*
X104227687Y-109473803D01*
X104800000Y-110046117D01*
X105372313Y-109473803D01*
X105197574Y-109319472D01*
X104550988Y-109289921D01*
X104402426Y-109319472D01*
X104227687Y-109473803D01*
X96452000Y-109473803D01*
X96452000Y-103252211D01*
X103172718Y-103252211D01*
X103419892Y-103850418D01*
X103877175Y-104308499D01*
X104474950Y-104556717D01*
X105122211Y-104557282D01*
X105720418Y-104310108D01*
X106178499Y-103852825D01*
X106426717Y-103255050D01*
X106427282Y-102607789D01*
X106180108Y-102009582D01*
X105722825Y-101551501D01*
X105125050Y-101303283D01*
X104477789Y-101302718D01*
X103879582Y-101549892D01*
X103421501Y-102007175D01*
X103173283Y-102604950D01*
X103172718Y-103252211D01*
X96452000Y-103252211D01*
X96452000Y-95252211D01*
X103172718Y-95252211D01*
X103419892Y-95850418D01*
X103877175Y-96308499D01*
X104474950Y-96556717D01*
X105122211Y-96557282D01*
X105720418Y-96310108D01*
X106178499Y-95852825D01*
X106426717Y-95255050D01*
X106427282Y-94607789D01*
X106180108Y-94009582D01*
X105722825Y-93551501D01*
X105125050Y-93303283D01*
X104477789Y-93302718D01*
X103879582Y-93549892D01*
X103421501Y-94007175D01*
X103173283Y-94604950D01*
X103172718Y-95252211D01*
X96452000Y-95252211D01*
X96452000Y-87252211D01*
X103172718Y-87252211D01*
X103419892Y-87850418D01*
X103877175Y-88308499D01*
X104474950Y-88556717D01*
X105122211Y-88557282D01*
X105720418Y-88310108D01*
X105756371Y-88274218D01*
X105673109Y-88474735D01*
X105672891Y-88724171D01*
X105768145Y-88954703D01*
X105944369Y-89131235D01*
X106174735Y-89226891D01*
X106424171Y-89227109D01*
X106572942Y-89165638D01*
X106572891Y-89224171D01*
X106668145Y-89454703D01*
X106813287Y-89600099D01*
X106668765Y-89744369D01*
X106573109Y-89974735D01*
X106572891Y-90224171D01*
X106668145Y-90454703D01*
X106813287Y-90600099D01*
X106668765Y-90744369D01*
X106573109Y-90974735D01*
X106572891Y-91224171D01*
X106668145Y-91454703D01*
X106813287Y-91600099D01*
X106668765Y-91744369D01*
X106573109Y-91974735D01*
X106573057Y-92034477D01*
X106425265Y-91973109D01*
X106175829Y-91972891D01*
X105945297Y-92068145D01*
X105768765Y-92244369D01*
X105673109Y-92474735D01*
X105672891Y-92724171D01*
X105768145Y-92954703D01*
X105944369Y-93131235D01*
X106174735Y-93226891D01*
X106424171Y-93227109D01*
X106572942Y-93165638D01*
X106572891Y-93224171D01*
X106668145Y-93454703D01*
X106813287Y-93600099D01*
X106668765Y-93744369D01*
X106573109Y-93974735D01*
X106572891Y-94224171D01*
X106668145Y-94454703D01*
X106844369Y-94631235D01*
X107074735Y-94726891D01*
X107324171Y-94727109D01*
X107554703Y-94631855D01*
X107731235Y-94455631D01*
X107826891Y-94225265D01*
X107827109Y-93975829D01*
X107731855Y-93745297D01*
X107586713Y-93599901D01*
X107731235Y-93455631D01*
X107826891Y-93225265D01*
X107827109Y-92975829D01*
X107731855Y-92745297D01*
X107586713Y-92599901D01*
X107731235Y-92455631D01*
X107826891Y-92225265D01*
X107827109Y-91975829D01*
X107731855Y-91745297D01*
X107586713Y-91599901D01*
X107731235Y-91455631D01*
X107826891Y-91225265D01*
X107827109Y-90975829D01*
X107731855Y-90745297D01*
X107586713Y-90599901D01*
X107731235Y-90455631D01*
X107826891Y-90225265D01*
X107827109Y-89975829D01*
X107731855Y-89745297D01*
X107586713Y-89599901D01*
X107731235Y-89455631D01*
X107826891Y-89225265D01*
X107827109Y-88975829D01*
X107731855Y-88745297D01*
X107606713Y-88619936D01*
X107731235Y-88495631D01*
X107826891Y-88265265D01*
X107826978Y-88165537D01*
X107974735Y-88226891D01*
X108224171Y-88227109D01*
X108454703Y-88131855D01*
X108631235Y-87955631D01*
X108726891Y-87725265D01*
X108727109Y-87475829D01*
X108631855Y-87245297D01*
X108486713Y-87099901D01*
X108631235Y-86955631D01*
X108726891Y-86725265D01*
X108727109Y-86475829D01*
X108631855Y-86245297D01*
X108486713Y-86099901D01*
X108631235Y-85955631D01*
X108726891Y-85725265D01*
X108727109Y-85475829D01*
X108631855Y-85245297D01*
X108486713Y-85099901D01*
X108631235Y-84955631D01*
X108726891Y-84725265D01*
X108727109Y-84475829D01*
X108631855Y-84245297D01*
X108455631Y-84068765D01*
X108225265Y-83973109D01*
X107975829Y-83972891D01*
X107745297Y-84068145D01*
X107568765Y-84244369D01*
X107473109Y-84474735D01*
X107473057Y-84534477D01*
X107325265Y-84473109D01*
X107075829Y-84472891D01*
X106845297Y-84568145D01*
X106668765Y-84744369D01*
X106573109Y-84974735D01*
X106572891Y-85224171D01*
X106668145Y-85454703D01*
X106833287Y-85620134D01*
X106668765Y-85784369D01*
X106573109Y-86014735D01*
X106572891Y-86264171D01*
X106668145Y-86494703D01*
X106813287Y-86640099D01*
X106668765Y-86784369D01*
X106573109Y-87014735D01*
X106572891Y-87264171D01*
X106668145Y-87494703D01*
X106813287Y-87640099D01*
X106668765Y-87784369D01*
X106573109Y-88014735D01*
X106573092Y-88034492D01*
X106425265Y-87973109D01*
X106175829Y-87972891D01*
X105975167Y-88055803D01*
X106178499Y-87852825D01*
X106426717Y-87255050D01*
X106427282Y-86607789D01*
X106180108Y-86009582D01*
X105722825Y-85551501D01*
X105151780Y-85314382D01*
X105254703Y-85271855D01*
X105431235Y-85095631D01*
X105526891Y-84865265D01*
X105527109Y-84615829D01*
X105431855Y-84385297D01*
X105255631Y-84208765D01*
X105025265Y-84113109D01*
X104775829Y-84112891D01*
X104545297Y-84208145D01*
X104368765Y-84384369D01*
X104273109Y-84614735D01*
X104272891Y-84864171D01*
X104368145Y-85094703D01*
X104544369Y-85271235D01*
X104620489Y-85302843D01*
X104477789Y-85302718D01*
X103879582Y-85549892D01*
X103421501Y-86007175D01*
X103173283Y-86604950D01*
X103172718Y-87252211D01*
X96452000Y-87252211D01*
X96452000Y-84864171D01*
X102472891Y-84864171D01*
X102568145Y-85094703D01*
X102744369Y-85271235D01*
X102974735Y-85366891D01*
X103224171Y-85367109D01*
X103454703Y-85271855D01*
X103631235Y-85095631D01*
X103726891Y-84865265D01*
X103727109Y-84615829D01*
X103631855Y-84385297D01*
X103455631Y-84208765D01*
X103225265Y-84113109D01*
X102975829Y-84112891D01*
X102745297Y-84208145D01*
X102568765Y-84384369D01*
X102473109Y-84614735D01*
X102472891Y-84864171D01*
X96452000Y-84864171D01*
X96452000Y-78752211D01*
X110172718Y-78752211D01*
X110419892Y-79350418D01*
X110877175Y-79808499D01*
X111474950Y-80056717D01*
X112122211Y-80057282D01*
X112720418Y-79810108D01*
X113178499Y-79352825D01*
X113426717Y-78755050D01*
X113427282Y-78107789D01*
X113180108Y-77509582D01*
X112722825Y-77051501D01*
X112125050Y-76803283D01*
X111477789Y-76802718D01*
X110879582Y-77049892D01*
X110421501Y-77507175D01*
X110173283Y-78104950D01*
X110172718Y-78752211D01*
X96452000Y-78752211D01*
X96452000Y-75527597D01*
X98707011Y-75527597D01*
X99060211Y-75778745D01*
X100195128Y-75926868D01*
X100939789Y-75778745D01*
X101292989Y-75527597D01*
X100000000Y-74234608D01*
X98707011Y-75527597D01*
X96452000Y-75527597D01*
X96452000Y-73195128D01*
X97073132Y-73195128D01*
X97221255Y-73939789D01*
X97472403Y-74292989D01*
X98765392Y-73000000D01*
X101234608Y-73000000D01*
X102527597Y-74292989D01*
X102778745Y-73939789D01*
X102926868Y-72804872D01*
X102778745Y-72060211D01*
X102527597Y-71707011D01*
X101234608Y-73000000D01*
X98765392Y-73000000D01*
X97472403Y-71707011D01*
X97221255Y-72060211D01*
X97073132Y-73195128D01*
X96452000Y-73195128D01*
X96452000Y-70472403D01*
X98707011Y-70472403D01*
X100000000Y-71765392D01*
X101292989Y-70472403D01*
X100939789Y-70221255D01*
X99804872Y-70073132D01*
X99060211Y-70221255D01*
X98707011Y-70472403D01*
X96452000Y-70472403D01*
X96452000Y-69452000D01*
X113573000Y-69452000D01*
X113573000Y-88273000D01*
G36*
X171243426Y-105013000D02*
X169276574Y-105013000D01*
X169151411Y-104887837D01*
X169071855Y-104695297D01*
X169040613Y-104664000D01*
X171592426Y-104664000D01*
X171243426Y-105013000D01*
X171243426Y-105013000D01*
G37*
X171243426Y-105013000D02*
X169276574Y-105013000D01*
X169151411Y-104887837D01*
X169071855Y-104695297D01*
X169040613Y-104664000D01*
X171592426Y-104664000D01*
X171243426Y-105013000D01*
G36*
X175693000Y-93437673D02*
X175465265Y-93343109D01*
X175215829Y-93342891D01*
X174985297Y-93438145D01*
X174808765Y-93614369D01*
X174713109Y-93844735D01*
X174712891Y-94094171D01*
X174808145Y-94324703D01*
X174984369Y-94501235D01*
X175023000Y-94517276D01*
X175023000Y-97150236D01*
X174997075Y-97124312D01*
X174997109Y-97085829D01*
X174901855Y-96855297D01*
X174861721Y-96815093D01*
X174891235Y-96785631D01*
X174986891Y-96555265D01*
X174987109Y-96305829D01*
X174891855Y-96075297D01*
X174715631Y-95898765D01*
X174485265Y-95803109D01*
X174445839Y-95803075D01*
X173814000Y-95171236D01*
X173814000Y-91910848D01*
X173824369Y-91921235D01*
X174054735Y-92016891D01*
X174304171Y-92017109D01*
X174534703Y-91921855D01*
X174711235Y-91745631D01*
X174806891Y-91515265D01*
X174807109Y-91265829D01*
X174711855Y-91035297D01*
X174684000Y-91007393D01*
X174684000Y-86648764D01*
X175445689Y-85887075D01*
X175484171Y-85887109D01*
X175693000Y-85800823D01*
X175693000Y-93437673D01*
X175693000Y-93437673D01*
G37*
X175693000Y-93437673D02*
X175465265Y-93343109D01*
X175215829Y-93342891D01*
X174985297Y-93438145D01*
X174808765Y-93614369D01*
X174713109Y-93844735D01*
X174712891Y-94094171D01*
X174808145Y-94324703D01*
X174984369Y-94501235D01*
X175023000Y-94517276D01*
X175023000Y-97150236D01*
X174997075Y-97124312D01*
X174997109Y-97085829D01*
X174901855Y-96855297D01*
X174861721Y-96815093D01*
X174891235Y-96785631D01*
X174986891Y-96555265D01*
X174987109Y-96305829D01*
X174891855Y-96075297D01*
X174715631Y-95898765D01*
X174485265Y-95803109D01*
X174445839Y-95803075D01*
X173814000Y-95171236D01*
X173814000Y-91910848D01*
X173824369Y-91921235D01*
X174054735Y-92016891D01*
X174304171Y-92017109D01*
X174534703Y-91921855D01*
X174711235Y-91745631D01*
X174806891Y-91515265D01*
X174807109Y-91265829D01*
X174711855Y-91035297D01*
X174684000Y-91007393D01*
X174684000Y-86648764D01*
X175445689Y-85887075D01*
X175484171Y-85887109D01*
X175693000Y-85800823D01*
X175693000Y-93437673D01*
G36*
X151173000Y-99493000D02*
X148727000Y-99493000D01*
X148727000Y-93427000D01*
X151173000Y-93427000D01*
X151173000Y-99493000D01*
X151173000Y-99493000D01*
G37*
X151173000Y-99493000D02*
X148727000Y-99493000D01*
X148727000Y-93427000D01*
X151173000Y-93427000D01*
X151173000Y-99493000D01*
G36*
X133973000Y-99673000D02*
X131527000Y-99673000D01*
X131527000Y-93427000D01*
X133973000Y-93427000D01*
X133973000Y-99673000D01*
X133973000Y-99673000D01*
G37*
X133973000Y-99673000D02*
X131527000Y-99673000D01*
X131527000Y-93427000D01*
X133973000Y-93427000D01*
X133973000Y-99673000D01*
G36*
X116873000Y-99673000D02*
X114127000Y-99673000D01*
X114127000Y-93427000D01*
X116873000Y-93427000D01*
X116873000Y-99673000D01*
X116873000Y-99673000D01*
G37*
X116873000Y-99673000D02*
X114127000Y-99673000D01*
X114127000Y-93427000D01*
X116873000Y-93427000D01*
X116873000Y-99673000D01*
M02*
