G04 #@! TF.FileFunction,Soldermask,Bot*
%FSLAX46Y46*%
G04 Gerber Fmt 4.6, Leading zero omitted, Abs format (unit mm)*
G04 Created by KiCad (PCBNEW 4.0.6) date 03/22/18 13:33:18*
%MOMM*%
%LPD*%
G01*
G04 APERTURE LIST*
%ADD10C,0.100000*%
%ADD11C,0.900000*%
%ADD12C,1.416000*%
%ADD13C,6.400000*%
G04 APERTURE END LIST*
D10*
D11*
X177900000Y-56700000D03*
X177900000Y-55500000D03*
X122000000Y-107400000D03*
X166700000Y-99100000D03*
X166700000Y-98100000D03*
X165700000Y-99100000D03*
X165700000Y-98100000D03*
X164700000Y-99100000D03*
X164700000Y-98100000D03*
X163700000Y-99100000D03*
X163700000Y-98100000D03*
X147400000Y-100500000D03*
X147400000Y-99500000D03*
X147400000Y-101500000D03*
X147400000Y-98500000D03*
X146500000Y-101000000D03*
X146500000Y-100000000D03*
X146500000Y-99000000D03*
X146500000Y-98000000D03*
X130200000Y-101500000D03*
X130200000Y-100500000D03*
X130200000Y-99500000D03*
X130200000Y-98500000D03*
X129300000Y-101000000D03*
X129300000Y-100000000D03*
X129300000Y-99000000D03*
X129300000Y-98000000D03*
X152300000Y-102300000D03*
X152300000Y-101300000D03*
X152300000Y-100300000D03*
X152300000Y-99300000D03*
X152300000Y-98300000D03*
X117500000Y-102000000D03*
X117500000Y-101000000D03*
X117500000Y-100000000D03*
X117500000Y-99000000D03*
X117500000Y-98000000D03*
X135100000Y-102300000D03*
X135100000Y-101300000D03*
X135100000Y-100300000D03*
X135100000Y-99300000D03*
X135100000Y-98300000D03*
X136000000Y-97800000D03*
X160400000Y-145100000D03*
X153400000Y-145100000D03*
X160400000Y-144100000D03*
X153400000Y-144100000D03*
X160400000Y-143100000D03*
X153400000Y-143100000D03*
X160400000Y-142100000D03*
X153400000Y-142100000D03*
X160400000Y-141100000D03*
X153400000Y-141100000D03*
X160400000Y-140100000D03*
X153400000Y-140100000D03*
X160400000Y-139100000D03*
X153400000Y-139100000D03*
X160400000Y-138100000D03*
X153400000Y-138100000D03*
X160400000Y-137100000D03*
X153400000Y-137100000D03*
X160400000Y-136100000D03*
X153400000Y-136100000D03*
X160400000Y-135100000D03*
X153400000Y-135100000D03*
X160400000Y-134100000D03*
X153400000Y-134100000D03*
X160400000Y-133100000D03*
X153400000Y-133100000D03*
X160400000Y-132100000D03*
X153400000Y-132100000D03*
X145600000Y-145100000D03*
X138600000Y-145100000D03*
X145600000Y-144100000D03*
X138600000Y-144100000D03*
X145600000Y-143100000D03*
X138600000Y-143100000D03*
X145600000Y-142100000D03*
X138600000Y-142100000D03*
X145600000Y-141100000D03*
X138600000Y-141100000D03*
X145600000Y-140100000D03*
X138600000Y-140100000D03*
X145600000Y-139100000D03*
X138600000Y-139100000D03*
X145600000Y-138100000D03*
X138600000Y-138100000D03*
X145600000Y-137100000D03*
X138600000Y-137100000D03*
X145600000Y-136100000D03*
X138600000Y-136100000D03*
X145600000Y-135100000D03*
X138600000Y-135100000D03*
X145600000Y-134100000D03*
X138600000Y-134100000D03*
X145600000Y-133100000D03*
X138600000Y-133100000D03*
X145600000Y-132100000D03*
X138600000Y-132100000D03*
X160400000Y-59000000D03*
X153400000Y-59000000D03*
X160400000Y-58000000D03*
X153400000Y-58000000D03*
X160400000Y-57000000D03*
X153400000Y-57000000D03*
X160400000Y-56000000D03*
X153400000Y-56000000D03*
X160400000Y-55000000D03*
X153400000Y-55000000D03*
X160400000Y-54000000D03*
X153400000Y-54000000D03*
X160400000Y-53000000D03*
X153400000Y-53000000D03*
X160400000Y-52000000D03*
X153400000Y-52000000D03*
X160400000Y-51000000D03*
X153400000Y-51000000D03*
X160400000Y-50000000D03*
X153400000Y-50000000D03*
X160400000Y-49000000D03*
X153400000Y-49000000D03*
X160400000Y-48000000D03*
X153400000Y-48000000D03*
X160400000Y-47000000D03*
X153400000Y-47000000D03*
X160400000Y-46000000D03*
X153400000Y-46000000D03*
X145600000Y-59000000D03*
X138600000Y-59000000D03*
X145600000Y-58000000D03*
X138600000Y-58000000D03*
X145600000Y-57000000D03*
X138600000Y-57000000D03*
X145600000Y-56000000D03*
X138600000Y-56000000D03*
X145600000Y-55000000D03*
X138600000Y-55000000D03*
X145600000Y-54000000D03*
X138600000Y-54000000D03*
X145600000Y-53000000D03*
X138600000Y-53000000D03*
X145600000Y-52000000D03*
X138600000Y-52000000D03*
X145600000Y-51000000D03*
X138600000Y-51000000D03*
X145600000Y-50000000D03*
X138600000Y-50000000D03*
X145600000Y-49000000D03*
X138600000Y-49000000D03*
X145600000Y-48000000D03*
X138600000Y-48000000D03*
X145600000Y-47000000D03*
X138600000Y-47000000D03*
X145600000Y-46000000D03*
X138600000Y-46000000D03*
X130800000Y-59000000D03*
X123800000Y-59000000D03*
X130800000Y-58000000D03*
X123800000Y-58000000D03*
X130800000Y-57000000D03*
X123800000Y-57000000D03*
X130800000Y-56000000D03*
X123800000Y-56000000D03*
X130800000Y-55000000D03*
X123800000Y-55000000D03*
X130800000Y-54000000D03*
X123800000Y-54000000D03*
X130800000Y-53000000D03*
X123800000Y-53000000D03*
X130800000Y-52000000D03*
X123800000Y-52000000D03*
X130800000Y-51000000D03*
X123800000Y-51000000D03*
X130800000Y-50000000D03*
X123800000Y-50000000D03*
X130800000Y-49000000D03*
X123800000Y-49000000D03*
X130800000Y-48000000D03*
X123800000Y-48000000D03*
X130800000Y-47000000D03*
X123800000Y-47000000D03*
X130800000Y-46000000D03*
X123800000Y-46000000D03*
X122000000Y-111400000D03*
X122000000Y-110400000D03*
X122000000Y-109400000D03*
X122000000Y-108400000D03*
X179600000Y-115600000D03*
X180800000Y-110000000D03*
X175000000Y-108800000D03*
X179190000Y-88900000D03*
X175310000Y-90410000D03*
X173550000Y-100700000D03*
X178530000Y-99690000D03*
X187400000Y-103100000D03*
X185500000Y-108300000D03*
X162100000Y-122100000D03*
X132700000Y-119900000D03*
X165000000Y-116200000D03*
X165000000Y-115200000D03*
X164100000Y-116700000D03*
X164100000Y-115700000D03*
X164100000Y-114700000D03*
X158800000Y-116200000D03*
X158800000Y-115200000D03*
X158000000Y-116700000D03*
X158000000Y-115700000D03*
X158000000Y-114700000D03*
X141800000Y-117700000D03*
X141800000Y-116700000D03*
X141800000Y-115700000D03*
X141800000Y-114700000D03*
X129700000Y-117700000D03*
X129700000Y-116700000D03*
X129700000Y-115700000D03*
X129700000Y-114700000D03*
X122700000Y-117200000D03*
X122700000Y-116200000D03*
X122700000Y-115200000D03*
X121800000Y-117700000D03*
X121800000Y-116700000D03*
X121800000Y-115700000D03*
X121800000Y-114700000D03*
X116600000Y-117200000D03*
X116600000Y-116200000D03*
X116600000Y-115200000D03*
X117500000Y-117700000D03*
X117500000Y-116700000D03*
X117500000Y-115700000D03*
X117500000Y-114700000D03*
X125900000Y-119500000D03*
X118500000Y-120900000D03*
X112700000Y-123500000D03*
X160760000Y-103570000D03*
X143800000Y-103600000D03*
X126700000Y-103800000D03*
X165800000Y-111600000D03*
X165800000Y-110600000D03*
X165800000Y-109600000D03*
X165800000Y-108600000D03*
X165800000Y-107600000D03*
X153800000Y-122600000D03*
X152800000Y-122600000D03*
X151800000Y-122600000D03*
X150800000Y-122600000D03*
X153800000Y-121000000D03*
X152800000Y-121000000D03*
X151800000Y-121000000D03*
X150800000Y-121000000D03*
X153800000Y-120000000D03*
X152800000Y-120000000D03*
X151800000Y-120000000D03*
X143000000Y-122600000D03*
X142000000Y-122600000D03*
X141000000Y-122600000D03*
X150800000Y-120000000D03*
X143000000Y-120000000D03*
X142000000Y-121000000D03*
X142000000Y-120000000D03*
X143000000Y-121000000D03*
X141000000Y-121000000D03*
X141000000Y-120000000D03*
X140000000Y-122600000D03*
X140000000Y-121000000D03*
X140000000Y-120000000D03*
X164100000Y-111600000D03*
X164100000Y-110600000D03*
X164100000Y-109600000D03*
X164100000Y-108600000D03*
X164100000Y-107600000D03*
X158000000Y-111600000D03*
X158000000Y-110600000D03*
X158000000Y-109600000D03*
X158000000Y-108600000D03*
X158000000Y-107600000D03*
X151900000Y-111600000D03*
X151900000Y-110600000D03*
X151900000Y-109600000D03*
X151900000Y-108600000D03*
X151900000Y-107600000D03*
X150500000Y-111600000D03*
X150500000Y-110600000D03*
X150500000Y-109600000D03*
X150500000Y-108600000D03*
X150500000Y-107600000D03*
X142500000Y-111600000D03*
X142500000Y-110600000D03*
X142500000Y-109600000D03*
X142500000Y-108600000D03*
X142500000Y-107600000D03*
X141000000Y-111600000D03*
X141000000Y-110600000D03*
X141000000Y-109600000D03*
X141000000Y-108600000D03*
X141000000Y-107600000D03*
X128800000Y-111400000D03*
X128800000Y-110400000D03*
X128800000Y-109400000D03*
X128800000Y-108400000D03*
X128800000Y-107400000D03*
X127300000Y-111400000D03*
X127300000Y-110400000D03*
X127300000Y-109400000D03*
X127300000Y-108400000D03*
X127300000Y-107400000D03*
X117100000Y-111400000D03*
X117100000Y-110400000D03*
X117100000Y-109400000D03*
X117100000Y-108400000D03*
X117100000Y-107400000D03*
X117100000Y-106400000D03*
X117100000Y-105400000D03*
X117100000Y-104400000D03*
X113600000Y-94840000D03*
X113600000Y-93640000D03*
X118500000Y-102000000D03*
X118500000Y-101000000D03*
X118500000Y-100000000D03*
X118500000Y-99000000D03*
X118500000Y-98000000D03*
X136000000Y-101800000D03*
X136000000Y-100800000D03*
X136000000Y-99800000D03*
X136000000Y-98800000D03*
X153200000Y-101800000D03*
X153200000Y-100800000D03*
X153200000Y-99800000D03*
X153200000Y-98800000D03*
X153200000Y-97800000D03*
X151000000Y-90700000D03*
X129000000Y-94340000D03*
X129000000Y-93360000D03*
X129000000Y-92380000D03*
X129000000Y-91400000D03*
X129000000Y-90420000D03*
X129000000Y-89440000D03*
X129000000Y-88460000D03*
X129000000Y-87480000D03*
X129000000Y-86500000D03*
X128020000Y-94340000D03*
X128020000Y-93360000D03*
X128020000Y-92380000D03*
X128020000Y-91400000D03*
X128020000Y-90420000D03*
X128020000Y-89440000D03*
X128020000Y-88460000D03*
X128020000Y-87480000D03*
X128020000Y-86500000D03*
X127040000Y-94340000D03*
X127040000Y-93360000D03*
X127040000Y-92380000D03*
X127040000Y-91400000D03*
X127040000Y-90420000D03*
X127040000Y-89440000D03*
X127040000Y-88460000D03*
X127040000Y-87480000D03*
X127040000Y-86500000D03*
X126060000Y-94340000D03*
X126060000Y-93360000D03*
X126060000Y-92380000D03*
X126060000Y-91400000D03*
X126060000Y-90420000D03*
X126060000Y-89440000D03*
X126060000Y-88460000D03*
X126060000Y-87480000D03*
X126060000Y-86500000D03*
X125080000Y-94340000D03*
X125080000Y-93360000D03*
X125080000Y-92380000D03*
X125080000Y-91400000D03*
X125080000Y-90420000D03*
X125080000Y-89440000D03*
X125080000Y-88460000D03*
X125080000Y-87480000D03*
X125080000Y-86500000D03*
X124100000Y-94340000D03*
X124100000Y-93360000D03*
X124100000Y-92380000D03*
X124100000Y-91400000D03*
X124100000Y-90420000D03*
X124100000Y-89440000D03*
X124100000Y-88460000D03*
X124100000Y-87480000D03*
X124100000Y-86500000D03*
X123120000Y-94340000D03*
X123120000Y-93360000D03*
X123120000Y-92380000D03*
X123120000Y-91400000D03*
X123120000Y-90420000D03*
X123120000Y-89440000D03*
X123120000Y-88460000D03*
X123120000Y-87480000D03*
X123120000Y-86500000D03*
X122140000Y-94340000D03*
X122140000Y-93360000D03*
X122140000Y-92380000D03*
X122140000Y-91400000D03*
X122140000Y-90420000D03*
X122140000Y-89440000D03*
X122140000Y-88460000D03*
X122140000Y-87480000D03*
X122140000Y-86500000D03*
X121160000Y-94340000D03*
X121160000Y-93360000D03*
X121160000Y-92380000D03*
X121160000Y-91400000D03*
X121160000Y-90420000D03*
X121160000Y-89440000D03*
X121160000Y-88460000D03*
X121160000Y-87480000D03*
X121160000Y-86500000D03*
X120180000Y-94340000D03*
X120180000Y-93360000D03*
X120180000Y-92380000D03*
X120180000Y-91400000D03*
X120180000Y-90420000D03*
X120180000Y-89440000D03*
X120180000Y-88460000D03*
X120180000Y-87480000D03*
X120180000Y-86500000D03*
X119200000Y-94340000D03*
X119200000Y-93360000D03*
X119200000Y-92380000D03*
X119200000Y-91400000D03*
X119200000Y-90420000D03*
X119200000Y-89440000D03*
X119200000Y-88460000D03*
X119200000Y-87480000D03*
X119200000Y-86500000D03*
X153500000Y-86500000D03*
X146100000Y-94340000D03*
X146100000Y-93360000D03*
X146100000Y-92380000D03*
X146100000Y-91400000D03*
X146100000Y-90420000D03*
X146100000Y-89440000D03*
X146100000Y-88460000D03*
X146100000Y-87480000D03*
X146100000Y-86500000D03*
X145120000Y-94340000D03*
X145120000Y-93360000D03*
X145120000Y-92380000D03*
X145120000Y-91400000D03*
X145120000Y-90420000D03*
X145120000Y-89440000D03*
X145120000Y-88460000D03*
X145120000Y-87480000D03*
X145120000Y-86500000D03*
X144140000Y-94340000D03*
X144140000Y-93360000D03*
X144140000Y-92380000D03*
X144140000Y-91400000D03*
X144140000Y-90420000D03*
X144140000Y-89440000D03*
X144140000Y-88460000D03*
X144140000Y-87480000D03*
X144140000Y-86500000D03*
X143160000Y-94340000D03*
X143160000Y-93360000D03*
X143160000Y-92380000D03*
X143160000Y-91400000D03*
X143160000Y-90420000D03*
X143160000Y-89440000D03*
X143160000Y-88460000D03*
X143160000Y-87480000D03*
X143160000Y-86500000D03*
X142180000Y-94340000D03*
X142180000Y-93360000D03*
X142180000Y-92380000D03*
X142180000Y-91400000D03*
X142180000Y-90420000D03*
X142180000Y-89440000D03*
X142180000Y-88460000D03*
X142180000Y-87480000D03*
X142180000Y-86500000D03*
X141200000Y-94340000D03*
X141200000Y-93360000D03*
X141200000Y-92380000D03*
X141200000Y-91400000D03*
X141200000Y-90420000D03*
X141200000Y-89440000D03*
X141200000Y-88460000D03*
X141200000Y-87480000D03*
X141200000Y-86500000D03*
X140220000Y-94340000D03*
X140220000Y-93360000D03*
X140220000Y-92380000D03*
X140220000Y-91400000D03*
X140220000Y-90420000D03*
X140220000Y-89440000D03*
X140220000Y-88460000D03*
X140220000Y-87480000D03*
X140220000Y-86500000D03*
X139240000Y-94340000D03*
X139240000Y-93360000D03*
X139240000Y-92380000D03*
X139240000Y-91400000D03*
X139240000Y-90420000D03*
X139240000Y-89440000D03*
X139240000Y-88460000D03*
X139240000Y-87480000D03*
X139240000Y-86500000D03*
X138260000Y-94340000D03*
X138260000Y-93360000D03*
X138260000Y-92380000D03*
X138260000Y-91400000D03*
X138260000Y-90420000D03*
X138260000Y-89440000D03*
X138260000Y-88460000D03*
X138260000Y-87480000D03*
X138260000Y-86500000D03*
X137280000Y-94340000D03*
X137280000Y-93360000D03*
X137280000Y-92380000D03*
X137280000Y-91400000D03*
X137280000Y-90420000D03*
X137280000Y-89440000D03*
X137280000Y-88460000D03*
X137280000Y-87480000D03*
X137280000Y-86500000D03*
X136300000Y-94340000D03*
X136300000Y-93360000D03*
X136300000Y-92380000D03*
X136300000Y-91400000D03*
X136300000Y-90420000D03*
X136300000Y-89440000D03*
X136300000Y-88460000D03*
X136300000Y-87480000D03*
X136300000Y-86500000D03*
X163300000Y-94340000D03*
X163300000Y-93360000D03*
X163300000Y-92380000D03*
X163300000Y-91400000D03*
X163300000Y-90420000D03*
X163300000Y-89440000D03*
X163300000Y-88460000D03*
X163300000Y-87480000D03*
X163300000Y-86500000D03*
X162320000Y-94340000D03*
X162320000Y-93360000D03*
X162320000Y-92380000D03*
X162320000Y-91400000D03*
X162320000Y-90420000D03*
X162320000Y-89440000D03*
X162320000Y-88460000D03*
X162320000Y-87480000D03*
X162320000Y-86500000D03*
X161340000Y-94340000D03*
X161340000Y-93360000D03*
X161340000Y-92380000D03*
X161340000Y-91400000D03*
X161340000Y-90420000D03*
X161340000Y-89440000D03*
X161340000Y-88460000D03*
X161340000Y-87480000D03*
X161340000Y-86500000D03*
X160360000Y-94340000D03*
X160360000Y-93360000D03*
X160360000Y-92380000D03*
X160360000Y-91400000D03*
X160360000Y-90420000D03*
X160360000Y-89440000D03*
X160360000Y-88460000D03*
X160360000Y-87480000D03*
X160360000Y-86500000D03*
X159380000Y-94340000D03*
X159380000Y-93360000D03*
X159380000Y-92380000D03*
X159380000Y-91400000D03*
X159380000Y-90420000D03*
X159380000Y-89440000D03*
X159380000Y-88460000D03*
X159380000Y-87480000D03*
X159380000Y-86500000D03*
X158400000Y-94340000D03*
X158400000Y-93360000D03*
X158400000Y-92380000D03*
X158400000Y-91400000D03*
X158400000Y-90420000D03*
X158400000Y-89440000D03*
X158400000Y-88460000D03*
X158400000Y-87480000D03*
X158400000Y-86500000D03*
X157420000Y-94340000D03*
X157420000Y-93360000D03*
X157420000Y-92380000D03*
X157420000Y-91400000D03*
X157420000Y-90420000D03*
X157420000Y-89440000D03*
X157420000Y-88460000D03*
X157420000Y-87480000D03*
X157420000Y-86500000D03*
X156440000Y-94340000D03*
X156440000Y-93360000D03*
X156440000Y-92380000D03*
X156440000Y-91400000D03*
X156440000Y-90420000D03*
X156440000Y-89440000D03*
X156440000Y-88460000D03*
X156440000Y-87480000D03*
X156440000Y-86500000D03*
X155460000Y-94340000D03*
X155460000Y-93360000D03*
X155460000Y-92380000D03*
X155460000Y-91400000D03*
X155460000Y-90420000D03*
X155460000Y-89440000D03*
X155460000Y-88460000D03*
X155460000Y-87480000D03*
X155460000Y-86500000D03*
X154480000Y-94340000D03*
X154480000Y-93360000D03*
X154480000Y-92380000D03*
X154480000Y-91400000D03*
X154480000Y-90420000D03*
X154480000Y-89440000D03*
X154480000Y-88460000D03*
X154480000Y-87480000D03*
X154500000Y-86500000D03*
X153500000Y-94340000D03*
X153500000Y-93360000D03*
X153500000Y-92380000D03*
X153500000Y-91400000D03*
X153500000Y-90420000D03*
X153500000Y-89440000D03*
X153500000Y-88460000D03*
X153500000Y-87480000D03*
D12*
X141200000Y-84400000D03*
X158400000Y-84500000D03*
X177800000Y-48600000D03*
X142100000Y-130200000D03*
X156900000Y-130200000D03*
X180500000Y-105400000D03*
X166700000Y-130200000D03*
X124100000Y-84400000D03*
X113800000Y-91140000D03*
X144090000Y-109610000D03*
X181110000Y-111960000D03*
X127200000Y-130200000D03*
X159300000Y-123090000D03*
X128970000Y-121680000D03*
X138440000Y-123000000D03*
X177010000Y-102680000D03*
X175830000Y-111820000D03*
X114200000Y-99710000D03*
X179890000Y-102550000D03*
X187570000Y-111780000D03*
X174370000Y-117350000D03*
X170080000Y-67670000D03*
X184120000Y-71080000D03*
X182470000Y-93230000D03*
X186070000Y-103280000D03*
X183710000Y-101340000D03*
X182680000Y-98430000D03*
X179990000Y-99870000D03*
X185350000Y-79100000D03*
X182140000Y-87370000D03*
X125040000Y-105610000D03*
X173780000Y-107720000D03*
X179310000Y-95860000D03*
X177060000Y-108450000D03*
X127670000Y-105020000D03*
X174470000Y-89370000D03*
X119560000Y-105070000D03*
X122480000Y-104270000D03*
X171160000Y-100020000D03*
X136580000Y-105740000D03*
X142770000Y-105500000D03*
X188100000Y-107720000D03*
X177100000Y-105480000D03*
X145500000Y-105490000D03*
X178730000Y-70750000D03*
X136580000Y-103210000D03*
X139630000Y-104350000D03*
X184070000Y-109190000D03*
X158170000Y-106170000D03*
X160720000Y-105920000D03*
X175030000Y-100640000D03*
X184000000Y-105380000D03*
X163710000Y-104970000D03*
X177910000Y-87400000D03*
X153920000Y-103380000D03*
X156400000Y-104300000D03*
X173070000Y-102620000D03*
X111390000Y-102110000D03*
D13*
X115165000Y-135505180D03*
X150000000Y-82000000D03*
X115165000Y-55495180D03*
X183745000Y-55495180D03*
X183745000Y-135505180D03*
D11*
X114440000Y-98410000D03*
X112740000Y-90110000D03*
X180500000Y-106700000D03*
X186980000Y-100550000D03*
X171860000Y-91340000D03*
X171200000Y-119930000D03*
X178940000Y-111340000D03*
X127240000Y-129030000D03*
X124440000Y-119500000D03*
X115960000Y-121960000D03*
X112150000Y-100870000D03*
X175660000Y-117070000D03*
X122900000Y-122990000D03*
X185970000Y-111270000D03*
X177040000Y-110880000D03*
X184100000Y-112740000D03*
X178370000Y-101210000D03*
X162030000Y-120330000D03*
X125110000Y-123000000D03*
X157880000Y-122520000D03*
X173630000Y-88300000D03*
X186290000Y-67380000D03*
X181190000Y-78750000D03*
X172130000Y-95480000D03*
X180160000Y-71140000D03*
X182760000Y-70880000D03*
X179340000Y-97970000D03*
X172540000Y-109050000D03*
X178340000Y-89890000D03*
X180240000Y-98160000D03*
X181530000Y-66020000D03*
X181380000Y-91910000D03*
X149690000Y-93280000D03*
X185430000Y-97380000D03*
X172580000Y-94830000D03*
X123630000Y-105560000D03*
X178160000Y-96150000D03*
X139510000Y-105510000D03*
X189160000Y-106700000D03*
X155360000Y-107440000D03*
X172640000Y-100240000D03*
X176700000Y-114040000D03*
X136690000Y-122610000D03*
X178180000Y-95390000D03*
X170430000Y-69020000D03*
X178630000Y-100470000D03*
X138490000Y-121760000D03*
X178370000Y-102170000D03*
X124570000Y-104710000D03*
X175350000Y-106730000D03*
X175100000Y-105960000D03*
X124530000Y-103560000D03*
X175980000Y-105130000D03*
X141750000Y-104820000D03*
X158730000Y-104470000D03*
X171690000Y-104280000D03*
X182050000Y-104260000D03*
X181870000Y-103240000D03*
X181880000Y-102190000D03*
X181900000Y-101270000D03*
X173100000Y-103920000D03*
X159080000Y-103590000D03*
X185540000Y-99280000D03*
X141680000Y-103550000D03*
X173100000Y-104810000D03*
X180660000Y-98850000D03*
X172610000Y-79680000D03*
X182170000Y-89180000D03*
X178530000Y-74150000D03*
X183720000Y-79100000D03*
X122050000Y-102790000D03*
X123460000Y-102790000D03*
X190110000Y-63050000D03*
X125650000Y-102790000D03*
X171890000Y-101160000D03*
X126740000Y-102810000D03*
X139240000Y-102770000D03*
X140640000Y-102770000D03*
X186250000Y-63090000D03*
X142850000Y-102770000D03*
X144030000Y-102800000D03*
X185480000Y-107210000D03*
X171680000Y-101960000D03*
X156400000Y-102840000D03*
X157820000Y-102840000D03*
X183920000Y-63110000D03*
X160010000Y-102840000D03*
X161140000Y-102910000D03*
X171840000Y-102900000D03*
X113750000Y-106710000D03*
X166730000Y-132970000D03*
X127980000Y-119710000D03*
M02*
