G04 #@! TF.FileFunction,Copper,L2,Inr,Signal*
%FSLAX46Y46*%
G04 Gerber Fmt 4.6, Leading zero omitted, Abs format (unit mm)*
G04 Created by KiCad (PCBNEW 4.0.6) date 06/19/18 10:33:54*
%MOMM*%
%LPD*%
G01*
G04 APERTURE LIST*
%ADD10C,0.100000*%
%ADD11C,0.500000*%
%ADD12C,6.000000*%
%ADD13C,0.254000*%
G04 APERTURE END LIST*
D10*
D11*
X177900000Y-56700000D03*
X177900000Y-55500000D03*
X122000000Y-107400000D03*
X166700000Y-99100000D03*
X166700000Y-98100000D03*
X165700000Y-99100000D03*
X165700000Y-98100000D03*
X164700000Y-99100000D03*
X164700000Y-98100000D03*
X163700000Y-99100000D03*
X163700000Y-98100000D03*
X147400000Y-100500000D03*
X147400000Y-99500000D03*
X147400000Y-101500000D03*
X147400000Y-98500000D03*
X146500000Y-101000000D03*
X146500000Y-100000000D03*
X146500000Y-99000000D03*
X146500000Y-98000000D03*
X130200000Y-101500000D03*
X130200000Y-100500000D03*
X130200000Y-99500000D03*
X130200000Y-98500000D03*
X129300000Y-101000000D03*
X129300000Y-100000000D03*
X129300000Y-99000000D03*
X129300000Y-98000000D03*
X152300000Y-102300000D03*
X152300000Y-101300000D03*
X152300000Y-100300000D03*
X152300000Y-99300000D03*
X152300000Y-98300000D03*
X117500000Y-102000000D03*
X117500000Y-101000000D03*
X117500000Y-100000000D03*
X117500000Y-99000000D03*
X117500000Y-98000000D03*
X135100000Y-102300000D03*
X135100000Y-101300000D03*
X135100000Y-100300000D03*
X135100000Y-99300000D03*
X135100000Y-98300000D03*
X136000000Y-97800000D03*
X160400000Y-145100000D03*
X153400000Y-145100000D03*
X160400000Y-144100000D03*
X153400000Y-144100000D03*
X160400000Y-143100000D03*
X153400000Y-143100000D03*
X160400000Y-142100000D03*
X153400000Y-142100000D03*
X160400000Y-141100000D03*
X153400000Y-141100000D03*
X160400000Y-140100000D03*
X153400000Y-140100000D03*
X160400000Y-139100000D03*
X153400000Y-139100000D03*
X160400000Y-138100000D03*
X153400000Y-138100000D03*
X160400000Y-137100000D03*
X153400000Y-137100000D03*
X160400000Y-136100000D03*
X153400000Y-136100000D03*
X160400000Y-135100000D03*
X153400000Y-135100000D03*
X160400000Y-134100000D03*
X153400000Y-134100000D03*
X160400000Y-133100000D03*
X153400000Y-133100000D03*
X160400000Y-132100000D03*
X153400000Y-132100000D03*
X145600000Y-145100000D03*
X138600000Y-145100000D03*
X145600000Y-144100000D03*
X138600000Y-144100000D03*
X145600000Y-143100000D03*
X138600000Y-143100000D03*
X145600000Y-142100000D03*
X138600000Y-142100000D03*
X145600000Y-141100000D03*
X138600000Y-141100000D03*
X145600000Y-140100000D03*
X138600000Y-140100000D03*
X145600000Y-139100000D03*
X138600000Y-139100000D03*
X145600000Y-138100000D03*
X138600000Y-138100000D03*
X145600000Y-137100000D03*
X138600000Y-137100000D03*
X145600000Y-136100000D03*
X138600000Y-136100000D03*
X145600000Y-135100000D03*
X138600000Y-135100000D03*
X145600000Y-134100000D03*
X138600000Y-134100000D03*
X145600000Y-133100000D03*
X138600000Y-133100000D03*
X145600000Y-132100000D03*
X138600000Y-132100000D03*
X160400000Y-59000000D03*
X153400000Y-59000000D03*
X160400000Y-58000000D03*
X153400000Y-58000000D03*
X160400000Y-57000000D03*
X153400000Y-57000000D03*
X160400000Y-56000000D03*
X153400000Y-56000000D03*
X160400000Y-55000000D03*
X153400000Y-55000000D03*
X160400000Y-54000000D03*
X153400000Y-54000000D03*
X160400000Y-53000000D03*
X153400000Y-53000000D03*
X160400000Y-52000000D03*
X153400000Y-52000000D03*
X160400000Y-51000000D03*
X153400000Y-51000000D03*
X160400000Y-50000000D03*
X153400000Y-50000000D03*
X160400000Y-49000000D03*
X153400000Y-49000000D03*
X160400000Y-48000000D03*
X153400000Y-48000000D03*
X160400000Y-47000000D03*
X153400000Y-47000000D03*
X160400000Y-46000000D03*
X153400000Y-46000000D03*
X145600000Y-59000000D03*
X138600000Y-59000000D03*
X145600000Y-58000000D03*
X138600000Y-58000000D03*
X145600000Y-57000000D03*
X138600000Y-57000000D03*
X145600000Y-56000000D03*
X138600000Y-56000000D03*
X145600000Y-55000000D03*
X138600000Y-55000000D03*
X145600000Y-54000000D03*
X138600000Y-54000000D03*
X145600000Y-53000000D03*
X138600000Y-53000000D03*
X145600000Y-52000000D03*
X138600000Y-52000000D03*
X145600000Y-51000000D03*
X138600000Y-51000000D03*
X145600000Y-50000000D03*
X138600000Y-50000000D03*
X145600000Y-49000000D03*
X138600000Y-49000000D03*
X145600000Y-48000000D03*
X138600000Y-48000000D03*
X145600000Y-47000000D03*
X138600000Y-47000000D03*
X145600000Y-46000000D03*
X138600000Y-46000000D03*
X130800000Y-59000000D03*
X123800000Y-59000000D03*
X130800000Y-58000000D03*
X123800000Y-58000000D03*
X130800000Y-57000000D03*
X123800000Y-57000000D03*
X130800000Y-56000000D03*
X123800000Y-56000000D03*
X130800000Y-55000000D03*
X123800000Y-55000000D03*
X130800000Y-54000000D03*
X123800000Y-54000000D03*
X130800000Y-53000000D03*
X123800000Y-53000000D03*
X130800000Y-52000000D03*
X123800000Y-52000000D03*
X130800000Y-51000000D03*
X123800000Y-51000000D03*
X130800000Y-50000000D03*
X123800000Y-50000000D03*
X130800000Y-49000000D03*
X123800000Y-49000000D03*
X130800000Y-48000000D03*
X123800000Y-48000000D03*
X130800000Y-47000000D03*
X123800000Y-47000000D03*
X130800000Y-46000000D03*
X123800000Y-46000000D03*
X122000000Y-111400000D03*
X122000000Y-110400000D03*
X122000000Y-109400000D03*
X122000000Y-108400000D03*
X179600000Y-115600000D03*
X180800000Y-110000000D03*
X175000000Y-108800000D03*
X179190000Y-88900000D03*
X175310000Y-90410000D03*
X173550000Y-100700000D03*
X178530000Y-99690000D03*
X187400000Y-103100000D03*
X185500000Y-108300000D03*
X162100000Y-122100000D03*
X132700000Y-119900000D03*
X165000000Y-116200000D03*
X165000000Y-115200000D03*
X164100000Y-116700000D03*
X164100000Y-115700000D03*
X164100000Y-114700000D03*
X158800000Y-116200000D03*
X158800000Y-115200000D03*
X158000000Y-116700000D03*
X158000000Y-115700000D03*
X158000000Y-114700000D03*
X141800000Y-117700000D03*
X141800000Y-116700000D03*
X141800000Y-115700000D03*
X141800000Y-114700000D03*
X129700000Y-117700000D03*
X129700000Y-116700000D03*
X129700000Y-115700000D03*
X129700000Y-114700000D03*
X122700000Y-117200000D03*
X122700000Y-116200000D03*
X122700000Y-115200000D03*
X121800000Y-117700000D03*
X121800000Y-116700000D03*
X121800000Y-115700000D03*
X121800000Y-114700000D03*
X116600000Y-117200000D03*
X116600000Y-116200000D03*
X116600000Y-115200000D03*
X117500000Y-117700000D03*
X117500000Y-116700000D03*
X117500000Y-115700000D03*
X117500000Y-114700000D03*
X125900000Y-119500000D03*
X118500000Y-120900000D03*
X112700000Y-123500000D03*
X160760000Y-103570000D03*
X143800000Y-103600000D03*
X126700000Y-103800000D03*
X165800000Y-111600000D03*
X165800000Y-110600000D03*
X165800000Y-109600000D03*
X165800000Y-108600000D03*
X165800000Y-107600000D03*
X153800000Y-122600000D03*
X152800000Y-122600000D03*
X151800000Y-122600000D03*
X150800000Y-122600000D03*
X153800000Y-121000000D03*
X152800000Y-121000000D03*
X151800000Y-121000000D03*
X150800000Y-121000000D03*
X153800000Y-120000000D03*
X152800000Y-120000000D03*
X151800000Y-120000000D03*
X143000000Y-122600000D03*
X142000000Y-122600000D03*
X141000000Y-122600000D03*
X150800000Y-120000000D03*
X143000000Y-120000000D03*
X142000000Y-121000000D03*
X142000000Y-120000000D03*
X143000000Y-121000000D03*
X141000000Y-121000000D03*
X141000000Y-120000000D03*
X140000000Y-122600000D03*
X140000000Y-121000000D03*
X140000000Y-120000000D03*
X164100000Y-111600000D03*
X164100000Y-110600000D03*
X164100000Y-109600000D03*
X164100000Y-108600000D03*
X164100000Y-107600000D03*
X158000000Y-111600000D03*
X158000000Y-110600000D03*
X158000000Y-109600000D03*
X158000000Y-108600000D03*
X158000000Y-107600000D03*
X151900000Y-111600000D03*
X151900000Y-110600000D03*
X151900000Y-109600000D03*
X151900000Y-108600000D03*
X151900000Y-107600000D03*
X150500000Y-111600000D03*
X150500000Y-110600000D03*
X150500000Y-109600000D03*
X150500000Y-108600000D03*
X150500000Y-107600000D03*
X142500000Y-111600000D03*
X142500000Y-110600000D03*
X142500000Y-109600000D03*
X142500000Y-108600000D03*
X142500000Y-107600000D03*
X141000000Y-111600000D03*
X141000000Y-110600000D03*
X141000000Y-109600000D03*
X141000000Y-108600000D03*
X141000000Y-107600000D03*
X128800000Y-111400000D03*
X128800000Y-110400000D03*
X128800000Y-109400000D03*
X128800000Y-108400000D03*
X128800000Y-107400000D03*
X127300000Y-111400000D03*
X127300000Y-110400000D03*
X127300000Y-109400000D03*
X127300000Y-108400000D03*
X127300000Y-107400000D03*
X117100000Y-111400000D03*
X117100000Y-110400000D03*
X117100000Y-109400000D03*
X117100000Y-108400000D03*
X117100000Y-107400000D03*
X117100000Y-106400000D03*
X117100000Y-105400000D03*
X117100000Y-104400000D03*
X113600000Y-94840000D03*
X113600000Y-93640000D03*
X118500000Y-102000000D03*
X118500000Y-101000000D03*
X118500000Y-100000000D03*
X118500000Y-99000000D03*
X118500000Y-98000000D03*
X136000000Y-101800000D03*
X136000000Y-100800000D03*
X136000000Y-99800000D03*
X136000000Y-98800000D03*
X153200000Y-101800000D03*
X153200000Y-100800000D03*
X153200000Y-99800000D03*
X153200000Y-98800000D03*
X153200000Y-97800000D03*
X151000000Y-90700000D03*
X129000000Y-94340000D03*
X129000000Y-93360000D03*
X129000000Y-92380000D03*
X129000000Y-91400000D03*
X129000000Y-90420000D03*
X129000000Y-89440000D03*
X129000000Y-88460000D03*
X129000000Y-87480000D03*
X129000000Y-86500000D03*
X128020000Y-94340000D03*
X128020000Y-93360000D03*
X128020000Y-92380000D03*
X128020000Y-91400000D03*
X128020000Y-90420000D03*
X128020000Y-89440000D03*
X128020000Y-88460000D03*
X128020000Y-87480000D03*
X128020000Y-86500000D03*
X127040000Y-94340000D03*
X127040000Y-93360000D03*
X127040000Y-92380000D03*
X127040000Y-91400000D03*
X127040000Y-90420000D03*
X127040000Y-89440000D03*
X127040000Y-88460000D03*
X127040000Y-87480000D03*
X127040000Y-86500000D03*
X126060000Y-94340000D03*
X126060000Y-93360000D03*
X126060000Y-92380000D03*
X126060000Y-91400000D03*
X126060000Y-90420000D03*
X126060000Y-89440000D03*
X126060000Y-88460000D03*
X126060000Y-87480000D03*
X126060000Y-86500000D03*
X125080000Y-94340000D03*
X125080000Y-93360000D03*
X125080000Y-92380000D03*
X125080000Y-91400000D03*
X125080000Y-90420000D03*
X125080000Y-89440000D03*
X125080000Y-88460000D03*
X125080000Y-87480000D03*
X125080000Y-86500000D03*
X124100000Y-94340000D03*
X124100000Y-93360000D03*
X124100000Y-92380000D03*
X124100000Y-91400000D03*
X124100000Y-90420000D03*
X124100000Y-89440000D03*
X124100000Y-88460000D03*
X124100000Y-87480000D03*
X124100000Y-86500000D03*
X123120000Y-94340000D03*
X123120000Y-93360000D03*
X123120000Y-92380000D03*
X123120000Y-91400000D03*
X123120000Y-90420000D03*
X123120000Y-89440000D03*
X123120000Y-88460000D03*
X123120000Y-87480000D03*
X123120000Y-86500000D03*
X122140000Y-94340000D03*
X122140000Y-93360000D03*
X122140000Y-92380000D03*
X122140000Y-91400000D03*
X122140000Y-90420000D03*
X122140000Y-89440000D03*
X122140000Y-88460000D03*
X122140000Y-87480000D03*
X122140000Y-86500000D03*
X121160000Y-94340000D03*
X121160000Y-93360000D03*
X121160000Y-92380000D03*
X121160000Y-91400000D03*
X121160000Y-90420000D03*
X121160000Y-89440000D03*
X121160000Y-88460000D03*
X121160000Y-87480000D03*
X121160000Y-86500000D03*
X120180000Y-94340000D03*
X120180000Y-93360000D03*
X120180000Y-92380000D03*
X120180000Y-91400000D03*
X120180000Y-90420000D03*
X120180000Y-89440000D03*
X120180000Y-88460000D03*
X120180000Y-87480000D03*
X120180000Y-86500000D03*
X119200000Y-94340000D03*
X119200000Y-93360000D03*
X119200000Y-92380000D03*
X119200000Y-91400000D03*
X119200000Y-90420000D03*
X119200000Y-89440000D03*
X119200000Y-88460000D03*
X119200000Y-87480000D03*
X119200000Y-86500000D03*
X153500000Y-86500000D03*
X146100000Y-94340000D03*
X146100000Y-93360000D03*
X146100000Y-92380000D03*
X146100000Y-91400000D03*
X146100000Y-90420000D03*
X146100000Y-89440000D03*
X146100000Y-88460000D03*
X146100000Y-87480000D03*
X146100000Y-86500000D03*
X145120000Y-94340000D03*
X145120000Y-93360000D03*
X145120000Y-92380000D03*
X145120000Y-91400000D03*
X145120000Y-90420000D03*
X145120000Y-89440000D03*
X145120000Y-88460000D03*
X145120000Y-87480000D03*
X145120000Y-86500000D03*
X144140000Y-94340000D03*
X144140000Y-93360000D03*
X144140000Y-92380000D03*
X144140000Y-91400000D03*
X144140000Y-90420000D03*
X144140000Y-89440000D03*
X144140000Y-88460000D03*
X144140000Y-87480000D03*
X144140000Y-86500000D03*
X143160000Y-94340000D03*
X143160000Y-93360000D03*
X143160000Y-92380000D03*
X143160000Y-91400000D03*
X143160000Y-90420000D03*
X143160000Y-89440000D03*
X143160000Y-88460000D03*
X143160000Y-87480000D03*
X143160000Y-86500000D03*
X142180000Y-94340000D03*
X142180000Y-93360000D03*
X142180000Y-92380000D03*
X142180000Y-91400000D03*
X142180000Y-90420000D03*
X142180000Y-89440000D03*
X142180000Y-88460000D03*
X142180000Y-87480000D03*
X142180000Y-86500000D03*
X141200000Y-94340000D03*
X141200000Y-93360000D03*
X141200000Y-92380000D03*
X141200000Y-91400000D03*
X141200000Y-90420000D03*
X141200000Y-89440000D03*
X141200000Y-88460000D03*
X141200000Y-87480000D03*
X141200000Y-86500000D03*
X140220000Y-94340000D03*
X140220000Y-93360000D03*
X140220000Y-92380000D03*
X140220000Y-91400000D03*
X140220000Y-90420000D03*
X140220000Y-89440000D03*
X140220000Y-88460000D03*
X140220000Y-87480000D03*
X140220000Y-86500000D03*
X139240000Y-94340000D03*
X139240000Y-93360000D03*
X139240000Y-92380000D03*
X139240000Y-91400000D03*
X139240000Y-90420000D03*
X139240000Y-89440000D03*
X139240000Y-88460000D03*
X139240000Y-87480000D03*
X139240000Y-86500000D03*
X138260000Y-94340000D03*
X138260000Y-93360000D03*
X138260000Y-92380000D03*
X138260000Y-91400000D03*
X138260000Y-90420000D03*
X138260000Y-89440000D03*
X138260000Y-88460000D03*
X138260000Y-87480000D03*
X138260000Y-86500000D03*
X137280000Y-94340000D03*
X137280000Y-93360000D03*
X137280000Y-92380000D03*
X137280000Y-91400000D03*
X137280000Y-90420000D03*
X137280000Y-89440000D03*
X137280000Y-88460000D03*
X137280000Y-87480000D03*
X137280000Y-86500000D03*
X136300000Y-94340000D03*
X136300000Y-93360000D03*
X136300000Y-92380000D03*
X136300000Y-91400000D03*
X136300000Y-90420000D03*
X136300000Y-89440000D03*
X136300000Y-88460000D03*
X136300000Y-87480000D03*
X136300000Y-86500000D03*
X163300000Y-94340000D03*
X163300000Y-93360000D03*
X163300000Y-92380000D03*
X163300000Y-91400000D03*
X163300000Y-90420000D03*
X163300000Y-89440000D03*
X163300000Y-88460000D03*
X163300000Y-87480000D03*
X163300000Y-86500000D03*
X162320000Y-94340000D03*
X162320000Y-93360000D03*
X162320000Y-92380000D03*
X162320000Y-91400000D03*
X162320000Y-90420000D03*
X162320000Y-89440000D03*
X162320000Y-88460000D03*
X162320000Y-87480000D03*
X162320000Y-86500000D03*
X161340000Y-94340000D03*
X161340000Y-93360000D03*
X161340000Y-92380000D03*
X161340000Y-91400000D03*
X161340000Y-90420000D03*
X161340000Y-89440000D03*
X161340000Y-88460000D03*
X161340000Y-87480000D03*
X161340000Y-86500000D03*
X160360000Y-94340000D03*
X160360000Y-93360000D03*
X160360000Y-92380000D03*
X160360000Y-91400000D03*
X160360000Y-90420000D03*
X160360000Y-89440000D03*
X160360000Y-88460000D03*
X160360000Y-87480000D03*
X160360000Y-86500000D03*
X159380000Y-94340000D03*
X159380000Y-93360000D03*
X159380000Y-92380000D03*
X159380000Y-91400000D03*
X159380000Y-90420000D03*
X159380000Y-89440000D03*
X159380000Y-88460000D03*
X159380000Y-87480000D03*
X159380000Y-86500000D03*
X158400000Y-94340000D03*
X158400000Y-93360000D03*
X158400000Y-92380000D03*
X158400000Y-91400000D03*
X158400000Y-90420000D03*
X158400000Y-89440000D03*
X158400000Y-88460000D03*
X158400000Y-87480000D03*
X158400000Y-86500000D03*
X157420000Y-94340000D03*
X157420000Y-93360000D03*
X157420000Y-92380000D03*
X157420000Y-91400000D03*
X157420000Y-90420000D03*
X157420000Y-89440000D03*
X157420000Y-88460000D03*
X157420000Y-87480000D03*
X157420000Y-86500000D03*
X156440000Y-94340000D03*
X156440000Y-93360000D03*
X156440000Y-92380000D03*
X156440000Y-91400000D03*
X156440000Y-90420000D03*
X156440000Y-89440000D03*
X156440000Y-88460000D03*
X156440000Y-87480000D03*
X156440000Y-86500000D03*
X155460000Y-94340000D03*
X155460000Y-93360000D03*
X155460000Y-92380000D03*
X155460000Y-91400000D03*
X155460000Y-90420000D03*
X155460000Y-89440000D03*
X155460000Y-88460000D03*
X155460000Y-87480000D03*
X155460000Y-86500000D03*
X154480000Y-94340000D03*
X154480000Y-93360000D03*
X154480000Y-92380000D03*
X154480000Y-91400000D03*
X154480000Y-90420000D03*
X154480000Y-89440000D03*
X154480000Y-88460000D03*
X154480000Y-87480000D03*
X154500000Y-86500000D03*
X153500000Y-94340000D03*
X153500000Y-93360000D03*
X153500000Y-92380000D03*
X153500000Y-91400000D03*
X153500000Y-90420000D03*
X153500000Y-89440000D03*
X153500000Y-88460000D03*
X153500000Y-87480000D03*
D12*
X115165000Y-135505180D03*
X150000000Y-82000000D03*
X115165000Y-55495180D03*
X183745000Y-55495180D03*
X183745000Y-135505180D03*
D11*
X114440000Y-98410000D03*
X112740000Y-90110000D03*
X180500000Y-106700000D03*
X186980000Y-100550000D03*
X171860000Y-91340000D03*
X171200000Y-119930000D03*
X178940000Y-111340000D03*
X127240000Y-129030000D03*
X124440000Y-119500000D03*
X115960000Y-121960000D03*
X112150000Y-100870000D03*
X175660000Y-117070000D03*
X122900000Y-122990000D03*
X185970000Y-111270000D03*
X177040000Y-110880000D03*
X184100000Y-112740000D03*
X178370000Y-101210000D03*
X162030000Y-120330000D03*
X125110000Y-123000000D03*
X157880000Y-122520000D03*
X173630000Y-88300000D03*
X186290000Y-67380000D03*
X181190000Y-78750000D03*
X172130000Y-95480000D03*
X180160000Y-71140000D03*
X182760000Y-70880000D03*
X179340000Y-97970000D03*
X172540000Y-109050000D03*
X178340000Y-89890000D03*
X180240000Y-98160000D03*
X181530000Y-66020000D03*
X181380000Y-91910000D03*
X149690000Y-93280000D03*
X185430000Y-97380000D03*
X172580000Y-94830000D03*
X123630000Y-105560000D03*
X178160000Y-96150000D03*
X139510000Y-105510000D03*
X189160000Y-106700000D03*
X155360000Y-107440000D03*
X172640000Y-100240000D03*
X176700000Y-114040000D03*
X136690000Y-122610000D03*
X178180000Y-95390000D03*
X170430000Y-69020000D03*
X178630000Y-100470000D03*
X138490000Y-121760000D03*
X178370000Y-102170000D03*
X124570000Y-104710000D03*
X175350000Y-106730000D03*
X175100000Y-105960000D03*
X124530000Y-103560000D03*
X175980000Y-105130000D03*
X141750000Y-104820000D03*
X158730000Y-104470000D03*
X171690000Y-104280000D03*
X182050000Y-104260000D03*
X181870000Y-103240000D03*
X181880000Y-102190000D03*
X181900000Y-101270000D03*
X173100000Y-103920000D03*
X159080000Y-103590000D03*
X185540000Y-99280000D03*
X141680000Y-103550000D03*
X173100000Y-104810000D03*
X180660000Y-98850000D03*
X172610000Y-79680000D03*
X182170000Y-89180000D03*
X178530000Y-74150000D03*
X183720000Y-79100000D03*
X122050000Y-102790000D03*
X123460000Y-102790000D03*
X190110000Y-63050000D03*
X125650000Y-102790000D03*
X171890000Y-101160000D03*
X126740000Y-102810000D03*
X139240000Y-102770000D03*
X140640000Y-102770000D03*
X186250000Y-63090000D03*
X142850000Y-102770000D03*
X144030000Y-102800000D03*
X185480000Y-107210000D03*
X171680000Y-101960000D03*
X156400000Y-102840000D03*
X157820000Y-102840000D03*
X183920000Y-63110000D03*
X160010000Y-102840000D03*
X161140000Y-102910000D03*
X171840000Y-102900000D03*
X113750000Y-106710000D03*
X166730000Y-132970000D03*
X127980000Y-119710000D03*
D13*
G36*
X134873000Y-96873000D02*
X118127000Y-96873000D01*
X118127000Y-57167869D01*
X118541412Y-56169854D01*
X118542585Y-54826400D01*
X118127000Y-53820609D01*
X118127000Y-36896845D01*
X134873000Y-36896845D01*
X134873000Y-96873000D01*
X134873000Y-96873000D01*
G37*
X134873000Y-96873000D02*
X118127000Y-96873000D01*
X118127000Y-57167869D01*
X118541412Y-56169854D01*
X118542585Y-54826400D01*
X118127000Y-53820609D01*
X118127000Y-36896845D01*
X134873000Y-36896845D01*
X134873000Y-96873000D01*
G36*
X152173000Y-79396824D02*
X151915414Y-79138788D01*
X150674674Y-78623588D01*
X149331220Y-78622415D01*
X148089582Y-79135450D01*
X147138788Y-80084586D01*
X146623588Y-81325326D01*
X146622415Y-82668780D01*
X147135450Y-83910418D01*
X148084586Y-84861212D01*
X149325326Y-85376412D01*
X150668780Y-85377585D01*
X151910418Y-84864550D01*
X152173000Y-84602426D01*
X152173000Y-89673000D01*
X148500000Y-89673000D01*
X148450590Y-89683006D01*
X148408965Y-89711447D01*
X148381685Y-89753841D01*
X148373000Y-89800000D01*
X148373000Y-96873000D01*
X135527000Y-96873000D01*
X135527000Y-36896845D01*
X152173000Y-36896845D01*
X152173000Y-79396824D01*
X152173000Y-79396824D01*
G37*
X152173000Y-79396824D02*
X151915414Y-79138788D01*
X150674674Y-78623588D01*
X149331220Y-78622415D01*
X148089582Y-79135450D01*
X147138788Y-80084586D01*
X146623588Y-81325326D01*
X146622415Y-82668780D01*
X147135450Y-83910418D01*
X148084586Y-84861212D01*
X149325326Y-85376412D01*
X150668780Y-85377585D01*
X151910418Y-84864550D01*
X152173000Y-84602426D01*
X152173000Y-89673000D01*
X148500000Y-89673000D01*
X148450590Y-89683006D01*
X148408965Y-89711447D01*
X148381685Y-89753841D01*
X148373000Y-89800000D01*
X148373000Y-96873000D01*
X135527000Y-96873000D01*
X135527000Y-36896845D01*
X152173000Y-36896845D01*
X152173000Y-79396824D01*
G36*
X166873000Y-59700000D02*
X166874703Y-59720726D01*
X169073000Y-73010431D01*
X169073000Y-96873000D01*
X152727000Y-96873000D01*
X152727000Y-84049392D01*
X152861212Y-83915414D01*
X153376412Y-82674674D01*
X153377585Y-81331220D01*
X152864550Y-80089582D01*
X152727000Y-79951792D01*
X152727000Y-36896845D01*
X166873000Y-36896845D01*
X166873000Y-59700000D01*
X166873000Y-59700000D01*
G37*
X166873000Y-59700000D02*
X166874703Y-59720726D01*
X169073000Y-73010431D01*
X169073000Y-96873000D01*
X152727000Y-96873000D01*
X152727000Y-84049392D01*
X152861212Y-83915414D01*
X153376412Y-82674674D01*
X153377585Y-81331220D01*
X152864550Y-80089582D01*
X152727000Y-79951792D01*
X152727000Y-36896845D01*
X166873000Y-36896845D01*
X166873000Y-59700000D01*
G36*
X117573000Y-97400000D02*
X117583006Y-97449410D01*
X117611447Y-97491035D01*
X117653841Y-97518315D01*
X117700000Y-97527000D01*
X128886339Y-97527000D01*
X128768765Y-97644369D01*
X128673109Y-97874735D01*
X128672891Y-98124171D01*
X128768145Y-98354703D01*
X128913287Y-98500099D01*
X128768765Y-98644369D01*
X128673109Y-98874735D01*
X128672891Y-99124171D01*
X128768145Y-99354703D01*
X128913287Y-99500099D01*
X128768765Y-99644369D01*
X128673109Y-99874735D01*
X128672891Y-100124171D01*
X128768145Y-100354703D01*
X128913287Y-100500099D01*
X128768765Y-100644369D01*
X128673109Y-100874735D01*
X128672891Y-101124171D01*
X128768145Y-101354703D01*
X128944369Y-101531235D01*
X129174735Y-101626891D01*
X129424171Y-101627109D01*
X129572942Y-101565638D01*
X129572891Y-101624171D01*
X129668145Y-101854703D01*
X129844369Y-102031235D01*
X130074735Y-102126891D01*
X130324171Y-102127109D01*
X130554703Y-102031855D01*
X130731235Y-101855631D01*
X130826891Y-101625265D01*
X130827109Y-101375829D01*
X130731855Y-101145297D01*
X130586713Y-100999901D01*
X130731235Y-100855631D01*
X130826891Y-100625265D01*
X130827109Y-100375829D01*
X130731855Y-100145297D01*
X130586713Y-99999901D01*
X130731235Y-99855631D01*
X130826891Y-99625265D01*
X130827109Y-99375829D01*
X130731855Y-99145297D01*
X130586713Y-98999901D01*
X130731235Y-98855631D01*
X130826891Y-98625265D01*
X130827109Y-98375829D01*
X130731855Y-98145297D01*
X130555631Y-97968765D01*
X130325265Y-97873109D01*
X130075829Y-97872891D01*
X129927058Y-97934362D01*
X129927109Y-97875829D01*
X129831855Y-97645297D01*
X129713764Y-97527000D01*
X146086339Y-97527000D01*
X145968765Y-97644369D01*
X145873109Y-97874735D01*
X145872891Y-98124171D01*
X145968145Y-98354703D01*
X146113287Y-98500099D01*
X145968765Y-98644369D01*
X145873109Y-98874735D01*
X145872891Y-99124171D01*
X145968145Y-99354703D01*
X146113287Y-99500099D01*
X145968765Y-99644369D01*
X145873109Y-99874735D01*
X145872891Y-100124171D01*
X145968145Y-100354703D01*
X146113287Y-100500099D01*
X145968765Y-100644369D01*
X145873109Y-100874735D01*
X145872891Y-101124171D01*
X145968145Y-101354703D01*
X146144369Y-101531235D01*
X146374735Y-101626891D01*
X146624171Y-101627109D01*
X146772942Y-101565638D01*
X146772891Y-101624171D01*
X146868145Y-101854703D01*
X147044369Y-102031235D01*
X147274735Y-102126891D01*
X147524171Y-102127109D01*
X147628088Y-102084171D01*
X171052891Y-102084171D01*
X171148145Y-102314703D01*
X171324369Y-102491235D01*
X171350940Y-102502268D01*
X171308765Y-102544369D01*
X171213109Y-102774735D01*
X171212891Y-103024171D01*
X171308145Y-103254703D01*
X171484369Y-103431235D01*
X171714735Y-103526891D01*
X171964171Y-103527109D01*
X172194703Y-103431855D01*
X172371235Y-103255631D01*
X172466891Y-103025265D01*
X172467109Y-102775829D01*
X172371855Y-102545297D01*
X172195631Y-102368765D01*
X172169060Y-102357732D01*
X172211235Y-102315631D01*
X172306891Y-102085265D01*
X172307109Y-101835829D01*
X172246768Y-101689793D01*
X172421235Y-101515631D01*
X172496583Y-101334171D01*
X177742891Y-101334171D01*
X177838145Y-101564703D01*
X177963287Y-101690064D01*
X177838765Y-101814369D01*
X177743109Y-102044735D01*
X177742891Y-102294171D01*
X177838145Y-102524703D01*
X178014369Y-102701235D01*
X178244735Y-102796891D01*
X178494171Y-102797109D01*
X178724703Y-102701855D01*
X178901235Y-102525631D01*
X178996891Y-102295265D01*
X178997109Y-102045829D01*
X178901855Y-101815297D01*
X178776713Y-101689936D01*
X178901235Y-101565631D01*
X178996891Y-101335265D01*
X178997109Y-101085829D01*
X178965662Y-101009722D01*
X178984703Y-101001855D01*
X179161235Y-100825631D01*
X179256891Y-100595265D01*
X179257109Y-100345829D01*
X179161855Y-100115297D01*
X178985631Y-99938765D01*
X178755265Y-99843109D01*
X178505829Y-99842891D01*
X178275297Y-99938145D01*
X178098765Y-100114369D01*
X178003109Y-100344735D01*
X178002891Y-100594171D01*
X178034338Y-100670278D01*
X178015297Y-100678145D01*
X177838765Y-100854369D01*
X177743109Y-101084735D01*
X177742891Y-101334171D01*
X172496583Y-101334171D01*
X172516891Y-101285265D01*
X172517109Y-101035829D01*
X172433340Y-100833093D01*
X172514735Y-100866891D01*
X172764171Y-100867109D01*
X172994703Y-100771855D01*
X173171235Y-100595631D01*
X173266891Y-100365265D01*
X173267109Y-100115829D01*
X173171855Y-99885297D01*
X172995631Y-99708765D01*
X172765265Y-99613109D01*
X172515829Y-99612891D01*
X172285297Y-99708145D01*
X172108765Y-99884369D01*
X172013109Y-100114735D01*
X172012891Y-100364171D01*
X172096660Y-100566907D01*
X172015265Y-100533109D01*
X171765829Y-100532891D01*
X171535297Y-100628145D01*
X171358765Y-100804369D01*
X171263109Y-101034735D01*
X171262891Y-101284171D01*
X171323232Y-101430207D01*
X171148765Y-101604369D01*
X171053109Y-101834735D01*
X171052891Y-102084171D01*
X147628088Y-102084171D01*
X147754703Y-102031855D01*
X147931235Y-101855631D01*
X148026891Y-101625265D01*
X148027109Y-101375829D01*
X147931855Y-101145297D01*
X147786713Y-100999901D01*
X147931235Y-100855631D01*
X148026891Y-100625265D01*
X148027109Y-100375829D01*
X147931855Y-100145297D01*
X147786713Y-99999901D01*
X147931235Y-99855631D01*
X148026891Y-99625265D01*
X148027109Y-99375829D01*
X147931855Y-99145297D01*
X147786713Y-98999901D01*
X147931235Y-98855631D01*
X148026891Y-98625265D01*
X148027109Y-98375829D01*
X147931855Y-98145297D01*
X147755631Y-97968765D01*
X147525265Y-97873109D01*
X147275829Y-97872891D01*
X147127058Y-97934362D01*
X147127109Y-97875829D01*
X147031855Y-97645297D01*
X146913764Y-97527000D01*
X148800000Y-97527000D01*
X148849410Y-97516994D01*
X148891035Y-97488553D01*
X148918315Y-97446159D01*
X148927000Y-97400000D01*
X148927000Y-93404171D01*
X149062891Y-93404171D01*
X149158145Y-93634703D01*
X149334369Y-93811235D01*
X149564735Y-93906891D01*
X149814171Y-93907109D01*
X150044703Y-93811855D01*
X150221235Y-93635631D01*
X150316891Y-93405265D01*
X150317109Y-93155829D01*
X150221855Y-92925297D01*
X150045631Y-92748765D01*
X149815265Y-92653109D01*
X149565829Y-92652891D01*
X149335297Y-92748145D01*
X149158765Y-92924369D01*
X149063109Y-93154735D01*
X149062891Y-93404171D01*
X148927000Y-93404171D01*
X148927000Y-90227000D01*
X152173000Y-90227000D01*
X152173000Y-97400000D01*
X152183006Y-97449410D01*
X152211447Y-97491035D01*
X152253841Y-97518315D01*
X152300000Y-97527000D01*
X163444875Y-97527000D01*
X163345297Y-97568145D01*
X163168765Y-97744369D01*
X163073109Y-97974735D01*
X163072891Y-98224171D01*
X163168145Y-98454703D01*
X163313287Y-98600099D01*
X163168765Y-98744369D01*
X163073109Y-98974735D01*
X163072891Y-99224171D01*
X163168145Y-99454703D01*
X163344369Y-99631235D01*
X163574735Y-99726891D01*
X163824171Y-99727109D01*
X164054703Y-99631855D01*
X164200099Y-99486713D01*
X164344369Y-99631235D01*
X164574735Y-99726891D01*
X164824171Y-99727109D01*
X165054703Y-99631855D01*
X165200099Y-99486713D01*
X165344369Y-99631235D01*
X165574735Y-99726891D01*
X165824171Y-99727109D01*
X166054703Y-99631855D01*
X166200099Y-99486713D01*
X166344369Y-99631235D01*
X166574735Y-99726891D01*
X166824171Y-99727109D01*
X167054703Y-99631855D01*
X167231235Y-99455631D01*
X167326891Y-99225265D01*
X167327109Y-98975829D01*
X167231855Y-98745297D01*
X167086713Y-98599901D01*
X167231235Y-98455631D01*
X167326891Y-98225265D01*
X167327005Y-98094171D01*
X178712891Y-98094171D01*
X178808145Y-98324703D01*
X178984369Y-98501235D01*
X179214735Y-98596891D01*
X179464171Y-98597109D01*
X179694703Y-98501855D01*
X179700461Y-98496107D01*
X179708145Y-98514703D01*
X179884369Y-98691235D01*
X180033084Y-98752987D01*
X180032891Y-98974171D01*
X180128145Y-99204703D01*
X180304369Y-99381235D01*
X180534735Y-99476891D01*
X180784171Y-99477109D01*
X180960694Y-99404171D01*
X184912891Y-99404171D01*
X185008145Y-99634703D01*
X185184369Y-99811235D01*
X185414735Y-99906891D01*
X185664171Y-99907109D01*
X185894703Y-99811855D01*
X186071235Y-99635631D01*
X186166891Y-99405265D01*
X186167109Y-99155829D01*
X186071855Y-98925297D01*
X185895631Y-98748765D01*
X185665265Y-98653109D01*
X185415829Y-98652891D01*
X185185297Y-98748145D01*
X185008765Y-98924369D01*
X184913109Y-99154735D01*
X184912891Y-99404171D01*
X180960694Y-99404171D01*
X181014703Y-99381855D01*
X181191235Y-99205631D01*
X181286891Y-98975265D01*
X181287109Y-98725829D01*
X181191855Y-98495297D01*
X181015631Y-98318765D01*
X180866916Y-98257013D01*
X180867109Y-98035829D01*
X180771855Y-97805297D01*
X180595631Y-97628765D01*
X180365265Y-97533109D01*
X180115829Y-97532891D01*
X179885297Y-97628145D01*
X179879539Y-97633893D01*
X179871855Y-97615297D01*
X179760923Y-97504171D01*
X184802891Y-97504171D01*
X184898145Y-97734703D01*
X185074369Y-97911235D01*
X185304735Y-98006891D01*
X185554171Y-98007109D01*
X185784703Y-97911855D01*
X185961235Y-97735631D01*
X186056891Y-97505265D01*
X186057109Y-97255829D01*
X185961855Y-97025297D01*
X185785631Y-96848765D01*
X185555265Y-96753109D01*
X185305829Y-96752891D01*
X185075297Y-96848145D01*
X184898765Y-97024369D01*
X184803109Y-97254735D01*
X184802891Y-97504171D01*
X179760923Y-97504171D01*
X179695631Y-97438765D01*
X179465265Y-97343109D01*
X179215829Y-97342891D01*
X178985297Y-97438145D01*
X178808765Y-97614369D01*
X178713109Y-97844735D01*
X178712891Y-98094171D01*
X167327005Y-98094171D01*
X167327109Y-97975829D01*
X167231855Y-97745297D01*
X167055631Y-97568765D01*
X166955049Y-97527000D01*
X169500000Y-97527000D01*
X169549410Y-97516994D01*
X169591035Y-97488553D01*
X169618315Y-97446159D01*
X169627000Y-97400000D01*
X169627000Y-96274171D01*
X177532891Y-96274171D01*
X177628145Y-96504703D01*
X177804369Y-96681235D01*
X178034735Y-96776891D01*
X178284171Y-96777109D01*
X178514703Y-96681855D01*
X178691235Y-96505631D01*
X178786891Y-96275265D01*
X178787109Y-96025829D01*
X178691855Y-95795297D01*
X178676695Y-95780111D01*
X178711235Y-95745631D01*
X178806891Y-95515265D01*
X178807109Y-95265829D01*
X178711855Y-95035297D01*
X178535631Y-94858765D01*
X178305265Y-94763109D01*
X178055829Y-94762891D01*
X177825297Y-94858145D01*
X177648765Y-95034369D01*
X177553109Y-95264735D01*
X177552891Y-95514171D01*
X177648145Y-95744703D01*
X177663305Y-95759889D01*
X177628765Y-95794369D01*
X177533109Y-96024735D01*
X177532891Y-96274171D01*
X169627000Y-96274171D01*
X169627000Y-95604171D01*
X171502891Y-95604171D01*
X171598145Y-95834703D01*
X171774369Y-96011235D01*
X172004735Y-96106891D01*
X172254171Y-96107109D01*
X172484703Y-96011855D01*
X172661235Y-95835631D01*
X172756891Y-95605265D01*
X172757040Y-95435264D01*
X172934703Y-95361855D01*
X173111235Y-95185631D01*
X173206891Y-94955265D01*
X173207109Y-94705829D01*
X173111855Y-94475297D01*
X172935631Y-94298765D01*
X172705265Y-94203109D01*
X172455829Y-94202891D01*
X172225297Y-94298145D01*
X172048765Y-94474369D01*
X171953109Y-94704735D01*
X171952960Y-94874736D01*
X171775297Y-94948145D01*
X171598765Y-95124369D01*
X171503109Y-95354735D01*
X171502891Y-95604171D01*
X169627000Y-95604171D01*
X169627000Y-92034171D01*
X180752891Y-92034171D01*
X180848145Y-92264703D01*
X181024369Y-92441235D01*
X181254735Y-92536891D01*
X181504171Y-92537109D01*
X181734703Y-92441855D01*
X181911235Y-92265631D01*
X182006891Y-92035265D01*
X182007109Y-91785829D01*
X181911855Y-91555297D01*
X181735631Y-91378765D01*
X181505265Y-91283109D01*
X181255829Y-91282891D01*
X181025297Y-91378145D01*
X180848765Y-91554369D01*
X180753109Y-91784735D01*
X180752891Y-92034171D01*
X169627000Y-92034171D01*
X169627000Y-91464171D01*
X171232891Y-91464171D01*
X171328145Y-91694703D01*
X171504369Y-91871235D01*
X171734735Y-91966891D01*
X171984171Y-91967109D01*
X172214703Y-91871855D01*
X172391235Y-91695631D01*
X172486891Y-91465265D01*
X172487109Y-91215829D01*
X172391855Y-90985297D01*
X172215631Y-90808765D01*
X171985265Y-90713109D01*
X171735829Y-90712891D01*
X171505297Y-90808145D01*
X171328765Y-90984369D01*
X171233109Y-91214735D01*
X171232891Y-91464171D01*
X169627000Y-91464171D01*
X169627000Y-90014171D01*
X177712891Y-90014171D01*
X177808145Y-90244703D01*
X177984369Y-90421235D01*
X178214735Y-90516891D01*
X178464171Y-90517109D01*
X178694703Y-90421855D01*
X178871235Y-90245631D01*
X178966891Y-90015265D01*
X178967109Y-89765829D01*
X178871855Y-89535297D01*
X178695631Y-89358765D01*
X178564154Y-89304171D01*
X181542891Y-89304171D01*
X181638145Y-89534703D01*
X181814369Y-89711235D01*
X182044735Y-89806891D01*
X182294171Y-89807109D01*
X182524703Y-89711855D01*
X182701235Y-89535631D01*
X182796891Y-89305265D01*
X182797109Y-89055829D01*
X182701855Y-88825297D01*
X182525631Y-88648765D01*
X182295265Y-88553109D01*
X182045829Y-88552891D01*
X181815297Y-88648145D01*
X181638765Y-88824369D01*
X181543109Y-89054735D01*
X181542891Y-89304171D01*
X178564154Y-89304171D01*
X178465265Y-89263109D01*
X178215829Y-89262891D01*
X177985297Y-89358145D01*
X177808765Y-89534369D01*
X177713109Y-89764735D01*
X177712891Y-90014171D01*
X169627000Y-90014171D01*
X169627000Y-88424171D01*
X173002891Y-88424171D01*
X173098145Y-88654703D01*
X173274369Y-88831235D01*
X173504735Y-88926891D01*
X173754171Y-88927109D01*
X173984703Y-88831855D01*
X174161235Y-88655631D01*
X174256891Y-88425265D01*
X174257109Y-88175829D01*
X174161855Y-87945297D01*
X173985631Y-87768765D01*
X173755265Y-87673109D01*
X173505829Y-87672891D01*
X173275297Y-87768145D01*
X173098765Y-87944369D01*
X173003109Y-88174735D01*
X173002891Y-88424171D01*
X169627000Y-88424171D01*
X169627000Y-79804171D01*
X171982891Y-79804171D01*
X172078145Y-80034703D01*
X172254369Y-80211235D01*
X172484735Y-80306891D01*
X172734171Y-80307109D01*
X172964703Y-80211855D01*
X173141235Y-80035631D01*
X173236891Y-79805265D01*
X173237109Y-79555829D01*
X173141855Y-79325297D01*
X172965631Y-79148765D01*
X172735265Y-79053109D01*
X172485829Y-79052891D01*
X172255297Y-79148145D01*
X172078765Y-79324369D01*
X171983109Y-79554735D01*
X171982891Y-79804171D01*
X169627000Y-79804171D01*
X169627000Y-78874171D01*
X180562891Y-78874171D01*
X180658145Y-79104703D01*
X180834369Y-79281235D01*
X181064735Y-79376891D01*
X181314171Y-79377109D01*
X181544703Y-79281855D01*
X181602487Y-79224171D01*
X183092891Y-79224171D01*
X183188145Y-79454703D01*
X183364369Y-79631235D01*
X183594735Y-79726891D01*
X183844171Y-79727109D01*
X184074703Y-79631855D01*
X184251235Y-79455631D01*
X184346891Y-79225265D01*
X184347109Y-78975829D01*
X184251855Y-78745297D01*
X184075631Y-78568765D01*
X183845265Y-78473109D01*
X183595829Y-78472891D01*
X183365297Y-78568145D01*
X183188765Y-78744369D01*
X183093109Y-78974735D01*
X183092891Y-79224171D01*
X181602487Y-79224171D01*
X181721235Y-79105631D01*
X181816891Y-78875265D01*
X181817109Y-78625829D01*
X181721855Y-78395297D01*
X181545631Y-78218765D01*
X181315265Y-78123109D01*
X181065829Y-78122891D01*
X180835297Y-78218145D01*
X180658765Y-78394369D01*
X180563109Y-78624735D01*
X180562891Y-78874171D01*
X169627000Y-78874171D01*
X169627000Y-74274171D01*
X177902891Y-74274171D01*
X177998145Y-74504703D01*
X178174369Y-74681235D01*
X178404735Y-74776891D01*
X178654171Y-74777109D01*
X178884703Y-74681855D01*
X179061235Y-74505631D01*
X179156891Y-74275265D01*
X179157109Y-74025829D01*
X179061855Y-73795297D01*
X178885631Y-73618765D01*
X178655265Y-73523109D01*
X178405829Y-73522891D01*
X178175297Y-73618145D01*
X177998765Y-73794369D01*
X177903109Y-74024735D01*
X177902891Y-74274171D01*
X169627000Y-74274171D01*
X169627000Y-73000000D01*
X169625567Y-72980975D01*
X169365446Y-71264171D01*
X179532891Y-71264171D01*
X179628145Y-71494703D01*
X179804369Y-71671235D01*
X180034735Y-71766891D01*
X180284171Y-71767109D01*
X180514703Y-71671855D01*
X180691235Y-71495631D01*
X180786891Y-71265265D01*
X180787109Y-71015829D01*
X180782293Y-71004171D01*
X182132891Y-71004171D01*
X182228145Y-71234703D01*
X182404369Y-71411235D01*
X182634735Y-71506891D01*
X182884171Y-71507109D01*
X183114703Y-71411855D01*
X183291235Y-71235631D01*
X183386891Y-71005265D01*
X183387109Y-70755829D01*
X183291855Y-70525297D01*
X183115631Y-70348765D01*
X182885265Y-70253109D01*
X182635829Y-70252891D01*
X182405297Y-70348145D01*
X182228765Y-70524369D01*
X182133109Y-70754735D01*
X182132891Y-71004171D01*
X180782293Y-71004171D01*
X180691855Y-70785297D01*
X180515631Y-70608765D01*
X180285265Y-70513109D01*
X180035829Y-70512891D01*
X179805297Y-70608145D01*
X179628765Y-70784369D01*
X179533109Y-71014735D01*
X179532891Y-71264171D01*
X169365446Y-71264171D01*
X169044234Y-69144171D01*
X169802891Y-69144171D01*
X169898145Y-69374703D01*
X170074369Y-69551235D01*
X170304735Y-69646891D01*
X170554171Y-69647109D01*
X170784703Y-69551855D01*
X170961235Y-69375631D01*
X171056891Y-69145265D01*
X171057109Y-68895829D01*
X170961855Y-68665297D01*
X170785631Y-68488765D01*
X170555265Y-68393109D01*
X170305829Y-68392891D01*
X170075297Y-68488145D01*
X169898765Y-68664369D01*
X169803109Y-68894735D01*
X169802891Y-69144171D01*
X169044234Y-69144171D01*
X168795750Y-67504171D01*
X185662891Y-67504171D01*
X185758145Y-67734703D01*
X185934369Y-67911235D01*
X186164735Y-68006891D01*
X186414171Y-68007109D01*
X186644703Y-67911855D01*
X186821235Y-67735631D01*
X186916891Y-67505265D01*
X186917109Y-67255829D01*
X186821855Y-67025297D01*
X186645631Y-66848765D01*
X186415265Y-66753109D01*
X186165829Y-66752891D01*
X185935297Y-66848145D01*
X185758765Y-67024369D01*
X185663109Y-67254735D01*
X185662891Y-67504171D01*
X168795750Y-67504171D01*
X168589689Y-66144171D01*
X180902891Y-66144171D01*
X180998145Y-66374703D01*
X181174369Y-66551235D01*
X181404735Y-66646891D01*
X181654171Y-66647109D01*
X181884703Y-66551855D01*
X182061235Y-66375631D01*
X182156891Y-66145265D01*
X182157109Y-65895829D01*
X182061855Y-65665297D01*
X181885631Y-65488765D01*
X181655265Y-65393109D01*
X181405829Y-65392891D01*
X181175297Y-65488145D01*
X180998765Y-65664369D01*
X180903109Y-65894735D01*
X180902891Y-66144171D01*
X168589689Y-66144171D01*
X168148780Y-63234171D01*
X183292891Y-63234171D01*
X183388145Y-63464703D01*
X183564369Y-63641235D01*
X183794735Y-63736891D01*
X184044171Y-63737109D01*
X184274703Y-63641855D01*
X184451235Y-63465631D01*
X184546891Y-63235265D01*
X184546909Y-63214171D01*
X185622891Y-63214171D01*
X185718145Y-63444703D01*
X185894369Y-63621235D01*
X186124735Y-63716891D01*
X186374171Y-63717109D01*
X186604703Y-63621855D01*
X186781235Y-63445631D01*
X186876891Y-63215265D01*
X186876926Y-63174171D01*
X189482891Y-63174171D01*
X189578145Y-63404703D01*
X189754369Y-63581235D01*
X189984735Y-63676891D01*
X190234171Y-63677109D01*
X190464703Y-63581855D01*
X190641235Y-63405631D01*
X190736891Y-63175265D01*
X190737109Y-62925829D01*
X190641855Y-62695297D01*
X190465631Y-62518765D01*
X190235265Y-62423109D01*
X189985829Y-62422891D01*
X189755297Y-62518145D01*
X189578765Y-62694369D01*
X189483109Y-62924735D01*
X189482891Y-63174171D01*
X186876926Y-63174171D01*
X186877109Y-62965829D01*
X186781855Y-62735297D01*
X186605631Y-62558765D01*
X186375265Y-62463109D01*
X186125829Y-62462891D01*
X185895297Y-62558145D01*
X185718765Y-62734369D01*
X185623109Y-62964735D01*
X185622891Y-63214171D01*
X184546909Y-63214171D01*
X184547109Y-62985829D01*
X184451855Y-62755297D01*
X184275631Y-62578765D01*
X184045265Y-62483109D01*
X183795829Y-62482891D01*
X183565297Y-62578145D01*
X183388765Y-62754369D01*
X183293109Y-62984735D01*
X183292891Y-63234171D01*
X168148780Y-63234171D01*
X167627000Y-59790433D01*
X167627000Y-55624171D01*
X177272891Y-55624171D01*
X177368145Y-55854703D01*
X177544369Y-56031235D01*
X177710097Y-56100051D01*
X177545297Y-56168145D01*
X177368765Y-56344369D01*
X177273109Y-56574735D01*
X177272891Y-56824171D01*
X177368145Y-57054703D01*
X177544369Y-57231235D01*
X177774735Y-57326891D01*
X178024171Y-57327109D01*
X178254703Y-57231855D01*
X178431235Y-57055631D01*
X178526891Y-56825265D01*
X178527109Y-56575829D01*
X178431855Y-56345297D01*
X178255631Y-56168765D01*
X178089903Y-56099949D01*
X178254703Y-56031855D01*
X178431235Y-55855631D01*
X178526891Y-55625265D01*
X178527109Y-55375829D01*
X178431855Y-55145297D01*
X178255631Y-54968765D01*
X178025265Y-54873109D01*
X177775829Y-54872891D01*
X177545297Y-54968145D01*
X177368765Y-55144369D01*
X177273109Y-55374735D01*
X177272891Y-55624171D01*
X167627000Y-55624171D01*
X167627000Y-36896845D01*
X191548000Y-36896845D01*
X191548000Y-154103180D01*
X107362000Y-154103180D01*
X107362000Y-132224171D01*
X137972891Y-132224171D01*
X138068145Y-132454703D01*
X138213287Y-132600099D01*
X138068765Y-132744369D01*
X137973109Y-132974735D01*
X137972891Y-133224171D01*
X138068145Y-133454703D01*
X138213287Y-133600099D01*
X138068765Y-133744369D01*
X137973109Y-133974735D01*
X137972891Y-134224171D01*
X138068145Y-134454703D01*
X138213287Y-134600099D01*
X138068765Y-134744369D01*
X137973109Y-134974735D01*
X137972891Y-135224171D01*
X138068145Y-135454703D01*
X138213287Y-135600099D01*
X138068765Y-135744369D01*
X137973109Y-135974735D01*
X137972891Y-136224171D01*
X138068145Y-136454703D01*
X138213287Y-136600099D01*
X138068765Y-136744369D01*
X137973109Y-136974735D01*
X137972891Y-137224171D01*
X138068145Y-137454703D01*
X138213287Y-137600099D01*
X138068765Y-137744369D01*
X137973109Y-137974735D01*
X137972891Y-138224171D01*
X138068145Y-138454703D01*
X138213287Y-138600099D01*
X138068765Y-138744369D01*
X137973109Y-138974735D01*
X137972891Y-139224171D01*
X138068145Y-139454703D01*
X138213287Y-139600099D01*
X138068765Y-139744369D01*
X137973109Y-139974735D01*
X137972891Y-140224171D01*
X138068145Y-140454703D01*
X138213287Y-140600099D01*
X138068765Y-140744369D01*
X137973109Y-140974735D01*
X137972891Y-141224171D01*
X138068145Y-141454703D01*
X138213287Y-141600099D01*
X138068765Y-141744369D01*
X137973109Y-141974735D01*
X137972891Y-142224171D01*
X138068145Y-142454703D01*
X138213287Y-142600099D01*
X138068765Y-142744369D01*
X137973109Y-142974735D01*
X137972891Y-143224171D01*
X138068145Y-143454703D01*
X138213287Y-143600099D01*
X138068765Y-143744369D01*
X137973109Y-143974735D01*
X137972891Y-144224171D01*
X138068145Y-144454703D01*
X138213287Y-144600099D01*
X138068765Y-144744369D01*
X137973109Y-144974735D01*
X137972891Y-145224171D01*
X138068145Y-145454703D01*
X138244369Y-145631235D01*
X138474735Y-145726891D01*
X138724171Y-145727109D01*
X138954703Y-145631855D01*
X139131235Y-145455631D01*
X139226891Y-145225265D01*
X139227109Y-144975829D01*
X139131855Y-144745297D01*
X138986713Y-144599901D01*
X139131235Y-144455631D01*
X139226891Y-144225265D01*
X139227109Y-143975829D01*
X139131855Y-143745297D01*
X138986713Y-143599901D01*
X139131235Y-143455631D01*
X139226891Y-143225265D01*
X139227109Y-142975829D01*
X139131855Y-142745297D01*
X138986713Y-142599901D01*
X139131235Y-142455631D01*
X139226891Y-142225265D01*
X139227109Y-141975829D01*
X139131855Y-141745297D01*
X138986713Y-141599901D01*
X139131235Y-141455631D01*
X139226891Y-141225265D01*
X139227109Y-140975829D01*
X139131855Y-140745297D01*
X138986713Y-140599901D01*
X139131235Y-140455631D01*
X139226891Y-140225265D01*
X139227109Y-139975829D01*
X139131855Y-139745297D01*
X138986713Y-139599901D01*
X139131235Y-139455631D01*
X139226891Y-139225265D01*
X139227109Y-138975829D01*
X139131855Y-138745297D01*
X138986713Y-138599901D01*
X139131235Y-138455631D01*
X139226891Y-138225265D01*
X139227109Y-137975829D01*
X139131855Y-137745297D01*
X138986713Y-137599901D01*
X139131235Y-137455631D01*
X139226891Y-137225265D01*
X139227109Y-136975829D01*
X139131855Y-136745297D01*
X138986713Y-136599901D01*
X139131235Y-136455631D01*
X139226891Y-136225265D01*
X139227109Y-135975829D01*
X139131855Y-135745297D01*
X138986713Y-135599901D01*
X139131235Y-135455631D01*
X139226891Y-135225265D01*
X139227109Y-134975829D01*
X139131855Y-134745297D01*
X138986713Y-134599901D01*
X139131235Y-134455631D01*
X139226891Y-134225265D01*
X139227109Y-133975829D01*
X139131855Y-133745297D01*
X138986713Y-133599901D01*
X139131235Y-133455631D01*
X139226891Y-133225265D01*
X139227109Y-132975829D01*
X139131855Y-132745297D01*
X138986713Y-132599901D01*
X139131235Y-132455631D01*
X139226891Y-132225265D01*
X139226891Y-132224171D01*
X144972891Y-132224171D01*
X145068145Y-132454703D01*
X145213287Y-132600099D01*
X145068765Y-132744369D01*
X144973109Y-132974735D01*
X144972891Y-133224171D01*
X145068145Y-133454703D01*
X145213287Y-133600099D01*
X145068765Y-133744369D01*
X144973109Y-133974735D01*
X144972891Y-134224171D01*
X145068145Y-134454703D01*
X145213287Y-134600099D01*
X145068765Y-134744369D01*
X144973109Y-134974735D01*
X144972891Y-135224171D01*
X145068145Y-135454703D01*
X145213287Y-135600099D01*
X145068765Y-135744369D01*
X144973109Y-135974735D01*
X144972891Y-136224171D01*
X145068145Y-136454703D01*
X145213287Y-136600099D01*
X145068765Y-136744369D01*
X144973109Y-136974735D01*
X144972891Y-137224171D01*
X145068145Y-137454703D01*
X145213287Y-137600099D01*
X145068765Y-137744369D01*
X144973109Y-137974735D01*
X144972891Y-138224171D01*
X145068145Y-138454703D01*
X145213287Y-138600099D01*
X145068765Y-138744369D01*
X144973109Y-138974735D01*
X144972891Y-139224171D01*
X145068145Y-139454703D01*
X145213287Y-139600099D01*
X145068765Y-139744369D01*
X144973109Y-139974735D01*
X144972891Y-140224171D01*
X145068145Y-140454703D01*
X145213287Y-140600099D01*
X145068765Y-140744369D01*
X144973109Y-140974735D01*
X144972891Y-141224171D01*
X145068145Y-141454703D01*
X145213287Y-141600099D01*
X145068765Y-141744369D01*
X144973109Y-141974735D01*
X144972891Y-142224171D01*
X145068145Y-142454703D01*
X145213287Y-142600099D01*
X145068765Y-142744369D01*
X144973109Y-142974735D01*
X144972891Y-143224171D01*
X145068145Y-143454703D01*
X145213287Y-143600099D01*
X145068765Y-143744369D01*
X144973109Y-143974735D01*
X144972891Y-144224171D01*
X145068145Y-144454703D01*
X145213287Y-144600099D01*
X145068765Y-144744369D01*
X144973109Y-144974735D01*
X144972891Y-145224171D01*
X145068145Y-145454703D01*
X145244369Y-145631235D01*
X145474735Y-145726891D01*
X145724171Y-145727109D01*
X145954703Y-145631855D01*
X146131235Y-145455631D01*
X146226891Y-145225265D01*
X146227109Y-144975829D01*
X146131855Y-144745297D01*
X145986713Y-144599901D01*
X146131235Y-144455631D01*
X146226891Y-144225265D01*
X146227109Y-143975829D01*
X146131855Y-143745297D01*
X145986713Y-143599901D01*
X146131235Y-143455631D01*
X146226891Y-143225265D01*
X146227109Y-142975829D01*
X146131855Y-142745297D01*
X145986713Y-142599901D01*
X146131235Y-142455631D01*
X146226891Y-142225265D01*
X146227109Y-141975829D01*
X146131855Y-141745297D01*
X145986713Y-141599901D01*
X146131235Y-141455631D01*
X146226891Y-141225265D01*
X146227109Y-140975829D01*
X146131855Y-140745297D01*
X145986713Y-140599901D01*
X146131235Y-140455631D01*
X146226891Y-140225265D01*
X146227109Y-139975829D01*
X146131855Y-139745297D01*
X145986713Y-139599901D01*
X146131235Y-139455631D01*
X146226891Y-139225265D01*
X146227109Y-138975829D01*
X146131855Y-138745297D01*
X145986713Y-138599901D01*
X146131235Y-138455631D01*
X146226891Y-138225265D01*
X146227109Y-137975829D01*
X146131855Y-137745297D01*
X145986713Y-137599901D01*
X146131235Y-137455631D01*
X146226891Y-137225265D01*
X146227109Y-136975829D01*
X146131855Y-136745297D01*
X145986713Y-136599901D01*
X146131235Y-136455631D01*
X146226891Y-136225265D01*
X146227109Y-135975829D01*
X146131855Y-135745297D01*
X145986713Y-135599901D01*
X146131235Y-135455631D01*
X146226891Y-135225265D01*
X146227109Y-134975829D01*
X146131855Y-134745297D01*
X145986713Y-134599901D01*
X146131235Y-134455631D01*
X146226891Y-134225265D01*
X146227109Y-133975829D01*
X146131855Y-133745297D01*
X145986713Y-133599901D01*
X146131235Y-133455631D01*
X146226891Y-133225265D01*
X146227005Y-133094171D01*
X166102891Y-133094171D01*
X166198145Y-133324703D01*
X166374369Y-133501235D01*
X166604735Y-133596891D01*
X166854171Y-133597109D01*
X167084703Y-133501855D01*
X167261235Y-133325631D01*
X167356891Y-133095265D01*
X167357109Y-132845829D01*
X167261855Y-132615297D01*
X167085631Y-132438765D01*
X166855265Y-132343109D01*
X166605829Y-132342891D01*
X166375297Y-132438145D01*
X166198765Y-132614369D01*
X166103109Y-132844735D01*
X166102891Y-133094171D01*
X146227005Y-133094171D01*
X146227109Y-132975829D01*
X146131855Y-132745297D01*
X145986713Y-132599901D01*
X146131235Y-132455631D01*
X146226891Y-132225265D01*
X146227109Y-131975829D01*
X146131855Y-131745297D01*
X145955631Y-131568765D01*
X145725265Y-131473109D01*
X145475829Y-131472891D01*
X145245297Y-131568145D01*
X145068765Y-131744369D01*
X144973109Y-131974735D01*
X144972891Y-132224171D01*
X139226891Y-132224171D01*
X139227109Y-131975829D01*
X139131855Y-131745297D01*
X138955631Y-131568765D01*
X138725265Y-131473109D01*
X138475829Y-131472891D01*
X138245297Y-131568145D01*
X138068765Y-131744369D01*
X137973109Y-131974735D01*
X137972891Y-132224171D01*
X107362000Y-132224171D01*
X107362000Y-129154171D01*
X126612891Y-129154171D01*
X126708145Y-129384703D01*
X126884369Y-129561235D01*
X127114735Y-129656891D01*
X127364171Y-129657109D01*
X127594703Y-129561855D01*
X127771235Y-129385631D01*
X127866891Y-129155265D01*
X127867109Y-128905829D01*
X127771855Y-128675297D01*
X127595631Y-128498765D01*
X127365265Y-128403109D01*
X127115829Y-128402891D01*
X126885297Y-128498145D01*
X126708765Y-128674369D01*
X126613109Y-128904735D01*
X126612891Y-129154171D01*
X107362000Y-129154171D01*
X107362000Y-123114171D01*
X122272891Y-123114171D01*
X122368145Y-123344703D01*
X122544369Y-123521235D01*
X122774735Y-123616891D01*
X123024171Y-123617109D01*
X123254703Y-123521855D01*
X123431235Y-123345631D01*
X123523192Y-123124171D01*
X124482891Y-123124171D01*
X124578145Y-123354703D01*
X124754369Y-123531235D01*
X124984735Y-123626891D01*
X125234171Y-123627109D01*
X125464703Y-123531855D01*
X125641235Y-123355631D01*
X125736891Y-123125265D01*
X125737109Y-122875829D01*
X125678578Y-122734171D01*
X136062891Y-122734171D01*
X136158145Y-122964703D01*
X136334369Y-123141235D01*
X136564735Y-123236891D01*
X136814171Y-123237109D01*
X137044703Y-123141855D01*
X137221235Y-122965631D01*
X137316891Y-122735265D01*
X137316900Y-122724171D01*
X139372891Y-122724171D01*
X139468145Y-122954703D01*
X139644369Y-123131235D01*
X139874735Y-123226891D01*
X140124171Y-123227109D01*
X140354703Y-123131855D01*
X140500099Y-122986713D01*
X140644369Y-123131235D01*
X140874735Y-123226891D01*
X141124171Y-123227109D01*
X141354703Y-123131855D01*
X141500099Y-122986713D01*
X141644369Y-123131235D01*
X141874735Y-123226891D01*
X142124171Y-123227109D01*
X142354703Y-123131855D01*
X142500099Y-122986713D01*
X142644369Y-123131235D01*
X142874735Y-123226891D01*
X143124171Y-123227109D01*
X143354703Y-123131855D01*
X143531235Y-122955631D01*
X143626891Y-122725265D01*
X143626891Y-122724171D01*
X150172891Y-122724171D01*
X150268145Y-122954703D01*
X150444369Y-123131235D01*
X150674735Y-123226891D01*
X150924171Y-123227109D01*
X151154703Y-123131855D01*
X151300099Y-122986713D01*
X151444369Y-123131235D01*
X151674735Y-123226891D01*
X151924171Y-123227109D01*
X152154703Y-123131855D01*
X152300099Y-122986713D01*
X152444369Y-123131235D01*
X152674735Y-123226891D01*
X152924171Y-123227109D01*
X153154703Y-123131855D01*
X153300099Y-122986713D01*
X153444369Y-123131235D01*
X153674735Y-123226891D01*
X153924171Y-123227109D01*
X154154703Y-123131855D01*
X154331235Y-122955631D01*
X154426891Y-122725265D01*
X154426961Y-122644171D01*
X157252891Y-122644171D01*
X157348145Y-122874703D01*
X157524369Y-123051235D01*
X157754735Y-123146891D01*
X158004171Y-123147109D01*
X158234703Y-123051855D01*
X158411235Y-122875631D01*
X158506891Y-122645265D01*
X158507109Y-122395829D01*
X158411855Y-122165297D01*
X158235631Y-121988765D01*
X158005265Y-121893109D01*
X157755829Y-121892891D01*
X157525297Y-121988145D01*
X157348765Y-122164369D01*
X157253109Y-122394735D01*
X157252891Y-122644171D01*
X154426961Y-122644171D01*
X154427109Y-122475829D01*
X154331855Y-122245297D01*
X154155631Y-122068765D01*
X153925265Y-121973109D01*
X153675829Y-121972891D01*
X153445297Y-122068145D01*
X153299901Y-122213287D01*
X153155631Y-122068765D01*
X152925265Y-121973109D01*
X152675829Y-121972891D01*
X152445297Y-122068145D01*
X152299901Y-122213287D01*
X152155631Y-122068765D01*
X151925265Y-121973109D01*
X151675829Y-121972891D01*
X151445297Y-122068145D01*
X151299901Y-122213287D01*
X151155631Y-122068765D01*
X150925265Y-121973109D01*
X150675829Y-121972891D01*
X150445297Y-122068145D01*
X150268765Y-122244369D01*
X150173109Y-122474735D01*
X150172891Y-122724171D01*
X143626891Y-122724171D01*
X143627109Y-122475829D01*
X143531855Y-122245297D01*
X143355631Y-122068765D01*
X143125265Y-121973109D01*
X142875829Y-121972891D01*
X142645297Y-122068145D01*
X142499901Y-122213287D01*
X142355631Y-122068765D01*
X142125265Y-121973109D01*
X141875829Y-121972891D01*
X141645297Y-122068145D01*
X141499901Y-122213287D01*
X141355631Y-122068765D01*
X141125265Y-121973109D01*
X140875829Y-121972891D01*
X140645297Y-122068145D01*
X140499901Y-122213287D01*
X140355631Y-122068765D01*
X140125265Y-121973109D01*
X139875829Y-121972891D01*
X139645297Y-122068145D01*
X139468765Y-122244369D01*
X139373109Y-122474735D01*
X139372891Y-122724171D01*
X137316900Y-122724171D01*
X137317109Y-122485829D01*
X137221855Y-122255297D01*
X137045631Y-122078765D01*
X136815265Y-121983109D01*
X136565829Y-121982891D01*
X136335297Y-122078145D01*
X136158765Y-122254369D01*
X136063109Y-122484735D01*
X136062891Y-122734171D01*
X125678578Y-122734171D01*
X125641855Y-122645297D01*
X125465631Y-122468765D01*
X125235265Y-122373109D01*
X124985829Y-122372891D01*
X124755297Y-122468145D01*
X124578765Y-122644369D01*
X124483109Y-122874735D01*
X124482891Y-123124171D01*
X123523192Y-123124171D01*
X123526891Y-123115265D01*
X123527109Y-122865829D01*
X123431855Y-122635297D01*
X123255631Y-122458765D01*
X123025265Y-122363109D01*
X122775829Y-122362891D01*
X122545297Y-122458145D01*
X122368765Y-122634369D01*
X122273109Y-122864735D01*
X122272891Y-123114171D01*
X107362000Y-123114171D01*
X107362000Y-122084171D01*
X115332891Y-122084171D01*
X115428145Y-122314703D01*
X115604369Y-122491235D01*
X115834735Y-122586891D01*
X116084171Y-122587109D01*
X116314703Y-122491855D01*
X116491235Y-122315631D01*
X116586891Y-122085265D01*
X116587066Y-121884171D01*
X137862891Y-121884171D01*
X137958145Y-122114703D01*
X138134369Y-122291235D01*
X138364735Y-122386891D01*
X138614171Y-122387109D01*
X138844703Y-122291855D01*
X139021235Y-122115631D01*
X139116891Y-121885265D01*
X139117109Y-121635829D01*
X139021855Y-121405297D01*
X138845631Y-121228765D01*
X138615265Y-121133109D01*
X138365829Y-121132891D01*
X138135297Y-121228145D01*
X137958765Y-121404369D01*
X137863109Y-121634735D01*
X137862891Y-121884171D01*
X116587066Y-121884171D01*
X116587109Y-121835829D01*
X116491855Y-121605297D01*
X116315631Y-121428765D01*
X116085265Y-121333109D01*
X115835829Y-121332891D01*
X115605297Y-121428145D01*
X115428765Y-121604369D01*
X115333109Y-121834735D01*
X115332891Y-122084171D01*
X107362000Y-122084171D01*
X107362000Y-121024171D01*
X117872891Y-121024171D01*
X117968145Y-121254703D01*
X118144369Y-121431235D01*
X118374735Y-121526891D01*
X118624171Y-121527109D01*
X118854703Y-121431855D01*
X119031235Y-121255631D01*
X119126891Y-121025265D01*
X119127109Y-120775829D01*
X119031855Y-120545297D01*
X118855631Y-120368765D01*
X118625265Y-120273109D01*
X118375829Y-120272891D01*
X118145297Y-120368145D01*
X117968765Y-120544369D01*
X117873109Y-120774735D01*
X117872891Y-121024171D01*
X107362000Y-121024171D01*
X107362000Y-119624171D01*
X123812891Y-119624171D01*
X123908145Y-119854703D01*
X124084369Y-120031235D01*
X124314735Y-120126891D01*
X124564171Y-120127109D01*
X124794703Y-120031855D01*
X124971235Y-119855631D01*
X124980145Y-119834171D01*
X127352891Y-119834171D01*
X127448145Y-120064703D01*
X127624369Y-120241235D01*
X127854735Y-120336891D01*
X128104171Y-120337109D01*
X128334703Y-120241855D01*
X128452592Y-120124171D01*
X139372891Y-120124171D01*
X139468145Y-120354703D01*
X139613287Y-120500099D01*
X139468765Y-120644369D01*
X139373109Y-120874735D01*
X139372891Y-121124171D01*
X139468145Y-121354703D01*
X139644369Y-121531235D01*
X139874735Y-121626891D01*
X140124171Y-121627109D01*
X140354703Y-121531855D01*
X140500099Y-121386713D01*
X140644369Y-121531235D01*
X140874735Y-121626891D01*
X141124171Y-121627109D01*
X141354703Y-121531855D01*
X141500099Y-121386713D01*
X141644369Y-121531235D01*
X141874735Y-121626891D01*
X142124171Y-121627109D01*
X142354703Y-121531855D01*
X142500099Y-121386713D01*
X142644369Y-121531235D01*
X142874735Y-121626891D01*
X143124171Y-121627109D01*
X143354703Y-121531855D01*
X143531235Y-121355631D01*
X143626891Y-121125265D01*
X143627109Y-120875829D01*
X143531855Y-120645297D01*
X143386713Y-120499901D01*
X143531235Y-120355631D01*
X143626891Y-120125265D01*
X143626891Y-120124171D01*
X150172891Y-120124171D01*
X150268145Y-120354703D01*
X150413287Y-120500099D01*
X150268765Y-120644369D01*
X150173109Y-120874735D01*
X150172891Y-121124171D01*
X150268145Y-121354703D01*
X150444369Y-121531235D01*
X150674735Y-121626891D01*
X150924171Y-121627109D01*
X151154703Y-121531855D01*
X151300099Y-121386713D01*
X151444369Y-121531235D01*
X151674735Y-121626891D01*
X151924171Y-121627109D01*
X152154703Y-121531855D01*
X152300099Y-121386713D01*
X152444369Y-121531235D01*
X152674735Y-121626891D01*
X152924171Y-121627109D01*
X153154703Y-121531855D01*
X153300099Y-121386713D01*
X153444369Y-121531235D01*
X153674735Y-121626891D01*
X153924171Y-121627109D01*
X154154703Y-121531855D01*
X154331235Y-121355631D01*
X154426891Y-121125265D01*
X154427109Y-120875829D01*
X154331855Y-120645297D01*
X154186713Y-120499901D01*
X154232522Y-120454171D01*
X161402891Y-120454171D01*
X161498145Y-120684703D01*
X161674369Y-120861235D01*
X161904735Y-120956891D01*
X162154171Y-120957109D01*
X162384703Y-120861855D01*
X162561235Y-120685631D01*
X162656891Y-120455265D01*
X162657109Y-120205829D01*
X162594446Y-120054171D01*
X170572891Y-120054171D01*
X170668145Y-120284703D01*
X170844369Y-120461235D01*
X171074735Y-120556891D01*
X171324171Y-120557109D01*
X171554703Y-120461855D01*
X171731235Y-120285631D01*
X171826891Y-120055265D01*
X171827109Y-119805829D01*
X171731855Y-119575297D01*
X171555631Y-119398765D01*
X171325265Y-119303109D01*
X171075829Y-119302891D01*
X170845297Y-119398145D01*
X170668765Y-119574369D01*
X170573109Y-119804735D01*
X170572891Y-120054171D01*
X162594446Y-120054171D01*
X162561855Y-119975297D01*
X162385631Y-119798765D01*
X162155265Y-119703109D01*
X161905829Y-119702891D01*
X161675297Y-119798145D01*
X161498765Y-119974369D01*
X161403109Y-120204735D01*
X161402891Y-120454171D01*
X154232522Y-120454171D01*
X154331235Y-120355631D01*
X154426891Y-120125265D01*
X154427109Y-119875829D01*
X154331855Y-119645297D01*
X154155631Y-119468765D01*
X153925265Y-119373109D01*
X153675829Y-119372891D01*
X153445297Y-119468145D01*
X153299901Y-119613287D01*
X153155631Y-119468765D01*
X152925265Y-119373109D01*
X152675829Y-119372891D01*
X152445297Y-119468145D01*
X152299901Y-119613287D01*
X152155631Y-119468765D01*
X151925265Y-119373109D01*
X151675829Y-119372891D01*
X151445297Y-119468145D01*
X151299901Y-119613287D01*
X151155631Y-119468765D01*
X150925265Y-119373109D01*
X150675829Y-119372891D01*
X150445297Y-119468145D01*
X150268765Y-119644369D01*
X150173109Y-119874735D01*
X150172891Y-120124171D01*
X143626891Y-120124171D01*
X143627109Y-119875829D01*
X143531855Y-119645297D01*
X143355631Y-119468765D01*
X143125265Y-119373109D01*
X142875829Y-119372891D01*
X142645297Y-119468145D01*
X142499901Y-119613287D01*
X142355631Y-119468765D01*
X142125265Y-119373109D01*
X141875829Y-119372891D01*
X141645297Y-119468145D01*
X141499901Y-119613287D01*
X141355631Y-119468765D01*
X141125265Y-119373109D01*
X140875829Y-119372891D01*
X140645297Y-119468145D01*
X140499901Y-119613287D01*
X140355631Y-119468765D01*
X140125265Y-119373109D01*
X139875829Y-119372891D01*
X139645297Y-119468145D01*
X139468765Y-119644369D01*
X139373109Y-119874735D01*
X139372891Y-120124171D01*
X128452592Y-120124171D01*
X128511235Y-120065631D01*
X128606891Y-119835265D01*
X128607109Y-119585829D01*
X128511855Y-119355297D01*
X128335631Y-119178765D01*
X128105265Y-119083109D01*
X127855829Y-119082891D01*
X127625297Y-119178145D01*
X127448765Y-119354369D01*
X127353109Y-119584735D01*
X127352891Y-119834171D01*
X124980145Y-119834171D01*
X125066891Y-119625265D01*
X125067109Y-119375829D01*
X124971855Y-119145297D01*
X124795631Y-118968765D01*
X124565265Y-118873109D01*
X124315829Y-118872891D01*
X124085297Y-118968145D01*
X123908765Y-119144369D01*
X123813109Y-119374735D01*
X123812891Y-119624171D01*
X107362000Y-119624171D01*
X107362000Y-117194171D01*
X175032891Y-117194171D01*
X175128145Y-117424703D01*
X175304369Y-117601235D01*
X175534735Y-117696891D01*
X175784171Y-117697109D01*
X176014703Y-117601855D01*
X176191235Y-117425631D01*
X176286891Y-117195265D01*
X176287109Y-116945829D01*
X176191855Y-116715297D01*
X176015631Y-116538765D01*
X175785265Y-116443109D01*
X175535829Y-116442891D01*
X175305297Y-116538145D01*
X175128765Y-116714369D01*
X175033109Y-116944735D01*
X175032891Y-117194171D01*
X107362000Y-117194171D01*
X107362000Y-114164171D01*
X176072891Y-114164171D01*
X176168145Y-114394703D01*
X176344369Y-114571235D01*
X176574735Y-114666891D01*
X176824171Y-114667109D01*
X177054703Y-114571855D01*
X177231235Y-114395631D01*
X177326891Y-114165265D01*
X177327109Y-113915829D01*
X177231855Y-113685297D01*
X177055631Y-113508765D01*
X176825265Y-113413109D01*
X176575829Y-113412891D01*
X176345297Y-113508145D01*
X176168765Y-113684369D01*
X176073109Y-113914735D01*
X176072891Y-114164171D01*
X107362000Y-114164171D01*
X107362000Y-112864171D01*
X183472891Y-112864171D01*
X183568145Y-113094703D01*
X183744369Y-113271235D01*
X183974735Y-113366891D01*
X184224171Y-113367109D01*
X184454703Y-113271855D01*
X184631235Y-113095631D01*
X184726891Y-112865265D01*
X184727109Y-112615829D01*
X184631855Y-112385297D01*
X184455631Y-112208765D01*
X184225265Y-112113109D01*
X183975829Y-112112891D01*
X183745297Y-112208145D01*
X183568765Y-112384369D01*
X183473109Y-112614735D01*
X183472891Y-112864171D01*
X107362000Y-112864171D01*
X107362000Y-106834171D01*
X113122891Y-106834171D01*
X113218145Y-107064703D01*
X113394369Y-107241235D01*
X113624735Y-107336891D01*
X113874171Y-107337109D01*
X114104703Y-107241855D01*
X114281235Y-107065631D01*
X114376891Y-106835265D01*
X114377109Y-106585829D01*
X114281855Y-106355297D01*
X114105631Y-106178765D01*
X113875265Y-106083109D01*
X113625829Y-106082891D01*
X113395297Y-106178145D01*
X113218765Y-106354369D01*
X113123109Y-106584735D01*
X113122891Y-106834171D01*
X107362000Y-106834171D01*
X107362000Y-104524171D01*
X116472891Y-104524171D01*
X116568145Y-104754703D01*
X116713287Y-104900099D01*
X116568765Y-105044369D01*
X116473109Y-105274735D01*
X116472891Y-105524171D01*
X116568145Y-105754703D01*
X116713287Y-105900099D01*
X116568765Y-106044369D01*
X116473109Y-106274735D01*
X116472891Y-106524171D01*
X116568145Y-106754703D01*
X116713287Y-106900099D01*
X116568765Y-107044369D01*
X116473109Y-107274735D01*
X116472891Y-107524171D01*
X116568145Y-107754703D01*
X116713287Y-107900099D01*
X116568765Y-108044369D01*
X116473109Y-108274735D01*
X116472891Y-108524171D01*
X116568145Y-108754703D01*
X116713287Y-108900099D01*
X116568765Y-109044369D01*
X116473109Y-109274735D01*
X116472891Y-109524171D01*
X116568145Y-109754703D01*
X116713287Y-109900099D01*
X116568765Y-110044369D01*
X116473109Y-110274735D01*
X116472891Y-110524171D01*
X116568145Y-110754703D01*
X116713287Y-110900099D01*
X116568765Y-111044369D01*
X116473109Y-111274735D01*
X116472891Y-111524171D01*
X116568145Y-111754703D01*
X116744369Y-111931235D01*
X116974735Y-112026891D01*
X117224171Y-112027109D01*
X117454703Y-111931855D01*
X117631235Y-111755631D01*
X117726891Y-111525265D01*
X117727109Y-111275829D01*
X117631855Y-111045297D01*
X117486713Y-110899901D01*
X117631235Y-110755631D01*
X117726891Y-110525265D01*
X117727109Y-110275829D01*
X117631855Y-110045297D01*
X117486713Y-109899901D01*
X117631235Y-109755631D01*
X117726891Y-109525265D01*
X117727109Y-109275829D01*
X117631855Y-109045297D01*
X117486713Y-108899901D01*
X117631235Y-108755631D01*
X117726891Y-108525265D01*
X117727109Y-108275829D01*
X117631855Y-108045297D01*
X117486713Y-107899901D01*
X117631235Y-107755631D01*
X117726891Y-107525265D01*
X117726891Y-107524171D01*
X121372891Y-107524171D01*
X121468145Y-107754703D01*
X121613287Y-107900099D01*
X121468765Y-108044369D01*
X121373109Y-108274735D01*
X121372891Y-108524171D01*
X121468145Y-108754703D01*
X121613287Y-108900099D01*
X121468765Y-109044369D01*
X121373109Y-109274735D01*
X121372891Y-109524171D01*
X121468145Y-109754703D01*
X121613287Y-109900099D01*
X121468765Y-110044369D01*
X121373109Y-110274735D01*
X121372891Y-110524171D01*
X121468145Y-110754703D01*
X121613287Y-110900099D01*
X121468765Y-111044369D01*
X121373109Y-111274735D01*
X121372891Y-111524171D01*
X121468145Y-111754703D01*
X121644369Y-111931235D01*
X121874735Y-112026891D01*
X122124171Y-112027109D01*
X122354703Y-111931855D01*
X122531235Y-111755631D01*
X122626891Y-111525265D01*
X122627109Y-111275829D01*
X122531855Y-111045297D01*
X122386713Y-110899901D01*
X122531235Y-110755631D01*
X122626891Y-110525265D01*
X122627109Y-110275829D01*
X122531855Y-110045297D01*
X122386713Y-109899901D01*
X122531235Y-109755631D01*
X122626891Y-109525265D01*
X122627109Y-109275829D01*
X122531855Y-109045297D01*
X122386713Y-108899901D01*
X122531235Y-108755631D01*
X122626891Y-108525265D01*
X122627109Y-108275829D01*
X122531855Y-108045297D01*
X122386713Y-107899901D01*
X122531235Y-107755631D01*
X122626891Y-107525265D01*
X122626891Y-107524171D01*
X126672891Y-107524171D01*
X126768145Y-107754703D01*
X126913287Y-107900099D01*
X126768765Y-108044369D01*
X126673109Y-108274735D01*
X126672891Y-108524171D01*
X126768145Y-108754703D01*
X126913287Y-108900099D01*
X126768765Y-109044369D01*
X126673109Y-109274735D01*
X126672891Y-109524171D01*
X126768145Y-109754703D01*
X126913287Y-109900099D01*
X126768765Y-110044369D01*
X126673109Y-110274735D01*
X126672891Y-110524171D01*
X126768145Y-110754703D01*
X126913287Y-110900099D01*
X126768765Y-111044369D01*
X126673109Y-111274735D01*
X126672891Y-111524171D01*
X126768145Y-111754703D01*
X126944369Y-111931235D01*
X127174735Y-112026891D01*
X127424171Y-112027109D01*
X127654703Y-111931855D01*
X127831235Y-111755631D01*
X127926891Y-111525265D01*
X127927109Y-111275829D01*
X127831855Y-111045297D01*
X127686713Y-110899901D01*
X127831235Y-110755631D01*
X127926891Y-110525265D01*
X127927109Y-110275829D01*
X127831855Y-110045297D01*
X127686713Y-109899901D01*
X127831235Y-109755631D01*
X127926891Y-109525265D01*
X127927109Y-109275829D01*
X127831855Y-109045297D01*
X127686713Y-108899901D01*
X127831235Y-108755631D01*
X127926891Y-108525265D01*
X127927109Y-108275829D01*
X127831855Y-108045297D01*
X127686713Y-107899901D01*
X127831235Y-107755631D01*
X127926891Y-107525265D01*
X127926891Y-107524171D01*
X128172891Y-107524171D01*
X128268145Y-107754703D01*
X128413287Y-107900099D01*
X128268765Y-108044369D01*
X128173109Y-108274735D01*
X128172891Y-108524171D01*
X128268145Y-108754703D01*
X128413287Y-108900099D01*
X128268765Y-109044369D01*
X128173109Y-109274735D01*
X128172891Y-109524171D01*
X128268145Y-109754703D01*
X128413287Y-109900099D01*
X128268765Y-110044369D01*
X128173109Y-110274735D01*
X128172891Y-110524171D01*
X128268145Y-110754703D01*
X128413287Y-110900099D01*
X128268765Y-111044369D01*
X128173109Y-111274735D01*
X128172891Y-111524171D01*
X128268145Y-111754703D01*
X128444369Y-111931235D01*
X128674735Y-112026891D01*
X128924171Y-112027109D01*
X129154703Y-111931855D01*
X129331235Y-111755631D01*
X129426891Y-111525265D01*
X129427109Y-111275829D01*
X129331855Y-111045297D01*
X129186713Y-110899901D01*
X129331235Y-110755631D01*
X129426891Y-110525265D01*
X129427109Y-110275829D01*
X129331855Y-110045297D01*
X129186713Y-109899901D01*
X129331235Y-109755631D01*
X129426891Y-109525265D01*
X129427109Y-109275829D01*
X129331855Y-109045297D01*
X129186713Y-108899901D01*
X129331235Y-108755631D01*
X129426891Y-108525265D01*
X129427109Y-108275829D01*
X129331855Y-108045297D01*
X129186713Y-107899901D01*
X129331235Y-107755631D01*
X129344298Y-107724171D01*
X140372891Y-107724171D01*
X140468145Y-107954703D01*
X140613287Y-108100099D01*
X140468765Y-108244369D01*
X140373109Y-108474735D01*
X140372891Y-108724171D01*
X140468145Y-108954703D01*
X140613287Y-109100099D01*
X140468765Y-109244369D01*
X140373109Y-109474735D01*
X140372891Y-109724171D01*
X140468145Y-109954703D01*
X140613287Y-110100099D01*
X140468765Y-110244369D01*
X140373109Y-110474735D01*
X140372891Y-110724171D01*
X140468145Y-110954703D01*
X140613287Y-111100099D01*
X140468765Y-111244369D01*
X140373109Y-111474735D01*
X140372891Y-111724171D01*
X140468145Y-111954703D01*
X140644369Y-112131235D01*
X140874735Y-112226891D01*
X141124171Y-112227109D01*
X141354703Y-112131855D01*
X141531235Y-111955631D01*
X141626891Y-111725265D01*
X141627109Y-111475829D01*
X141531855Y-111245297D01*
X141386713Y-111099901D01*
X141531235Y-110955631D01*
X141626891Y-110725265D01*
X141627109Y-110475829D01*
X141531855Y-110245297D01*
X141386713Y-110099901D01*
X141531235Y-109955631D01*
X141626891Y-109725265D01*
X141627109Y-109475829D01*
X141531855Y-109245297D01*
X141386713Y-109099901D01*
X141531235Y-108955631D01*
X141626891Y-108725265D01*
X141627109Y-108475829D01*
X141531855Y-108245297D01*
X141386713Y-108099901D01*
X141531235Y-107955631D01*
X141626891Y-107725265D01*
X141626891Y-107724171D01*
X141872891Y-107724171D01*
X141968145Y-107954703D01*
X142113287Y-108100099D01*
X141968765Y-108244369D01*
X141873109Y-108474735D01*
X141872891Y-108724171D01*
X141968145Y-108954703D01*
X142113287Y-109100099D01*
X141968765Y-109244369D01*
X141873109Y-109474735D01*
X141872891Y-109724171D01*
X141968145Y-109954703D01*
X142113287Y-110100099D01*
X141968765Y-110244369D01*
X141873109Y-110474735D01*
X141872891Y-110724171D01*
X141968145Y-110954703D01*
X142113287Y-111100099D01*
X141968765Y-111244369D01*
X141873109Y-111474735D01*
X141872891Y-111724171D01*
X141968145Y-111954703D01*
X142144369Y-112131235D01*
X142374735Y-112226891D01*
X142624171Y-112227109D01*
X142854703Y-112131855D01*
X143031235Y-111955631D01*
X143126891Y-111725265D01*
X143127109Y-111475829D01*
X143031855Y-111245297D01*
X142886713Y-111099901D01*
X143031235Y-110955631D01*
X143126891Y-110725265D01*
X143127109Y-110475829D01*
X143031855Y-110245297D01*
X142886713Y-110099901D01*
X143031235Y-109955631D01*
X143126891Y-109725265D01*
X143127109Y-109475829D01*
X143031855Y-109245297D01*
X142886713Y-109099901D01*
X143031235Y-108955631D01*
X143126891Y-108725265D01*
X143127109Y-108475829D01*
X143031855Y-108245297D01*
X142886713Y-108099901D01*
X143031235Y-107955631D01*
X143126891Y-107725265D01*
X143126891Y-107724171D01*
X149872891Y-107724171D01*
X149968145Y-107954703D01*
X150113287Y-108100099D01*
X149968765Y-108244369D01*
X149873109Y-108474735D01*
X149872891Y-108724171D01*
X149968145Y-108954703D01*
X150113287Y-109100099D01*
X149968765Y-109244369D01*
X149873109Y-109474735D01*
X149872891Y-109724171D01*
X149968145Y-109954703D01*
X150113287Y-110100099D01*
X149968765Y-110244369D01*
X149873109Y-110474735D01*
X149872891Y-110724171D01*
X149968145Y-110954703D01*
X150113287Y-111100099D01*
X149968765Y-111244369D01*
X149873109Y-111474735D01*
X149872891Y-111724171D01*
X149968145Y-111954703D01*
X150144369Y-112131235D01*
X150374735Y-112226891D01*
X150624171Y-112227109D01*
X150854703Y-112131855D01*
X151031235Y-111955631D01*
X151126891Y-111725265D01*
X151127109Y-111475829D01*
X151031855Y-111245297D01*
X150886713Y-111099901D01*
X151031235Y-110955631D01*
X151126891Y-110725265D01*
X151127109Y-110475829D01*
X151031855Y-110245297D01*
X150886713Y-110099901D01*
X151031235Y-109955631D01*
X151126891Y-109725265D01*
X151127109Y-109475829D01*
X151031855Y-109245297D01*
X150886713Y-109099901D01*
X151031235Y-108955631D01*
X151126891Y-108725265D01*
X151127109Y-108475829D01*
X151031855Y-108245297D01*
X150886713Y-108099901D01*
X151031235Y-107955631D01*
X151126891Y-107725265D01*
X151126891Y-107724171D01*
X151272891Y-107724171D01*
X151368145Y-107954703D01*
X151513287Y-108100099D01*
X151368765Y-108244369D01*
X151273109Y-108474735D01*
X151272891Y-108724171D01*
X151368145Y-108954703D01*
X151513287Y-109100099D01*
X151368765Y-109244369D01*
X151273109Y-109474735D01*
X151272891Y-109724171D01*
X151368145Y-109954703D01*
X151513287Y-110100099D01*
X151368765Y-110244369D01*
X151273109Y-110474735D01*
X151272891Y-110724171D01*
X151368145Y-110954703D01*
X151513287Y-111100099D01*
X151368765Y-111244369D01*
X151273109Y-111474735D01*
X151272891Y-111724171D01*
X151368145Y-111954703D01*
X151544369Y-112131235D01*
X151774735Y-112226891D01*
X152024171Y-112227109D01*
X152254703Y-112131855D01*
X152431235Y-111955631D01*
X152526891Y-111725265D01*
X152527109Y-111475829D01*
X152431855Y-111245297D01*
X152286713Y-111099901D01*
X152431235Y-110955631D01*
X152526891Y-110725265D01*
X152527109Y-110475829D01*
X152431855Y-110245297D01*
X152286713Y-110099901D01*
X152431235Y-109955631D01*
X152526891Y-109725265D01*
X152527109Y-109475829D01*
X152431855Y-109245297D01*
X152286713Y-109099901D01*
X152431235Y-108955631D01*
X152526891Y-108725265D01*
X152527109Y-108475829D01*
X152431855Y-108245297D01*
X152286713Y-108099901D01*
X152431235Y-107955631D01*
X152526891Y-107725265D01*
X152527031Y-107564171D01*
X154732891Y-107564171D01*
X154828145Y-107794703D01*
X155004369Y-107971235D01*
X155234735Y-108066891D01*
X155484171Y-108067109D01*
X155714703Y-107971855D01*
X155891235Y-107795631D01*
X155920907Y-107724171D01*
X157372891Y-107724171D01*
X157468145Y-107954703D01*
X157613287Y-108100099D01*
X157468765Y-108244369D01*
X157373109Y-108474735D01*
X157372891Y-108724171D01*
X157468145Y-108954703D01*
X157613287Y-109100099D01*
X157468765Y-109244369D01*
X157373109Y-109474735D01*
X157372891Y-109724171D01*
X157468145Y-109954703D01*
X157613287Y-110100099D01*
X157468765Y-110244369D01*
X157373109Y-110474735D01*
X157372891Y-110724171D01*
X157468145Y-110954703D01*
X157613287Y-111100099D01*
X157468765Y-111244369D01*
X157373109Y-111474735D01*
X157372891Y-111724171D01*
X157468145Y-111954703D01*
X157644369Y-112131235D01*
X157874735Y-112226891D01*
X158124171Y-112227109D01*
X158354703Y-112131855D01*
X158531235Y-111955631D01*
X158626891Y-111725265D01*
X158627109Y-111475829D01*
X158531855Y-111245297D01*
X158386713Y-111099901D01*
X158531235Y-110955631D01*
X158626891Y-110725265D01*
X158627109Y-110475829D01*
X158531855Y-110245297D01*
X158386713Y-110099901D01*
X158531235Y-109955631D01*
X158626891Y-109725265D01*
X158627109Y-109475829D01*
X158531855Y-109245297D01*
X158386713Y-109099901D01*
X158531235Y-108955631D01*
X158626891Y-108725265D01*
X158627109Y-108475829D01*
X158531855Y-108245297D01*
X158386713Y-108099901D01*
X158531235Y-107955631D01*
X158626891Y-107725265D01*
X158626891Y-107724171D01*
X163472891Y-107724171D01*
X163568145Y-107954703D01*
X163713287Y-108100099D01*
X163568765Y-108244369D01*
X163473109Y-108474735D01*
X163472891Y-108724171D01*
X163568145Y-108954703D01*
X163713287Y-109100099D01*
X163568765Y-109244369D01*
X163473109Y-109474735D01*
X163472891Y-109724171D01*
X163568145Y-109954703D01*
X163713287Y-110100099D01*
X163568765Y-110244369D01*
X163473109Y-110474735D01*
X163472891Y-110724171D01*
X163568145Y-110954703D01*
X163713287Y-111100099D01*
X163568765Y-111244369D01*
X163473109Y-111474735D01*
X163472891Y-111724171D01*
X163568145Y-111954703D01*
X163744369Y-112131235D01*
X163974735Y-112226891D01*
X164224171Y-112227109D01*
X164454703Y-112131855D01*
X164631235Y-111955631D01*
X164726891Y-111725265D01*
X164727109Y-111475829D01*
X164631855Y-111245297D01*
X164486713Y-111099901D01*
X164631235Y-110955631D01*
X164726891Y-110725265D01*
X164727109Y-110475829D01*
X164631855Y-110245297D01*
X164486713Y-110099901D01*
X164631235Y-109955631D01*
X164726891Y-109725265D01*
X164727109Y-109475829D01*
X164631855Y-109245297D01*
X164486713Y-109099901D01*
X164631235Y-108955631D01*
X164726891Y-108725265D01*
X164727109Y-108475829D01*
X164631855Y-108245297D01*
X164486713Y-108099901D01*
X164631235Y-107955631D01*
X164726891Y-107725265D01*
X164726891Y-107724171D01*
X165172891Y-107724171D01*
X165268145Y-107954703D01*
X165413287Y-108100099D01*
X165268765Y-108244369D01*
X165173109Y-108474735D01*
X165172891Y-108724171D01*
X165268145Y-108954703D01*
X165413287Y-109100099D01*
X165268765Y-109244369D01*
X165173109Y-109474735D01*
X165172891Y-109724171D01*
X165268145Y-109954703D01*
X165413287Y-110100099D01*
X165268765Y-110244369D01*
X165173109Y-110474735D01*
X165172891Y-110724171D01*
X165268145Y-110954703D01*
X165413287Y-111100099D01*
X165268765Y-111244369D01*
X165173109Y-111474735D01*
X165172891Y-111724171D01*
X165268145Y-111954703D01*
X165444369Y-112131235D01*
X165674735Y-112226891D01*
X165924171Y-112227109D01*
X166154703Y-112131855D01*
X166331235Y-111955631D01*
X166426891Y-111725265D01*
X166427109Y-111475829D01*
X166331855Y-111245297D01*
X166186713Y-111099901D01*
X166282610Y-111004171D01*
X176412891Y-111004171D01*
X176508145Y-111234703D01*
X176684369Y-111411235D01*
X176914735Y-111506891D01*
X177164171Y-111507109D01*
X177268088Y-111464171D01*
X178312891Y-111464171D01*
X178408145Y-111694703D01*
X178584369Y-111871235D01*
X178814735Y-111966891D01*
X179064171Y-111967109D01*
X179294703Y-111871855D01*
X179471235Y-111695631D01*
X179566891Y-111465265D01*
X179566953Y-111394171D01*
X185342891Y-111394171D01*
X185438145Y-111624703D01*
X185614369Y-111801235D01*
X185844735Y-111896891D01*
X186094171Y-111897109D01*
X186324703Y-111801855D01*
X186501235Y-111625631D01*
X186596891Y-111395265D01*
X186597109Y-111145829D01*
X186501855Y-110915297D01*
X186325631Y-110738765D01*
X186095265Y-110643109D01*
X185845829Y-110642891D01*
X185615297Y-110738145D01*
X185438765Y-110914369D01*
X185343109Y-111144735D01*
X185342891Y-111394171D01*
X179566953Y-111394171D01*
X179567109Y-111215829D01*
X179471855Y-110985297D01*
X179295631Y-110808765D01*
X179065265Y-110713109D01*
X178815829Y-110712891D01*
X178585297Y-110808145D01*
X178408765Y-110984369D01*
X178313109Y-111214735D01*
X178312891Y-111464171D01*
X177268088Y-111464171D01*
X177394703Y-111411855D01*
X177571235Y-111235631D01*
X177666891Y-111005265D01*
X177667109Y-110755829D01*
X177571855Y-110525297D01*
X177395631Y-110348765D01*
X177165265Y-110253109D01*
X176915829Y-110252891D01*
X176685297Y-110348145D01*
X176508765Y-110524369D01*
X176413109Y-110754735D01*
X176412891Y-111004171D01*
X166282610Y-111004171D01*
X166331235Y-110955631D01*
X166426891Y-110725265D01*
X166427109Y-110475829D01*
X166331855Y-110245297D01*
X166186713Y-110099901D01*
X166331235Y-109955631D01*
X166426891Y-109725265D01*
X166427109Y-109475829D01*
X166331855Y-109245297D01*
X166260854Y-109174171D01*
X171912891Y-109174171D01*
X172008145Y-109404703D01*
X172184369Y-109581235D01*
X172414735Y-109676891D01*
X172664171Y-109677109D01*
X172894703Y-109581855D01*
X173071235Y-109405631D01*
X173166891Y-109175265D01*
X173167109Y-108925829D01*
X173071855Y-108695297D01*
X172895631Y-108518765D01*
X172665265Y-108423109D01*
X172415829Y-108422891D01*
X172185297Y-108518145D01*
X172008765Y-108694369D01*
X171913109Y-108924735D01*
X171912891Y-109174171D01*
X166260854Y-109174171D01*
X166186713Y-109099901D01*
X166331235Y-108955631D01*
X166426891Y-108725265D01*
X166427109Y-108475829D01*
X166331855Y-108245297D01*
X166186713Y-108099901D01*
X166331235Y-107955631D01*
X166426891Y-107725265D01*
X166427109Y-107475829D01*
X166331855Y-107245297D01*
X166155631Y-107068765D01*
X165925265Y-106973109D01*
X165675829Y-106972891D01*
X165445297Y-107068145D01*
X165268765Y-107244369D01*
X165173109Y-107474735D01*
X165172891Y-107724171D01*
X164726891Y-107724171D01*
X164727109Y-107475829D01*
X164631855Y-107245297D01*
X164455631Y-107068765D01*
X164225265Y-106973109D01*
X163975829Y-106972891D01*
X163745297Y-107068145D01*
X163568765Y-107244369D01*
X163473109Y-107474735D01*
X163472891Y-107724171D01*
X158626891Y-107724171D01*
X158627109Y-107475829D01*
X158531855Y-107245297D01*
X158355631Y-107068765D01*
X158125265Y-106973109D01*
X157875829Y-106972891D01*
X157645297Y-107068145D01*
X157468765Y-107244369D01*
X157373109Y-107474735D01*
X157372891Y-107724171D01*
X155920907Y-107724171D01*
X155986891Y-107565265D01*
X155987109Y-107315829D01*
X155891855Y-107085297D01*
X155715631Y-106908765D01*
X155485265Y-106813109D01*
X155235829Y-106812891D01*
X155005297Y-106908145D01*
X154828765Y-107084369D01*
X154733109Y-107314735D01*
X154732891Y-107564171D01*
X152527031Y-107564171D01*
X152527109Y-107475829D01*
X152431855Y-107245297D01*
X152255631Y-107068765D01*
X152025265Y-106973109D01*
X151775829Y-106972891D01*
X151545297Y-107068145D01*
X151368765Y-107244369D01*
X151273109Y-107474735D01*
X151272891Y-107724171D01*
X151126891Y-107724171D01*
X151127109Y-107475829D01*
X151031855Y-107245297D01*
X150855631Y-107068765D01*
X150625265Y-106973109D01*
X150375829Y-106972891D01*
X150145297Y-107068145D01*
X149968765Y-107244369D01*
X149873109Y-107474735D01*
X149872891Y-107724171D01*
X143126891Y-107724171D01*
X143127109Y-107475829D01*
X143031855Y-107245297D01*
X142855631Y-107068765D01*
X142625265Y-106973109D01*
X142375829Y-106972891D01*
X142145297Y-107068145D01*
X141968765Y-107244369D01*
X141873109Y-107474735D01*
X141872891Y-107724171D01*
X141626891Y-107724171D01*
X141627109Y-107475829D01*
X141531855Y-107245297D01*
X141355631Y-107068765D01*
X141125265Y-106973109D01*
X140875829Y-106972891D01*
X140645297Y-107068145D01*
X140468765Y-107244369D01*
X140373109Y-107474735D01*
X140372891Y-107724171D01*
X129344298Y-107724171D01*
X129426891Y-107525265D01*
X129427109Y-107275829D01*
X129331855Y-107045297D01*
X129155631Y-106868765D01*
X128925265Y-106773109D01*
X128675829Y-106772891D01*
X128445297Y-106868145D01*
X128268765Y-107044369D01*
X128173109Y-107274735D01*
X128172891Y-107524171D01*
X127926891Y-107524171D01*
X127927109Y-107275829D01*
X127831855Y-107045297D01*
X127655631Y-106868765D01*
X127425265Y-106773109D01*
X127175829Y-106772891D01*
X126945297Y-106868145D01*
X126768765Y-107044369D01*
X126673109Y-107274735D01*
X126672891Y-107524171D01*
X122626891Y-107524171D01*
X122627109Y-107275829D01*
X122531855Y-107045297D01*
X122355631Y-106868765D01*
X122125265Y-106773109D01*
X121875829Y-106772891D01*
X121645297Y-106868145D01*
X121468765Y-107044369D01*
X121373109Y-107274735D01*
X121372891Y-107524171D01*
X117726891Y-107524171D01*
X117727109Y-107275829D01*
X117631855Y-107045297D01*
X117486713Y-106899901D01*
X117631235Y-106755631D01*
X117726891Y-106525265D01*
X117727109Y-106275829D01*
X117631855Y-106045297D01*
X117486713Y-105899901D01*
X117631235Y-105755631D01*
X117660907Y-105684171D01*
X123002891Y-105684171D01*
X123098145Y-105914703D01*
X123274369Y-106091235D01*
X123504735Y-106186891D01*
X123754171Y-106187109D01*
X123984703Y-106091855D01*
X124161235Y-105915631D01*
X124256891Y-105685265D01*
X124256935Y-105634171D01*
X138882891Y-105634171D01*
X138978145Y-105864703D01*
X139154369Y-106041235D01*
X139384735Y-106136891D01*
X139634171Y-106137109D01*
X139762290Y-106084171D01*
X174472891Y-106084171D01*
X174568145Y-106314703D01*
X174744369Y-106491235D01*
X174766434Y-106500397D01*
X174723109Y-106604735D01*
X174722891Y-106854171D01*
X174818145Y-107084703D01*
X174994369Y-107261235D01*
X175224735Y-107356891D01*
X175474171Y-107357109D01*
X175529685Y-107334171D01*
X184852891Y-107334171D01*
X184948145Y-107564703D01*
X185124369Y-107741235D01*
X185354735Y-107836891D01*
X185604171Y-107837109D01*
X185834703Y-107741855D01*
X186011235Y-107565631D01*
X186106891Y-107335265D01*
X186107109Y-107085829D01*
X186011855Y-106855297D01*
X185980784Y-106824171D01*
X188532891Y-106824171D01*
X188628145Y-107054703D01*
X188804369Y-107231235D01*
X189034735Y-107326891D01*
X189284171Y-107327109D01*
X189514703Y-107231855D01*
X189691235Y-107055631D01*
X189786891Y-106825265D01*
X189787109Y-106575829D01*
X189691855Y-106345297D01*
X189515631Y-106168765D01*
X189285265Y-106073109D01*
X189035829Y-106072891D01*
X188805297Y-106168145D01*
X188628765Y-106344369D01*
X188533109Y-106574735D01*
X188532891Y-106824171D01*
X185980784Y-106824171D01*
X185835631Y-106678765D01*
X185605265Y-106583109D01*
X185355829Y-106582891D01*
X185125297Y-106678145D01*
X184948765Y-106854369D01*
X184853109Y-107084735D01*
X184852891Y-107334171D01*
X175529685Y-107334171D01*
X175704703Y-107261855D01*
X175881235Y-107085631D01*
X175976891Y-106855265D01*
X175976918Y-106824171D01*
X179872891Y-106824171D01*
X179968145Y-107054703D01*
X180144369Y-107231235D01*
X180374735Y-107326891D01*
X180624171Y-107327109D01*
X180854703Y-107231855D01*
X181031235Y-107055631D01*
X181126891Y-106825265D01*
X181127109Y-106575829D01*
X181031855Y-106345297D01*
X180855631Y-106168765D01*
X180625265Y-106073109D01*
X180375829Y-106072891D01*
X180145297Y-106168145D01*
X179968765Y-106344369D01*
X179873109Y-106574735D01*
X179872891Y-106824171D01*
X175976918Y-106824171D01*
X175977109Y-106605829D01*
X175881855Y-106375297D01*
X175705631Y-106198765D01*
X175683566Y-106189603D01*
X175726891Y-106085265D01*
X175727109Y-105835829D01*
X175661305Y-105676572D01*
X175854735Y-105756891D01*
X176104171Y-105757109D01*
X176334703Y-105661855D01*
X176511235Y-105485631D01*
X176606891Y-105255265D01*
X176607109Y-105005829D01*
X176511855Y-104775297D01*
X176335631Y-104598765D01*
X176105265Y-104503109D01*
X175855829Y-104502891D01*
X175625297Y-104598145D01*
X175448765Y-104774369D01*
X175353109Y-105004735D01*
X175352891Y-105254171D01*
X175418695Y-105413428D01*
X175225265Y-105333109D01*
X174975829Y-105332891D01*
X174745297Y-105428145D01*
X174568765Y-105604369D01*
X174473109Y-105834735D01*
X174472891Y-106084171D01*
X139762290Y-106084171D01*
X139864703Y-106041855D01*
X140041235Y-105865631D01*
X140136891Y-105635265D01*
X140137109Y-105385829D01*
X140041855Y-105155297D01*
X139865631Y-104978765D01*
X139782320Y-104944171D01*
X141122891Y-104944171D01*
X141218145Y-105174703D01*
X141394369Y-105351235D01*
X141624735Y-105446891D01*
X141874171Y-105447109D01*
X142104703Y-105351855D01*
X142281235Y-105175631D01*
X142376891Y-104945265D01*
X142377109Y-104695829D01*
X142335105Y-104594171D01*
X158102891Y-104594171D01*
X158198145Y-104824703D01*
X158374369Y-105001235D01*
X158604735Y-105096891D01*
X158854171Y-105097109D01*
X159084703Y-105001855D01*
X159261235Y-104825631D01*
X159356891Y-104595265D01*
X159357058Y-104404171D01*
X171062891Y-104404171D01*
X171158145Y-104634703D01*
X171334369Y-104811235D01*
X171564735Y-104906891D01*
X171814171Y-104907109D01*
X172044703Y-104811855D01*
X172221235Y-104635631D01*
X172316891Y-104405265D01*
X172317109Y-104155829D01*
X172270973Y-104044171D01*
X172472891Y-104044171D01*
X172568145Y-104274703D01*
X172658287Y-104365003D01*
X172568765Y-104454369D01*
X172473109Y-104684735D01*
X172472891Y-104934171D01*
X172568145Y-105164703D01*
X172744369Y-105341235D01*
X172974735Y-105436891D01*
X173224171Y-105437109D01*
X173454703Y-105341855D01*
X173631235Y-105165631D01*
X173726891Y-104935265D01*
X173727109Y-104685829D01*
X173631855Y-104455297D01*
X173541713Y-104364997D01*
X173631235Y-104275631D01*
X173726891Y-104045265D01*
X173727109Y-103795829D01*
X173631855Y-103565297D01*
X173455631Y-103388765D01*
X173396402Y-103364171D01*
X181242891Y-103364171D01*
X181338145Y-103594703D01*
X181514369Y-103771235D01*
X181611662Y-103811634D01*
X181518765Y-103904369D01*
X181423109Y-104134735D01*
X181422891Y-104384171D01*
X181518145Y-104614703D01*
X181694369Y-104791235D01*
X181924735Y-104886891D01*
X182174171Y-104887109D01*
X182404703Y-104791855D01*
X182581235Y-104615631D01*
X182676891Y-104385265D01*
X182677109Y-104135829D01*
X182581855Y-103905297D01*
X182405631Y-103728765D01*
X182308338Y-103688366D01*
X182401235Y-103595631D01*
X182496891Y-103365265D01*
X182497109Y-103115829D01*
X182401855Y-102885297D01*
X182236704Y-102719857D01*
X182411235Y-102545631D01*
X182506891Y-102315265D01*
X182507109Y-102065829D01*
X182411855Y-101835297D01*
X182316695Y-101739971D01*
X182431235Y-101625631D01*
X182526891Y-101395265D01*
X182527109Y-101145829D01*
X182431855Y-100915297D01*
X182255631Y-100738765D01*
X182100071Y-100674171D01*
X186352891Y-100674171D01*
X186448145Y-100904703D01*
X186624369Y-101081235D01*
X186854735Y-101176891D01*
X187104171Y-101177109D01*
X187334703Y-101081855D01*
X187511235Y-100905631D01*
X187606891Y-100675265D01*
X187607109Y-100425829D01*
X187511855Y-100195297D01*
X187335631Y-100018765D01*
X187105265Y-99923109D01*
X186855829Y-99922891D01*
X186625297Y-100018145D01*
X186448765Y-100194369D01*
X186353109Y-100424735D01*
X186352891Y-100674171D01*
X182100071Y-100674171D01*
X182025265Y-100643109D01*
X181775829Y-100642891D01*
X181545297Y-100738145D01*
X181368765Y-100914369D01*
X181273109Y-101144735D01*
X181272891Y-101394171D01*
X181368145Y-101624703D01*
X181463305Y-101720029D01*
X181348765Y-101834369D01*
X181253109Y-102064735D01*
X181252891Y-102314171D01*
X181348145Y-102544703D01*
X181513296Y-102710143D01*
X181338765Y-102884369D01*
X181243109Y-103114735D01*
X181242891Y-103364171D01*
X173396402Y-103364171D01*
X173225265Y-103293109D01*
X172975829Y-103292891D01*
X172745297Y-103388145D01*
X172568765Y-103564369D01*
X172473109Y-103794735D01*
X172472891Y-104044171D01*
X172270973Y-104044171D01*
X172221855Y-103925297D01*
X172045631Y-103748765D01*
X171815265Y-103653109D01*
X171565829Y-103652891D01*
X171335297Y-103748145D01*
X171158765Y-103924369D01*
X171063109Y-104154735D01*
X171062891Y-104404171D01*
X159357058Y-104404171D01*
X159357109Y-104345829D01*
X159289376Y-104181903D01*
X159434703Y-104121855D01*
X159611235Y-103945631D01*
X159706891Y-103715265D01*
X159707109Y-103465829D01*
X159670851Y-103378079D01*
X159884735Y-103466891D01*
X160134171Y-103467109D01*
X160364703Y-103371855D01*
X160541235Y-103195631D01*
X160560467Y-103149314D01*
X160608145Y-103264703D01*
X160784369Y-103441235D01*
X161014735Y-103536891D01*
X161264171Y-103537109D01*
X161494703Y-103441855D01*
X161671235Y-103265631D01*
X161766891Y-103035265D01*
X161767109Y-102785829D01*
X161671855Y-102555297D01*
X161495631Y-102378765D01*
X161265265Y-102283109D01*
X161015829Y-102282891D01*
X160785297Y-102378145D01*
X160608765Y-102554369D01*
X160589533Y-102600686D01*
X160541855Y-102485297D01*
X160365631Y-102308765D01*
X160135265Y-102213109D01*
X159885829Y-102212891D01*
X159655297Y-102308145D01*
X159478765Y-102484369D01*
X159383109Y-102714735D01*
X159382891Y-102964171D01*
X159419149Y-103051921D01*
X159205265Y-102963109D01*
X158955829Y-102962891D01*
X158725297Y-103058145D01*
X158548765Y-103234369D01*
X158453109Y-103464735D01*
X158452891Y-103714171D01*
X158520624Y-103878097D01*
X158375297Y-103938145D01*
X158198765Y-104114369D01*
X158103109Y-104344735D01*
X158102891Y-104594171D01*
X142335105Y-104594171D01*
X142281855Y-104465297D01*
X142105631Y-104288765D01*
X141875265Y-104193109D01*
X141625829Y-104192891D01*
X141395297Y-104288145D01*
X141218765Y-104464369D01*
X141123109Y-104694735D01*
X141122891Y-104944171D01*
X139782320Y-104944171D01*
X139635265Y-104883109D01*
X139385829Y-104882891D01*
X139155297Y-104978145D01*
X138978765Y-105154369D01*
X138883109Y-105384735D01*
X138882891Y-105634171D01*
X124256935Y-105634171D01*
X124257109Y-105435829D01*
X124161855Y-105205297D01*
X123985631Y-105028765D01*
X123755265Y-104933109D01*
X123505829Y-104932891D01*
X123275297Y-105028145D01*
X123098765Y-105204369D01*
X123003109Y-105434735D01*
X123002891Y-105684171D01*
X117660907Y-105684171D01*
X117726891Y-105525265D01*
X117727109Y-105275829D01*
X117631855Y-105045297D01*
X117486713Y-104899901D01*
X117631235Y-104755631D01*
X117726891Y-104525265D01*
X117727109Y-104275829D01*
X117631855Y-104045297D01*
X117455631Y-103868765D01*
X117225265Y-103773109D01*
X116975829Y-103772891D01*
X116745297Y-103868145D01*
X116568765Y-104044369D01*
X116473109Y-104274735D01*
X116472891Y-104524171D01*
X107362000Y-104524171D01*
X107362000Y-103684171D01*
X123902891Y-103684171D01*
X123998145Y-103914703D01*
X124174369Y-104091235D01*
X124299692Y-104143274D01*
X124215297Y-104178145D01*
X124038765Y-104354369D01*
X123943109Y-104584735D01*
X123942891Y-104834171D01*
X124038145Y-105064703D01*
X124214369Y-105241235D01*
X124444735Y-105336891D01*
X124694171Y-105337109D01*
X124924703Y-105241855D01*
X125101235Y-105065631D01*
X125196891Y-104835265D01*
X125197109Y-104585829D01*
X125101855Y-104355297D01*
X124925631Y-104178765D01*
X124800308Y-104126726D01*
X124884703Y-104091855D01*
X125061235Y-103915631D01*
X125156891Y-103685265D01*
X125156900Y-103674171D01*
X141052891Y-103674171D01*
X141148145Y-103904703D01*
X141324369Y-104081235D01*
X141554735Y-104176891D01*
X141804171Y-104177109D01*
X142034703Y-104081855D01*
X142211235Y-103905631D01*
X142306891Y-103675265D01*
X142307109Y-103425829D01*
X142211855Y-103195297D01*
X142035631Y-103018765D01*
X141805265Y-102923109D01*
X141555829Y-102922891D01*
X141325297Y-103018145D01*
X141148765Y-103194369D01*
X141053109Y-103424735D01*
X141052891Y-103674171D01*
X125156900Y-103674171D01*
X125157109Y-103435829D01*
X125061855Y-103205297D01*
X124885631Y-103028765D01*
X124655265Y-102933109D01*
X124405829Y-102932891D01*
X124175297Y-103028145D01*
X123998765Y-103204369D01*
X123903109Y-103434735D01*
X123902891Y-103684171D01*
X107362000Y-103684171D01*
X107362000Y-102914171D01*
X121422891Y-102914171D01*
X121518145Y-103144703D01*
X121694369Y-103321235D01*
X121924735Y-103416891D01*
X122174171Y-103417109D01*
X122404703Y-103321855D01*
X122581235Y-103145631D01*
X122676891Y-102915265D01*
X122676891Y-102914171D01*
X122832891Y-102914171D01*
X122928145Y-103144703D01*
X123104369Y-103321235D01*
X123334735Y-103416891D01*
X123584171Y-103417109D01*
X123814703Y-103321855D01*
X123991235Y-103145631D01*
X124086891Y-102915265D01*
X124086891Y-102914171D01*
X125022891Y-102914171D01*
X125118145Y-103144703D01*
X125294369Y-103321235D01*
X125524735Y-103416891D01*
X125774171Y-103417109D01*
X126004703Y-103321855D01*
X126181235Y-103145631D01*
X126190773Y-103122660D01*
X126208145Y-103164703D01*
X126384369Y-103341235D01*
X126614735Y-103436891D01*
X126864171Y-103437109D01*
X127094703Y-103341855D01*
X127271235Y-103165631D01*
X127366891Y-102935265D01*
X127366926Y-102894171D01*
X138612891Y-102894171D01*
X138708145Y-103124703D01*
X138884369Y-103301235D01*
X139114735Y-103396891D01*
X139364171Y-103397109D01*
X139594703Y-103301855D01*
X139771235Y-103125631D01*
X139866891Y-102895265D01*
X139866891Y-102894171D01*
X140012891Y-102894171D01*
X140108145Y-103124703D01*
X140284369Y-103301235D01*
X140514735Y-103396891D01*
X140764171Y-103397109D01*
X140994703Y-103301855D01*
X141171235Y-103125631D01*
X141266891Y-102895265D01*
X141266891Y-102894171D01*
X142222891Y-102894171D01*
X142318145Y-103124703D01*
X142494369Y-103301235D01*
X142724735Y-103396891D01*
X142974171Y-103397109D01*
X143204703Y-103301855D01*
X143381235Y-103125631D01*
X143433813Y-102999008D01*
X143498145Y-103154703D01*
X143674369Y-103331235D01*
X143904735Y-103426891D01*
X144154171Y-103427109D01*
X144384703Y-103331855D01*
X144561235Y-103155631D01*
X144640735Y-102964171D01*
X155772891Y-102964171D01*
X155868145Y-103194703D01*
X156044369Y-103371235D01*
X156274735Y-103466891D01*
X156524171Y-103467109D01*
X156754703Y-103371855D01*
X156931235Y-103195631D01*
X157026891Y-102965265D01*
X157026891Y-102964171D01*
X157192891Y-102964171D01*
X157288145Y-103194703D01*
X157464369Y-103371235D01*
X157694735Y-103466891D01*
X157944171Y-103467109D01*
X158174703Y-103371855D01*
X158351235Y-103195631D01*
X158446891Y-102965265D01*
X158447109Y-102715829D01*
X158351855Y-102485297D01*
X158175631Y-102308765D01*
X157945265Y-102213109D01*
X157695829Y-102212891D01*
X157465297Y-102308145D01*
X157288765Y-102484369D01*
X157193109Y-102714735D01*
X157192891Y-102964171D01*
X157026891Y-102964171D01*
X157027109Y-102715829D01*
X156931855Y-102485297D01*
X156755631Y-102308765D01*
X156525265Y-102213109D01*
X156275829Y-102212891D01*
X156045297Y-102308145D01*
X155868765Y-102484369D01*
X155773109Y-102714735D01*
X155772891Y-102964171D01*
X144640735Y-102964171D01*
X144656891Y-102925265D01*
X144657109Y-102675829D01*
X144561855Y-102445297D01*
X144385631Y-102268765D01*
X144155265Y-102173109D01*
X143905829Y-102172891D01*
X143675297Y-102268145D01*
X143498765Y-102444369D01*
X143446187Y-102570992D01*
X143381855Y-102415297D01*
X143205631Y-102238765D01*
X142975265Y-102143109D01*
X142725829Y-102142891D01*
X142495297Y-102238145D01*
X142318765Y-102414369D01*
X142223109Y-102644735D01*
X142222891Y-102894171D01*
X141266891Y-102894171D01*
X141267109Y-102645829D01*
X141171855Y-102415297D01*
X140995631Y-102238765D01*
X140765265Y-102143109D01*
X140515829Y-102142891D01*
X140285297Y-102238145D01*
X140108765Y-102414369D01*
X140013109Y-102644735D01*
X140012891Y-102894171D01*
X139866891Y-102894171D01*
X139867109Y-102645829D01*
X139771855Y-102415297D01*
X139595631Y-102238765D01*
X139365265Y-102143109D01*
X139115829Y-102142891D01*
X138885297Y-102238145D01*
X138708765Y-102414369D01*
X138613109Y-102644735D01*
X138612891Y-102894171D01*
X127366926Y-102894171D01*
X127367109Y-102685829D01*
X127271855Y-102455297D01*
X127095631Y-102278765D01*
X126865265Y-102183109D01*
X126615829Y-102182891D01*
X126385297Y-102278145D01*
X126208765Y-102454369D01*
X126199227Y-102477340D01*
X126181855Y-102435297D01*
X126005631Y-102258765D01*
X125775265Y-102163109D01*
X125525829Y-102162891D01*
X125295297Y-102258145D01*
X125118765Y-102434369D01*
X125023109Y-102664735D01*
X125022891Y-102914171D01*
X124086891Y-102914171D01*
X124087109Y-102665829D01*
X123991855Y-102435297D01*
X123815631Y-102258765D01*
X123585265Y-102163109D01*
X123335829Y-102162891D01*
X123105297Y-102258145D01*
X122928765Y-102434369D01*
X122833109Y-102664735D01*
X122832891Y-102914171D01*
X122676891Y-102914171D01*
X122677109Y-102665829D01*
X122581855Y-102435297D01*
X122405631Y-102258765D01*
X122175265Y-102163109D01*
X121925829Y-102162891D01*
X121695297Y-102258145D01*
X121518765Y-102434369D01*
X121423109Y-102664735D01*
X121422891Y-102914171D01*
X107362000Y-102914171D01*
X107362000Y-100994171D01*
X111522891Y-100994171D01*
X111618145Y-101224703D01*
X111794369Y-101401235D01*
X112024735Y-101496891D01*
X112274171Y-101497109D01*
X112504703Y-101401855D01*
X112681235Y-101225631D01*
X112776891Y-100995265D01*
X112777109Y-100745829D01*
X112681855Y-100515297D01*
X112505631Y-100338765D01*
X112275265Y-100243109D01*
X112025829Y-100242891D01*
X111795297Y-100338145D01*
X111618765Y-100514369D01*
X111523109Y-100744735D01*
X111522891Y-100994171D01*
X107362000Y-100994171D01*
X107362000Y-98534171D01*
X113812891Y-98534171D01*
X113908145Y-98764703D01*
X114084369Y-98941235D01*
X114314735Y-99036891D01*
X114564171Y-99037109D01*
X114794703Y-98941855D01*
X114971235Y-98765631D01*
X115066891Y-98535265D01*
X115067109Y-98285829D01*
X114971855Y-98055297D01*
X114795631Y-97878765D01*
X114565265Y-97783109D01*
X114315829Y-97782891D01*
X114085297Y-97878145D01*
X113908765Y-98054369D01*
X113813109Y-98284735D01*
X113812891Y-98534171D01*
X107362000Y-98534171D01*
X107362000Y-93764171D01*
X112972891Y-93764171D01*
X113068145Y-93994703D01*
X113244369Y-94171235D01*
X113410097Y-94240051D01*
X113245297Y-94308145D01*
X113068765Y-94484369D01*
X112973109Y-94714735D01*
X112972891Y-94964171D01*
X113068145Y-95194703D01*
X113244369Y-95371235D01*
X113474735Y-95466891D01*
X113724171Y-95467109D01*
X113954703Y-95371855D01*
X114131235Y-95195631D01*
X114226891Y-94965265D01*
X114227109Y-94715829D01*
X114131855Y-94485297D01*
X113955631Y-94308765D01*
X113789903Y-94239949D01*
X113954703Y-94171855D01*
X114131235Y-93995631D01*
X114226891Y-93765265D01*
X114227109Y-93515829D01*
X114131855Y-93285297D01*
X113955631Y-93108765D01*
X113725265Y-93013109D01*
X113475829Y-93012891D01*
X113245297Y-93108145D01*
X113068765Y-93284369D01*
X112973109Y-93514735D01*
X112972891Y-93764171D01*
X107362000Y-93764171D01*
X107362000Y-90234171D01*
X112112891Y-90234171D01*
X112208145Y-90464703D01*
X112384369Y-90641235D01*
X112614735Y-90736891D01*
X112864171Y-90737109D01*
X113094703Y-90641855D01*
X113271235Y-90465631D01*
X113366891Y-90235265D01*
X113367109Y-89985829D01*
X113271855Y-89755297D01*
X113095631Y-89578765D01*
X112865265Y-89483109D01*
X112615829Y-89482891D01*
X112385297Y-89578145D01*
X112208765Y-89754369D01*
X112113109Y-89984735D01*
X112112891Y-90234171D01*
X107362000Y-90234171D01*
X107362000Y-36896845D01*
X117573000Y-36896845D01*
X117573000Y-97400000D01*
X117573000Y-97400000D01*
G37*
X117573000Y-97400000D02*
X117583006Y-97449410D01*
X117611447Y-97491035D01*
X117653841Y-97518315D01*
X117700000Y-97527000D01*
X128886339Y-97527000D01*
X128768765Y-97644369D01*
X128673109Y-97874735D01*
X128672891Y-98124171D01*
X128768145Y-98354703D01*
X128913287Y-98500099D01*
X128768765Y-98644369D01*
X128673109Y-98874735D01*
X128672891Y-99124171D01*
X128768145Y-99354703D01*
X128913287Y-99500099D01*
X128768765Y-99644369D01*
X128673109Y-99874735D01*
X128672891Y-100124171D01*
X128768145Y-100354703D01*
X128913287Y-100500099D01*
X128768765Y-100644369D01*
X128673109Y-100874735D01*
X128672891Y-101124171D01*
X128768145Y-101354703D01*
X128944369Y-101531235D01*
X129174735Y-101626891D01*
X129424171Y-101627109D01*
X129572942Y-101565638D01*
X129572891Y-101624171D01*
X129668145Y-101854703D01*
X129844369Y-102031235D01*
X130074735Y-102126891D01*
X130324171Y-102127109D01*
X130554703Y-102031855D01*
X130731235Y-101855631D01*
X130826891Y-101625265D01*
X130827109Y-101375829D01*
X130731855Y-101145297D01*
X130586713Y-100999901D01*
X130731235Y-100855631D01*
X130826891Y-100625265D01*
X130827109Y-100375829D01*
X130731855Y-100145297D01*
X130586713Y-99999901D01*
X130731235Y-99855631D01*
X130826891Y-99625265D01*
X130827109Y-99375829D01*
X130731855Y-99145297D01*
X130586713Y-98999901D01*
X130731235Y-98855631D01*
X130826891Y-98625265D01*
X130827109Y-98375829D01*
X130731855Y-98145297D01*
X130555631Y-97968765D01*
X130325265Y-97873109D01*
X130075829Y-97872891D01*
X129927058Y-97934362D01*
X129927109Y-97875829D01*
X129831855Y-97645297D01*
X129713764Y-97527000D01*
X146086339Y-97527000D01*
X145968765Y-97644369D01*
X145873109Y-97874735D01*
X145872891Y-98124171D01*
X145968145Y-98354703D01*
X146113287Y-98500099D01*
X145968765Y-98644369D01*
X145873109Y-98874735D01*
X145872891Y-99124171D01*
X145968145Y-99354703D01*
X146113287Y-99500099D01*
X145968765Y-99644369D01*
X145873109Y-99874735D01*
X145872891Y-100124171D01*
X145968145Y-100354703D01*
X146113287Y-100500099D01*
X145968765Y-100644369D01*
X145873109Y-100874735D01*
X145872891Y-101124171D01*
X145968145Y-101354703D01*
X146144369Y-101531235D01*
X146374735Y-101626891D01*
X146624171Y-101627109D01*
X146772942Y-101565638D01*
X146772891Y-101624171D01*
X146868145Y-101854703D01*
X147044369Y-102031235D01*
X147274735Y-102126891D01*
X147524171Y-102127109D01*
X147628088Y-102084171D01*
X171052891Y-102084171D01*
X171148145Y-102314703D01*
X171324369Y-102491235D01*
X171350940Y-102502268D01*
X171308765Y-102544369D01*
X171213109Y-102774735D01*
X171212891Y-103024171D01*
X171308145Y-103254703D01*
X171484369Y-103431235D01*
X171714735Y-103526891D01*
X171964171Y-103527109D01*
X172194703Y-103431855D01*
X172371235Y-103255631D01*
X172466891Y-103025265D01*
X172467109Y-102775829D01*
X172371855Y-102545297D01*
X172195631Y-102368765D01*
X172169060Y-102357732D01*
X172211235Y-102315631D01*
X172306891Y-102085265D01*
X172307109Y-101835829D01*
X172246768Y-101689793D01*
X172421235Y-101515631D01*
X172496583Y-101334171D01*
X177742891Y-101334171D01*
X177838145Y-101564703D01*
X177963287Y-101690064D01*
X177838765Y-101814369D01*
X177743109Y-102044735D01*
X177742891Y-102294171D01*
X177838145Y-102524703D01*
X178014369Y-102701235D01*
X178244735Y-102796891D01*
X178494171Y-102797109D01*
X178724703Y-102701855D01*
X178901235Y-102525631D01*
X178996891Y-102295265D01*
X178997109Y-102045829D01*
X178901855Y-101815297D01*
X178776713Y-101689936D01*
X178901235Y-101565631D01*
X178996891Y-101335265D01*
X178997109Y-101085829D01*
X178965662Y-101009722D01*
X178984703Y-101001855D01*
X179161235Y-100825631D01*
X179256891Y-100595265D01*
X179257109Y-100345829D01*
X179161855Y-100115297D01*
X178985631Y-99938765D01*
X178755265Y-99843109D01*
X178505829Y-99842891D01*
X178275297Y-99938145D01*
X178098765Y-100114369D01*
X178003109Y-100344735D01*
X178002891Y-100594171D01*
X178034338Y-100670278D01*
X178015297Y-100678145D01*
X177838765Y-100854369D01*
X177743109Y-101084735D01*
X177742891Y-101334171D01*
X172496583Y-101334171D01*
X172516891Y-101285265D01*
X172517109Y-101035829D01*
X172433340Y-100833093D01*
X172514735Y-100866891D01*
X172764171Y-100867109D01*
X172994703Y-100771855D01*
X173171235Y-100595631D01*
X173266891Y-100365265D01*
X173267109Y-100115829D01*
X173171855Y-99885297D01*
X172995631Y-99708765D01*
X172765265Y-99613109D01*
X172515829Y-99612891D01*
X172285297Y-99708145D01*
X172108765Y-99884369D01*
X172013109Y-100114735D01*
X172012891Y-100364171D01*
X172096660Y-100566907D01*
X172015265Y-100533109D01*
X171765829Y-100532891D01*
X171535297Y-100628145D01*
X171358765Y-100804369D01*
X171263109Y-101034735D01*
X171262891Y-101284171D01*
X171323232Y-101430207D01*
X171148765Y-101604369D01*
X171053109Y-101834735D01*
X171052891Y-102084171D01*
X147628088Y-102084171D01*
X147754703Y-102031855D01*
X147931235Y-101855631D01*
X148026891Y-101625265D01*
X148027109Y-101375829D01*
X147931855Y-101145297D01*
X147786713Y-100999901D01*
X147931235Y-100855631D01*
X148026891Y-100625265D01*
X148027109Y-100375829D01*
X147931855Y-100145297D01*
X147786713Y-99999901D01*
X147931235Y-99855631D01*
X148026891Y-99625265D01*
X148027109Y-99375829D01*
X147931855Y-99145297D01*
X147786713Y-98999901D01*
X147931235Y-98855631D01*
X148026891Y-98625265D01*
X148027109Y-98375829D01*
X147931855Y-98145297D01*
X147755631Y-97968765D01*
X147525265Y-97873109D01*
X147275829Y-97872891D01*
X147127058Y-97934362D01*
X147127109Y-97875829D01*
X147031855Y-97645297D01*
X146913764Y-97527000D01*
X148800000Y-97527000D01*
X148849410Y-97516994D01*
X148891035Y-97488553D01*
X148918315Y-97446159D01*
X148927000Y-97400000D01*
X148927000Y-93404171D01*
X149062891Y-93404171D01*
X149158145Y-93634703D01*
X149334369Y-93811235D01*
X149564735Y-93906891D01*
X149814171Y-93907109D01*
X150044703Y-93811855D01*
X150221235Y-93635631D01*
X150316891Y-93405265D01*
X150317109Y-93155829D01*
X150221855Y-92925297D01*
X150045631Y-92748765D01*
X149815265Y-92653109D01*
X149565829Y-92652891D01*
X149335297Y-92748145D01*
X149158765Y-92924369D01*
X149063109Y-93154735D01*
X149062891Y-93404171D01*
X148927000Y-93404171D01*
X148927000Y-90227000D01*
X152173000Y-90227000D01*
X152173000Y-97400000D01*
X152183006Y-97449410D01*
X152211447Y-97491035D01*
X152253841Y-97518315D01*
X152300000Y-97527000D01*
X163444875Y-97527000D01*
X163345297Y-97568145D01*
X163168765Y-97744369D01*
X163073109Y-97974735D01*
X163072891Y-98224171D01*
X163168145Y-98454703D01*
X163313287Y-98600099D01*
X163168765Y-98744369D01*
X163073109Y-98974735D01*
X163072891Y-99224171D01*
X163168145Y-99454703D01*
X163344369Y-99631235D01*
X163574735Y-99726891D01*
X163824171Y-99727109D01*
X164054703Y-99631855D01*
X164200099Y-99486713D01*
X164344369Y-99631235D01*
X164574735Y-99726891D01*
X164824171Y-99727109D01*
X165054703Y-99631855D01*
X165200099Y-99486713D01*
X165344369Y-99631235D01*
X165574735Y-99726891D01*
X165824171Y-99727109D01*
X166054703Y-99631855D01*
X166200099Y-99486713D01*
X166344369Y-99631235D01*
X166574735Y-99726891D01*
X166824171Y-99727109D01*
X167054703Y-99631855D01*
X167231235Y-99455631D01*
X167326891Y-99225265D01*
X167327109Y-98975829D01*
X167231855Y-98745297D01*
X167086713Y-98599901D01*
X167231235Y-98455631D01*
X167326891Y-98225265D01*
X167327005Y-98094171D01*
X178712891Y-98094171D01*
X178808145Y-98324703D01*
X178984369Y-98501235D01*
X179214735Y-98596891D01*
X179464171Y-98597109D01*
X179694703Y-98501855D01*
X179700461Y-98496107D01*
X179708145Y-98514703D01*
X179884369Y-98691235D01*
X180033084Y-98752987D01*
X180032891Y-98974171D01*
X180128145Y-99204703D01*
X180304369Y-99381235D01*
X180534735Y-99476891D01*
X180784171Y-99477109D01*
X180960694Y-99404171D01*
X184912891Y-99404171D01*
X185008145Y-99634703D01*
X185184369Y-99811235D01*
X185414735Y-99906891D01*
X185664171Y-99907109D01*
X185894703Y-99811855D01*
X186071235Y-99635631D01*
X186166891Y-99405265D01*
X186167109Y-99155829D01*
X186071855Y-98925297D01*
X185895631Y-98748765D01*
X185665265Y-98653109D01*
X185415829Y-98652891D01*
X185185297Y-98748145D01*
X185008765Y-98924369D01*
X184913109Y-99154735D01*
X184912891Y-99404171D01*
X180960694Y-99404171D01*
X181014703Y-99381855D01*
X181191235Y-99205631D01*
X181286891Y-98975265D01*
X181287109Y-98725829D01*
X181191855Y-98495297D01*
X181015631Y-98318765D01*
X180866916Y-98257013D01*
X180867109Y-98035829D01*
X180771855Y-97805297D01*
X180595631Y-97628765D01*
X180365265Y-97533109D01*
X180115829Y-97532891D01*
X179885297Y-97628145D01*
X179879539Y-97633893D01*
X179871855Y-97615297D01*
X179760923Y-97504171D01*
X184802891Y-97504171D01*
X184898145Y-97734703D01*
X185074369Y-97911235D01*
X185304735Y-98006891D01*
X185554171Y-98007109D01*
X185784703Y-97911855D01*
X185961235Y-97735631D01*
X186056891Y-97505265D01*
X186057109Y-97255829D01*
X185961855Y-97025297D01*
X185785631Y-96848765D01*
X185555265Y-96753109D01*
X185305829Y-96752891D01*
X185075297Y-96848145D01*
X184898765Y-97024369D01*
X184803109Y-97254735D01*
X184802891Y-97504171D01*
X179760923Y-97504171D01*
X179695631Y-97438765D01*
X179465265Y-97343109D01*
X179215829Y-97342891D01*
X178985297Y-97438145D01*
X178808765Y-97614369D01*
X178713109Y-97844735D01*
X178712891Y-98094171D01*
X167327005Y-98094171D01*
X167327109Y-97975829D01*
X167231855Y-97745297D01*
X167055631Y-97568765D01*
X166955049Y-97527000D01*
X169500000Y-97527000D01*
X169549410Y-97516994D01*
X169591035Y-97488553D01*
X169618315Y-97446159D01*
X169627000Y-97400000D01*
X169627000Y-96274171D01*
X177532891Y-96274171D01*
X177628145Y-96504703D01*
X177804369Y-96681235D01*
X178034735Y-96776891D01*
X178284171Y-96777109D01*
X178514703Y-96681855D01*
X178691235Y-96505631D01*
X178786891Y-96275265D01*
X178787109Y-96025829D01*
X178691855Y-95795297D01*
X178676695Y-95780111D01*
X178711235Y-95745631D01*
X178806891Y-95515265D01*
X178807109Y-95265829D01*
X178711855Y-95035297D01*
X178535631Y-94858765D01*
X178305265Y-94763109D01*
X178055829Y-94762891D01*
X177825297Y-94858145D01*
X177648765Y-95034369D01*
X177553109Y-95264735D01*
X177552891Y-95514171D01*
X177648145Y-95744703D01*
X177663305Y-95759889D01*
X177628765Y-95794369D01*
X177533109Y-96024735D01*
X177532891Y-96274171D01*
X169627000Y-96274171D01*
X169627000Y-95604171D01*
X171502891Y-95604171D01*
X171598145Y-95834703D01*
X171774369Y-96011235D01*
X172004735Y-96106891D01*
X172254171Y-96107109D01*
X172484703Y-96011855D01*
X172661235Y-95835631D01*
X172756891Y-95605265D01*
X172757040Y-95435264D01*
X172934703Y-95361855D01*
X173111235Y-95185631D01*
X173206891Y-94955265D01*
X173207109Y-94705829D01*
X173111855Y-94475297D01*
X172935631Y-94298765D01*
X172705265Y-94203109D01*
X172455829Y-94202891D01*
X172225297Y-94298145D01*
X172048765Y-94474369D01*
X171953109Y-94704735D01*
X171952960Y-94874736D01*
X171775297Y-94948145D01*
X171598765Y-95124369D01*
X171503109Y-95354735D01*
X171502891Y-95604171D01*
X169627000Y-95604171D01*
X169627000Y-92034171D01*
X180752891Y-92034171D01*
X180848145Y-92264703D01*
X181024369Y-92441235D01*
X181254735Y-92536891D01*
X181504171Y-92537109D01*
X181734703Y-92441855D01*
X181911235Y-92265631D01*
X182006891Y-92035265D01*
X182007109Y-91785829D01*
X181911855Y-91555297D01*
X181735631Y-91378765D01*
X181505265Y-91283109D01*
X181255829Y-91282891D01*
X181025297Y-91378145D01*
X180848765Y-91554369D01*
X180753109Y-91784735D01*
X180752891Y-92034171D01*
X169627000Y-92034171D01*
X169627000Y-91464171D01*
X171232891Y-91464171D01*
X171328145Y-91694703D01*
X171504369Y-91871235D01*
X171734735Y-91966891D01*
X171984171Y-91967109D01*
X172214703Y-91871855D01*
X172391235Y-91695631D01*
X172486891Y-91465265D01*
X172487109Y-91215829D01*
X172391855Y-90985297D01*
X172215631Y-90808765D01*
X171985265Y-90713109D01*
X171735829Y-90712891D01*
X171505297Y-90808145D01*
X171328765Y-90984369D01*
X171233109Y-91214735D01*
X171232891Y-91464171D01*
X169627000Y-91464171D01*
X169627000Y-90014171D01*
X177712891Y-90014171D01*
X177808145Y-90244703D01*
X177984369Y-90421235D01*
X178214735Y-90516891D01*
X178464171Y-90517109D01*
X178694703Y-90421855D01*
X178871235Y-90245631D01*
X178966891Y-90015265D01*
X178967109Y-89765829D01*
X178871855Y-89535297D01*
X178695631Y-89358765D01*
X178564154Y-89304171D01*
X181542891Y-89304171D01*
X181638145Y-89534703D01*
X181814369Y-89711235D01*
X182044735Y-89806891D01*
X182294171Y-89807109D01*
X182524703Y-89711855D01*
X182701235Y-89535631D01*
X182796891Y-89305265D01*
X182797109Y-89055829D01*
X182701855Y-88825297D01*
X182525631Y-88648765D01*
X182295265Y-88553109D01*
X182045829Y-88552891D01*
X181815297Y-88648145D01*
X181638765Y-88824369D01*
X181543109Y-89054735D01*
X181542891Y-89304171D01*
X178564154Y-89304171D01*
X178465265Y-89263109D01*
X178215829Y-89262891D01*
X177985297Y-89358145D01*
X177808765Y-89534369D01*
X177713109Y-89764735D01*
X177712891Y-90014171D01*
X169627000Y-90014171D01*
X169627000Y-88424171D01*
X173002891Y-88424171D01*
X173098145Y-88654703D01*
X173274369Y-88831235D01*
X173504735Y-88926891D01*
X173754171Y-88927109D01*
X173984703Y-88831855D01*
X174161235Y-88655631D01*
X174256891Y-88425265D01*
X174257109Y-88175829D01*
X174161855Y-87945297D01*
X173985631Y-87768765D01*
X173755265Y-87673109D01*
X173505829Y-87672891D01*
X173275297Y-87768145D01*
X173098765Y-87944369D01*
X173003109Y-88174735D01*
X173002891Y-88424171D01*
X169627000Y-88424171D01*
X169627000Y-79804171D01*
X171982891Y-79804171D01*
X172078145Y-80034703D01*
X172254369Y-80211235D01*
X172484735Y-80306891D01*
X172734171Y-80307109D01*
X172964703Y-80211855D01*
X173141235Y-80035631D01*
X173236891Y-79805265D01*
X173237109Y-79555829D01*
X173141855Y-79325297D01*
X172965631Y-79148765D01*
X172735265Y-79053109D01*
X172485829Y-79052891D01*
X172255297Y-79148145D01*
X172078765Y-79324369D01*
X171983109Y-79554735D01*
X171982891Y-79804171D01*
X169627000Y-79804171D01*
X169627000Y-78874171D01*
X180562891Y-78874171D01*
X180658145Y-79104703D01*
X180834369Y-79281235D01*
X181064735Y-79376891D01*
X181314171Y-79377109D01*
X181544703Y-79281855D01*
X181602487Y-79224171D01*
X183092891Y-79224171D01*
X183188145Y-79454703D01*
X183364369Y-79631235D01*
X183594735Y-79726891D01*
X183844171Y-79727109D01*
X184074703Y-79631855D01*
X184251235Y-79455631D01*
X184346891Y-79225265D01*
X184347109Y-78975829D01*
X184251855Y-78745297D01*
X184075631Y-78568765D01*
X183845265Y-78473109D01*
X183595829Y-78472891D01*
X183365297Y-78568145D01*
X183188765Y-78744369D01*
X183093109Y-78974735D01*
X183092891Y-79224171D01*
X181602487Y-79224171D01*
X181721235Y-79105631D01*
X181816891Y-78875265D01*
X181817109Y-78625829D01*
X181721855Y-78395297D01*
X181545631Y-78218765D01*
X181315265Y-78123109D01*
X181065829Y-78122891D01*
X180835297Y-78218145D01*
X180658765Y-78394369D01*
X180563109Y-78624735D01*
X180562891Y-78874171D01*
X169627000Y-78874171D01*
X169627000Y-74274171D01*
X177902891Y-74274171D01*
X177998145Y-74504703D01*
X178174369Y-74681235D01*
X178404735Y-74776891D01*
X178654171Y-74777109D01*
X178884703Y-74681855D01*
X179061235Y-74505631D01*
X179156891Y-74275265D01*
X179157109Y-74025829D01*
X179061855Y-73795297D01*
X178885631Y-73618765D01*
X178655265Y-73523109D01*
X178405829Y-73522891D01*
X178175297Y-73618145D01*
X177998765Y-73794369D01*
X177903109Y-74024735D01*
X177902891Y-74274171D01*
X169627000Y-74274171D01*
X169627000Y-73000000D01*
X169625567Y-72980975D01*
X169365446Y-71264171D01*
X179532891Y-71264171D01*
X179628145Y-71494703D01*
X179804369Y-71671235D01*
X180034735Y-71766891D01*
X180284171Y-71767109D01*
X180514703Y-71671855D01*
X180691235Y-71495631D01*
X180786891Y-71265265D01*
X180787109Y-71015829D01*
X180782293Y-71004171D01*
X182132891Y-71004171D01*
X182228145Y-71234703D01*
X182404369Y-71411235D01*
X182634735Y-71506891D01*
X182884171Y-71507109D01*
X183114703Y-71411855D01*
X183291235Y-71235631D01*
X183386891Y-71005265D01*
X183387109Y-70755829D01*
X183291855Y-70525297D01*
X183115631Y-70348765D01*
X182885265Y-70253109D01*
X182635829Y-70252891D01*
X182405297Y-70348145D01*
X182228765Y-70524369D01*
X182133109Y-70754735D01*
X182132891Y-71004171D01*
X180782293Y-71004171D01*
X180691855Y-70785297D01*
X180515631Y-70608765D01*
X180285265Y-70513109D01*
X180035829Y-70512891D01*
X179805297Y-70608145D01*
X179628765Y-70784369D01*
X179533109Y-71014735D01*
X179532891Y-71264171D01*
X169365446Y-71264171D01*
X169044234Y-69144171D01*
X169802891Y-69144171D01*
X169898145Y-69374703D01*
X170074369Y-69551235D01*
X170304735Y-69646891D01*
X170554171Y-69647109D01*
X170784703Y-69551855D01*
X170961235Y-69375631D01*
X171056891Y-69145265D01*
X171057109Y-68895829D01*
X170961855Y-68665297D01*
X170785631Y-68488765D01*
X170555265Y-68393109D01*
X170305829Y-68392891D01*
X170075297Y-68488145D01*
X169898765Y-68664369D01*
X169803109Y-68894735D01*
X169802891Y-69144171D01*
X169044234Y-69144171D01*
X168795750Y-67504171D01*
X185662891Y-67504171D01*
X185758145Y-67734703D01*
X185934369Y-67911235D01*
X186164735Y-68006891D01*
X186414171Y-68007109D01*
X186644703Y-67911855D01*
X186821235Y-67735631D01*
X186916891Y-67505265D01*
X186917109Y-67255829D01*
X186821855Y-67025297D01*
X186645631Y-66848765D01*
X186415265Y-66753109D01*
X186165829Y-66752891D01*
X185935297Y-66848145D01*
X185758765Y-67024369D01*
X185663109Y-67254735D01*
X185662891Y-67504171D01*
X168795750Y-67504171D01*
X168589689Y-66144171D01*
X180902891Y-66144171D01*
X180998145Y-66374703D01*
X181174369Y-66551235D01*
X181404735Y-66646891D01*
X181654171Y-66647109D01*
X181884703Y-66551855D01*
X182061235Y-66375631D01*
X182156891Y-66145265D01*
X182157109Y-65895829D01*
X182061855Y-65665297D01*
X181885631Y-65488765D01*
X181655265Y-65393109D01*
X181405829Y-65392891D01*
X181175297Y-65488145D01*
X180998765Y-65664369D01*
X180903109Y-65894735D01*
X180902891Y-66144171D01*
X168589689Y-66144171D01*
X168148780Y-63234171D01*
X183292891Y-63234171D01*
X183388145Y-63464703D01*
X183564369Y-63641235D01*
X183794735Y-63736891D01*
X184044171Y-63737109D01*
X184274703Y-63641855D01*
X184451235Y-63465631D01*
X184546891Y-63235265D01*
X184546909Y-63214171D01*
X185622891Y-63214171D01*
X185718145Y-63444703D01*
X185894369Y-63621235D01*
X186124735Y-63716891D01*
X186374171Y-63717109D01*
X186604703Y-63621855D01*
X186781235Y-63445631D01*
X186876891Y-63215265D01*
X186876926Y-63174171D01*
X189482891Y-63174171D01*
X189578145Y-63404703D01*
X189754369Y-63581235D01*
X189984735Y-63676891D01*
X190234171Y-63677109D01*
X190464703Y-63581855D01*
X190641235Y-63405631D01*
X190736891Y-63175265D01*
X190737109Y-62925829D01*
X190641855Y-62695297D01*
X190465631Y-62518765D01*
X190235265Y-62423109D01*
X189985829Y-62422891D01*
X189755297Y-62518145D01*
X189578765Y-62694369D01*
X189483109Y-62924735D01*
X189482891Y-63174171D01*
X186876926Y-63174171D01*
X186877109Y-62965829D01*
X186781855Y-62735297D01*
X186605631Y-62558765D01*
X186375265Y-62463109D01*
X186125829Y-62462891D01*
X185895297Y-62558145D01*
X185718765Y-62734369D01*
X185623109Y-62964735D01*
X185622891Y-63214171D01*
X184546909Y-63214171D01*
X184547109Y-62985829D01*
X184451855Y-62755297D01*
X184275631Y-62578765D01*
X184045265Y-62483109D01*
X183795829Y-62482891D01*
X183565297Y-62578145D01*
X183388765Y-62754369D01*
X183293109Y-62984735D01*
X183292891Y-63234171D01*
X168148780Y-63234171D01*
X167627000Y-59790433D01*
X167627000Y-55624171D01*
X177272891Y-55624171D01*
X177368145Y-55854703D01*
X177544369Y-56031235D01*
X177710097Y-56100051D01*
X177545297Y-56168145D01*
X177368765Y-56344369D01*
X177273109Y-56574735D01*
X177272891Y-56824171D01*
X177368145Y-57054703D01*
X177544369Y-57231235D01*
X177774735Y-57326891D01*
X178024171Y-57327109D01*
X178254703Y-57231855D01*
X178431235Y-57055631D01*
X178526891Y-56825265D01*
X178527109Y-56575829D01*
X178431855Y-56345297D01*
X178255631Y-56168765D01*
X178089903Y-56099949D01*
X178254703Y-56031855D01*
X178431235Y-55855631D01*
X178526891Y-55625265D01*
X178527109Y-55375829D01*
X178431855Y-55145297D01*
X178255631Y-54968765D01*
X178025265Y-54873109D01*
X177775829Y-54872891D01*
X177545297Y-54968145D01*
X177368765Y-55144369D01*
X177273109Y-55374735D01*
X177272891Y-55624171D01*
X167627000Y-55624171D01*
X167627000Y-36896845D01*
X191548000Y-36896845D01*
X191548000Y-154103180D01*
X107362000Y-154103180D01*
X107362000Y-132224171D01*
X137972891Y-132224171D01*
X138068145Y-132454703D01*
X138213287Y-132600099D01*
X138068765Y-132744369D01*
X137973109Y-132974735D01*
X137972891Y-133224171D01*
X138068145Y-133454703D01*
X138213287Y-133600099D01*
X138068765Y-133744369D01*
X137973109Y-133974735D01*
X137972891Y-134224171D01*
X138068145Y-134454703D01*
X138213287Y-134600099D01*
X138068765Y-134744369D01*
X137973109Y-134974735D01*
X137972891Y-135224171D01*
X138068145Y-135454703D01*
X138213287Y-135600099D01*
X138068765Y-135744369D01*
X137973109Y-135974735D01*
X137972891Y-136224171D01*
X138068145Y-136454703D01*
X138213287Y-136600099D01*
X138068765Y-136744369D01*
X137973109Y-136974735D01*
X137972891Y-137224171D01*
X138068145Y-137454703D01*
X138213287Y-137600099D01*
X138068765Y-137744369D01*
X137973109Y-137974735D01*
X137972891Y-138224171D01*
X138068145Y-138454703D01*
X138213287Y-138600099D01*
X138068765Y-138744369D01*
X137973109Y-138974735D01*
X137972891Y-139224171D01*
X138068145Y-139454703D01*
X138213287Y-139600099D01*
X138068765Y-139744369D01*
X137973109Y-139974735D01*
X137972891Y-140224171D01*
X138068145Y-140454703D01*
X138213287Y-140600099D01*
X138068765Y-140744369D01*
X137973109Y-140974735D01*
X137972891Y-141224171D01*
X138068145Y-141454703D01*
X138213287Y-141600099D01*
X138068765Y-141744369D01*
X137973109Y-141974735D01*
X137972891Y-142224171D01*
X138068145Y-142454703D01*
X138213287Y-142600099D01*
X138068765Y-142744369D01*
X137973109Y-142974735D01*
X137972891Y-143224171D01*
X138068145Y-143454703D01*
X138213287Y-143600099D01*
X138068765Y-143744369D01*
X137973109Y-143974735D01*
X137972891Y-144224171D01*
X138068145Y-144454703D01*
X138213287Y-144600099D01*
X138068765Y-144744369D01*
X137973109Y-144974735D01*
X137972891Y-145224171D01*
X138068145Y-145454703D01*
X138244369Y-145631235D01*
X138474735Y-145726891D01*
X138724171Y-145727109D01*
X138954703Y-145631855D01*
X139131235Y-145455631D01*
X139226891Y-145225265D01*
X139227109Y-144975829D01*
X139131855Y-144745297D01*
X138986713Y-144599901D01*
X139131235Y-144455631D01*
X139226891Y-144225265D01*
X139227109Y-143975829D01*
X139131855Y-143745297D01*
X138986713Y-143599901D01*
X139131235Y-143455631D01*
X139226891Y-143225265D01*
X139227109Y-142975829D01*
X139131855Y-142745297D01*
X138986713Y-142599901D01*
X139131235Y-142455631D01*
X139226891Y-142225265D01*
X139227109Y-141975829D01*
X139131855Y-141745297D01*
X138986713Y-141599901D01*
X139131235Y-141455631D01*
X139226891Y-141225265D01*
X139227109Y-140975829D01*
X139131855Y-140745297D01*
X138986713Y-140599901D01*
X139131235Y-140455631D01*
X139226891Y-140225265D01*
X139227109Y-139975829D01*
X139131855Y-139745297D01*
X138986713Y-139599901D01*
X139131235Y-139455631D01*
X139226891Y-139225265D01*
X139227109Y-138975829D01*
X139131855Y-138745297D01*
X138986713Y-138599901D01*
X139131235Y-138455631D01*
X139226891Y-138225265D01*
X139227109Y-137975829D01*
X139131855Y-137745297D01*
X138986713Y-137599901D01*
X139131235Y-137455631D01*
X139226891Y-137225265D01*
X139227109Y-136975829D01*
X139131855Y-136745297D01*
X138986713Y-136599901D01*
X139131235Y-136455631D01*
X139226891Y-136225265D01*
X139227109Y-135975829D01*
X139131855Y-135745297D01*
X138986713Y-135599901D01*
X139131235Y-135455631D01*
X139226891Y-135225265D01*
X139227109Y-134975829D01*
X139131855Y-134745297D01*
X138986713Y-134599901D01*
X139131235Y-134455631D01*
X139226891Y-134225265D01*
X139227109Y-133975829D01*
X139131855Y-133745297D01*
X138986713Y-133599901D01*
X139131235Y-133455631D01*
X139226891Y-133225265D01*
X139227109Y-132975829D01*
X139131855Y-132745297D01*
X138986713Y-132599901D01*
X139131235Y-132455631D01*
X139226891Y-132225265D01*
X139226891Y-132224171D01*
X144972891Y-132224171D01*
X145068145Y-132454703D01*
X145213287Y-132600099D01*
X145068765Y-132744369D01*
X144973109Y-132974735D01*
X144972891Y-133224171D01*
X145068145Y-133454703D01*
X145213287Y-133600099D01*
X145068765Y-133744369D01*
X144973109Y-133974735D01*
X144972891Y-134224171D01*
X145068145Y-134454703D01*
X145213287Y-134600099D01*
X145068765Y-134744369D01*
X144973109Y-134974735D01*
X144972891Y-135224171D01*
X145068145Y-135454703D01*
X145213287Y-135600099D01*
X145068765Y-135744369D01*
X144973109Y-135974735D01*
X144972891Y-136224171D01*
X145068145Y-136454703D01*
X145213287Y-136600099D01*
X145068765Y-136744369D01*
X144973109Y-136974735D01*
X144972891Y-137224171D01*
X145068145Y-137454703D01*
X145213287Y-137600099D01*
X145068765Y-137744369D01*
X144973109Y-137974735D01*
X144972891Y-138224171D01*
X145068145Y-138454703D01*
X145213287Y-138600099D01*
X145068765Y-138744369D01*
X144973109Y-138974735D01*
X144972891Y-139224171D01*
X145068145Y-139454703D01*
X145213287Y-139600099D01*
X145068765Y-139744369D01*
X144973109Y-139974735D01*
X144972891Y-140224171D01*
X145068145Y-140454703D01*
X145213287Y-140600099D01*
X145068765Y-140744369D01*
X144973109Y-140974735D01*
X144972891Y-141224171D01*
X145068145Y-141454703D01*
X145213287Y-141600099D01*
X145068765Y-141744369D01*
X144973109Y-141974735D01*
X144972891Y-142224171D01*
X145068145Y-142454703D01*
X145213287Y-142600099D01*
X145068765Y-142744369D01*
X144973109Y-142974735D01*
X144972891Y-143224171D01*
X145068145Y-143454703D01*
X145213287Y-143600099D01*
X145068765Y-143744369D01*
X144973109Y-143974735D01*
X144972891Y-144224171D01*
X145068145Y-144454703D01*
X145213287Y-144600099D01*
X145068765Y-144744369D01*
X144973109Y-144974735D01*
X144972891Y-145224171D01*
X145068145Y-145454703D01*
X145244369Y-145631235D01*
X145474735Y-145726891D01*
X145724171Y-145727109D01*
X145954703Y-145631855D01*
X146131235Y-145455631D01*
X146226891Y-145225265D01*
X146227109Y-144975829D01*
X146131855Y-144745297D01*
X145986713Y-144599901D01*
X146131235Y-144455631D01*
X146226891Y-144225265D01*
X146227109Y-143975829D01*
X146131855Y-143745297D01*
X145986713Y-143599901D01*
X146131235Y-143455631D01*
X146226891Y-143225265D01*
X146227109Y-142975829D01*
X146131855Y-142745297D01*
X145986713Y-142599901D01*
X146131235Y-142455631D01*
X146226891Y-142225265D01*
X146227109Y-141975829D01*
X146131855Y-141745297D01*
X145986713Y-141599901D01*
X146131235Y-141455631D01*
X146226891Y-141225265D01*
X146227109Y-140975829D01*
X146131855Y-140745297D01*
X145986713Y-140599901D01*
X146131235Y-140455631D01*
X146226891Y-140225265D01*
X146227109Y-139975829D01*
X146131855Y-139745297D01*
X145986713Y-139599901D01*
X146131235Y-139455631D01*
X146226891Y-139225265D01*
X146227109Y-138975829D01*
X146131855Y-138745297D01*
X145986713Y-138599901D01*
X146131235Y-138455631D01*
X146226891Y-138225265D01*
X146227109Y-137975829D01*
X146131855Y-137745297D01*
X145986713Y-137599901D01*
X146131235Y-137455631D01*
X146226891Y-137225265D01*
X146227109Y-136975829D01*
X146131855Y-136745297D01*
X145986713Y-136599901D01*
X146131235Y-136455631D01*
X146226891Y-136225265D01*
X146227109Y-135975829D01*
X146131855Y-135745297D01*
X145986713Y-135599901D01*
X146131235Y-135455631D01*
X146226891Y-135225265D01*
X146227109Y-134975829D01*
X146131855Y-134745297D01*
X145986713Y-134599901D01*
X146131235Y-134455631D01*
X146226891Y-134225265D01*
X146227109Y-133975829D01*
X146131855Y-133745297D01*
X145986713Y-133599901D01*
X146131235Y-133455631D01*
X146226891Y-133225265D01*
X146227005Y-133094171D01*
X166102891Y-133094171D01*
X166198145Y-133324703D01*
X166374369Y-133501235D01*
X166604735Y-133596891D01*
X166854171Y-133597109D01*
X167084703Y-133501855D01*
X167261235Y-133325631D01*
X167356891Y-133095265D01*
X167357109Y-132845829D01*
X167261855Y-132615297D01*
X167085631Y-132438765D01*
X166855265Y-132343109D01*
X166605829Y-132342891D01*
X166375297Y-132438145D01*
X166198765Y-132614369D01*
X166103109Y-132844735D01*
X166102891Y-133094171D01*
X146227005Y-133094171D01*
X146227109Y-132975829D01*
X146131855Y-132745297D01*
X145986713Y-132599901D01*
X146131235Y-132455631D01*
X146226891Y-132225265D01*
X146227109Y-131975829D01*
X146131855Y-131745297D01*
X145955631Y-131568765D01*
X145725265Y-131473109D01*
X145475829Y-131472891D01*
X145245297Y-131568145D01*
X145068765Y-131744369D01*
X144973109Y-131974735D01*
X144972891Y-132224171D01*
X139226891Y-132224171D01*
X139227109Y-131975829D01*
X139131855Y-131745297D01*
X138955631Y-131568765D01*
X138725265Y-131473109D01*
X138475829Y-131472891D01*
X138245297Y-131568145D01*
X138068765Y-131744369D01*
X137973109Y-131974735D01*
X137972891Y-132224171D01*
X107362000Y-132224171D01*
X107362000Y-129154171D01*
X126612891Y-129154171D01*
X126708145Y-129384703D01*
X126884369Y-129561235D01*
X127114735Y-129656891D01*
X127364171Y-129657109D01*
X127594703Y-129561855D01*
X127771235Y-129385631D01*
X127866891Y-129155265D01*
X127867109Y-128905829D01*
X127771855Y-128675297D01*
X127595631Y-128498765D01*
X127365265Y-128403109D01*
X127115829Y-128402891D01*
X126885297Y-128498145D01*
X126708765Y-128674369D01*
X126613109Y-128904735D01*
X126612891Y-129154171D01*
X107362000Y-129154171D01*
X107362000Y-123114171D01*
X122272891Y-123114171D01*
X122368145Y-123344703D01*
X122544369Y-123521235D01*
X122774735Y-123616891D01*
X123024171Y-123617109D01*
X123254703Y-123521855D01*
X123431235Y-123345631D01*
X123523192Y-123124171D01*
X124482891Y-123124171D01*
X124578145Y-123354703D01*
X124754369Y-123531235D01*
X124984735Y-123626891D01*
X125234171Y-123627109D01*
X125464703Y-123531855D01*
X125641235Y-123355631D01*
X125736891Y-123125265D01*
X125737109Y-122875829D01*
X125678578Y-122734171D01*
X136062891Y-122734171D01*
X136158145Y-122964703D01*
X136334369Y-123141235D01*
X136564735Y-123236891D01*
X136814171Y-123237109D01*
X137044703Y-123141855D01*
X137221235Y-122965631D01*
X137316891Y-122735265D01*
X137316900Y-122724171D01*
X139372891Y-122724171D01*
X139468145Y-122954703D01*
X139644369Y-123131235D01*
X139874735Y-123226891D01*
X140124171Y-123227109D01*
X140354703Y-123131855D01*
X140500099Y-122986713D01*
X140644369Y-123131235D01*
X140874735Y-123226891D01*
X141124171Y-123227109D01*
X141354703Y-123131855D01*
X141500099Y-122986713D01*
X141644369Y-123131235D01*
X141874735Y-123226891D01*
X142124171Y-123227109D01*
X142354703Y-123131855D01*
X142500099Y-122986713D01*
X142644369Y-123131235D01*
X142874735Y-123226891D01*
X143124171Y-123227109D01*
X143354703Y-123131855D01*
X143531235Y-122955631D01*
X143626891Y-122725265D01*
X143626891Y-122724171D01*
X150172891Y-122724171D01*
X150268145Y-122954703D01*
X150444369Y-123131235D01*
X150674735Y-123226891D01*
X150924171Y-123227109D01*
X151154703Y-123131855D01*
X151300099Y-122986713D01*
X151444369Y-123131235D01*
X151674735Y-123226891D01*
X151924171Y-123227109D01*
X152154703Y-123131855D01*
X152300099Y-122986713D01*
X152444369Y-123131235D01*
X152674735Y-123226891D01*
X152924171Y-123227109D01*
X153154703Y-123131855D01*
X153300099Y-122986713D01*
X153444369Y-123131235D01*
X153674735Y-123226891D01*
X153924171Y-123227109D01*
X154154703Y-123131855D01*
X154331235Y-122955631D01*
X154426891Y-122725265D01*
X154426961Y-122644171D01*
X157252891Y-122644171D01*
X157348145Y-122874703D01*
X157524369Y-123051235D01*
X157754735Y-123146891D01*
X158004171Y-123147109D01*
X158234703Y-123051855D01*
X158411235Y-122875631D01*
X158506891Y-122645265D01*
X158507109Y-122395829D01*
X158411855Y-122165297D01*
X158235631Y-121988765D01*
X158005265Y-121893109D01*
X157755829Y-121892891D01*
X157525297Y-121988145D01*
X157348765Y-122164369D01*
X157253109Y-122394735D01*
X157252891Y-122644171D01*
X154426961Y-122644171D01*
X154427109Y-122475829D01*
X154331855Y-122245297D01*
X154155631Y-122068765D01*
X153925265Y-121973109D01*
X153675829Y-121972891D01*
X153445297Y-122068145D01*
X153299901Y-122213287D01*
X153155631Y-122068765D01*
X152925265Y-121973109D01*
X152675829Y-121972891D01*
X152445297Y-122068145D01*
X152299901Y-122213287D01*
X152155631Y-122068765D01*
X151925265Y-121973109D01*
X151675829Y-121972891D01*
X151445297Y-122068145D01*
X151299901Y-122213287D01*
X151155631Y-122068765D01*
X150925265Y-121973109D01*
X150675829Y-121972891D01*
X150445297Y-122068145D01*
X150268765Y-122244369D01*
X150173109Y-122474735D01*
X150172891Y-122724171D01*
X143626891Y-122724171D01*
X143627109Y-122475829D01*
X143531855Y-122245297D01*
X143355631Y-122068765D01*
X143125265Y-121973109D01*
X142875829Y-121972891D01*
X142645297Y-122068145D01*
X142499901Y-122213287D01*
X142355631Y-122068765D01*
X142125265Y-121973109D01*
X141875829Y-121972891D01*
X141645297Y-122068145D01*
X141499901Y-122213287D01*
X141355631Y-122068765D01*
X141125265Y-121973109D01*
X140875829Y-121972891D01*
X140645297Y-122068145D01*
X140499901Y-122213287D01*
X140355631Y-122068765D01*
X140125265Y-121973109D01*
X139875829Y-121972891D01*
X139645297Y-122068145D01*
X139468765Y-122244369D01*
X139373109Y-122474735D01*
X139372891Y-122724171D01*
X137316900Y-122724171D01*
X137317109Y-122485829D01*
X137221855Y-122255297D01*
X137045631Y-122078765D01*
X136815265Y-121983109D01*
X136565829Y-121982891D01*
X136335297Y-122078145D01*
X136158765Y-122254369D01*
X136063109Y-122484735D01*
X136062891Y-122734171D01*
X125678578Y-122734171D01*
X125641855Y-122645297D01*
X125465631Y-122468765D01*
X125235265Y-122373109D01*
X124985829Y-122372891D01*
X124755297Y-122468145D01*
X124578765Y-122644369D01*
X124483109Y-122874735D01*
X124482891Y-123124171D01*
X123523192Y-123124171D01*
X123526891Y-123115265D01*
X123527109Y-122865829D01*
X123431855Y-122635297D01*
X123255631Y-122458765D01*
X123025265Y-122363109D01*
X122775829Y-122362891D01*
X122545297Y-122458145D01*
X122368765Y-122634369D01*
X122273109Y-122864735D01*
X122272891Y-123114171D01*
X107362000Y-123114171D01*
X107362000Y-122084171D01*
X115332891Y-122084171D01*
X115428145Y-122314703D01*
X115604369Y-122491235D01*
X115834735Y-122586891D01*
X116084171Y-122587109D01*
X116314703Y-122491855D01*
X116491235Y-122315631D01*
X116586891Y-122085265D01*
X116587066Y-121884171D01*
X137862891Y-121884171D01*
X137958145Y-122114703D01*
X138134369Y-122291235D01*
X138364735Y-122386891D01*
X138614171Y-122387109D01*
X138844703Y-122291855D01*
X139021235Y-122115631D01*
X139116891Y-121885265D01*
X139117109Y-121635829D01*
X139021855Y-121405297D01*
X138845631Y-121228765D01*
X138615265Y-121133109D01*
X138365829Y-121132891D01*
X138135297Y-121228145D01*
X137958765Y-121404369D01*
X137863109Y-121634735D01*
X137862891Y-121884171D01*
X116587066Y-121884171D01*
X116587109Y-121835829D01*
X116491855Y-121605297D01*
X116315631Y-121428765D01*
X116085265Y-121333109D01*
X115835829Y-121332891D01*
X115605297Y-121428145D01*
X115428765Y-121604369D01*
X115333109Y-121834735D01*
X115332891Y-122084171D01*
X107362000Y-122084171D01*
X107362000Y-121024171D01*
X117872891Y-121024171D01*
X117968145Y-121254703D01*
X118144369Y-121431235D01*
X118374735Y-121526891D01*
X118624171Y-121527109D01*
X118854703Y-121431855D01*
X119031235Y-121255631D01*
X119126891Y-121025265D01*
X119127109Y-120775829D01*
X119031855Y-120545297D01*
X118855631Y-120368765D01*
X118625265Y-120273109D01*
X118375829Y-120272891D01*
X118145297Y-120368145D01*
X117968765Y-120544369D01*
X117873109Y-120774735D01*
X117872891Y-121024171D01*
X107362000Y-121024171D01*
X107362000Y-119624171D01*
X123812891Y-119624171D01*
X123908145Y-119854703D01*
X124084369Y-120031235D01*
X124314735Y-120126891D01*
X124564171Y-120127109D01*
X124794703Y-120031855D01*
X124971235Y-119855631D01*
X124980145Y-119834171D01*
X127352891Y-119834171D01*
X127448145Y-120064703D01*
X127624369Y-120241235D01*
X127854735Y-120336891D01*
X128104171Y-120337109D01*
X128334703Y-120241855D01*
X128452592Y-120124171D01*
X139372891Y-120124171D01*
X139468145Y-120354703D01*
X139613287Y-120500099D01*
X139468765Y-120644369D01*
X139373109Y-120874735D01*
X139372891Y-121124171D01*
X139468145Y-121354703D01*
X139644369Y-121531235D01*
X139874735Y-121626891D01*
X140124171Y-121627109D01*
X140354703Y-121531855D01*
X140500099Y-121386713D01*
X140644369Y-121531235D01*
X140874735Y-121626891D01*
X141124171Y-121627109D01*
X141354703Y-121531855D01*
X141500099Y-121386713D01*
X141644369Y-121531235D01*
X141874735Y-121626891D01*
X142124171Y-121627109D01*
X142354703Y-121531855D01*
X142500099Y-121386713D01*
X142644369Y-121531235D01*
X142874735Y-121626891D01*
X143124171Y-121627109D01*
X143354703Y-121531855D01*
X143531235Y-121355631D01*
X143626891Y-121125265D01*
X143627109Y-120875829D01*
X143531855Y-120645297D01*
X143386713Y-120499901D01*
X143531235Y-120355631D01*
X143626891Y-120125265D01*
X143626891Y-120124171D01*
X150172891Y-120124171D01*
X150268145Y-120354703D01*
X150413287Y-120500099D01*
X150268765Y-120644369D01*
X150173109Y-120874735D01*
X150172891Y-121124171D01*
X150268145Y-121354703D01*
X150444369Y-121531235D01*
X150674735Y-121626891D01*
X150924171Y-121627109D01*
X151154703Y-121531855D01*
X151300099Y-121386713D01*
X151444369Y-121531235D01*
X151674735Y-121626891D01*
X151924171Y-121627109D01*
X152154703Y-121531855D01*
X152300099Y-121386713D01*
X152444369Y-121531235D01*
X152674735Y-121626891D01*
X152924171Y-121627109D01*
X153154703Y-121531855D01*
X153300099Y-121386713D01*
X153444369Y-121531235D01*
X153674735Y-121626891D01*
X153924171Y-121627109D01*
X154154703Y-121531855D01*
X154331235Y-121355631D01*
X154426891Y-121125265D01*
X154427109Y-120875829D01*
X154331855Y-120645297D01*
X154186713Y-120499901D01*
X154232522Y-120454171D01*
X161402891Y-120454171D01*
X161498145Y-120684703D01*
X161674369Y-120861235D01*
X161904735Y-120956891D01*
X162154171Y-120957109D01*
X162384703Y-120861855D01*
X162561235Y-120685631D01*
X162656891Y-120455265D01*
X162657109Y-120205829D01*
X162594446Y-120054171D01*
X170572891Y-120054171D01*
X170668145Y-120284703D01*
X170844369Y-120461235D01*
X171074735Y-120556891D01*
X171324171Y-120557109D01*
X171554703Y-120461855D01*
X171731235Y-120285631D01*
X171826891Y-120055265D01*
X171827109Y-119805829D01*
X171731855Y-119575297D01*
X171555631Y-119398765D01*
X171325265Y-119303109D01*
X171075829Y-119302891D01*
X170845297Y-119398145D01*
X170668765Y-119574369D01*
X170573109Y-119804735D01*
X170572891Y-120054171D01*
X162594446Y-120054171D01*
X162561855Y-119975297D01*
X162385631Y-119798765D01*
X162155265Y-119703109D01*
X161905829Y-119702891D01*
X161675297Y-119798145D01*
X161498765Y-119974369D01*
X161403109Y-120204735D01*
X161402891Y-120454171D01*
X154232522Y-120454171D01*
X154331235Y-120355631D01*
X154426891Y-120125265D01*
X154427109Y-119875829D01*
X154331855Y-119645297D01*
X154155631Y-119468765D01*
X153925265Y-119373109D01*
X153675829Y-119372891D01*
X153445297Y-119468145D01*
X153299901Y-119613287D01*
X153155631Y-119468765D01*
X152925265Y-119373109D01*
X152675829Y-119372891D01*
X152445297Y-119468145D01*
X152299901Y-119613287D01*
X152155631Y-119468765D01*
X151925265Y-119373109D01*
X151675829Y-119372891D01*
X151445297Y-119468145D01*
X151299901Y-119613287D01*
X151155631Y-119468765D01*
X150925265Y-119373109D01*
X150675829Y-119372891D01*
X150445297Y-119468145D01*
X150268765Y-119644369D01*
X150173109Y-119874735D01*
X150172891Y-120124171D01*
X143626891Y-120124171D01*
X143627109Y-119875829D01*
X143531855Y-119645297D01*
X143355631Y-119468765D01*
X143125265Y-119373109D01*
X142875829Y-119372891D01*
X142645297Y-119468145D01*
X142499901Y-119613287D01*
X142355631Y-119468765D01*
X142125265Y-119373109D01*
X141875829Y-119372891D01*
X141645297Y-119468145D01*
X141499901Y-119613287D01*
X141355631Y-119468765D01*
X141125265Y-119373109D01*
X140875829Y-119372891D01*
X140645297Y-119468145D01*
X140499901Y-119613287D01*
X140355631Y-119468765D01*
X140125265Y-119373109D01*
X139875829Y-119372891D01*
X139645297Y-119468145D01*
X139468765Y-119644369D01*
X139373109Y-119874735D01*
X139372891Y-120124171D01*
X128452592Y-120124171D01*
X128511235Y-120065631D01*
X128606891Y-119835265D01*
X128607109Y-119585829D01*
X128511855Y-119355297D01*
X128335631Y-119178765D01*
X128105265Y-119083109D01*
X127855829Y-119082891D01*
X127625297Y-119178145D01*
X127448765Y-119354369D01*
X127353109Y-119584735D01*
X127352891Y-119834171D01*
X124980145Y-119834171D01*
X125066891Y-119625265D01*
X125067109Y-119375829D01*
X124971855Y-119145297D01*
X124795631Y-118968765D01*
X124565265Y-118873109D01*
X124315829Y-118872891D01*
X124085297Y-118968145D01*
X123908765Y-119144369D01*
X123813109Y-119374735D01*
X123812891Y-119624171D01*
X107362000Y-119624171D01*
X107362000Y-117194171D01*
X175032891Y-117194171D01*
X175128145Y-117424703D01*
X175304369Y-117601235D01*
X175534735Y-117696891D01*
X175784171Y-117697109D01*
X176014703Y-117601855D01*
X176191235Y-117425631D01*
X176286891Y-117195265D01*
X176287109Y-116945829D01*
X176191855Y-116715297D01*
X176015631Y-116538765D01*
X175785265Y-116443109D01*
X175535829Y-116442891D01*
X175305297Y-116538145D01*
X175128765Y-116714369D01*
X175033109Y-116944735D01*
X175032891Y-117194171D01*
X107362000Y-117194171D01*
X107362000Y-114164171D01*
X176072891Y-114164171D01*
X176168145Y-114394703D01*
X176344369Y-114571235D01*
X176574735Y-114666891D01*
X176824171Y-114667109D01*
X177054703Y-114571855D01*
X177231235Y-114395631D01*
X177326891Y-114165265D01*
X177327109Y-113915829D01*
X177231855Y-113685297D01*
X177055631Y-113508765D01*
X176825265Y-113413109D01*
X176575829Y-113412891D01*
X176345297Y-113508145D01*
X176168765Y-113684369D01*
X176073109Y-113914735D01*
X176072891Y-114164171D01*
X107362000Y-114164171D01*
X107362000Y-112864171D01*
X183472891Y-112864171D01*
X183568145Y-113094703D01*
X183744369Y-113271235D01*
X183974735Y-113366891D01*
X184224171Y-113367109D01*
X184454703Y-113271855D01*
X184631235Y-113095631D01*
X184726891Y-112865265D01*
X184727109Y-112615829D01*
X184631855Y-112385297D01*
X184455631Y-112208765D01*
X184225265Y-112113109D01*
X183975829Y-112112891D01*
X183745297Y-112208145D01*
X183568765Y-112384369D01*
X183473109Y-112614735D01*
X183472891Y-112864171D01*
X107362000Y-112864171D01*
X107362000Y-106834171D01*
X113122891Y-106834171D01*
X113218145Y-107064703D01*
X113394369Y-107241235D01*
X113624735Y-107336891D01*
X113874171Y-107337109D01*
X114104703Y-107241855D01*
X114281235Y-107065631D01*
X114376891Y-106835265D01*
X114377109Y-106585829D01*
X114281855Y-106355297D01*
X114105631Y-106178765D01*
X113875265Y-106083109D01*
X113625829Y-106082891D01*
X113395297Y-106178145D01*
X113218765Y-106354369D01*
X113123109Y-106584735D01*
X113122891Y-106834171D01*
X107362000Y-106834171D01*
X107362000Y-104524171D01*
X116472891Y-104524171D01*
X116568145Y-104754703D01*
X116713287Y-104900099D01*
X116568765Y-105044369D01*
X116473109Y-105274735D01*
X116472891Y-105524171D01*
X116568145Y-105754703D01*
X116713287Y-105900099D01*
X116568765Y-106044369D01*
X116473109Y-106274735D01*
X116472891Y-106524171D01*
X116568145Y-106754703D01*
X116713287Y-106900099D01*
X116568765Y-107044369D01*
X116473109Y-107274735D01*
X116472891Y-107524171D01*
X116568145Y-107754703D01*
X116713287Y-107900099D01*
X116568765Y-108044369D01*
X116473109Y-108274735D01*
X116472891Y-108524171D01*
X116568145Y-108754703D01*
X116713287Y-108900099D01*
X116568765Y-109044369D01*
X116473109Y-109274735D01*
X116472891Y-109524171D01*
X116568145Y-109754703D01*
X116713287Y-109900099D01*
X116568765Y-110044369D01*
X116473109Y-110274735D01*
X116472891Y-110524171D01*
X116568145Y-110754703D01*
X116713287Y-110900099D01*
X116568765Y-111044369D01*
X116473109Y-111274735D01*
X116472891Y-111524171D01*
X116568145Y-111754703D01*
X116744369Y-111931235D01*
X116974735Y-112026891D01*
X117224171Y-112027109D01*
X117454703Y-111931855D01*
X117631235Y-111755631D01*
X117726891Y-111525265D01*
X117727109Y-111275829D01*
X117631855Y-111045297D01*
X117486713Y-110899901D01*
X117631235Y-110755631D01*
X117726891Y-110525265D01*
X117727109Y-110275829D01*
X117631855Y-110045297D01*
X117486713Y-109899901D01*
X117631235Y-109755631D01*
X117726891Y-109525265D01*
X117727109Y-109275829D01*
X117631855Y-109045297D01*
X117486713Y-108899901D01*
X117631235Y-108755631D01*
X117726891Y-108525265D01*
X117727109Y-108275829D01*
X117631855Y-108045297D01*
X117486713Y-107899901D01*
X117631235Y-107755631D01*
X117726891Y-107525265D01*
X117726891Y-107524171D01*
X121372891Y-107524171D01*
X121468145Y-107754703D01*
X121613287Y-107900099D01*
X121468765Y-108044369D01*
X121373109Y-108274735D01*
X121372891Y-108524171D01*
X121468145Y-108754703D01*
X121613287Y-108900099D01*
X121468765Y-109044369D01*
X121373109Y-109274735D01*
X121372891Y-109524171D01*
X121468145Y-109754703D01*
X121613287Y-109900099D01*
X121468765Y-110044369D01*
X121373109Y-110274735D01*
X121372891Y-110524171D01*
X121468145Y-110754703D01*
X121613287Y-110900099D01*
X121468765Y-111044369D01*
X121373109Y-111274735D01*
X121372891Y-111524171D01*
X121468145Y-111754703D01*
X121644369Y-111931235D01*
X121874735Y-112026891D01*
X122124171Y-112027109D01*
X122354703Y-111931855D01*
X122531235Y-111755631D01*
X122626891Y-111525265D01*
X122627109Y-111275829D01*
X122531855Y-111045297D01*
X122386713Y-110899901D01*
X122531235Y-110755631D01*
X122626891Y-110525265D01*
X122627109Y-110275829D01*
X122531855Y-110045297D01*
X122386713Y-109899901D01*
X122531235Y-109755631D01*
X122626891Y-109525265D01*
X122627109Y-109275829D01*
X122531855Y-109045297D01*
X122386713Y-108899901D01*
X122531235Y-108755631D01*
X122626891Y-108525265D01*
X122627109Y-108275829D01*
X122531855Y-108045297D01*
X122386713Y-107899901D01*
X122531235Y-107755631D01*
X122626891Y-107525265D01*
X122626891Y-107524171D01*
X126672891Y-107524171D01*
X126768145Y-107754703D01*
X126913287Y-107900099D01*
X126768765Y-108044369D01*
X126673109Y-108274735D01*
X126672891Y-108524171D01*
X126768145Y-108754703D01*
X126913287Y-108900099D01*
X126768765Y-109044369D01*
X126673109Y-109274735D01*
X126672891Y-109524171D01*
X126768145Y-109754703D01*
X126913287Y-109900099D01*
X126768765Y-110044369D01*
X126673109Y-110274735D01*
X126672891Y-110524171D01*
X126768145Y-110754703D01*
X126913287Y-110900099D01*
X126768765Y-111044369D01*
X126673109Y-111274735D01*
X126672891Y-111524171D01*
X126768145Y-111754703D01*
X126944369Y-111931235D01*
X127174735Y-112026891D01*
X127424171Y-112027109D01*
X127654703Y-111931855D01*
X127831235Y-111755631D01*
X127926891Y-111525265D01*
X127927109Y-111275829D01*
X127831855Y-111045297D01*
X127686713Y-110899901D01*
X127831235Y-110755631D01*
X127926891Y-110525265D01*
X127927109Y-110275829D01*
X127831855Y-110045297D01*
X127686713Y-109899901D01*
X127831235Y-109755631D01*
X127926891Y-109525265D01*
X127927109Y-109275829D01*
X127831855Y-109045297D01*
X127686713Y-108899901D01*
X127831235Y-108755631D01*
X127926891Y-108525265D01*
X127927109Y-108275829D01*
X127831855Y-108045297D01*
X127686713Y-107899901D01*
X127831235Y-107755631D01*
X127926891Y-107525265D01*
X127926891Y-107524171D01*
X128172891Y-107524171D01*
X128268145Y-107754703D01*
X128413287Y-107900099D01*
X128268765Y-108044369D01*
X128173109Y-108274735D01*
X128172891Y-108524171D01*
X128268145Y-108754703D01*
X128413287Y-108900099D01*
X128268765Y-109044369D01*
X128173109Y-109274735D01*
X128172891Y-109524171D01*
X128268145Y-109754703D01*
X128413287Y-109900099D01*
X128268765Y-110044369D01*
X128173109Y-110274735D01*
X128172891Y-110524171D01*
X128268145Y-110754703D01*
X128413287Y-110900099D01*
X128268765Y-111044369D01*
X128173109Y-111274735D01*
X128172891Y-111524171D01*
X128268145Y-111754703D01*
X128444369Y-111931235D01*
X128674735Y-112026891D01*
X128924171Y-112027109D01*
X129154703Y-111931855D01*
X129331235Y-111755631D01*
X129426891Y-111525265D01*
X129427109Y-111275829D01*
X129331855Y-111045297D01*
X129186713Y-110899901D01*
X129331235Y-110755631D01*
X129426891Y-110525265D01*
X129427109Y-110275829D01*
X129331855Y-110045297D01*
X129186713Y-109899901D01*
X129331235Y-109755631D01*
X129426891Y-109525265D01*
X129427109Y-109275829D01*
X129331855Y-109045297D01*
X129186713Y-108899901D01*
X129331235Y-108755631D01*
X129426891Y-108525265D01*
X129427109Y-108275829D01*
X129331855Y-108045297D01*
X129186713Y-107899901D01*
X129331235Y-107755631D01*
X129344298Y-107724171D01*
X140372891Y-107724171D01*
X140468145Y-107954703D01*
X140613287Y-108100099D01*
X140468765Y-108244369D01*
X140373109Y-108474735D01*
X140372891Y-108724171D01*
X140468145Y-108954703D01*
X140613287Y-109100099D01*
X140468765Y-109244369D01*
X140373109Y-109474735D01*
X140372891Y-109724171D01*
X140468145Y-109954703D01*
X140613287Y-110100099D01*
X140468765Y-110244369D01*
X140373109Y-110474735D01*
X140372891Y-110724171D01*
X140468145Y-110954703D01*
X140613287Y-111100099D01*
X140468765Y-111244369D01*
X140373109Y-111474735D01*
X140372891Y-111724171D01*
X140468145Y-111954703D01*
X140644369Y-112131235D01*
X140874735Y-112226891D01*
X141124171Y-112227109D01*
X141354703Y-112131855D01*
X141531235Y-111955631D01*
X141626891Y-111725265D01*
X141627109Y-111475829D01*
X141531855Y-111245297D01*
X141386713Y-111099901D01*
X141531235Y-110955631D01*
X141626891Y-110725265D01*
X141627109Y-110475829D01*
X141531855Y-110245297D01*
X141386713Y-110099901D01*
X141531235Y-109955631D01*
X141626891Y-109725265D01*
X141627109Y-109475829D01*
X141531855Y-109245297D01*
X141386713Y-109099901D01*
X141531235Y-108955631D01*
X141626891Y-108725265D01*
X141627109Y-108475829D01*
X141531855Y-108245297D01*
X141386713Y-108099901D01*
X141531235Y-107955631D01*
X141626891Y-107725265D01*
X141626891Y-107724171D01*
X141872891Y-107724171D01*
X141968145Y-107954703D01*
X142113287Y-108100099D01*
X141968765Y-108244369D01*
X141873109Y-108474735D01*
X141872891Y-108724171D01*
X141968145Y-108954703D01*
X142113287Y-109100099D01*
X141968765Y-109244369D01*
X141873109Y-109474735D01*
X141872891Y-109724171D01*
X141968145Y-109954703D01*
X142113287Y-110100099D01*
X141968765Y-110244369D01*
X141873109Y-110474735D01*
X141872891Y-110724171D01*
X141968145Y-110954703D01*
X142113287Y-111100099D01*
X141968765Y-111244369D01*
X141873109Y-111474735D01*
X141872891Y-111724171D01*
X141968145Y-111954703D01*
X142144369Y-112131235D01*
X142374735Y-112226891D01*
X142624171Y-112227109D01*
X142854703Y-112131855D01*
X143031235Y-111955631D01*
X143126891Y-111725265D01*
X143127109Y-111475829D01*
X143031855Y-111245297D01*
X142886713Y-111099901D01*
X143031235Y-110955631D01*
X143126891Y-110725265D01*
X143127109Y-110475829D01*
X143031855Y-110245297D01*
X142886713Y-110099901D01*
X143031235Y-109955631D01*
X143126891Y-109725265D01*
X143127109Y-109475829D01*
X143031855Y-109245297D01*
X142886713Y-109099901D01*
X143031235Y-108955631D01*
X143126891Y-108725265D01*
X143127109Y-108475829D01*
X143031855Y-108245297D01*
X142886713Y-108099901D01*
X143031235Y-107955631D01*
X143126891Y-107725265D01*
X143126891Y-107724171D01*
X149872891Y-107724171D01*
X149968145Y-107954703D01*
X150113287Y-108100099D01*
X149968765Y-108244369D01*
X149873109Y-108474735D01*
X149872891Y-108724171D01*
X149968145Y-108954703D01*
X150113287Y-109100099D01*
X149968765Y-109244369D01*
X149873109Y-109474735D01*
X149872891Y-109724171D01*
X149968145Y-109954703D01*
X150113287Y-110100099D01*
X149968765Y-110244369D01*
X149873109Y-110474735D01*
X149872891Y-110724171D01*
X149968145Y-110954703D01*
X150113287Y-111100099D01*
X149968765Y-111244369D01*
X149873109Y-111474735D01*
X149872891Y-111724171D01*
X149968145Y-111954703D01*
X150144369Y-112131235D01*
X150374735Y-112226891D01*
X150624171Y-112227109D01*
X150854703Y-112131855D01*
X151031235Y-111955631D01*
X151126891Y-111725265D01*
X151127109Y-111475829D01*
X151031855Y-111245297D01*
X150886713Y-111099901D01*
X151031235Y-110955631D01*
X151126891Y-110725265D01*
X151127109Y-110475829D01*
X151031855Y-110245297D01*
X150886713Y-110099901D01*
X151031235Y-109955631D01*
X151126891Y-109725265D01*
X151127109Y-109475829D01*
X151031855Y-109245297D01*
X150886713Y-109099901D01*
X151031235Y-108955631D01*
X151126891Y-108725265D01*
X151127109Y-108475829D01*
X151031855Y-108245297D01*
X150886713Y-108099901D01*
X151031235Y-107955631D01*
X151126891Y-107725265D01*
X151126891Y-107724171D01*
X151272891Y-107724171D01*
X151368145Y-107954703D01*
X151513287Y-108100099D01*
X151368765Y-108244369D01*
X151273109Y-108474735D01*
X151272891Y-108724171D01*
X151368145Y-108954703D01*
X151513287Y-109100099D01*
X151368765Y-109244369D01*
X151273109Y-109474735D01*
X151272891Y-109724171D01*
X151368145Y-109954703D01*
X151513287Y-110100099D01*
X151368765Y-110244369D01*
X151273109Y-110474735D01*
X151272891Y-110724171D01*
X151368145Y-110954703D01*
X151513287Y-111100099D01*
X151368765Y-111244369D01*
X151273109Y-111474735D01*
X151272891Y-111724171D01*
X151368145Y-111954703D01*
X151544369Y-112131235D01*
X151774735Y-112226891D01*
X152024171Y-112227109D01*
X152254703Y-112131855D01*
X152431235Y-111955631D01*
X152526891Y-111725265D01*
X152527109Y-111475829D01*
X152431855Y-111245297D01*
X152286713Y-111099901D01*
X152431235Y-110955631D01*
X152526891Y-110725265D01*
X152527109Y-110475829D01*
X152431855Y-110245297D01*
X152286713Y-110099901D01*
X152431235Y-109955631D01*
X152526891Y-109725265D01*
X152527109Y-109475829D01*
X152431855Y-109245297D01*
X152286713Y-109099901D01*
X152431235Y-108955631D01*
X152526891Y-108725265D01*
X152527109Y-108475829D01*
X152431855Y-108245297D01*
X152286713Y-108099901D01*
X152431235Y-107955631D01*
X152526891Y-107725265D01*
X152527031Y-107564171D01*
X154732891Y-107564171D01*
X154828145Y-107794703D01*
X155004369Y-107971235D01*
X155234735Y-108066891D01*
X155484171Y-108067109D01*
X155714703Y-107971855D01*
X155891235Y-107795631D01*
X155920907Y-107724171D01*
X157372891Y-107724171D01*
X157468145Y-107954703D01*
X157613287Y-108100099D01*
X157468765Y-108244369D01*
X157373109Y-108474735D01*
X157372891Y-108724171D01*
X157468145Y-108954703D01*
X157613287Y-109100099D01*
X157468765Y-109244369D01*
X157373109Y-109474735D01*
X157372891Y-109724171D01*
X157468145Y-109954703D01*
X157613287Y-110100099D01*
X157468765Y-110244369D01*
X157373109Y-110474735D01*
X157372891Y-110724171D01*
X157468145Y-110954703D01*
X157613287Y-111100099D01*
X157468765Y-111244369D01*
X157373109Y-111474735D01*
X157372891Y-111724171D01*
X157468145Y-111954703D01*
X157644369Y-112131235D01*
X157874735Y-112226891D01*
X158124171Y-112227109D01*
X158354703Y-112131855D01*
X158531235Y-111955631D01*
X158626891Y-111725265D01*
X158627109Y-111475829D01*
X158531855Y-111245297D01*
X158386713Y-111099901D01*
X158531235Y-110955631D01*
X158626891Y-110725265D01*
X158627109Y-110475829D01*
X158531855Y-110245297D01*
X158386713Y-110099901D01*
X158531235Y-109955631D01*
X158626891Y-109725265D01*
X158627109Y-109475829D01*
X158531855Y-109245297D01*
X158386713Y-109099901D01*
X158531235Y-108955631D01*
X158626891Y-108725265D01*
X158627109Y-108475829D01*
X158531855Y-108245297D01*
X158386713Y-108099901D01*
X158531235Y-107955631D01*
X158626891Y-107725265D01*
X158626891Y-107724171D01*
X163472891Y-107724171D01*
X163568145Y-107954703D01*
X163713287Y-108100099D01*
X163568765Y-108244369D01*
X163473109Y-108474735D01*
X163472891Y-108724171D01*
X163568145Y-108954703D01*
X163713287Y-109100099D01*
X163568765Y-109244369D01*
X163473109Y-109474735D01*
X163472891Y-109724171D01*
X163568145Y-109954703D01*
X163713287Y-110100099D01*
X163568765Y-110244369D01*
X163473109Y-110474735D01*
X163472891Y-110724171D01*
X163568145Y-110954703D01*
X163713287Y-111100099D01*
X163568765Y-111244369D01*
X163473109Y-111474735D01*
X163472891Y-111724171D01*
X163568145Y-111954703D01*
X163744369Y-112131235D01*
X163974735Y-112226891D01*
X164224171Y-112227109D01*
X164454703Y-112131855D01*
X164631235Y-111955631D01*
X164726891Y-111725265D01*
X164727109Y-111475829D01*
X164631855Y-111245297D01*
X164486713Y-111099901D01*
X164631235Y-110955631D01*
X164726891Y-110725265D01*
X164727109Y-110475829D01*
X164631855Y-110245297D01*
X164486713Y-110099901D01*
X164631235Y-109955631D01*
X164726891Y-109725265D01*
X164727109Y-109475829D01*
X164631855Y-109245297D01*
X164486713Y-109099901D01*
X164631235Y-108955631D01*
X164726891Y-108725265D01*
X164727109Y-108475829D01*
X164631855Y-108245297D01*
X164486713Y-108099901D01*
X164631235Y-107955631D01*
X164726891Y-107725265D01*
X164726891Y-107724171D01*
X165172891Y-107724171D01*
X165268145Y-107954703D01*
X165413287Y-108100099D01*
X165268765Y-108244369D01*
X165173109Y-108474735D01*
X165172891Y-108724171D01*
X165268145Y-108954703D01*
X165413287Y-109100099D01*
X165268765Y-109244369D01*
X165173109Y-109474735D01*
X165172891Y-109724171D01*
X165268145Y-109954703D01*
X165413287Y-110100099D01*
X165268765Y-110244369D01*
X165173109Y-110474735D01*
X165172891Y-110724171D01*
X165268145Y-110954703D01*
X165413287Y-111100099D01*
X165268765Y-111244369D01*
X165173109Y-111474735D01*
X165172891Y-111724171D01*
X165268145Y-111954703D01*
X165444369Y-112131235D01*
X165674735Y-112226891D01*
X165924171Y-112227109D01*
X166154703Y-112131855D01*
X166331235Y-111955631D01*
X166426891Y-111725265D01*
X166427109Y-111475829D01*
X166331855Y-111245297D01*
X166186713Y-111099901D01*
X166282610Y-111004171D01*
X176412891Y-111004171D01*
X176508145Y-111234703D01*
X176684369Y-111411235D01*
X176914735Y-111506891D01*
X177164171Y-111507109D01*
X177268088Y-111464171D01*
X178312891Y-111464171D01*
X178408145Y-111694703D01*
X178584369Y-111871235D01*
X178814735Y-111966891D01*
X179064171Y-111967109D01*
X179294703Y-111871855D01*
X179471235Y-111695631D01*
X179566891Y-111465265D01*
X179566953Y-111394171D01*
X185342891Y-111394171D01*
X185438145Y-111624703D01*
X185614369Y-111801235D01*
X185844735Y-111896891D01*
X186094171Y-111897109D01*
X186324703Y-111801855D01*
X186501235Y-111625631D01*
X186596891Y-111395265D01*
X186597109Y-111145829D01*
X186501855Y-110915297D01*
X186325631Y-110738765D01*
X186095265Y-110643109D01*
X185845829Y-110642891D01*
X185615297Y-110738145D01*
X185438765Y-110914369D01*
X185343109Y-111144735D01*
X185342891Y-111394171D01*
X179566953Y-111394171D01*
X179567109Y-111215829D01*
X179471855Y-110985297D01*
X179295631Y-110808765D01*
X179065265Y-110713109D01*
X178815829Y-110712891D01*
X178585297Y-110808145D01*
X178408765Y-110984369D01*
X178313109Y-111214735D01*
X178312891Y-111464171D01*
X177268088Y-111464171D01*
X177394703Y-111411855D01*
X177571235Y-111235631D01*
X177666891Y-111005265D01*
X177667109Y-110755829D01*
X177571855Y-110525297D01*
X177395631Y-110348765D01*
X177165265Y-110253109D01*
X176915829Y-110252891D01*
X176685297Y-110348145D01*
X176508765Y-110524369D01*
X176413109Y-110754735D01*
X176412891Y-111004171D01*
X166282610Y-111004171D01*
X166331235Y-110955631D01*
X166426891Y-110725265D01*
X166427109Y-110475829D01*
X166331855Y-110245297D01*
X166186713Y-110099901D01*
X166331235Y-109955631D01*
X166426891Y-109725265D01*
X166427109Y-109475829D01*
X166331855Y-109245297D01*
X166260854Y-109174171D01*
X171912891Y-109174171D01*
X172008145Y-109404703D01*
X172184369Y-109581235D01*
X172414735Y-109676891D01*
X172664171Y-109677109D01*
X172894703Y-109581855D01*
X173071235Y-109405631D01*
X173166891Y-109175265D01*
X173167109Y-108925829D01*
X173071855Y-108695297D01*
X172895631Y-108518765D01*
X172665265Y-108423109D01*
X172415829Y-108422891D01*
X172185297Y-108518145D01*
X172008765Y-108694369D01*
X171913109Y-108924735D01*
X171912891Y-109174171D01*
X166260854Y-109174171D01*
X166186713Y-109099901D01*
X166331235Y-108955631D01*
X166426891Y-108725265D01*
X166427109Y-108475829D01*
X166331855Y-108245297D01*
X166186713Y-108099901D01*
X166331235Y-107955631D01*
X166426891Y-107725265D01*
X166427109Y-107475829D01*
X166331855Y-107245297D01*
X166155631Y-107068765D01*
X165925265Y-106973109D01*
X165675829Y-106972891D01*
X165445297Y-107068145D01*
X165268765Y-107244369D01*
X165173109Y-107474735D01*
X165172891Y-107724171D01*
X164726891Y-107724171D01*
X164727109Y-107475829D01*
X164631855Y-107245297D01*
X164455631Y-107068765D01*
X164225265Y-106973109D01*
X163975829Y-106972891D01*
X163745297Y-107068145D01*
X163568765Y-107244369D01*
X163473109Y-107474735D01*
X163472891Y-107724171D01*
X158626891Y-107724171D01*
X158627109Y-107475829D01*
X158531855Y-107245297D01*
X158355631Y-107068765D01*
X158125265Y-106973109D01*
X157875829Y-106972891D01*
X157645297Y-107068145D01*
X157468765Y-107244369D01*
X157373109Y-107474735D01*
X157372891Y-107724171D01*
X155920907Y-107724171D01*
X155986891Y-107565265D01*
X155987109Y-107315829D01*
X155891855Y-107085297D01*
X155715631Y-106908765D01*
X155485265Y-106813109D01*
X155235829Y-106812891D01*
X155005297Y-106908145D01*
X154828765Y-107084369D01*
X154733109Y-107314735D01*
X154732891Y-107564171D01*
X152527031Y-107564171D01*
X152527109Y-107475829D01*
X152431855Y-107245297D01*
X152255631Y-107068765D01*
X152025265Y-106973109D01*
X151775829Y-106972891D01*
X151545297Y-107068145D01*
X151368765Y-107244369D01*
X151273109Y-107474735D01*
X151272891Y-107724171D01*
X151126891Y-107724171D01*
X151127109Y-107475829D01*
X151031855Y-107245297D01*
X150855631Y-107068765D01*
X150625265Y-106973109D01*
X150375829Y-106972891D01*
X150145297Y-107068145D01*
X149968765Y-107244369D01*
X149873109Y-107474735D01*
X149872891Y-107724171D01*
X143126891Y-107724171D01*
X143127109Y-107475829D01*
X143031855Y-107245297D01*
X142855631Y-107068765D01*
X142625265Y-106973109D01*
X142375829Y-106972891D01*
X142145297Y-107068145D01*
X141968765Y-107244369D01*
X141873109Y-107474735D01*
X141872891Y-107724171D01*
X141626891Y-107724171D01*
X141627109Y-107475829D01*
X141531855Y-107245297D01*
X141355631Y-107068765D01*
X141125265Y-106973109D01*
X140875829Y-106972891D01*
X140645297Y-107068145D01*
X140468765Y-107244369D01*
X140373109Y-107474735D01*
X140372891Y-107724171D01*
X129344298Y-107724171D01*
X129426891Y-107525265D01*
X129427109Y-107275829D01*
X129331855Y-107045297D01*
X129155631Y-106868765D01*
X128925265Y-106773109D01*
X128675829Y-106772891D01*
X128445297Y-106868145D01*
X128268765Y-107044369D01*
X128173109Y-107274735D01*
X128172891Y-107524171D01*
X127926891Y-107524171D01*
X127927109Y-107275829D01*
X127831855Y-107045297D01*
X127655631Y-106868765D01*
X127425265Y-106773109D01*
X127175829Y-106772891D01*
X126945297Y-106868145D01*
X126768765Y-107044369D01*
X126673109Y-107274735D01*
X126672891Y-107524171D01*
X122626891Y-107524171D01*
X122627109Y-107275829D01*
X122531855Y-107045297D01*
X122355631Y-106868765D01*
X122125265Y-106773109D01*
X121875829Y-106772891D01*
X121645297Y-106868145D01*
X121468765Y-107044369D01*
X121373109Y-107274735D01*
X121372891Y-107524171D01*
X117726891Y-107524171D01*
X117727109Y-107275829D01*
X117631855Y-107045297D01*
X117486713Y-106899901D01*
X117631235Y-106755631D01*
X117726891Y-106525265D01*
X117727109Y-106275829D01*
X117631855Y-106045297D01*
X117486713Y-105899901D01*
X117631235Y-105755631D01*
X117660907Y-105684171D01*
X123002891Y-105684171D01*
X123098145Y-105914703D01*
X123274369Y-106091235D01*
X123504735Y-106186891D01*
X123754171Y-106187109D01*
X123984703Y-106091855D01*
X124161235Y-105915631D01*
X124256891Y-105685265D01*
X124256935Y-105634171D01*
X138882891Y-105634171D01*
X138978145Y-105864703D01*
X139154369Y-106041235D01*
X139384735Y-106136891D01*
X139634171Y-106137109D01*
X139762290Y-106084171D01*
X174472891Y-106084171D01*
X174568145Y-106314703D01*
X174744369Y-106491235D01*
X174766434Y-106500397D01*
X174723109Y-106604735D01*
X174722891Y-106854171D01*
X174818145Y-107084703D01*
X174994369Y-107261235D01*
X175224735Y-107356891D01*
X175474171Y-107357109D01*
X175529685Y-107334171D01*
X184852891Y-107334171D01*
X184948145Y-107564703D01*
X185124369Y-107741235D01*
X185354735Y-107836891D01*
X185604171Y-107837109D01*
X185834703Y-107741855D01*
X186011235Y-107565631D01*
X186106891Y-107335265D01*
X186107109Y-107085829D01*
X186011855Y-106855297D01*
X185980784Y-106824171D01*
X188532891Y-106824171D01*
X188628145Y-107054703D01*
X188804369Y-107231235D01*
X189034735Y-107326891D01*
X189284171Y-107327109D01*
X189514703Y-107231855D01*
X189691235Y-107055631D01*
X189786891Y-106825265D01*
X189787109Y-106575829D01*
X189691855Y-106345297D01*
X189515631Y-106168765D01*
X189285265Y-106073109D01*
X189035829Y-106072891D01*
X188805297Y-106168145D01*
X188628765Y-106344369D01*
X188533109Y-106574735D01*
X188532891Y-106824171D01*
X185980784Y-106824171D01*
X185835631Y-106678765D01*
X185605265Y-106583109D01*
X185355829Y-106582891D01*
X185125297Y-106678145D01*
X184948765Y-106854369D01*
X184853109Y-107084735D01*
X184852891Y-107334171D01*
X175529685Y-107334171D01*
X175704703Y-107261855D01*
X175881235Y-107085631D01*
X175976891Y-106855265D01*
X175976918Y-106824171D01*
X179872891Y-106824171D01*
X179968145Y-107054703D01*
X180144369Y-107231235D01*
X180374735Y-107326891D01*
X180624171Y-107327109D01*
X180854703Y-107231855D01*
X181031235Y-107055631D01*
X181126891Y-106825265D01*
X181127109Y-106575829D01*
X181031855Y-106345297D01*
X180855631Y-106168765D01*
X180625265Y-106073109D01*
X180375829Y-106072891D01*
X180145297Y-106168145D01*
X179968765Y-106344369D01*
X179873109Y-106574735D01*
X179872891Y-106824171D01*
X175976918Y-106824171D01*
X175977109Y-106605829D01*
X175881855Y-106375297D01*
X175705631Y-106198765D01*
X175683566Y-106189603D01*
X175726891Y-106085265D01*
X175727109Y-105835829D01*
X175661305Y-105676572D01*
X175854735Y-105756891D01*
X176104171Y-105757109D01*
X176334703Y-105661855D01*
X176511235Y-105485631D01*
X176606891Y-105255265D01*
X176607109Y-105005829D01*
X176511855Y-104775297D01*
X176335631Y-104598765D01*
X176105265Y-104503109D01*
X175855829Y-104502891D01*
X175625297Y-104598145D01*
X175448765Y-104774369D01*
X175353109Y-105004735D01*
X175352891Y-105254171D01*
X175418695Y-105413428D01*
X175225265Y-105333109D01*
X174975829Y-105332891D01*
X174745297Y-105428145D01*
X174568765Y-105604369D01*
X174473109Y-105834735D01*
X174472891Y-106084171D01*
X139762290Y-106084171D01*
X139864703Y-106041855D01*
X140041235Y-105865631D01*
X140136891Y-105635265D01*
X140137109Y-105385829D01*
X140041855Y-105155297D01*
X139865631Y-104978765D01*
X139782320Y-104944171D01*
X141122891Y-104944171D01*
X141218145Y-105174703D01*
X141394369Y-105351235D01*
X141624735Y-105446891D01*
X141874171Y-105447109D01*
X142104703Y-105351855D01*
X142281235Y-105175631D01*
X142376891Y-104945265D01*
X142377109Y-104695829D01*
X142335105Y-104594171D01*
X158102891Y-104594171D01*
X158198145Y-104824703D01*
X158374369Y-105001235D01*
X158604735Y-105096891D01*
X158854171Y-105097109D01*
X159084703Y-105001855D01*
X159261235Y-104825631D01*
X159356891Y-104595265D01*
X159357058Y-104404171D01*
X171062891Y-104404171D01*
X171158145Y-104634703D01*
X171334369Y-104811235D01*
X171564735Y-104906891D01*
X171814171Y-104907109D01*
X172044703Y-104811855D01*
X172221235Y-104635631D01*
X172316891Y-104405265D01*
X172317109Y-104155829D01*
X172270973Y-104044171D01*
X172472891Y-104044171D01*
X172568145Y-104274703D01*
X172658287Y-104365003D01*
X172568765Y-104454369D01*
X172473109Y-104684735D01*
X172472891Y-104934171D01*
X172568145Y-105164703D01*
X172744369Y-105341235D01*
X172974735Y-105436891D01*
X173224171Y-105437109D01*
X173454703Y-105341855D01*
X173631235Y-105165631D01*
X173726891Y-104935265D01*
X173727109Y-104685829D01*
X173631855Y-104455297D01*
X173541713Y-104364997D01*
X173631235Y-104275631D01*
X173726891Y-104045265D01*
X173727109Y-103795829D01*
X173631855Y-103565297D01*
X173455631Y-103388765D01*
X173396402Y-103364171D01*
X181242891Y-103364171D01*
X181338145Y-103594703D01*
X181514369Y-103771235D01*
X181611662Y-103811634D01*
X181518765Y-103904369D01*
X181423109Y-104134735D01*
X181422891Y-104384171D01*
X181518145Y-104614703D01*
X181694369Y-104791235D01*
X181924735Y-104886891D01*
X182174171Y-104887109D01*
X182404703Y-104791855D01*
X182581235Y-104615631D01*
X182676891Y-104385265D01*
X182677109Y-104135829D01*
X182581855Y-103905297D01*
X182405631Y-103728765D01*
X182308338Y-103688366D01*
X182401235Y-103595631D01*
X182496891Y-103365265D01*
X182497109Y-103115829D01*
X182401855Y-102885297D01*
X182236704Y-102719857D01*
X182411235Y-102545631D01*
X182506891Y-102315265D01*
X182507109Y-102065829D01*
X182411855Y-101835297D01*
X182316695Y-101739971D01*
X182431235Y-101625631D01*
X182526891Y-101395265D01*
X182527109Y-101145829D01*
X182431855Y-100915297D01*
X182255631Y-100738765D01*
X182100071Y-100674171D01*
X186352891Y-100674171D01*
X186448145Y-100904703D01*
X186624369Y-101081235D01*
X186854735Y-101176891D01*
X187104171Y-101177109D01*
X187334703Y-101081855D01*
X187511235Y-100905631D01*
X187606891Y-100675265D01*
X187607109Y-100425829D01*
X187511855Y-100195297D01*
X187335631Y-100018765D01*
X187105265Y-99923109D01*
X186855829Y-99922891D01*
X186625297Y-100018145D01*
X186448765Y-100194369D01*
X186353109Y-100424735D01*
X186352891Y-100674171D01*
X182100071Y-100674171D01*
X182025265Y-100643109D01*
X181775829Y-100642891D01*
X181545297Y-100738145D01*
X181368765Y-100914369D01*
X181273109Y-101144735D01*
X181272891Y-101394171D01*
X181368145Y-101624703D01*
X181463305Y-101720029D01*
X181348765Y-101834369D01*
X181253109Y-102064735D01*
X181252891Y-102314171D01*
X181348145Y-102544703D01*
X181513296Y-102710143D01*
X181338765Y-102884369D01*
X181243109Y-103114735D01*
X181242891Y-103364171D01*
X173396402Y-103364171D01*
X173225265Y-103293109D01*
X172975829Y-103292891D01*
X172745297Y-103388145D01*
X172568765Y-103564369D01*
X172473109Y-103794735D01*
X172472891Y-104044171D01*
X172270973Y-104044171D01*
X172221855Y-103925297D01*
X172045631Y-103748765D01*
X171815265Y-103653109D01*
X171565829Y-103652891D01*
X171335297Y-103748145D01*
X171158765Y-103924369D01*
X171063109Y-104154735D01*
X171062891Y-104404171D01*
X159357058Y-104404171D01*
X159357109Y-104345829D01*
X159289376Y-104181903D01*
X159434703Y-104121855D01*
X159611235Y-103945631D01*
X159706891Y-103715265D01*
X159707109Y-103465829D01*
X159670851Y-103378079D01*
X159884735Y-103466891D01*
X160134171Y-103467109D01*
X160364703Y-103371855D01*
X160541235Y-103195631D01*
X160560467Y-103149314D01*
X160608145Y-103264703D01*
X160784369Y-103441235D01*
X161014735Y-103536891D01*
X161264171Y-103537109D01*
X161494703Y-103441855D01*
X161671235Y-103265631D01*
X161766891Y-103035265D01*
X161767109Y-102785829D01*
X161671855Y-102555297D01*
X161495631Y-102378765D01*
X161265265Y-102283109D01*
X161015829Y-102282891D01*
X160785297Y-102378145D01*
X160608765Y-102554369D01*
X160589533Y-102600686D01*
X160541855Y-102485297D01*
X160365631Y-102308765D01*
X160135265Y-102213109D01*
X159885829Y-102212891D01*
X159655297Y-102308145D01*
X159478765Y-102484369D01*
X159383109Y-102714735D01*
X159382891Y-102964171D01*
X159419149Y-103051921D01*
X159205265Y-102963109D01*
X158955829Y-102962891D01*
X158725297Y-103058145D01*
X158548765Y-103234369D01*
X158453109Y-103464735D01*
X158452891Y-103714171D01*
X158520624Y-103878097D01*
X158375297Y-103938145D01*
X158198765Y-104114369D01*
X158103109Y-104344735D01*
X158102891Y-104594171D01*
X142335105Y-104594171D01*
X142281855Y-104465297D01*
X142105631Y-104288765D01*
X141875265Y-104193109D01*
X141625829Y-104192891D01*
X141395297Y-104288145D01*
X141218765Y-104464369D01*
X141123109Y-104694735D01*
X141122891Y-104944171D01*
X139782320Y-104944171D01*
X139635265Y-104883109D01*
X139385829Y-104882891D01*
X139155297Y-104978145D01*
X138978765Y-105154369D01*
X138883109Y-105384735D01*
X138882891Y-105634171D01*
X124256935Y-105634171D01*
X124257109Y-105435829D01*
X124161855Y-105205297D01*
X123985631Y-105028765D01*
X123755265Y-104933109D01*
X123505829Y-104932891D01*
X123275297Y-105028145D01*
X123098765Y-105204369D01*
X123003109Y-105434735D01*
X123002891Y-105684171D01*
X117660907Y-105684171D01*
X117726891Y-105525265D01*
X117727109Y-105275829D01*
X117631855Y-105045297D01*
X117486713Y-104899901D01*
X117631235Y-104755631D01*
X117726891Y-104525265D01*
X117727109Y-104275829D01*
X117631855Y-104045297D01*
X117455631Y-103868765D01*
X117225265Y-103773109D01*
X116975829Y-103772891D01*
X116745297Y-103868145D01*
X116568765Y-104044369D01*
X116473109Y-104274735D01*
X116472891Y-104524171D01*
X107362000Y-104524171D01*
X107362000Y-103684171D01*
X123902891Y-103684171D01*
X123998145Y-103914703D01*
X124174369Y-104091235D01*
X124299692Y-104143274D01*
X124215297Y-104178145D01*
X124038765Y-104354369D01*
X123943109Y-104584735D01*
X123942891Y-104834171D01*
X124038145Y-105064703D01*
X124214369Y-105241235D01*
X124444735Y-105336891D01*
X124694171Y-105337109D01*
X124924703Y-105241855D01*
X125101235Y-105065631D01*
X125196891Y-104835265D01*
X125197109Y-104585829D01*
X125101855Y-104355297D01*
X124925631Y-104178765D01*
X124800308Y-104126726D01*
X124884703Y-104091855D01*
X125061235Y-103915631D01*
X125156891Y-103685265D01*
X125156900Y-103674171D01*
X141052891Y-103674171D01*
X141148145Y-103904703D01*
X141324369Y-104081235D01*
X141554735Y-104176891D01*
X141804171Y-104177109D01*
X142034703Y-104081855D01*
X142211235Y-103905631D01*
X142306891Y-103675265D01*
X142307109Y-103425829D01*
X142211855Y-103195297D01*
X142035631Y-103018765D01*
X141805265Y-102923109D01*
X141555829Y-102922891D01*
X141325297Y-103018145D01*
X141148765Y-103194369D01*
X141053109Y-103424735D01*
X141052891Y-103674171D01*
X125156900Y-103674171D01*
X125157109Y-103435829D01*
X125061855Y-103205297D01*
X124885631Y-103028765D01*
X124655265Y-102933109D01*
X124405829Y-102932891D01*
X124175297Y-103028145D01*
X123998765Y-103204369D01*
X123903109Y-103434735D01*
X123902891Y-103684171D01*
X107362000Y-103684171D01*
X107362000Y-102914171D01*
X121422891Y-102914171D01*
X121518145Y-103144703D01*
X121694369Y-103321235D01*
X121924735Y-103416891D01*
X122174171Y-103417109D01*
X122404703Y-103321855D01*
X122581235Y-103145631D01*
X122676891Y-102915265D01*
X122676891Y-102914171D01*
X122832891Y-102914171D01*
X122928145Y-103144703D01*
X123104369Y-103321235D01*
X123334735Y-103416891D01*
X123584171Y-103417109D01*
X123814703Y-103321855D01*
X123991235Y-103145631D01*
X124086891Y-102915265D01*
X124086891Y-102914171D01*
X125022891Y-102914171D01*
X125118145Y-103144703D01*
X125294369Y-103321235D01*
X125524735Y-103416891D01*
X125774171Y-103417109D01*
X126004703Y-103321855D01*
X126181235Y-103145631D01*
X126190773Y-103122660D01*
X126208145Y-103164703D01*
X126384369Y-103341235D01*
X126614735Y-103436891D01*
X126864171Y-103437109D01*
X127094703Y-103341855D01*
X127271235Y-103165631D01*
X127366891Y-102935265D01*
X127366926Y-102894171D01*
X138612891Y-102894171D01*
X138708145Y-103124703D01*
X138884369Y-103301235D01*
X139114735Y-103396891D01*
X139364171Y-103397109D01*
X139594703Y-103301855D01*
X139771235Y-103125631D01*
X139866891Y-102895265D01*
X139866891Y-102894171D01*
X140012891Y-102894171D01*
X140108145Y-103124703D01*
X140284369Y-103301235D01*
X140514735Y-103396891D01*
X140764171Y-103397109D01*
X140994703Y-103301855D01*
X141171235Y-103125631D01*
X141266891Y-102895265D01*
X141266891Y-102894171D01*
X142222891Y-102894171D01*
X142318145Y-103124703D01*
X142494369Y-103301235D01*
X142724735Y-103396891D01*
X142974171Y-103397109D01*
X143204703Y-103301855D01*
X143381235Y-103125631D01*
X143433813Y-102999008D01*
X143498145Y-103154703D01*
X143674369Y-103331235D01*
X143904735Y-103426891D01*
X144154171Y-103427109D01*
X144384703Y-103331855D01*
X144561235Y-103155631D01*
X144640735Y-102964171D01*
X155772891Y-102964171D01*
X155868145Y-103194703D01*
X156044369Y-103371235D01*
X156274735Y-103466891D01*
X156524171Y-103467109D01*
X156754703Y-103371855D01*
X156931235Y-103195631D01*
X157026891Y-102965265D01*
X157026891Y-102964171D01*
X157192891Y-102964171D01*
X157288145Y-103194703D01*
X157464369Y-103371235D01*
X157694735Y-103466891D01*
X157944171Y-103467109D01*
X158174703Y-103371855D01*
X158351235Y-103195631D01*
X158446891Y-102965265D01*
X158447109Y-102715829D01*
X158351855Y-102485297D01*
X158175631Y-102308765D01*
X157945265Y-102213109D01*
X157695829Y-102212891D01*
X157465297Y-102308145D01*
X157288765Y-102484369D01*
X157193109Y-102714735D01*
X157192891Y-102964171D01*
X157026891Y-102964171D01*
X157027109Y-102715829D01*
X156931855Y-102485297D01*
X156755631Y-102308765D01*
X156525265Y-102213109D01*
X156275829Y-102212891D01*
X156045297Y-102308145D01*
X155868765Y-102484369D01*
X155773109Y-102714735D01*
X155772891Y-102964171D01*
X144640735Y-102964171D01*
X144656891Y-102925265D01*
X144657109Y-102675829D01*
X144561855Y-102445297D01*
X144385631Y-102268765D01*
X144155265Y-102173109D01*
X143905829Y-102172891D01*
X143675297Y-102268145D01*
X143498765Y-102444369D01*
X143446187Y-102570992D01*
X143381855Y-102415297D01*
X143205631Y-102238765D01*
X142975265Y-102143109D01*
X142725829Y-102142891D01*
X142495297Y-102238145D01*
X142318765Y-102414369D01*
X142223109Y-102644735D01*
X142222891Y-102894171D01*
X141266891Y-102894171D01*
X141267109Y-102645829D01*
X141171855Y-102415297D01*
X140995631Y-102238765D01*
X140765265Y-102143109D01*
X140515829Y-102142891D01*
X140285297Y-102238145D01*
X140108765Y-102414369D01*
X140013109Y-102644735D01*
X140012891Y-102894171D01*
X139866891Y-102894171D01*
X139867109Y-102645829D01*
X139771855Y-102415297D01*
X139595631Y-102238765D01*
X139365265Y-102143109D01*
X139115829Y-102142891D01*
X138885297Y-102238145D01*
X138708765Y-102414369D01*
X138613109Y-102644735D01*
X138612891Y-102894171D01*
X127366926Y-102894171D01*
X127367109Y-102685829D01*
X127271855Y-102455297D01*
X127095631Y-102278765D01*
X126865265Y-102183109D01*
X126615829Y-102182891D01*
X126385297Y-102278145D01*
X126208765Y-102454369D01*
X126199227Y-102477340D01*
X126181855Y-102435297D01*
X126005631Y-102258765D01*
X125775265Y-102163109D01*
X125525829Y-102162891D01*
X125295297Y-102258145D01*
X125118765Y-102434369D01*
X125023109Y-102664735D01*
X125022891Y-102914171D01*
X124086891Y-102914171D01*
X124087109Y-102665829D01*
X123991855Y-102435297D01*
X123815631Y-102258765D01*
X123585265Y-102163109D01*
X123335829Y-102162891D01*
X123105297Y-102258145D01*
X122928765Y-102434369D01*
X122833109Y-102664735D01*
X122832891Y-102914171D01*
X122676891Y-102914171D01*
X122677109Y-102665829D01*
X122581855Y-102435297D01*
X122405631Y-102258765D01*
X122175265Y-102163109D01*
X121925829Y-102162891D01*
X121695297Y-102258145D01*
X121518765Y-102434369D01*
X121423109Y-102664735D01*
X121422891Y-102914171D01*
X107362000Y-102914171D01*
X107362000Y-100994171D01*
X111522891Y-100994171D01*
X111618145Y-101224703D01*
X111794369Y-101401235D01*
X112024735Y-101496891D01*
X112274171Y-101497109D01*
X112504703Y-101401855D01*
X112681235Y-101225631D01*
X112776891Y-100995265D01*
X112777109Y-100745829D01*
X112681855Y-100515297D01*
X112505631Y-100338765D01*
X112275265Y-100243109D01*
X112025829Y-100242891D01*
X111795297Y-100338145D01*
X111618765Y-100514369D01*
X111523109Y-100744735D01*
X111522891Y-100994171D01*
X107362000Y-100994171D01*
X107362000Y-98534171D01*
X113812891Y-98534171D01*
X113908145Y-98764703D01*
X114084369Y-98941235D01*
X114314735Y-99036891D01*
X114564171Y-99037109D01*
X114794703Y-98941855D01*
X114971235Y-98765631D01*
X115066891Y-98535265D01*
X115067109Y-98285829D01*
X114971855Y-98055297D01*
X114795631Y-97878765D01*
X114565265Y-97783109D01*
X114315829Y-97782891D01*
X114085297Y-97878145D01*
X113908765Y-98054369D01*
X113813109Y-98284735D01*
X113812891Y-98534171D01*
X107362000Y-98534171D01*
X107362000Y-93764171D01*
X112972891Y-93764171D01*
X113068145Y-93994703D01*
X113244369Y-94171235D01*
X113410097Y-94240051D01*
X113245297Y-94308145D01*
X113068765Y-94484369D01*
X112973109Y-94714735D01*
X112972891Y-94964171D01*
X113068145Y-95194703D01*
X113244369Y-95371235D01*
X113474735Y-95466891D01*
X113724171Y-95467109D01*
X113954703Y-95371855D01*
X114131235Y-95195631D01*
X114226891Y-94965265D01*
X114227109Y-94715829D01*
X114131855Y-94485297D01*
X113955631Y-94308765D01*
X113789903Y-94239949D01*
X113954703Y-94171855D01*
X114131235Y-93995631D01*
X114226891Y-93765265D01*
X114227109Y-93515829D01*
X114131855Y-93285297D01*
X113955631Y-93108765D01*
X113725265Y-93013109D01*
X113475829Y-93012891D01*
X113245297Y-93108145D01*
X113068765Y-93284369D01*
X112973109Y-93514735D01*
X112972891Y-93764171D01*
X107362000Y-93764171D01*
X107362000Y-90234171D01*
X112112891Y-90234171D01*
X112208145Y-90464703D01*
X112384369Y-90641235D01*
X112614735Y-90736891D01*
X112864171Y-90737109D01*
X113094703Y-90641855D01*
X113271235Y-90465631D01*
X113366891Y-90235265D01*
X113367109Y-89985829D01*
X113271855Y-89755297D01*
X113095631Y-89578765D01*
X112865265Y-89483109D01*
X112615829Y-89482891D01*
X112385297Y-89578145D01*
X112208765Y-89754369D01*
X112113109Y-89984735D01*
X112112891Y-90234171D01*
X107362000Y-90234171D01*
X107362000Y-36896845D01*
X117573000Y-36896845D01*
X117573000Y-97400000D01*
M02*
