G04 #@! TF.FileFunction,Paste,Top*
%FSLAX46Y46*%
G04 Gerber Fmt 4.6, Leading zero omitted, Abs format (unit mm)*
G04 Created by KiCad (PCBNEW 4.0.6) date 02/16/18 09:44:27*
%MOMM*%
%LPD*%
G01*
G04 APERTURE LIST*
%ADD10C,0.100000*%
%ADD11R,2.500000X4.000000*%
%ADD12R,0.800000X4.600000*%
%ADD13R,5.250000X4.550000*%
%ADD14R,1.000000X1.250000*%
%ADD15R,1.250000X1.000000*%
%ADD16R,1.600000X1.000000*%
%ADD17R,1.000000X1.600000*%
%ADD18R,0.800000X0.750000*%
%ADD19R,0.750000X0.800000*%
%ADD20R,0.900000X0.800000*%
%ADD21R,0.600000X0.450000*%
%ADD22R,2.000000X3.800000*%
%ADD23R,2.000000X1.500000*%
%ADD24R,1.750000X0.450000*%
%ADD25R,5.000000X4.500000*%
%ADD26R,0.900000X0.500000*%
%ADD27R,0.500000X0.900000*%
%ADD28R,0.900000X2.500000*%
%ADD29R,0.700000X1.300000*%
%ADD30R,0.560000X2.755000*%
G04 APERTURE END LIST*
D10*
D11*
X128630000Y-104630000D03*
X128630000Y-112630000D03*
D12*
X133410000Y-95755000D03*
X134680000Y-95755000D03*
X135950000Y-95755000D03*
X137220000Y-95755000D03*
X138490000Y-95755000D03*
X139760000Y-95755000D03*
X141030000Y-95755000D03*
D13*
X139995000Y-84180000D03*
X134445000Y-89030000D03*
X134445000Y-84180000D03*
X139995000Y-89030000D03*
D12*
X116270000Y-95785000D03*
X117540000Y-95785000D03*
X118810000Y-95785000D03*
X120080000Y-95785000D03*
X121350000Y-95785000D03*
X122620000Y-95785000D03*
X123890000Y-95785000D03*
D13*
X122855000Y-84210000D03*
X117305000Y-89060000D03*
X117305000Y-84210000D03*
X122855000Y-89060000D03*
D12*
X150590000Y-95775000D03*
X151860000Y-95775000D03*
X153130000Y-95775000D03*
X154400000Y-95775000D03*
X155670000Y-95775000D03*
X156940000Y-95775000D03*
X158210000Y-95775000D03*
D13*
X157175000Y-84200000D03*
X151625000Y-89050000D03*
X151625000Y-84200000D03*
X157175000Y-89050000D03*
D14*
X109630000Y-92620000D03*
X111630000Y-92620000D03*
D15*
X111790000Y-94340000D03*
X111790000Y-96340000D03*
D16*
X111850000Y-90130000D03*
X111850000Y-87130000D03*
D17*
X110210000Y-84990000D03*
X113210000Y-84990000D03*
D11*
X115510000Y-104610000D03*
X115510000Y-112610000D03*
X157170000Y-104710000D03*
X157170000Y-112710000D03*
D17*
X178600000Y-109830000D03*
X175600000Y-109830000D03*
D14*
X110740000Y-117870000D03*
X108740000Y-117870000D03*
X109450000Y-98040000D03*
X111450000Y-98040000D03*
D18*
X169890000Y-109770000D03*
X171390000Y-109770000D03*
D19*
X180110000Y-106010000D03*
X180110000Y-107510000D03*
X155190000Y-117850000D03*
X155190000Y-116350000D03*
D18*
X183460000Y-105970000D03*
X181960000Y-105970000D03*
D19*
X121870000Y-116600000D03*
X121870000Y-118100000D03*
D18*
X171000000Y-89140000D03*
X169500000Y-89140000D03*
X168780000Y-92690000D03*
X170280000Y-92690000D03*
X171330000Y-87760000D03*
X172830000Y-87760000D03*
X172620000Y-89320000D03*
X174120000Y-89320000D03*
D19*
X181820000Y-98060000D03*
X181820000Y-96560000D03*
D18*
X176920000Y-89320000D03*
X175420000Y-89320000D03*
D19*
X175260000Y-86590000D03*
X175260000Y-88090000D03*
D14*
X125550000Y-100920000D03*
X123550000Y-100920000D03*
D15*
X116100000Y-101000000D03*
X116100000Y-99000000D03*
D18*
X168780000Y-94130000D03*
X170280000Y-94130000D03*
D14*
X142900000Y-101190000D03*
X140900000Y-101190000D03*
D15*
X133200000Y-101000000D03*
X133200000Y-99000000D03*
D19*
X184120000Y-98070000D03*
X184120000Y-96570000D03*
D14*
X159710000Y-100980000D03*
X157710000Y-100980000D03*
D15*
X150400000Y-101100000D03*
X150400000Y-99100000D03*
D19*
X170400000Y-100460000D03*
X170400000Y-98960000D03*
X170420000Y-97640000D03*
X170420000Y-96140000D03*
D20*
X160890000Y-117830000D03*
X160890000Y-115930000D03*
X158890000Y-116880000D03*
X180070000Y-104090000D03*
X180070000Y-102190000D03*
X178070000Y-103140000D03*
X130490000Y-118070000D03*
X130490000Y-116170000D03*
X128490000Y-117120000D03*
D21*
X171730000Y-111530000D03*
X169630000Y-111530000D03*
D22*
X188940000Y-110970000D03*
D23*
X182640000Y-110970000D03*
X182640000Y-113270000D03*
X182640000Y-108670000D03*
D24*
X172500000Y-91355000D03*
X172500000Y-92005000D03*
X172500000Y-92655000D03*
X172500000Y-93305000D03*
X172500000Y-93955000D03*
X172500000Y-94605000D03*
X172500000Y-95255000D03*
X172500000Y-95905000D03*
X172500000Y-96555000D03*
X172500000Y-97205000D03*
X172500000Y-97855000D03*
X172500000Y-98505000D03*
X172500000Y-99155000D03*
X172500000Y-99805000D03*
X179700000Y-99805000D03*
X179700000Y-99155000D03*
X179700000Y-98505000D03*
X179700000Y-97855000D03*
X179700000Y-97205000D03*
X179700000Y-96555000D03*
X179700000Y-95905000D03*
X179700000Y-95255000D03*
X179700000Y-94605000D03*
X179700000Y-93955000D03*
X179700000Y-93305000D03*
X179700000Y-92655000D03*
X179700000Y-92005000D03*
X179700000Y-91355000D03*
D25*
X142720000Y-116140000D03*
X142720000Y-105640000D03*
D26*
X151770000Y-115310000D03*
X151770000Y-116810000D03*
X109740000Y-100120000D03*
X109740000Y-101620000D03*
X120430000Y-118140000D03*
X120430000Y-116640000D03*
X172880000Y-105800000D03*
X172880000Y-104300000D03*
D27*
X174120000Y-106010000D03*
X175620000Y-106010000D03*
D28*
X115880000Y-116940000D03*
X112980000Y-116940000D03*
D26*
X126850000Y-117750000D03*
X126850000Y-116250000D03*
D27*
X133380000Y-117740000D03*
X131880000Y-117740000D03*
X133370000Y-116210000D03*
X131870000Y-116210000D03*
D26*
X117390000Y-116280000D03*
X117390000Y-117780000D03*
X118880000Y-117780000D03*
X118880000Y-116280000D03*
X153620000Y-115550000D03*
X153620000Y-117050000D03*
X156800000Y-116340000D03*
X156800000Y-117840000D03*
D27*
X172710000Y-108730000D03*
X174210000Y-108730000D03*
X169420000Y-90700000D03*
X170920000Y-90700000D03*
X168530000Y-103750000D03*
X170030000Y-103750000D03*
D26*
X145690000Y-88230000D03*
X145690000Y-86730000D03*
X167450000Y-94370000D03*
X167450000Y-92870000D03*
X121650000Y-98790000D03*
X121650000Y-100290000D03*
D27*
X118250000Y-73000000D03*
X116750000Y-73000000D03*
X168930000Y-82940000D03*
X170430000Y-82940000D03*
X121750000Y-73000000D03*
X123250000Y-73000000D03*
D26*
X118050000Y-98790000D03*
X118050000Y-100290000D03*
X119460000Y-98790000D03*
X119460000Y-100290000D03*
D27*
X167870000Y-95630000D03*
X169370000Y-95630000D03*
X184050000Y-99990000D03*
X182550000Y-99990000D03*
D26*
X138850000Y-98770000D03*
X138850000Y-100270000D03*
D27*
X138750000Y-73000000D03*
X140250000Y-73000000D03*
X147250000Y-73000000D03*
X148750000Y-73000000D03*
X135250000Y-73000000D03*
X133750000Y-73000000D03*
D26*
X135240000Y-98770000D03*
X135240000Y-100270000D03*
X136640000Y-98770000D03*
X136640000Y-100270000D03*
X186270000Y-99960000D03*
X186270000Y-98460000D03*
D27*
X168530000Y-102230000D03*
X170030000Y-102230000D03*
D26*
X156010000Y-98840000D03*
X156010000Y-100340000D03*
X153200000Y-74350000D03*
X153200000Y-72850000D03*
X150880000Y-74360000D03*
X150880000Y-72860000D03*
X155700000Y-74350000D03*
X155700000Y-72850000D03*
X152400000Y-98840000D03*
X152400000Y-100340000D03*
X153820000Y-98840000D03*
X153820000Y-100340000D03*
X168910000Y-98930000D03*
X168910000Y-97430000D03*
D29*
X104510000Y-79960000D03*
X102610000Y-79960000D03*
D26*
X167840000Y-88350000D03*
X167840000Y-89850000D03*
D18*
X175780000Y-103910000D03*
X174280000Y-103910000D03*
D20*
X125310000Y-118100000D03*
X125310000Y-116200000D03*
X123310000Y-117150000D03*
X169840000Y-106280000D03*
X169840000Y-108180000D03*
X171840000Y-107230000D03*
D30*
X183410000Y-84810000D03*
X183410000Y-81595000D03*
X184410000Y-84810000D03*
X184410000Y-81595000D03*
X185410000Y-84810000D03*
X185410000Y-81595000D03*
X186410000Y-84810000D03*
X186410000Y-81595000D03*
X187410000Y-84810000D03*
X187410000Y-81595000D03*
X188410000Y-84810000D03*
X188410000Y-81595000D03*
M02*
