M48
;DRILL file {KiCad 4.0.6} date 06/19/18 10:33:59
;FORMAT={-:-/ absolute / inch / decimal}
FMAT,2
INCH,TZ
T1C0.012
T2C0.118
%
G90
G05
M72
T1
X4.4154Y-3.9713
X4.437Y-4.8622
X4.4386Y-3.5476
X4.4724Y-3.6866
X4.4724Y-3.7339
X4.4783Y-4.2012
X4.5055Y-3.8744
X4.5654Y-4.8016
X4.5906Y-4.5354
X4.5906Y-4.5748
X4.5906Y-4.6142
X4.6102Y-4.1102
X4.6102Y-4.1496
X4.6102Y-4.189
X4.6102Y-4.2283
X4.6102Y-4.2677
X4.6102Y-4.3071
X4.6102Y-4.3465
X4.6102Y-4.3858
X4.626Y-3.8583
X4.626Y-3.8976
X4.626Y-3.937
X4.626Y-3.9764
X4.626Y-4.0157
X4.626Y-4.5157
X4.626Y-4.5551
X4.626Y-4.5945
X4.626Y-4.6339
X4.6654Y-3.8583
X4.6654Y-3.8976
X4.6654Y-3.937
X4.6654Y-3.9764
X4.6654Y-4.0157
X4.6654Y-4.7598
X4.6929Y-3.4055
X4.6929Y-3.4441
X4.6929Y-3.4827
X4.6929Y-3.5213
X4.6929Y-3.5598
X4.6929Y-3.5984
X4.6929Y-3.637
X4.6929Y-3.6756
X4.6929Y-3.7142
X4.7315Y-3.4055
X4.7315Y-3.4441
X4.7315Y-3.4827
X4.7315Y-3.5213
X4.7315Y-3.5598
X4.7315Y-3.5984
X4.7315Y-3.637
X4.7315Y-3.6756
X4.7315Y-3.7142
X4.7701Y-3.4055
X4.7701Y-3.4441
X4.7701Y-3.4827
X4.7701Y-3.5213
X4.7701Y-3.5598
X4.7701Y-3.5984
X4.7701Y-3.637
X4.7701Y-3.6756
X4.7701Y-3.7142
X4.7953Y-4.5157
X4.7953Y-4.5551
X4.7953Y-4.5945
X4.7953Y-4.6339
X4.8031Y-4.2283
X4.8031Y-4.2677
X4.8031Y-4.3071
X4.8031Y-4.3465
X4.8031Y-4.3858
X4.8051Y-4.0469
X4.8087Y-3.4055
X4.8087Y-3.4441
X4.8087Y-3.4827
X4.8087Y-3.5213
X4.8087Y-3.5598
X4.8087Y-3.5984
X4.8087Y-3.637
X4.8087Y-3.6756
X4.8087Y-3.7142
X4.8307Y-4.5354
X4.8307Y-4.5748
X4.8307Y-4.6142
X4.8386Y-4.8421
X4.8472Y-3.4055
X4.8472Y-3.4441
X4.8472Y-3.4827
X4.8472Y-3.5213
X4.8472Y-3.5598
X4.8472Y-3.5984
X4.8472Y-3.637
X4.8472Y-3.6756
X4.8472Y-3.7142
X4.8606Y-4.0469
X4.8673Y-4.1559
X4.874Y-1.811
X4.874Y-1.8504
X4.874Y-1.8898
X4.874Y-1.9291
X4.874Y-1.9685
X4.874Y-2.0079
X4.874Y-2.0472
X4.874Y-2.0866
X4.874Y-2.126
X4.874Y-2.1654
X4.874Y-2.2047
X4.874Y-2.2441
X4.874Y-2.2835
X4.874Y-2.3228
X4.8858Y-3.4055
X4.8858Y-3.4441
X4.8858Y-3.4827
X4.8858Y-3.5213
X4.8858Y-3.5598
X4.8858Y-3.5984
X4.8858Y-3.637
X4.8858Y-3.6756
X4.8858Y-3.7142
X4.8992Y-4.7047
X4.9028Y-4.0772
X4.9043Y-4.1224
X4.9244Y-3.4055
X4.9244Y-3.4441
X4.9244Y-3.4827
X4.9244Y-3.5213
X4.9244Y-3.5598
X4.9244Y-3.5984
X4.9244Y-3.637
X4.9244Y-3.6756
X4.9244Y-3.7142
X4.9256Y-4.8425
X4.9469Y-4.0469
X4.9567Y-4.7047
X4.963Y-3.4055
X4.963Y-3.4441
X4.963Y-3.4827
X4.963Y-3.5213
X4.963Y-3.5598
X4.963Y-3.5984
X4.963Y-3.637
X4.963Y-3.6756
X4.963Y-3.7142
X4.9882Y-4.0866
X4.9898Y-4.0476
X5.0016Y-3.4055
X5.0016Y-3.4441
X5.0016Y-3.4827
X5.0016Y-3.5213
X5.0016Y-3.5598
X5.0016Y-3.5984
X5.0016Y-3.637
X5.0016Y-3.6756
X5.0016Y-3.7142
X5.0094Y-5.0799
X5.0118Y-4.2283
X5.0118Y-4.2677
X5.0118Y-4.3071
X5.0118Y-4.3465
X5.0118Y-4.3858
X5.0386Y-4.713
X5.0402Y-3.4055
X5.0402Y-3.4441
X5.0402Y-3.4827
X5.0402Y-3.5213
X5.0402Y-3.5598
X5.0402Y-3.5984
X5.0402Y-3.637
X5.0402Y-3.6756
X5.0402Y-3.7142
X5.0709Y-4.2283
X5.0709Y-4.2677
X5.0709Y-4.3071
X5.0709Y-4.3465
X5.0709Y-4.3858
X5.0787Y-3.4055
X5.0787Y-3.4441
X5.0787Y-3.4827
X5.0787Y-3.5213
X5.0787Y-3.5598
X5.0787Y-3.5984
X5.0787Y-3.637
X5.0787Y-3.6756
X5.0787Y-3.7142
X5.0906Y-3.8583
X5.0906Y-3.8976
X5.0906Y-3.937
X5.0906Y-3.9764
X5.1063Y-4.5157
X5.1063Y-4.5551
X5.1063Y-4.5945
X5.1063Y-4.6339
X5.126Y-3.878
X5.126Y-3.9173
X5.126Y-3.9567
X5.126Y-3.9961
X5.1496Y-1.811
X5.1496Y-1.8504
X5.1496Y-1.8898
X5.1496Y-1.9291
X5.1496Y-1.9685
X5.1496Y-2.0079
X5.1496Y-2.0472
X5.1496Y-2.0866
X5.1496Y-2.126
X5.1496Y-2.1654
X5.1496Y-2.2047
X5.1496Y-2.2441
X5.1496Y-2.2835
X5.1496Y-2.3228
X5.2244Y-4.7205
X5.3189Y-3.8701
X5.3189Y-3.9094
X5.3189Y-3.9488
X5.3189Y-3.9882
X5.3189Y-4.0276
X5.3543Y-3.8504
X5.3543Y-3.8898
X5.3543Y-3.9291
X5.3543Y-3.9685
X5.3543Y-4.0079
X5.3661Y-3.4055
X5.3661Y-3.4441
X5.3661Y-3.4827
X5.3661Y-3.5213
X5.3661Y-3.5598
X5.3661Y-3.5984
X5.3661Y-3.637
X5.3661Y-3.6756
X5.3661Y-3.7142
X5.3815Y-4.8272
X5.4047Y-3.4055
X5.4047Y-3.4441
X5.4047Y-3.4827
X5.4047Y-3.5213
X5.4047Y-3.5598
X5.4047Y-3.5984
X5.4047Y-3.637
X5.4047Y-3.6756
X5.4047Y-3.7142
X5.4433Y-3.4055
X5.4433Y-3.4441
X5.4433Y-3.4827
X5.4433Y-3.5213
X5.4433Y-3.5598
X5.4433Y-3.5984
X5.4433Y-3.637
X5.4433Y-3.6756
X5.4433Y-3.7142
X5.4524Y-4.7937
X5.4567Y-1.811
X5.4567Y-1.8504
X5.4567Y-1.8898
X5.4567Y-1.9291
X5.4567Y-1.9685
X5.4567Y-2.0079
X5.4567Y-2.0472
X5.4567Y-2.0866
X5.4567Y-2.126
X5.4567Y-2.1654
X5.4567Y-2.2047
X5.4567Y-2.2441
X5.4567Y-2.2835
X5.4567Y-2.3228
X5.4567Y-5.2008
X5.4567Y-5.2402
X5.4567Y-5.2795
X5.4567Y-5.3189
X5.4567Y-5.3583
X5.4567Y-5.3976
X5.4567Y-5.437
X5.4567Y-5.4764
X5.4567Y-5.5157
X5.4567Y-5.5551
X5.4567Y-5.5945
X5.4567Y-5.6339
X5.4567Y-5.6732
X5.4567Y-5.7126
X5.4819Y-3.4055
X5.4819Y-3.4441
X5.4819Y-3.4827
X5.4819Y-3.5213
X5.4819Y-3.5598
X5.4819Y-3.5984
X5.4819Y-3.637
X5.4819Y-3.6756
X5.4819Y-3.7142
X5.4819Y-4.0461
X5.4925Y-4.1539
X5.5118Y-4.7244
X5.5118Y-4.7638
X5.5118Y-4.8268
X5.5205Y-3.4055
X5.5205Y-3.4441
X5.5205Y-3.4827
X5.5205Y-3.5213
X5.5205Y-3.5598
X5.5205Y-3.5984
X5.5205Y-3.637
X5.5205Y-3.6756
X5.5205Y-3.7142
X5.537Y-4.0461
X5.5512Y-4.2362
X5.5512Y-4.2756
X5.5512Y-4.315
X5.5512Y-4.3543
X5.5512Y-4.3937
X5.5512Y-4.7244
X5.5512Y-4.7638
X5.5512Y-4.8268
X5.5591Y-3.4055
X5.5591Y-3.4441
X5.5591Y-3.4827
X5.5591Y-3.5213
X5.5591Y-3.5598
X5.5591Y-3.5984
X5.5591Y-3.637
X5.5591Y-3.6756
X5.5591Y-3.7142
X5.578Y-4.0768
X5.5807Y-4.1268
X5.5827Y-4.5157
X5.5827Y-4.5551
X5.5827Y-4.5945
X5.5827Y-4.6339
X5.5906Y-4.7244
X5.5906Y-4.7638
X5.5906Y-4.8268
X5.5976Y-3.4055
X5.5976Y-3.4441
X5.5976Y-3.4827
X5.5976Y-3.5213
X5.5976Y-3.5598
X5.5976Y-3.5984
X5.5976Y-3.637
X5.5976Y-3.6756
X5.5976Y-3.7142
X5.6102Y-4.2362
X5.6102Y-4.2756
X5.6102Y-4.315
X5.6102Y-4.3543
X5.6102Y-4.3937
X5.624Y-4.0461
X5.6299Y-4.7244
X5.6299Y-4.7638
X5.6299Y-4.8268
X5.6362Y-3.4055
X5.6362Y-3.4441
X5.6362Y-3.4827
X5.6362Y-3.5213
X5.6362Y-3.5598
X5.6362Y-3.5984
X5.6362Y-3.637
X5.6362Y-3.6756
X5.6362Y-3.7142
X5.6614Y-4.0787
X5.6705Y-4.0472
X5.6748Y-3.4055
X5.6748Y-3.4441
X5.6748Y-3.4827
X5.6748Y-3.5213
X5.6748Y-3.5598
X5.6748Y-3.5984
X5.6748Y-3.637
X5.6748Y-3.6756
X5.6748Y-3.7142
X5.7134Y-3.4055
X5.7134Y-3.4441
X5.7134Y-3.4827
X5.7134Y-3.5213
X5.7134Y-3.5598
X5.7134Y-3.5984
X5.7134Y-3.637
X5.7134Y-3.6756
X5.7134Y-3.7142
X5.7323Y-1.811
X5.7323Y-1.8504
X5.7323Y-1.8898
X5.7323Y-1.9291
X5.7323Y-1.9685
X5.7323Y-2.0079
X5.7323Y-2.0472
X5.7323Y-2.0866
X5.7323Y-2.126
X5.7323Y-2.1654
X5.7323Y-2.2047
X5.7323Y-2.2441
X5.7323Y-2.2835
X5.7323Y-2.3228
X5.7323Y-5.2008
X5.7323Y-5.2402
X5.7323Y-5.2795
X5.7323Y-5.3189
X5.7323Y-5.3583
X5.7323Y-5.3976
X5.7323Y-5.437
X5.7323Y-5.4764
X5.7323Y-5.5157
X5.7323Y-5.5551
X5.7323Y-5.5945
X5.7323Y-5.6339
X5.7323Y-5.6732
X5.7323Y-5.7126
X5.752Y-3.4055
X5.752Y-3.4441
X5.752Y-3.4827
X5.752Y-3.5213
X5.752Y-3.5598
X5.752Y-3.5984
X5.752Y-3.637
X5.752Y-3.6756
X5.752Y-3.7142
X5.7677Y-3.8583
X5.7677Y-3.8976
X5.7677Y-3.937
X5.7677Y-3.9764
X5.8031Y-3.878
X5.8031Y-3.9173
X5.8031Y-3.9567
X5.8031Y-3.9961
X5.8933Y-3.6724
X5.9252Y-4.2362
X5.9252Y-4.2756
X5.9252Y-4.315
X5.9252Y-4.3543
X5.9252Y-4.3937
X5.937Y-4.7244
X5.937Y-4.7638
X5.937Y-4.8268
X5.9449Y-3.5709
X5.9764Y-4.7244
X5.9764Y-4.7638
X5.9764Y-4.8268
X5.9803Y-4.2362
X5.9803Y-4.2756
X5.9803Y-4.315
X5.9803Y-4.3543
X5.9803Y-4.3937
X5.9961Y-3.8701
X5.9961Y-3.9094
X5.9961Y-3.9488
X5.9961Y-3.9882
X5.9961Y-4.0276
X6.0157Y-4.7244
X6.0157Y-4.7638
X6.0157Y-4.8268
X6.0315Y-3.8504
X6.0315Y-3.8898
X6.0315Y-3.9291
X6.0315Y-3.9685
X6.0315Y-4.0079
X6.0394Y-1.811
X6.0394Y-1.8504
X6.0394Y-1.8898
X6.0394Y-1.9291
X6.0394Y-1.9685
X6.0394Y-2.0079
X6.0394Y-2.0472
X6.0394Y-2.0866
X6.0394Y-2.126
X6.0394Y-2.1654
X6.0394Y-2.2047
X6.0394Y-2.2441
X6.0394Y-2.2835
X6.0394Y-2.3228
X6.0394Y-5.2008
X6.0394Y-5.2402
X6.0394Y-5.2795
X6.0394Y-5.3189
X6.0394Y-5.3583
X6.0394Y-5.3976
X6.0394Y-5.437
X6.0394Y-5.4764
X6.0394Y-5.5157
X6.0394Y-5.5551
X6.0394Y-5.5945
X6.0394Y-5.6339
X6.0394Y-5.6732
X6.0394Y-5.7126
X6.0433Y-3.4055
X6.0433Y-3.4441
X6.0433Y-3.4827
X6.0433Y-3.5213
X6.0433Y-3.5598
X6.0433Y-3.5984
X6.0433Y-3.637
X6.0433Y-3.6756
X6.0433Y-3.7142
X6.0551Y-4.7244
X6.0551Y-4.7638
X6.0551Y-4.8268
X6.0819Y-3.4441
X6.0819Y-3.4827
X6.0819Y-3.5213
X6.0819Y-3.5598
X6.0819Y-3.5984
X6.0819Y-3.637
X6.0819Y-3.6756
X6.0819Y-3.7142
X6.0827Y-3.4055
X6.1165Y-4.2299
X6.1205Y-3.4055
X6.1205Y-3.4441
X6.1205Y-3.4827
X6.1205Y-3.5213
X6.1205Y-3.5598
X6.1205Y-3.5984
X6.1205Y-3.637
X6.1205Y-3.6756
X6.1205Y-3.7142
X6.1575Y-4.0488
X6.1591Y-3.4055
X6.1591Y-3.4441
X6.1591Y-3.4827
X6.1591Y-3.5213
X6.1591Y-3.5598
X6.1591Y-3.5984
X6.1591Y-3.637
X6.1591Y-3.6756
X6.1591Y-3.7142
X6.1976Y-3.4055
X6.1976Y-3.4441
X6.1976Y-3.4827
X6.1976Y-3.5213
X6.1976Y-3.5598
X6.1976Y-3.5984
X6.1976Y-3.637
X6.1976Y-3.6756
X6.1976Y-3.7142
X6.2134Y-4.0488
X6.2157Y-4.8236
X6.2205Y-4.2362
X6.2205Y-4.2756
X6.2205Y-4.315
X6.2205Y-4.3543
X6.2205Y-4.3937
X6.2205Y-4.5157
X6.2205Y-4.5551
X6.2205Y-4.5945
X6.2362Y-3.4055
X6.2362Y-3.4441
X6.2362Y-3.4827
X6.2362Y-3.5213
X6.2362Y-3.5598
X6.2362Y-3.5984
X6.2362Y-3.637
X6.2362Y-3.6756
X6.2362Y-3.7142
X6.2492Y-4.113
X6.252Y-4.5354
X6.252Y-4.5748
X6.263Y-4.0783
X6.2748Y-3.4055
X6.2748Y-3.4441
X6.2748Y-3.4827
X6.2748Y-3.5213
X6.2748Y-3.5598
X6.2748Y-3.5984
X6.2748Y-3.637
X6.2748Y-3.6756
X6.2748Y-3.7142
X6.2996Y-4.0488
X6.3134Y-3.4055
X6.3134Y-3.4441
X6.3134Y-3.4827
X6.3134Y-3.5213
X6.3134Y-3.5598
X6.3134Y-3.5984
X6.3134Y-3.637
X6.3134Y-3.6756
X6.3134Y-3.7142
X6.315Y-1.811
X6.315Y-1.8504
X6.315Y-1.8898
X6.315Y-1.9291
X6.315Y-1.9685
X6.315Y-2.0079
X6.315Y-2.0472
X6.315Y-2.0866
X6.315Y-2.126
X6.315Y-2.1654
X6.315Y-2.2047
X6.315Y-2.2441
X6.315Y-2.2835
X6.315Y-2.3228
X6.315Y-5.2008
X6.315Y-5.2402
X6.315Y-5.2795
X6.315Y-5.3189
X6.315Y-5.3583
X6.315Y-5.3976
X6.315Y-5.437
X6.315Y-5.4764
X6.315Y-5.5157
X6.315Y-5.5551
X6.315Y-5.5945
X6.315Y-5.6339
X6.315Y-5.6732
X6.315Y-5.7126
X6.3291Y-4.0776
X6.3441Y-4.0516
X6.352Y-3.4055
X6.352Y-3.4441
X6.352Y-3.4827
X6.352Y-3.5213
X6.352Y-3.5598
X6.352Y-3.5984
X6.352Y-3.637
X6.352Y-3.6756
X6.352Y-3.7142
X6.3791Y-4.7374
X6.3819Y-4.8071
X6.3906Y-3.4055
X6.3906Y-3.4441
X6.3906Y-3.4827
X6.3906Y-3.5213
X6.3906Y-3.5598
X6.3906Y-3.5984
X6.3906Y-3.637
X6.3906Y-3.6756
X6.3906Y-3.7142
X6.4291Y-3.4055
X6.4291Y-3.4441
X6.4291Y-3.4827
X6.4291Y-3.5213
X6.4291Y-3.5598
X6.4291Y-3.5984
X6.4291Y-3.637
X6.4291Y-3.6756
X6.4291Y-3.7142
X6.4449Y-3.8622
X6.4449Y-3.9016
X6.4606Y-4.2362
X6.4606Y-4.2756
X6.4606Y-4.315
X6.4606Y-4.3543
X6.4606Y-4.3937
X6.4606Y-4.5157
X6.4606Y-4.5551
X6.4606Y-4.5945
X6.4843Y-3.8622
X6.4843Y-3.9016
X6.4961Y-4.5354
X6.4961Y-4.5748
X6.5236Y-3.8622
X6.5236Y-3.9016
X6.5276Y-4.2362
X6.5276Y-4.2756
X6.5276Y-4.315
X6.5276Y-4.3543
X6.5276Y-4.3937
X6.563Y-3.8622
X6.563Y-3.9016
X6.5642Y-5.235
X6.7098Y-2.7173
X6.7402Y-4.7217
X6.7591Y-4.0142
X6.7594Y-4.1055
X6.7654Y-4.0512
X6.7661Y-3.5961
X6.7673Y-3.9827
X6.7768Y-3.7591
X6.7929Y-4.2933
X6.7945Y-3.7335
X6.7957Y-3.137
X6.7969Y-3.9465
X6.815Y-4.0913
X6.815Y-4.1264
X6.8327Y-3.9646
X6.8358Y-3.4764
X6.8898Y-4.2835
X6.8937Y-4.1717
X6.902Y-3.5594
X6.9035Y-4.202
X6.9157Y-4.6091
X6.9283Y-4.139
X6.9567Y-4.4898
X6.9701Y-4.3654
X7.0039Y-2.185
X7.0039Y-2.2323
X7.0142Y-3.7854
X7.015Y-3.7555
X7.0213Y-3.539
X7.0224Y-3.9846
X7.0224Y-4.0224
X7.0287Y-2.9193
X7.0287Y-3.9248
X7.0327Y-3.9555
X7.0449Y-4.3835
X7.0547Y-3.5
X7.0606Y-3.8571
X7.0709Y-4.5512
X7.0929Y-2.8008
X7.0961Y-3.8646
X7.1063Y-4.2008
X7.1126Y-3.8917
X7.1181Y-4.3307
X7.1335Y-3.1004
X7.1409Y-3.6185
X7.1469Y-2.5992
X7.1602Y-4.0646
X7.1606Y-4.0232
X7.1614Y-3.987
X7.1673Y-4.1047
X7.172Y-3.511
X7.1953Y-2.7906
X7.2331Y-3.1142
X7.2409Y-2.4846
X7.248Y-4.4386
X7.3004Y-3.8339
X7.3024Y-4.2209
X7.3031Y-4.2638
X7.3047Y-3.9087
X7.3217Y-4.3807
X7.3327Y-2.4839
X7.3343Y-2.6528
X7.3614Y-3.9587
X7.378Y-4.0591
X7.4472Y-4.2008
X7.4846Y-2.4823
T2
X4.5341Y-2.1848
X4.5341Y-5.3348
X5.9055Y-3.2283
X7.2341Y-2.1848
X7.2341Y-5.3348
T0
M30
