G04 #@! TF.FileFunction,Paste,Top*
%FSLAX46Y46*%
G04 Gerber Fmt 4.6, Leading zero omitted, Abs format (unit mm)*
G04 Created by KiCad (PCBNEW 4.0.6) date 03/22/18 13:33:18*
%MOMM*%
%LPD*%
G01*
G04 APERTURE LIST*
%ADD10C,0.100000*%
%ADD11R,2.500000X4.000000*%
%ADD12R,0.800000X4.600000*%
%ADD13R,5.250000X4.550000*%
%ADD14R,1.000000X1.250000*%
%ADD15R,1.250000X1.000000*%
%ADD16R,1.600000X1.000000*%
%ADD17R,1.000000X1.600000*%
%ADD18R,0.800000X0.750000*%
%ADD19R,0.750000X0.800000*%
%ADD20R,0.900000X0.800000*%
%ADD21R,0.600000X0.450000*%
%ADD22R,3.800000X2.000000*%
%ADD23R,1.500000X2.000000*%
%ADD24R,1.750000X0.450000*%
%ADD25R,5.000000X4.500000*%
%ADD26R,0.900000X0.500000*%
%ADD27R,0.500000X0.900000*%
%ADD28R,0.900000X2.500000*%
%ADD29R,1.300000X0.700000*%
%ADD30R,2.510000X1.000000*%
%ADD31R,8.000000X14.000000*%
G04 APERTURE END LIST*
D10*
D11*
X119510000Y-108610000D03*
X119510000Y-116610000D03*
D12*
X137410000Y-99755000D03*
X138680000Y-99755000D03*
X139950000Y-99755000D03*
X141220000Y-99755000D03*
X142490000Y-99755000D03*
X143760000Y-99755000D03*
X145030000Y-99755000D03*
D13*
X143995000Y-88180000D03*
X138445000Y-93030000D03*
X138445000Y-88180000D03*
X143995000Y-93030000D03*
D12*
X120270000Y-99785000D03*
X121540000Y-99785000D03*
X122810000Y-99785000D03*
X124080000Y-99785000D03*
X125350000Y-99785000D03*
X126620000Y-99785000D03*
X127890000Y-99785000D03*
D13*
X126855000Y-88210000D03*
X121305000Y-93060000D03*
X121305000Y-88210000D03*
X126855000Y-93060000D03*
D12*
X154590000Y-99775000D03*
X155860000Y-99775000D03*
X157130000Y-99775000D03*
X158400000Y-99775000D03*
X159670000Y-99775000D03*
X160940000Y-99775000D03*
X162210000Y-99775000D03*
D13*
X161175000Y-88200000D03*
X155625000Y-93050000D03*
X155625000Y-88200000D03*
X161175000Y-93050000D03*
D14*
X113630000Y-96620000D03*
X115630000Y-96620000D03*
D15*
X115790000Y-98340000D03*
X115790000Y-100340000D03*
D16*
X115850000Y-94130000D03*
X115850000Y-91130000D03*
D17*
X114210000Y-88990000D03*
X117210000Y-88990000D03*
X182600000Y-113830000D03*
X179600000Y-113830000D03*
D14*
X114740000Y-121870000D03*
X112740000Y-121870000D03*
X113450000Y-102040000D03*
X115450000Y-102040000D03*
D18*
X173890000Y-113770000D03*
X175390000Y-113770000D03*
D19*
X184110000Y-110010000D03*
X184110000Y-111510000D03*
X159190000Y-121850000D03*
X159190000Y-120350000D03*
D18*
X187460000Y-109970000D03*
X185960000Y-109970000D03*
D19*
X125870000Y-120600000D03*
X125870000Y-122100000D03*
D18*
X175000000Y-93140000D03*
X173500000Y-93140000D03*
X172780000Y-96690000D03*
X174280000Y-96690000D03*
X175330000Y-91760000D03*
X176830000Y-91760000D03*
X176620000Y-93320000D03*
X178120000Y-93320000D03*
D19*
X185820000Y-102060000D03*
X185820000Y-100560000D03*
D18*
X180920000Y-93320000D03*
X179420000Y-93320000D03*
D19*
X179260000Y-90590000D03*
X179260000Y-92090000D03*
D14*
X129550000Y-104920000D03*
X127550000Y-104920000D03*
D15*
X120100000Y-105000000D03*
X120100000Y-103000000D03*
D18*
X172780000Y-98130000D03*
X174280000Y-98130000D03*
D14*
X146900000Y-105190000D03*
X144900000Y-105190000D03*
D15*
X137200000Y-105000000D03*
X137200000Y-103000000D03*
D19*
X188120000Y-102070000D03*
X188120000Y-100570000D03*
D14*
X163710000Y-104980000D03*
X161710000Y-104980000D03*
D15*
X154400000Y-105100000D03*
X154400000Y-103100000D03*
D19*
X174400000Y-104460000D03*
X174400000Y-102960000D03*
X174420000Y-101640000D03*
X174420000Y-100140000D03*
D20*
X164890000Y-121830000D03*
X164890000Y-119930000D03*
X162890000Y-120880000D03*
X184070000Y-108090000D03*
X184070000Y-106190000D03*
X182070000Y-107140000D03*
X134490000Y-122070000D03*
X134490000Y-120170000D03*
X132490000Y-121120000D03*
D21*
X175730000Y-115530000D03*
X173630000Y-115530000D03*
D22*
X184900000Y-123250000D03*
D23*
X184900000Y-116950000D03*
X182600000Y-116950000D03*
X187200000Y-116950000D03*
D24*
X176500000Y-95355000D03*
X176500000Y-96005000D03*
X176500000Y-96655000D03*
X176500000Y-97305000D03*
X176500000Y-97955000D03*
X176500000Y-98605000D03*
X176500000Y-99255000D03*
X176500000Y-99905000D03*
X176500000Y-100555000D03*
X176500000Y-101205000D03*
X176500000Y-101855000D03*
X176500000Y-102505000D03*
X176500000Y-103155000D03*
X176500000Y-103805000D03*
X183700000Y-103805000D03*
X183700000Y-103155000D03*
X183700000Y-102505000D03*
X183700000Y-101855000D03*
X183700000Y-101205000D03*
X183700000Y-100555000D03*
X183700000Y-99905000D03*
X183700000Y-99255000D03*
X183700000Y-98605000D03*
X183700000Y-97955000D03*
X183700000Y-97305000D03*
X183700000Y-96655000D03*
X183700000Y-96005000D03*
X183700000Y-95355000D03*
D25*
X146720000Y-120140000D03*
X146720000Y-109640000D03*
D26*
X155770000Y-119310000D03*
X155770000Y-120810000D03*
X113740000Y-104120000D03*
X113740000Y-105620000D03*
X124430000Y-122140000D03*
X124430000Y-120640000D03*
X176880000Y-109800000D03*
X176880000Y-108300000D03*
D27*
X178120000Y-110010000D03*
X179620000Y-110010000D03*
D28*
X119880000Y-120940000D03*
X116980000Y-120940000D03*
D26*
X130850000Y-121750000D03*
X130850000Y-120250000D03*
D27*
X137380000Y-121740000D03*
X135880000Y-121740000D03*
X137370000Y-120210000D03*
X135870000Y-120210000D03*
D26*
X121390000Y-120280000D03*
X121390000Y-121780000D03*
X122880000Y-121780000D03*
X122880000Y-120280000D03*
X157620000Y-119550000D03*
X157620000Y-121050000D03*
X160800000Y-120340000D03*
X160800000Y-121840000D03*
D27*
X176710000Y-112730000D03*
X178210000Y-112730000D03*
X173420000Y-94700000D03*
X174920000Y-94700000D03*
X172530000Y-107750000D03*
X174030000Y-107750000D03*
D26*
X149690000Y-92230000D03*
X149690000Y-90730000D03*
X171450000Y-98370000D03*
X171450000Y-96870000D03*
X125650000Y-102790000D03*
X125650000Y-104290000D03*
X187400000Y-66750000D03*
X187400000Y-65250000D03*
D27*
X172930000Y-86940000D03*
X174430000Y-86940000D03*
D26*
X187400000Y-68050000D03*
X187400000Y-69550000D03*
X122050000Y-102790000D03*
X122050000Y-104290000D03*
X123460000Y-102790000D03*
X123460000Y-104290000D03*
D27*
X171870000Y-99630000D03*
X173370000Y-99630000D03*
X188050000Y-103990000D03*
X186550000Y-103990000D03*
D26*
X142850000Y-102770000D03*
X142850000Y-104270000D03*
X185100000Y-66750000D03*
X185100000Y-65250000D03*
X180300000Y-69550000D03*
X180300000Y-68050000D03*
X185100000Y-68050000D03*
X185100000Y-69550000D03*
X139240000Y-102770000D03*
X139240000Y-104270000D03*
X140640000Y-102770000D03*
X140640000Y-104270000D03*
D27*
X186520000Y-106010000D03*
X188020000Y-106010000D03*
X172530000Y-106230000D03*
X174030000Y-106230000D03*
D26*
X160010000Y-102840000D03*
X160010000Y-104340000D03*
X182700000Y-66750000D03*
X182700000Y-65250000D03*
X180300000Y-65250000D03*
X180300000Y-66750000D03*
X182700000Y-68050000D03*
X182700000Y-69550000D03*
X156400000Y-102840000D03*
X156400000Y-104340000D03*
X157820000Y-102840000D03*
X157820000Y-104340000D03*
X172910000Y-102930000D03*
X172910000Y-101430000D03*
D29*
X177900000Y-59050000D03*
X177900000Y-60950000D03*
D26*
X171840000Y-92350000D03*
X171840000Y-93850000D03*
D18*
X179780000Y-107910000D03*
X178280000Y-107910000D03*
D20*
X129310000Y-122100000D03*
X129310000Y-120200000D03*
X127310000Y-121150000D03*
X173840000Y-110280000D03*
X173840000Y-112180000D03*
X175840000Y-111230000D03*
D30*
X172555000Y-66530000D03*
X172555000Y-71610000D03*
X172555000Y-76690000D03*
X175865000Y-69070000D03*
X175865000Y-74150000D03*
D31*
X156855000Y-52444845D03*
X142055000Y-52444845D03*
X127300000Y-52444845D03*
X156855000Y-138555180D03*
X171655000Y-138555180D03*
X127255000Y-138555180D03*
X142055000Y-138555180D03*
X171655000Y-52444845D03*
D11*
X161170000Y-108710000D03*
X161170000Y-116710000D03*
X132630000Y-108630000D03*
X132630000Y-116630000D03*
M02*
