G04 #@! TF.FileFunction,Other,Comment*
%FSLAX46Y46*%
G04 Gerber Fmt 4.6, Leading zero omitted, Abs format (unit mm)*
G04 Created by KiCad (PCBNEW 4.0.6) date 06/19/18 10:33:54*
%MOMM*%
%LPD*%
G01*
G04 APERTURE LIST*
%ADD10C,0.100000*%
G04 APERTURE END LIST*
D10*
X174383332Y-61683333D02*
X174383332Y-62383333D01*
X174116666Y-62383333D01*
X174049999Y-62350000D01*
X174016666Y-62316667D01*
X173983332Y-62250000D01*
X173983332Y-62150000D01*
X174016666Y-62083333D01*
X174049999Y-62050000D01*
X174116666Y-62016667D01*
X174383332Y-62016667D01*
X173683332Y-62383333D02*
X173683332Y-61816667D01*
X173649999Y-61750000D01*
X173616666Y-61716667D01*
X173549999Y-61683333D01*
X173416666Y-61683333D01*
X173349999Y-61716667D01*
X173316666Y-61750000D01*
X173283332Y-61816667D01*
X173283332Y-62383333D01*
X172949999Y-61683333D02*
X172949999Y-62383333D01*
X172716666Y-61883333D01*
X172483333Y-62383333D01*
X172483333Y-61683333D01*
X172149999Y-61683333D02*
X172149999Y-62383333D01*
X171883333Y-62383333D01*
X171816666Y-62350000D01*
X171783333Y-62316667D01*
X171749999Y-62250000D01*
X171749999Y-62150000D01*
X171783333Y-62083333D01*
X171816666Y-62050000D01*
X171883333Y-62016667D01*
X172149999Y-62016667D01*
X171616666Y-61616667D02*
X171083333Y-61616667D01*
X170550000Y-62350000D02*
X170616666Y-62383333D01*
X170716666Y-62383333D01*
X170816666Y-62350000D01*
X170883333Y-62283333D01*
X170916666Y-62216667D01*
X170950000Y-62083333D01*
X170950000Y-61983333D01*
X170916666Y-61850000D01*
X170883333Y-61783333D01*
X170816666Y-61716667D01*
X170716666Y-61683333D01*
X170650000Y-61683333D01*
X170550000Y-61716667D01*
X170516666Y-61750000D01*
X170516666Y-61983333D01*
X170650000Y-61983333D01*
X170216666Y-61683333D02*
X170216666Y-62383333D01*
X169816666Y-61683333D01*
X169816666Y-62383333D01*
X169483333Y-61683333D02*
X169483333Y-62383333D01*
X169316667Y-62383333D01*
X169216667Y-62350000D01*
X169150000Y-62283333D01*
X169116667Y-62216667D01*
X169083333Y-62083333D01*
X169083333Y-61983333D01*
X169116667Y-61850000D01*
X169150000Y-61783333D01*
X169216667Y-61716667D01*
X169316667Y-61683333D01*
X169483333Y-61683333D01*
X159099999Y-61683333D02*
X159099999Y-62383333D01*
X158833333Y-62383333D01*
X158766666Y-62350000D01*
X158733333Y-62316667D01*
X158699999Y-62250000D01*
X158699999Y-62150000D01*
X158733333Y-62083333D01*
X158766666Y-62050000D01*
X158833333Y-62016667D01*
X159099999Y-62016667D01*
X158399999Y-61683333D02*
X158399999Y-62383333D01*
X158399999Y-62050000D02*
X157999999Y-62050000D01*
X157999999Y-61683333D02*
X157999999Y-62383333D01*
X157700000Y-61883333D02*
X157366666Y-61883333D01*
X157766666Y-61683333D02*
X157533333Y-62383333D01*
X157300000Y-61683333D01*
X157100000Y-61716667D02*
X157000000Y-61683333D01*
X156833333Y-61683333D01*
X156766666Y-61716667D01*
X156733333Y-61750000D01*
X156700000Y-61816667D01*
X156700000Y-61883333D01*
X156733333Y-61950000D01*
X156766666Y-61983333D01*
X156833333Y-62016667D01*
X156966666Y-62050000D01*
X157033333Y-62083333D01*
X157066666Y-62116667D01*
X157100000Y-62183333D01*
X157100000Y-62250000D01*
X157066666Y-62316667D01*
X157033333Y-62350000D01*
X156966666Y-62383333D01*
X156800000Y-62383333D01*
X156700000Y-62350000D01*
X156399999Y-62050000D02*
X156166666Y-62050000D01*
X156066666Y-61683333D02*
X156399999Y-61683333D01*
X156399999Y-62383333D01*
X156066666Y-62383333D01*
X155933333Y-61616667D02*
X155400000Y-61616667D01*
X155300000Y-62383333D02*
X154866667Y-62383333D01*
X155100000Y-62116667D01*
X155000000Y-62116667D01*
X154933333Y-62083333D01*
X154900000Y-62050000D01*
X154866667Y-61983333D01*
X154866667Y-61816667D01*
X154900000Y-61750000D01*
X154933333Y-61716667D01*
X155000000Y-61683333D01*
X155200000Y-61683333D01*
X155266667Y-61716667D01*
X155300000Y-61750000D01*
X144349999Y-61683333D02*
X144349999Y-62383333D01*
X144083333Y-62383333D01*
X144016666Y-62350000D01*
X143983333Y-62316667D01*
X143949999Y-62250000D01*
X143949999Y-62150000D01*
X143983333Y-62083333D01*
X144016666Y-62050000D01*
X144083333Y-62016667D01*
X144349999Y-62016667D01*
X143649999Y-61683333D02*
X143649999Y-62383333D01*
X143649999Y-62050000D02*
X143249999Y-62050000D01*
X143249999Y-61683333D02*
X143249999Y-62383333D01*
X142950000Y-61883333D02*
X142616666Y-61883333D01*
X143016666Y-61683333D02*
X142783333Y-62383333D01*
X142550000Y-61683333D01*
X142350000Y-61716667D02*
X142250000Y-61683333D01*
X142083333Y-61683333D01*
X142016666Y-61716667D01*
X141983333Y-61750000D01*
X141950000Y-61816667D01*
X141950000Y-61883333D01*
X141983333Y-61950000D01*
X142016666Y-61983333D01*
X142083333Y-62016667D01*
X142216666Y-62050000D01*
X142283333Y-62083333D01*
X142316666Y-62116667D01*
X142350000Y-62183333D01*
X142350000Y-62250000D01*
X142316666Y-62316667D01*
X142283333Y-62350000D01*
X142216666Y-62383333D01*
X142050000Y-62383333D01*
X141950000Y-62350000D01*
X141649999Y-62050000D02*
X141416666Y-62050000D01*
X141316666Y-61683333D02*
X141649999Y-61683333D01*
X141649999Y-62383333D01*
X141316666Y-62383333D01*
X141183333Y-61616667D02*
X140650000Y-61616667D01*
X140516667Y-62316667D02*
X140483333Y-62350000D01*
X140416667Y-62383333D01*
X140250000Y-62383333D01*
X140183333Y-62350000D01*
X140150000Y-62316667D01*
X140116667Y-62250000D01*
X140116667Y-62183333D01*
X140150000Y-62083333D01*
X140550000Y-61683333D01*
X140116667Y-61683333D01*
X129349999Y-61683333D02*
X129349999Y-62383333D01*
X129083333Y-62383333D01*
X129016666Y-62350000D01*
X128983333Y-62316667D01*
X128949999Y-62250000D01*
X128949999Y-62150000D01*
X128983333Y-62083333D01*
X129016666Y-62050000D01*
X129083333Y-62016667D01*
X129349999Y-62016667D01*
X128649999Y-61683333D02*
X128649999Y-62383333D01*
X128649999Y-62050000D02*
X128249999Y-62050000D01*
X128249999Y-61683333D02*
X128249999Y-62383333D01*
X127950000Y-61883333D02*
X127616666Y-61883333D01*
X128016666Y-61683333D02*
X127783333Y-62383333D01*
X127550000Y-61683333D01*
X127350000Y-61716667D02*
X127250000Y-61683333D01*
X127083333Y-61683333D01*
X127016666Y-61716667D01*
X126983333Y-61750000D01*
X126950000Y-61816667D01*
X126950000Y-61883333D01*
X126983333Y-61950000D01*
X127016666Y-61983333D01*
X127083333Y-62016667D01*
X127216666Y-62050000D01*
X127283333Y-62083333D01*
X127316666Y-62116667D01*
X127350000Y-62183333D01*
X127350000Y-62250000D01*
X127316666Y-62316667D01*
X127283333Y-62350000D01*
X127216666Y-62383333D01*
X127050000Y-62383333D01*
X126950000Y-62350000D01*
X126649999Y-62050000D02*
X126416666Y-62050000D01*
X126316666Y-61683333D02*
X126649999Y-61683333D01*
X126649999Y-62383333D01*
X126316666Y-62383333D01*
X126183333Y-61616667D02*
X125650000Y-61616667D01*
X125116667Y-61683333D02*
X125516667Y-61683333D01*
X125316667Y-61683333D02*
X125316667Y-62383333D01*
X125383333Y-62283333D01*
X125450000Y-62216667D01*
X125516667Y-62183333D01*
X169783334Y-129000000D02*
X169750000Y-129033333D01*
X169650000Y-129066667D01*
X169583334Y-129066667D01*
X169483334Y-129033333D01*
X169416667Y-128966667D01*
X169383334Y-128900000D01*
X169350000Y-128766667D01*
X169350000Y-128666667D01*
X169383334Y-128533333D01*
X169416667Y-128466667D01*
X169483334Y-128400000D01*
X169583334Y-128366667D01*
X169650000Y-128366667D01*
X169750000Y-128400000D01*
X169783334Y-128433333D01*
X170216667Y-128366667D02*
X170350000Y-128366667D01*
X170416667Y-128400000D01*
X170483334Y-128466667D01*
X170516667Y-128600000D01*
X170516667Y-128833333D01*
X170483334Y-128966667D01*
X170416667Y-129033333D01*
X170350000Y-129066667D01*
X170216667Y-129066667D01*
X170150000Y-129033333D01*
X170083334Y-128966667D01*
X170050000Y-128833333D01*
X170050000Y-128600000D01*
X170083334Y-128466667D01*
X170150000Y-128400000D01*
X170216667Y-128366667D01*
X170816667Y-129066667D02*
X170816667Y-128366667D01*
X171050000Y-128866667D01*
X171283333Y-128366667D01*
X171283333Y-129066667D01*
X171616667Y-129066667D02*
X171616667Y-128366667D01*
X171850000Y-128866667D01*
X172083333Y-128366667D01*
X172083333Y-129066667D01*
X172383333Y-128866667D02*
X172716667Y-128866667D01*
X172316667Y-129066667D02*
X172550000Y-128366667D01*
X172783333Y-129066667D01*
X173016667Y-129066667D02*
X173016667Y-128366667D01*
X173416667Y-129066667D01*
X173416667Y-128366667D01*
X173750000Y-129066667D02*
X173750000Y-128366667D01*
X173916666Y-128366667D01*
X174016666Y-128400000D01*
X174083333Y-128466667D01*
X174116666Y-128533333D01*
X174150000Y-128666667D01*
X174150000Y-128766667D01*
X174116666Y-128900000D01*
X174083333Y-128966667D01*
X174016666Y-129033333D01*
X173916666Y-129066667D01*
X173750000Y-129066667D01*
X155383334Y-128400000D02*
X155316668Y-128366667D01*
X155216668Y-128366667D01*
X155116668Y-128400000D01*
X155050001Y-128466667D01*
X155016668Y-128533333D01*
X154983334Y-128666667D01*
X154983334Y-128766667D01*
X155016668Y-128900000D01*
X155050001Y-128966667D01*
X155116668Y-129033333D01*
X155216668Y-129066667D01*
X155283334Y-129066667D01*
X155383334Y-129033333D01*
X155416668Y-129000000D01*
X155416668Y-128766667D01*
X155283334Y-128766667D01*
X156116668Y-129066667D02*
X155883334Y-128733333D01*
X155716668Y-129066667D02*
X155716668Y-128366667D01*
X155983334Y-128366667D01*
X156050001Y-128400000D01*
X156083334Y-128433333D01*
X156116668Y-128500000D01*
X156116668Y-128600000D01*
X156083334Y-128666667D01*
X156050001Y-128700000D01*
X155983334Y-128733333D01*
X155716668Y-128733333D01*
X156550001Y-128366667D02*
X156683334Y-128366667D01*
X156750001Y-128400000D01*
X156816668Y-128466667D01*
X156850001Y-128600000D01*
X156850001Y-128833333D01*
X156816668Y-128966667D01*
X156750001Y-129033333D01*
X156683334Y-129066667D01*
X156550001Y-129066667D01*
X156483334Y-129033333D01*
X156416668Y-128966667D01*
X156383334Y-128833333D01*
X156383334Y-128600000D01*
X156416668Y-128466667D01*
X156483334Y-128400000D01*
X156550001Y-128366667D01*
X157150001Y-128366667D02*
X157150001Y-128933333D01*
X157183334Y-129000000D01*
X157216667Y-129033333D01*
X157283334Y-129066667D01*
X157416667Y-129066667D01*
X157483334Y-129033333D01*
X157516667Y-129000000D01*
X157550001Y-128933333D01*
X157550001Y-128366667D01*
X157883334Y-129066667D02*
X157883334Y-128366667D01*
X158283334Y-129066667D01*
X158283334Y-128366667D01*
X158616667Y-129066667D02*
X158616667Y-128366667D01*
X158783333Y-128366667D01*
X158883333Y-128400000D01*
X158950000Y-128466667D01*
X158983333Y-128533333D01*
X159016667Y-128666667D01*
X159016667Y-128766667D01*
X158983333Y-128900000D01*
X158950000Y-128966667D01*
X158883333Y-129033333D01*
X158783333Y-129066667D01*
X158616667Y-129066667D01*
X140583334Y-128366667D02*
X140816667Y-129066667D01*
X141050000Y-128366667D01*
X141516667Y-128700000D02*
X141616667Y-128733333D01*
X141650000Y-128766667D01*
X141683334Y-128833333D01*
X141683334Y-128933333D01*
X141650000Y-129000000D01*
X141616667Y-129033333D01*
X141550000Y-129066667D01*
X141283334Y-129066667D01*
X141283334Y-128366667D01*
X141516667Y-128366667D01*
X141583334Y-128400000D01*
X141616667Y-128433333D01*
X141650000Y-128500000D01*
X141650000Y-128566667D01*
X141616667Y-128633333D01*
X141583334Y-128666667D01*
X141516667Y-128700000D01*
X141283334Y-128700000D01*
X141950000Y-128866667D02*
X142283334Y-128866667D01*
X141883334Y-129066667D02*
X142116667Y-128366667D01*
X142350000Y-129066667D01*
X142483334Y-128366667D02*
X142883334Y-128366667D01*
X142683334Y-129066667D02*
X142683334Y-128366667D01*
X143016667Y-128366667D02*
X143416667Y-128366667D01*
X143216667Y-129066667D02*
X143216667Y-128366667D01*
X124400001Y-129066667D02*
X124400001Y-128366667D01*
X124566667Y-128366667D01*
X124666667Y-128400000D01*
X124733334Y-128466667D01*
X124766667Y-128533333D01*
X124800001Y-128666667D01*
X124800001Y-128766667D01*
X124766667Y-128900000D01*
X124733334Y-128966667D01*
X124666667Y-129033333D01*
X124566667Y-129066667D01*
X124400001Y-129066667D01*
X125100001Y-129066667D02*
X125100001Y-128366667D01*
X125400000Y-128866667D02*
X125733334Y-128866667D01*
X125333334Y-129066667D02*
X125566667Y-128366667D01*
X125800000Y-129066667D01*
X126400000Y-128400000D02*
X126333334Y-128366667D01*
X126233334Y-128366667D01*
X126133334Y-128400000D01*
X126066667Y-128466667D01*
X126033334Y-128533333D01*
X126000000Y-128666667D01*
X126000000Y-128766667D01*
X126033334Y-128900000D01*
X126066667Y-128966667D01*
X126133334Y-129033333D01*
X126233334Y-129066667D01*
X126300000Y-129066667D01*
X126400000Y-129033333D01*
X126433334Y-129000000D01*
X126433334Y-128766667D01*
X126300000Y-128766667D01*
X126733334Y-129066667D02*
X126733334Y-128366667D01*
X127133334Y-129066667D01*
X127133334Y-128366667D01*
X127600000Y-128366667D02*
X127733333Y-128366667D01*
X127800000Y-128400000D01*
X127866667Y-128466667D01*
X127900000Y-128600000D01*
X127900000Y-128833333D01*
X127866667Y-128966667D01*
X127800000Y-129033333D01*
X127733333Y-129066667D01*
X127600000Y-129066667D01*
X127533333Y-129033333D01*
X127466667Y-128966667D01*
X127433333Y-128833333D01*
X127433333Y-128600000D01*
X127466667Y-128466667D01*
X127533333Y-128400000D01*
X127600000Y-128366667D01*
X128166666Y-129033333D02*
X128266666Y-129066667D01*
X128433333Y-129066667D01*
X128500000Y-129033333D01*
X128533333Y-129000000D01*
X128566666Y-128933333D01*
X128566666Y-128866667D01*
X128533333Y-128800000D01*
X128500000Y-128766667D01*
X128433333Y-128733333D01*
X128300000Y-128700000D01*
X128233333Y-128666667D01*
X128200000Y-128633333D01*
X128166666Y-128566667D01*
X128166666Y-128500000D01*
X128200000Y-128433333D01*
X128233333Y-128400000D01*
X128300000Y-128366667D01*
X128466666Y-128366667D01*
X128566666Y-128400000D01*
X128766667Y-128366667D02*
X129166667Y-128366667D01*
X128966667Y-129066667D02*
X128966667Y-128366667D01*
X129400000Y-129066667D02*
X129400000Y-128366667D01*
X130133333Y-129000000D02*
X130099999Y-129033333D01*
X129999999Y-129066667D01*
X129933333Y-129066667D01*
X129833333Y-129033333D01*
X129766666Y-128966667D01*
X129733333Y-128900000D01*
X129699999Y-128766667D01*
X129699999Y-128666667D01*
X129733333Y-128533333D01*
X129766666Y-128466667D01*
X129833333Y-128400000D01*
X129933333Y-128366667D01*
X129999999Y-128366667D01*
X130099999Y-128400000D01*
X130133333Y-128433333D01*
X179666667Y-152041667D02*
X179666667Y-151341667D01*
X179666667Y-151675000D02*
X180066667Y-151675000D01*
X180066667Y-152041667D02*
X180066667Y-151341667D01*
X180400000Y-152041667D02*
X180400000Y-151341667D01*
X180666666Y-151341667D01*
X180733333Y-151375000D01*
X180766666Y-151408333D01*
X180800000Y-151475000D01*
X180800000Y-151575000D01*
X180766666Y-151641667D01*
X180733333Y-151675000D01*
X180666666Y-151708333D01*
X180400000Y-151708333D01*
X181866666Y-151675000D02*
X181966666Y-151708333D01*
X181999999Y-151741667D01*
X182033333Y-151808333D01*
X182033333Y-151908333D01*
X181999999Y-151975000D01*
X181966666Y-152008333D01*
X181899999Y-152041667D01*
X181633333Y-152041667D01*
X181633333Y-151341667D01*
X181866666Y-151341667D01*
X181933333Y-151375000D01*
X181966666Y-151408333D01*
X181999999Y-151475000D01*
X181999999Y-151541667D01*
X181966666Y-151608333D01*
X181933333Y-151641667D01*
X181866666Y-151675000D01*
X181633333Y-151675000D01*
X182666666Y-152041667D02*
X182333333Y-152041667D01*
X182333333Y-151341667D01*
X182900000Y-152041667D02*
X182900000Y-151341667D01*
X183066666Y-151341667D01*
X183166666Y-151375000D01*
X183233333Y-151441667D01*
X183266666Y-151508333D01*
X183300000Y-151641667D01*
X183300000Y-151741667D01*
X183266666Y-151875000D01*
X183233333Y-151941667D01*
X183166666Y-152008333D01*
X183066666Y-152041667D01*
X182900000Y-152041667D01*
X184000000Y-151975000D02*
X183966666Y-152008333D01*
X183866666Y-152041667D01*
X183800000Y-152041667D01*
X183700000Y-152008333D01*
X183633333Y-151941667D01*
X183600000Y-151875000D01*
X183566666Y-151741667D01*
X183566666Y-151641667D01*
X183600000Y-151508333D01*
X183633333Y-151441667D01*
X183700000Y-151375000D01*
X183800000Y-151341667D01*
X183866666Y-151341667D01*
X183966666Y-151375000D01*
X184000000Y-151408333D01*
X184833333Y-152041667D02*
X184833333Y-151341667D01*
X185099999Y-151341667D01*
X185166666Y-151375000D01*
X185199999Y-151408333D01*
X185233333Y-151475000D01*
X185233333Y-151575000D01*
X185199999Y-151641667D01*
X185166666Y-151675000D01*
X185099999Y-151708333D01*
X184833333Y-151708333D01*
X185933333Y-151975000D02*
X185899999Y-152008333D01*
X185799999Y-152041667D01*
X185733333Y-152041667D01*
X185633333Y-152008333D01*
X185566666Y-151941667D01*
X185533333Y-151875000D01*
X185499999Y-151741667D01*
X185499999Y-151641667D01*
X185533333Y-151508333D01*
X185566666Y-151441667D01*
X185633333Y-151375000D01*
X185733333Y-151341667D01*
X185799999Y-151341667D01*
X185899999Y-151375000D01*
X185933333Y-151408333D01*
X186466666Y-151675000D02*
X186566666Y-151708333D01*
X186599999Y-151741667D01*
X186633333Y-151808333D01*
X186633333Y-151908333D01*
X186599999Y-151975000D01*
X186566666Y-152008333D01*
X186499999Y-152041667D01*
X186233333Y-152041667D01*
X186233333Y-151341667D01*
X186466666Y-151341667D01*
X186533333Y-151375000D01*
X186566666Y-151408333D01*
X186599999Y-151475000D01*
X186599999Y-151541667D01*
X186566666Y-151608333D01*
X186533333Y-151641667D01*
X186466666Y-151675000D01*
X186233333Y-151675000D01*
X186966666Y-152008333D02*
X186966666Y-152041667D01*
X186933333Y-152108333D01*
X186899999Y-152141667D01*
X187733332Y-151575000D02*
X187899999Y-152041667D01*
X188066665Y-151575000D01*
X188699998Y-152041667D02*
X188299998Y-152041667D01*
X188499998Y-152041667D02*
X188499998Y-151341667D01*
X188433332Y-151441667D01*
X188366665Y-151508333D01*
X188299998Y-151541667D01*
X188999999Y-151975000D02*
X189033332Y-152008333D01*
X188999999Y-152041667D01*
X188966665Y-152008333D01*
X188999999Y-151975000D01*
X188999999Y-152041667D01*
X189466665Y-151341667D02*
X189533332Y-151341667D01*
X189599998Y-151375000D01*
X189633332Y-151408333D01*
X189666665Y-151475000D01*
X189699998Y-151608333D01*
X189699998Y-151775000D01*
X189666665Y-151908333D01*
X189633332Y-151975000D01*
X189599998Y-152008333D01*
X189533332Y-152041667D01*
X189466665Y-152041667D01*
X189399998Y-152008333D01*
X189366665Y-151975000D01*
X189333332Y-151908333D01*
X189299998Y-151775000D01*
X189299998Y-151608333D01*
X189333332Y-151475000D01*
X189366665Y-151408333D01*
X189399998Y-151375000D01*
X189466665Y-151341667D01*
X179566667Y-152491667D02*
X179966667Y-152491667D01*
X179766667Y-153191667D02*
X179766667Y-152491667D01*
X180200000Y-153191667D02*
X180200000Y-152491667D01*
X181033332Y-152991667D02*
X181366666Y-152991667D01*
X180966666Y-153191667D02*
X181199999Y-152491667D01*
X181433332Y-153191667D01*
X181666666Y-152491667D02*
X181666666Y-153058333D01*
X181699999Y-153125000D01*
X181733332Y-153158333D01*
X181799999Y-153191667D01*
X181933332Y-153191667D01*
X181999999Y-153158333D01*
X182033332Y-153125000D01*
X182066666Y-153058333D01*
X182066666Y-152491667D01*
X182299999Y-152491667D02*
X182699999Y-152491667D01*
X182499999Y-153191667D02*
X182499999Y-152491667D01*
X183066665Y-152491667D02*
X183199998Y-152491667D01*
X183266665Y-152525000D01*
X183333332Y-152591667D01*
X183366665Y-152725000D01*
X183366665Y-152958333D01*
X183333332Y-153091667D01*
X183266665Y-153158333D01*
X183199998Y-153191667D01*
X183066665Y-153191667D01*
X182999998Y-153158333D01*
X182933332Y-153091667D01*
X182899998Y-152958333D01*
X182899998Y-152725000D01*
X182933332Y-152591667D01*
X182999998Y-152525000D01*
X183066665Y-152491667D01*
X183666665Y-153191667D02*
X183666665Y-152491667D01*
X183899998Y-152991667D01*
X184133331Y-152491667D01*
X184133331Y-153191667D01*
X184599998Y-152491667D02*
X184733331Y-152491667D01*
X184799998Y-152525000D01*
X184866665Y-152591667D01*
X184899998Y-152725000D01*
X184899998Y-152958333D01*
X184866665Y-153091667D01*
X184799998Y-153158333D01*
X184733331Y-153191667D01*
X184599998Y-153191667D01*
X184533331Y-153158333D01*
X184466665Y-153091667D01*
X184433331Y-152958333D01*
X184433331Y-152725000D01*
X184466665Y-152591667D01*
X184533331Y-152525000D01*
X184599998Y-152491667D01*
X185099998Y-152491667D02*
X185499998Y-152491667D01*
X185299998Y-153191667D02*
X185299998Y-152491667D01*
X185733331Y-153191667D02*
X185733331Y-152491667D01*
X185966664Y-152491667D02*
X186199997Y-153191667D01*
X186433330Y-152491667D01*
X186666664Y-152825000D02*
X186899997Y-152825000D01*
X186999997Y-153191667D02*
X186666664Y-153191667D01*
X186666664Y-152491667D01*
X186999997Y-152491667D01*
X187333330Y-153158333D02*
X187333330Y-153191667D01*
X187299997Y-153258333D01*
X187266663Y-153291667D01*
X188499996Y-152491667D02*
X188166663Y-152491667D01*
X188133329Y-152825000D01*
X188166663Y-152791667D01*
X188233329Y-152758333D01*
X188399996Y-152758333D01*
X188466663Y-152791667D01*
X188499996Y-152825000D01*
X188533329Y-152891667D01*
X188533329Y-153058333D01*
X188499996Y-153125000D01*
X188466663Y-153158333D01*
X188399996Y-153191667D01*
X188233329Y-153191667D01*
X188166663Y-153158333D01*
X188133329Y-153125000D01*
X189333330Y-152458333D02*
X188733330Y-153358333D01*
X189933329Y-153191667D02*
X189533329Y-153191667D01*
X189733329Y-153191667D02*
X189733329Y-152491667D01*
X189666663Y-152591667D01*
X189599996Y-152658333D01*
X189533329Y-152691667D01*
X190333330Y-152791667D02*
X190266663Y-152758333D01*
X190233330Y-152725000D01*
X190199996Y-152658333D01*
X190199996Y-152625000D01*
X190233330Y-152558333D01*
X190266663Y-152525000D01*
X190333330Y-152491667D01*
X190466663Y-152491667D01*
X190533330Y-152525000D01*
X190566663Y-152558333D01*
X190599996Y-152625000D01*
X190599996Y-152658333D01*
X190566663Y-152725000D01*
X190533330Y-152758333D01*
X190466663Y-152791667D01*
X190333330Y-152791667D01*
X190266663Y-152825000D01*
X190233330Y-152858333D01*
X190199996Y-152925000D01*
X190199996Y-153058333D01*
X190233330Y-153125000D01*
X190266663Y-153158333D01*
X190333330Y-153191667D01*
X190466663Y-153191667D01*
X190533330Y-153158333D01*
X190566663Y-153125000D01*
X190599996Y-153058333D01*
X190599996Y-152925000D01*
X190566663Y-152858333D01*
X190533330Y-152825000D01*
X190466663Y-152791667D01*
M02*
