G04 #@! TF.FileFunction,Copper,L4,Bot,Signal*
%FSLAX46Y46*%
G04 Gerber Fmt 4.6, Leading zero omitted, Abs format (unit mm)*
G04 Created by KiCad (PCBNEW 4.0.6) date 06/19/18 10:33:54*
%MOMM*%
%LPD*%
G01*
G04 APERTURE LIST*
%ADD10C,0.100000*%
%ADD11C,0.500000*%
%ADD12C,1.016000*%
%ADD13C,6.000000*%
%ADD14C,0.254000*%
%ADD15C,0.340000*%
G04 APERTURE END LIST*
D10*
D11*
X177900000Y-56700000D03*
X177900000Y-55500000D03*
X122000000Y-107400000D03*
X166700000Y-99100000D03*
X166700000Y-98100000D03*
X165700000Y-99100000D03*
X165700000Y-98100000D03*
X164700000Y-99100000D03*
X164700000Y-98100000D03*
X163700000Y-99100000D03*
X163700000Y-98100000D03*
X147400000Y-100500000D03*
X147400000Y-99500000D03*
X147400000Y-101500000D03*
X147400000Y-98500000D03*
X146500000Y-101000000D03*
X146500000Y-100000000D03*
X146500000Y-99000000D03*
X146500000Y-98000000D03*
X130200000Y-101500000D03*
X130200000Y-100500000D03*
X130200000Y-99500000D03*
X130200000Y-98500000D03*
X129300000Y-101000000D03*
X129300000Y-100000000D03*
X129300000Y-99000000D03*
X129300000Y-98000000D03*
X152300000Y-102300000D03*
X152300000Y-101300000D03*
X152300000Y-100300000D03*
X152300000Y-99300000D03*
X152300000Y-98300000D03*
X117500000Y-102000000D03*
X117500000Y-101000000D03*
X117500000Y-100000000D03*
X117500000Y-99000000D03*
X117500000Y-98000000D03*
X135100000Y-102300000D03*
X135100000Y-101300000D03*
X135100000Y-100300000D03*
X135100000Y-99300000D03*
X135100000Y-98300000D03*
X136000000Y-97800000D03*
X160400000Y-145100000D03*
X153400000Y-145100000D03*
X160400000Y-144100000D03*
X153400000Y-144100000D03*
X160400000Y-143100000D03*
X153400000Y-143100000D03*
X160400000Y-142100000D03*
X153400000Y-142100000D03*
X160400000Y-141100000D03*
X153400000Y-141100000D03*
X160400000Y-140100000D03*
X153400000Y-140100000D03*
X160400000Y-139100000D03*
X153400000Y-139100000D03*
X160400000Y-138100000D03*
X153400000Y-138100000D03*
X160400000Y-137100000D03*
X153400000Y-137100000D03*
X160400000Y-136100000D03*
X153400000Y-136100000D03*
X160400000Y-135100000D03*
X153400000Y-135100000D03*
X160400000Y-134100000D03*
X153400000Y-134100000D03*
X160400000Y-133100000D03*
X153400000Y-133100000D03*
X160400000Y-132100000D03*
X153400000Y-132100000D03*
X145600000Y-145100000D03*
X138600000Y-145100000D03*
X145600000Y-144100000D03*
X138600000Y-144100000D03*
X145600000Y-143100000D03*
X138600000Y-143100000D03*
X145600000Y-142100000D03*
X138600000Y-142100000D03*
X145600000Y-141100000D03*
X138600000Y-141100000D03*
X145600000Y-140100000D03*
X138600000Y-140100000D03*
X145600000Y-139100000D03*
X138600000Y-139100000D03*
X145600000Y-138100000D03*
X138600000Y-138100000D03*
X145600000Y-137100000D03*
X138600000Y-137100000D03*
X145600000Y-136100000D03*
X138600000Y-136100000D03*
X145600000Y-135100000D03*
X138600000Y-135100000D03*
X145600000Y-134100000D03*
X138600000Y-134100000D03*
X145600000Y-133100000D03*
X138600000Y-133100000D03*
X145600000Y-132100000D03*
X138600000Y-132100000D03*
X160400000Y-59000000D03*
X153400000Y-59000000D03*
X160400000Y-58000000D03*
X153400000Y-58000000D03*
X160400000Y-57000000D03*
X153400000Y-57000000D03*
X160400000Y-56000000D03*
X153400000Y-56000000D03*
X160400000Y-55000000D03*
X153400000Y-55000000D03*
X160400000Y-54000000D03*
X153400000Y-54000000D03*
X160400000Y-53000000D03*
X153400000Y-53000000D03*
X160400000Y-52000000D03*
X153400000Y-52000000D03*
X160400000Y-51000000D03*
X153400000Y-51000000D03*
X160400000Y-50000000D03*
X153400000Y-50000000D03*
X160400000Y-49000000D03*
X153400000Y-49000000D03*
X160400000Y-48000000D03*
X153400000Y-48000000D03*
X160400000Y-47000000D03*
X153400000Y-47000000D03*
X160400000Y-46000000D03*
X153400000Y-46000000D03*
X145600000Y-59000000D03*
X138600000Y-59000000D03*
X145600000Y-58000000D03*
X138600000Y-58000000D03*
X145600000Y-57000000D03*
X138600000Y-57000000D03*
X145600000Y-56000000D03*
X138600000Y-56000000D03*
X145600000Y-55000000D03*
X138600000Y-55000000D03*
X145600000Y-54000000D03*
X138600000Y-54000000D03*
X145600000Y-53000000D03*
X138600000Y-53000000D03*
X145600000Y-52000000D03*
X138600000Y-52000000D03*
X145600000Y-51000000D03*
X138600000Y-51000000D03*
X145600000Y-50000000D03*
X138600000Y-50000000D03*
X145600000Y-49000000D03*
X138600000Y-49000000D03*
X145600000Y-48000000D03*
X138600000Y-48000000D03*
X145600000Y-47000000D03*
X138600000Y-47000000D03*
X145600000Y-46000000D03*
X138600000Y-46000000D03*
X130800000Y-59000000D03*
X123800000Y-59000000D03*
X130800000Y-58000000D03*
X123800000Y-58000000D03*
X130800000Y-57000000D03*
X123800000Y-57000000D03*
X130800000Y-56000000D03*
X123800000Y-56000000D03*
X130800000Y-55000000D03*
X123800000Y-55000000D03*
X130800000Y-54000000D03*
X123800000Y-54000000D03*
X130800000Y-53000000D03*
X123800000Y-53000000D03*
X130800000Y-52000000D03*
X123800000Y-52000000D03*
X130800000Y-51000000D03*
X123800000Y-51000000D03*
X130800000Y-50000000D03*
X123800000Y-50000000D03*
X130800000Y-49000000D03*
X123800000Y-49000000D03*
X130800000Y-48000000D03*
X123800000Y-48000000D03*
X130800000Y-47000000D03*
X123800000Y-47000000D03*
X130800000Y-46000000D03*
X123800000Y-46000000D03*
X122000000Y-111400000D03*
X122000000Y-110400000D03*
X122000000Y-109400000D03*
X122000000Y-108400000D03*
X179600000Y-115600000D03*
X180800000Y-110000000D03*
X175000000Y-108800000D03*
X179190000Y-88900000D03*
X175310000Y-90410000D03*
X173550000Y-100700000D03*
X178530000Y-99690000D03*
X187400000Y-103100000D03*
X185500000Y-108300000D03*
X162100000Y-122100000D03*
X132700000Y-119900000D03*
X165000000Y-116200000D03*
X165000000Y-115200000D03*
X164100000Y-116700000D03*
X164100000Y-115700000D03*
X164100000Y-114700000D03*
X158800000Y-116200000D03*
X158800000Y-115200000D03*
X158000000Y-116700000D03*
X158000000Y-115700000D03*
X158000000Y-114700000D03*
X141800000Y-117700000D03*
X141800000Y-116700000D03*
X141800000Y-115700000D03*
X141800000Y-114700000D03*
X129700000Y-117700000D03*
X129700000Y-116700000D03*
X129700000Y-115700000D03*
X129700000Y-114700000D03*
X122700000Y-117200000D03*
X122700000Y-116200000D03*
X122700000Y-115200000D03*
X121800000Y-117700000D03*
X121800000Y-116700000D03*
X121800000Y-115700000D03*
X121800000Y-114700000D03*
X116600000Y-117200000D03*
X116600000Y-116200000D03*
X116600000Y-115200000D03*
X117500000Y-117700000D03*
X117500000Y-116700000D03*
X117500000Y-115700000D03*
X117500000Y-114700000D03*
X125900000Y-119500000D03*
X118500000Y-120900000D03*
X112700000Y-123500000D03*
X160760000Y-103570000D03*
X143800000Y-103600000D03*
X126700000Y-103800000D03*
X165800000Y-111600000D03*
X165800000Y-110600000D03*
X165800000Y-109600000D03*
X165800000Y-108600000D03*
X165800000Y-107600000D03*
X153800000Y-122600000D03*
X152800000Y-122600000D03*
X151800000Y-122600000D03*
X150800000Y-122600000D03*
X153800000Y-121000000D03*
X152800000Y-121000000D03*
X151800000Y-121000000D03*
X150800000Y-121000000D03*
X153800000Y-120000000D03*
X152800000Y-120000000D03*
X151800000Y-120000000D03*
X143000000Y-122600000D03*
X142000000Y-122600000D03*
X141000000Y-122600000D03*
X150800000Y-120000000D03*
X143000000Y-120000000D03*
X142000000Y-121000000D03*
X142000000Y-120000000D03*
X143000000Y-121000000D03*
X141000000Y-121000000D03*
X141000000Y-120000000D03*
X140000000Y-122600000D03*
X140000000Y-121000000D03*
X140000000Y-120000000D03*
X164100000Y-111600000D03*
X164100000Y-110600000D03*
X164100000Y-109600000D03*
X164100000Y-108600000D03*
X164100000Y-107600000D03*
X158000000Y-111600000D03*
X158000000Y-110600000D03*
X158000000Y-109600000D03*
X158000000Y-108600000D03*
X158000000Y-107600000D03*
X151900000Y-111600000D03*
X151900000Y-110600000D03*
X151900000Y-109600000D03*
X151900000Y-108600000D03*
X151900000Y-107600000D03*
X150500000Y-111600000D03*
X150500000Y-110600000D03*
X150500000Y-109600000D03*
X150500000Y-108600000D03*
X150500000Y-107600000D03*
X142500000Y-111600000D03*
X142500000Y-110600000D03*
X142500000Y-109600000D03*
X142500000Y-108600000D03*
X142500000Y-107600000D03*
X141000000Y-111600000D03*
X141000000Y-110600000D03*
X141000000Y-109600000D03*
X141000000Y-108600000D03*
X141000000Y-107600000D03*
X128800000Y-111400000D03*
X128800000Y-110400000D03*
X128800000Y-109400000D03*
X128800000Y-108400000D03*
X128800000Y-107400000D03*
X127300000Y-111400000D03*
X127300000Y-110400000D03*
X127300000Y-109400000D03*
X127300000Y-108400000D03*
X127300000Y-107400000D03*
X117100000Y-111400000D03*
X117100000Y-110400000D03*
X117100000Y-109400000D03*
X117100000Y-108400000D03*
X117100000Y-107400000D03*
X117100000Y-106400000D03*
X117100000Y-105400000D03*
X117100000Y-104400000D03*
X113600000Y-94840000D03*
X113600000Y-93640000D03*
X118500000Y-102000000D03*
X118500000Y-101000000D03*
X118500000Y-100000000D03*
X118500000Y-99000000D03*
X118500000Y-98000000D03*
X136000000Y-101800000D03*
X136000000Y-100800000D03*
X136000000Y-99800000D03*
X136000000Y-98800000D03*
X153200000Y-101800000D03*
X153200000Y-100800000D03*
X153200000Y-99800000D03*
X153200000Y-98800000D03*
X153200000Y-97800000D03*
X151000000Y-90700000D03*
X129000000Y-94340000D03*
X129000000Y-93360000D03*
X129000000Y-92380000D03*
X129000000Y-91400000D03*
X129000000Y-90420000D03*
X129000000Y-89440000D03*
X129000000Y-88460000D03*
X129000000Y-87480000D03*
X129000000Y-86500000D03*
X128020000Y-94340000D03*
X128020000Y-93360000D03*
X128020000Y-92380000D03*
X128020000Y-91400000D03*
X128020000Y-90420000D03*
X128020000Y-89440000D03*
X128020000Y-88460000D03*
X128020000Y-87480000D03*
X128020000Y-86500000D03*
X127040000Y-94340000D03*
X127040000Y-93360000D03*
X127040000Y-92380000D03*
X127040000Y-91400000D03*
X127040000Y-90420000D03*
X127040000Y-89440000D03*
X127040000Y-88460000D03*
X127040000Y-87480000D03*
X127040000Y-86500000D03*
X126060000Y-94340000D03*
X126060000Y-93360000D03*
X126060000Y-92380000D03*
X126060000Y-91400000D03*
X126060000Y-90420000D03*
X126060000Y-89440000D03*
X126060000Y-88460000D03*
X126060000Y-87480000D03*
X126060000Y-86500000D03*
X125080000Y-94340000D03*
X125080000Y-93360000D03*
X125080000Y-92380000D03*
X125080000Y-91400000D03*
X125080000Y-90420000D03*
X125080000Y-89440000D03*
X125080000Y-88460000D03*
X125080000Y-87480000D03*
X125080000Y-86500000D03*
X124100000Y-94340000D03*
X124100000Y-93360000D03*
X124100000Y-92380000D03*
X124100000Y-91400000D03*
X124100000Y-90420000D03*
X124100000Y-89440000D03*
X124100000Y-88460000D03*
X124100000Y-87480000D03*
X124100000Y-86500000D03*
X123120000Y-94340000D03*
X123120000Y-93360000D03*
X123120000Y-92380000D03*
X123120000Y-91400000D03*
X123120000Y-90420000D03*
X123120000Y-89440000D03*
X123120000Y-88460000D03*
X123120000Y-87480000D03*
X123120000Y-86500000D03*
X122140000Y-94340000D03*
X122140000Y-93360000D03*
X122140000Y-92380000D03*
X122140000Y-91400000D03*
X122140000Y-90420000D03*
X122140000Y-89440000D03*
X122140000Y-88460000D03*
X122140000Y-87480000D03*
X122140000Y-86500000D03*
X121160000Y-94340000D03*
X121160000Y-93360000D03*
X121160000Y-92380000D03*
X121160000Y-91400000D03*
X121160000Y-90420000D03*
X121160000Y-89440000D03*
X121160000Y-88460000D03*
X121160000Y-87480000D03*
X121160000Y-86500000D03*
X120180000Y-94340000D03*
X120180000Y-93360000D03*
X120180000Y-92380000D03*
X120180000Y-91400000D03*
X120180000Y-90420000D03*
X120180000Y-89440000D03*
X120180000Y-88460000D03*
X120180000Y-87480000D03*
X120180000Y-86500000D03*
X119200000Y-94340000D03*
X119200000Y-93360000D03*
X119200000Y-92380000D03*
X119200000Y-91400000D03*
X119200000Y-90420000D03*
X119200000Y-89440000D03*
X119200000Y-88460000D03*
X119200000Y-87480000D03*
X119200000Y-86500000D03*
X153500000Y-86500000D03*
X146100000Y-94340000D03*
X146100000Y-93360000D03*
X146100000Y-92380000D03*
X146100000Y-91400000D03*
X146100000Y-90420000D03*
X146100000Y-89440000D03*
X146100000Y-88460000D03*
X146100000Y-87480000D03*
X146100000Y-86500000D03*
X145120000Y-94340000D03*
X145120000Y-93360000D03*
X145120000Y-92380000D03*
X145120000Y-91400000D03*
X145120000Y-90420000D03*
X145120000Y-89440000D03*
X145120000Y-88460000D03*
X145120000Y-87480000D03*
X145120000Y-86500000D03*
X144140000Y-94340000D03*
X144140000Y-93360000D03*
X144140000Y-92380000D03*
X144140000Y-91400000D03*
X144140000Y-90420000D03*
X144140000Y-89440000D03*
X144140000Y-88460000D03*
X144140000Y-87480000D03*
X144140000Y-86500000D03*
X143160000Y-94340000D03*
X143160000Y-93360000D03*
X143160000Y-92380000D03*
X143160000Y-91400000D03*
X143160000Y-90420000D03*
X143160000Y-89440000D03*
X143160000Y-88460000D03*
X143160000Y-87480000D03*
X143160000Y-86500000D03*
X142180000Y-94340000D03*
X142180000Y-93360000D03*
X142180000Y-92380000D03*
X142180000Y-91400000D03*
X142180000Y-90420000D03*
X142180000Y-89440000D03*
X142180000Y-88460000D03*
X142180000Y-87480000D03*
X142180000Y-86500000D03*
X141200000Y-94340000D03*
X141200000Y-93360000D03*
X141200000Y-92380000D03*
X141200000Y-91400000D03*
X141200000Y-90420000D03*
X141200000Y-89440000D03*
X141200000Y-88460000D03*
X141200000Y-87480000D03*
X141200000Y-86500000D03*
X140220000Y-94340000D03*
X140220000Y-93360000D03*
X140220000Y-92380000D03*
X140220000Y-91400000D03*
X140220000Y-90420000D03*
X140220000Y-89440000D03*
X140220000Y-88460000D03*
X140220000Y-87480000D03*
X140220000Y-86500000D03*
X139240000Y-94340000D03*
X139240000Y-93360000D03*
X139240000Y-92380000D03*
X139240000Y-91400000D03*
X139240000Y-90420000D03*
X139240000Y-89440000D03*
X139240000Y-88460000D03*
X139240000Y-87480000D03*
X139240000Y-86500000D03*
X138260000Y-94340000D03*
X138260000Y-93360000D03*
X138260000Y-92380000D03*
X138260000Y-91400000D03*
X138260000Y-90420000D03*
X138260000Y-89440000D03*
X138260000Y-88460000D03*
X138260000Y-87480000D03*
X138260000Y-86500000D03*
X137280000Y-94340000D03*
X137280000Y-93360000D03*
X137280000Y-92380000D03*
X137280000Y-91400000D03*
X137280000Y-90420000D03*
X137280000Y-89440000D03*
X137280000Y-88460000D03*
X137280000Y-87480000D03*
X137280000Y-86500000D03*
X136300000Y-94340000D03*
X136300000Y-93360000D03*
X136300000Y-92380000D03*
X136300000Y-91400000D03*
X136300000Y-90420000D03*
X136300000Y-89440000D03*
X136300000Y-88460000D03*
X136300000Y-87480000D03*
X136300000Y-86500000D03*
X163300000Y-94340000D03*
X163300000Y-93360000D03*
X163300000Y-92380000D03*
X163300000Y-91400000D03*
X163300000Y-90420000D03*
X163300000Y-89440000D03*
X163300000Y-88460000D03*
X163300000Y-87480000D03*
X163300000Y-86500000D03*
X162320000Y-94340000D03*
X162320000Y-93360000D03*
X162320000Y-92380000D03*
X162320000Y-91400000D03*
X162320000Y-90420000D03*
X162320000Y-89440000D03*
X162320000Y-88460000D03*
X162320000Y-87480000D03*
X162320000Y-86500000D03*
X161340000Y-94340000D03*
X161340000Y-93360000D03*
X161340000Y-92380000D03*
X161340000Y-91400000D03*
X161340000Y-90420000D03*
X161340000Y-89440000D03*
X161340000Y-88460000D03*
X161340000Y-87480000D03*
X161340000Y-86500000D03*
X160360000Y-94340000D03*
X160360000Y-93360000D03*
X160360000Y-92380000D03*
X160360000Y-91400000D03*
X160360000Y-90420000D03*
X160360000Y-89440000D03*
X160360000Y-88460000D03*
X160360000Y-87480000D03*
X160360000Y-86500000D03*
X159380000Y-94340000D03*
X159380000Y-93360000D03*
X159380000Y-92380000D03*
X159380000Y-91400000D03*
X159380000Y-90420000D03*
X159380000Y-89440000D03*
X159380000Y-88460000D03*
X159380000Y-87480000D03*
X159380000Y-86500000D03*
X158400000Y-94340000D03*
X158400000Y-93360000D03*
X158400000Y-92380000D03*
X158400000Y-91400000D03*
X158400000Y-90420000D03*
X158400000Y-89440000D03*
X158400000Y-88460000D03*
X158400000Y-87480000D03*
X158400000Y-86500000D03*
X157420000Y-94340000D03*
X157420000Y-93360000D03*
X157420000Y-92380000D03*
X157420000Y-91400000D03*
X157420000Y-90420000D03*
X157420000Y-89440000D03*
X157420000Y-88460000D03*
X157420000Y-87480000D03*
X157420000Y-86500000D03*
X156440000Y-94340000D03*
X156440000Y-93360000D03*
X156440000Y-92380000D03*
X156440000Y-91400000D03*
X156440000Y-90420000D03*
X156440000Y-89440000D03*
X156440000Y-88460000D03*
X156440000Y-87480000D03*
X156440000Y-86500000D03*
X155460000Y-94340000D03*
X155460000Y-93360000D03*
X155460000Y-92380000D03*
X155460000Y-91400000D03*
X155460000Y-90420000D03*
X155460000Y-89440000D03*
X155460000Y-88460000D03*
X155460000Y-87480000D03*
X155460000Y-86500000D03*
X154480000Y-94340000D03*
X154480000Y-93360000D03*
X154480000Y-92380000D03*
X154480000Y-91400000D03*
X154480000Y-90420000D03*
X154480000Y-89440000D03*
X154480000Y-88460000D03*
X154480000Y-87480000D03*
X154500000Y-86500000D03*
X153500000Y-94340000D03*
X153500000Y-93360000D03*
X153500000Y-92380000D03*
X153500000Y-91400000D03*
X153500000Y-90420000D03*
X153500000Y-89440000D03*
X153500000Y-88460000D03*
X153500000Y-87480000D03*
D12*
X141200000Y-84400000D03*
X158400000Y-84500000D03*
X177800000Y-48600000D03*
X142100000Y-130200000D03*
X156900000Y-130200000D03*
X180500000Y-105400000D03*
X166700000Y-130200000D03*
X124100000Y-84400000D03*
X113800000Y-91140000D03*
X144090000Y-109610000D03*
X181110000Y-111960000D03*
X127200000Y-130200000D03*
X159300000Y-123090000D03*
X128970000Y-121680000D03*
X138440000Y-123000000D03*
X177010000Y-102680000D03*
X175830000Y-111820000D03*
X114200000Y-99710000D03*
X179890000Y-102550000D03*
X187570000Y-111780000D03*
X174370000Y-117350000D03*
X170080000Y-67670000D03*
X184120000Y-71080000D03*
X182470000Y-93230000D03*
X186070000Y-103280000D03*
X183710000Y-101340000D03*
X182680000Y-98430000D03*
X179990000Y-99870000D03*
X185350000Y-79100000D03*
X182140000Y-87370000D03*
X125040000Y-105610000D03*
X173780000Y-107720000D03*
X179310000Y-95860000D03*
X177060000Y-108450000D03*
X127670000Y-105020000D03*
X174470000Y-89370000D03*
X119560000Y-105070000D03*
X122480000Y-104270000D03*
X171160000Y-100020000D03*
X136580000Y-105740000D03*
X142770000Y-105500000D03*
X188100000Y-107720000D03*
X177100000Y-105480000D03*
X145500000Y-105490000D03*
X178730000Y-70750000D03*
X136580000Y-103210000D03*
X139630000Y-104350000D03*
X184070000Y-109190000D03*
X158170000Y-106170000D03*
X160720000Y-105920000D03*
X175030000Y-100640000D03*
X184000000Y-105380000D03*
X163710000Y-104970000D03*
X177910000Y-87400000D03*
X153920000Y-103380000D03*
X156400000Y-104300000D03*
X173070000Y-102620000D03*
X111390000Y-102110000D03*
D13*
X115165000Y-135505180D03*
X150000000Y-82000000D03*
X115165000Y-55495180D03*
X183745000Y-55495180D03*
X183745000Y-135505180D03*
D11*
X114440000Y-98410000D03*
X112740000Y-90110000D03*
X180500000Y-106700000D03*
X186980000Y-100550000D03*
X171860000Y-91340000D03*
X171200000Y-119930000D03*
X178940000Y-111340000D03*
X127240000Y-129030000D03*
X124440000Y-119500000D03*
X115960000Y-121960000D03*
X112150000Y-100870000D03*
X175660000Y-117070000D03*
X122900000Y-122990000D03*
X185970000Y-111270000D03*
X177040000Y-110880000D03*
X184100000Y-112740000D03*
X178370000Y-101210000D03*
X162030000Y-120330000D03*
X125110000Y-123000000D03*
X157880000Y-122520000D03*
X173630000Y-88300000D03*
X186290000Y-67380000D03*
X181190000Y-78750000D03*
X172130000Y-95480000D03*
X180160000Y-71140000D03*
X182760000Y-70880000D03*
X179340000Y-97970000D03*
X172540000Y-109050000D03*
X178340000Y-89890000D03*
X180240000Y-98160000D03*
X181530000Y-66020000D03*
X181380000Y-91910000D03*
X149690000Y-93280000D03*
X185430000Y-97380000D03*
X172580000Y-94830000D03*
X123630000Y-105560000D03*
X178160000Y-96150000D03*
X139510000Y-105510000D03*
X189160000Y-106700000D03*
X155360000Y-107440000D03*
X172640000Y-100240000D03*
X176700000Y-114040000D03*
X136690000Y-122610000D03*
X178180000Y-95390000D03*
X170430000Y-69020000D03*
X178630000Y-100470000D03*
X138490000Y-121760000D03*
X178370000Y-102170000D03*
X124570000Y-104710000D03*
X175350000Y-106730000D03*
X175100000Y-105960000D03*
X124530000Y-103560000D03*
X175980000Y-105130000D03*
X141750000Y-104820000D03*
X158730000Y-104470000D03*
X171690000Y-104280000D03*
X182050000Y-104260000D03*
X181870000Y-103240000D03*
X181880000Y-102190000D03*
X181900000Y-101270000D03*
X173100000Y-103920000D03*
X159080000Y-103590000D03*
X185540000Y-99280000D03*
X141680000Y-103550000D03*
X173100000Y-104810000D03*
X180660000Y-98850000D03*
X172610000Y-79680000D03*
X182170000Y-89180000D03*
X178530000Y-74150000D03*
X183720000Y-79100000D03*
X122050000Y-102790000D03*
X123460000Y-102790000D03*
X190110000Y-63050000D03*
X125650000Y-102790000D03*
X171890000Y-101160000D03*
X126740000Y-102810000D03*
X139240000Y-102770000D03*
X140640000Y-102770000D03*
X186250000Y-63090000D03*
X142850000Y-102770000D03*
X144030000Y-102800000D03*
X185480000Y-107210000D03*
X171680000Y-101960000D03*
X156400000Y-102840000D03*
X157820000Y-102840000D03*
X183920000Y-63110000D03*
X160010000Y-102840000D03*
X161140000Y-102910000D03*
X171840000Y-102900000D03*
X113750000Y-106710000D03*
X166730000Y-132970000D03*
X127980000Y-119710000D03*
D14*
X114200000Y-98650000D02*
X114200000Y-99710000D01*
X114440000Y-98410000D02*
X114200000Y-98650000D01*
X112740000Y-90110000D02*
X113770000Y-91140000D01*
X113770000Y-91140000D02*
X113800000Y-91140000D01*
X142500000Y-109600000D02*
X144080000Y-109600000D01*
X144080000Y-109600000D02*
X144090000Y-109610000D01*
X180500000Y-106700000D02*
X180500000Y-105400000D01*
X178940000Y-111340000D02*
X180490000Y-111340000D01*
X180490000Y-111340000D02*
X181110000Y-111960000D01*
X186980000Y-100550000D02*
X187310000Y-100220000D01*
D15*
X171860000Y-91340000D02*
X172060000Y-91140000D01*
D14*
X182030000Y-91140000D02*
X172060000Y-91140000D01*
X187310000Y-96420000D02*
X182030000Y-91140000D01*
X187310000Y-100220000D02*
X187310000Y-96420000D01*
X127200000Y-130200000D02*
X127200000Y-129070000D01*
X127200000Y-129070000D02*
X127240000Y-129030000D01*
X112150000Y-100870000D02*
X111390000Y-101630000D01*
X111390000Y-101630000D02*
X111390000Y-102110000D01*
X175660000Y-117070000D02*
X174650000Y-117070000D01*
X174650000Y-117070000D02*
X174370000Y-117350000D01*
X186480000Y-111780000D02*
X187570000Y-111780000D01*
X185970000Y-111270000D02*
X186480000Y-111780000D01*
X179890000Y-102550000D02*
X179710000Y-102550000D01*
X179710000Y-102550000D02*
X178370000Y-101210000D01*
X157880000Y-122520000D02*
X158450000Y-123090000D01*
X158450000Y-123090000D02*
X159300000Y-123090000D01*
X173630000Y-88300000D02*
X174470000Y-89140000D01*
X174470000Y-89140000D02*
X174470000Y-89370000D01*
X180160000Y-71140000D02*
X179120000Y-71140000D01*
X179120000Y-71140000D02*
X178730000Y-70750000D01*
X184120000Y-71080000D02*
X182960000Y-71080000D01*
X182960000Y-71080000D02*
X182760000Y-70880000D01*
X177910000Y-89460000D02*
X177910000Y-87400000D01*
X178340000Y-89890000D02*
X177910000Y-89460000D01*
X181380000Y-91910000D02*
X182470000Y-93000000D01*
X182470000Y-93000000D02*
X182470000Y-93230000D01*
X172580000Y-94830000D02*
X174555998Y-96805998D01*
X184855998Y-96805998D02*
X185430000Y-97380000D01*
X174555998Y-96805998D02*
X184855998Y-96805998D01*
X125040000Y-105610000D02*
X123670000Y-105610000D01*
X123630000Y-105570000D02*
X123670000Y-105610000D01*
X123630000Y-105570000D02*
X123630000Y-105560000D01*
X178160000Y-96150000D02*
X179020000Y-96150000D01*
X179020000Y-96150000D02*
X179310000Y-95860000D01*
X139350000Y-105740000D02*
X136580000Y-105740000D01*
X139510000Y-105510000D02*
X139350000Y-105740000D01*
X189160000Y-106700000D02*
X188140000Y-107720000D01*
X188140000Y-107720000D02*
X188100000Y-107720000D01*
X156630000Y-106170000D02*
X158170000Y-106170000D01*
X155360000Y-107440000D02*
X156630000Y-106170000D01*
X174110000Y-101610000D02*
X174850000Y-100870000D01*
X172960000Y-101610000D02*
X174110000Y-101610000D01*
X172640000Y-101290000D02*
X172960000Y-101610000D01*
X172640000Y-100240000D02*
X172640000Y-101290000D01*
X175830000Y-113170000D02*
X175830000Y-111820000D01*
X176700000Y-114040000D02*
X175830000Y-113170000D01*
X137080000Y-123000000D02*
X138440000Y-123000000D01*
X136690000Y-122610000D02*
X137080000Y-123000000D01*
X170430000Y-69020000D02*
X170430000Y-68020000D01*
X170430000Y-68020000D02*
X170080000Y-67670000D01*
X178180000Y-95390000D02*
X174600000Y-95390000D01*
X170410000Y-69040000D02*
X170430000Y-69020000D01*
X170410000Y-91200000D02*
X170410000Y-69040000D01*
X174600000Y-95390000D02*
X170410000Y-91200000D01*
X178630000Y-100470000D02*
X179390000Y-100470000D01*
X179390000Y-100470000D02*
X179990000Y-99870000D01*
X178630000Y-100470000D02*
X178710000Y-100550000D01*
X178370000Y-102170000D02*
X177860000Y-102680000D01*
X177860000Y-102680000D02*
X177010000Y-102680000D01*
X175350000Y-106730000D02*
X175350000Y-106740000D01*
X175350000Y-106740000D02*
X177060000Y-108450000D01*
X173780000Y-107720000D02*
X173780000Y-107280000D01*
X173780000Y-107280000D02*
X175100000Y-105960000D01*
X175980000Y-105130000D02*
X176750000Y-105130000D01*
X176750000Y-105130000D02*
X177100000Y-105480000D01*
X182050000Y-104260000D02*
X182880000Y-104260000D01*
X182880000Y-104260000D02*
X184000000Y-105380000D01*
X171690000Y-104360000D02*
X171690000Y-104280000D01*
X181910000Y-104400000D02*
X182050000Y-104260000D01*
X175610000Y-104400000D02*
X181910000Y-104400000D01*
X174360000Y-105650000D02*
X175610000Y-104400000D01*
X172980000Y-105650000D02*
X174360000Y-105650000D01*
X172980000Y-105650000D02*
X171690000Y-104360000D01*
X181910000Y-103280000D02*
X186070000Y-103280000D01*
X181870000Y-103240000D02*
X181910000Y-103280000D01*
X182730000Y-101340000D02*
X183710000Y-101340000D01*
X181880000Y-102190000D02*
X182730000Y-101340000D01*
X181900000Y-99210000D02*
X182680000Y-98430000D01*
X181900000Y-101270000D02*
X181900000Y-99210000D01*
X159080000Y-103590000D02*
X159370000Y-103880000D01*
X159370000Y-104570000D02*
X160720000Y-105920000D01*
X159370000Y-103880000D02*
X159370000Y-104570000D01*
X173120000Y-103940000D02*
X173100000Y-103920000D01*
X177090000Y-100107234D02*
X173257234Y-103940000D01*
X177090000Y-99240000D02*
X177090000Y-100107234D01*
X179020000Y-97310000D02*
X177090000Y-99240000D01*
X183570000Y-97310000D02*
X179020000Y-97310000D01*
X185540000Y-99280000D02*
X183570000Y-97310000D01*
X173257234Y-103940000D02*
X173120000Y-103940000D01*
X141680000Y-103550000D02*
X142770000Y-104640000D01*
X142770000Y-104640000D02*
X142770000Y-105500000D01*
X173100000Y-104810000D02*
X177620000Y-100290000D01*
X177620000Y-100290000D02*
X177620000Y-99620000D01*
X177620000Y-99620000D02*
X178390000Y-98850000D01*
X178390000Y-98850000D02*
X180660000Y-98850000D01*
X182170000Y-89180000D02*
X182170000Y-87400000D01*
X182170000Y-87400000D02*
X182140000Y-87370000D01*
X172670000Y-79680000D02*
X172610000Y-79680000D01*
X182170000Y-89180000D02*
X172670000Y-79680000D01*
X183720000Y-79100000D02*
X185350000Y-79100000D01*
X178770000Y-74150000D02*
X178530000Y-74150000D01*
X183720000Y-79100000D02*
X178770000Y-74150000D01*
X119560000Y-103690000D02*
X119560000Y-105070000D01*
X120450000Y-102800000D02*
X119560000Y-103690000D01*
X122040000Y-102800000D02*
X120450000Y-102800000D01*
X122050000Y-102790000D02*
X122040000Y-102800000D01*
X123460000Y-102790000D02*
X122480000Y-103770000D01*
X122480000Y-103770000D02*
X122480000Y-104270000D01*
X126690000Y-105020000D02*
X127670000Y-105020000D01*
X125760000Y-104090000D02*
X126690000Y-105020000D01*
X125760000Y-102900000D02*
X125760000Y-104090000D01*
X125650000Y-102790000D02*
X125760000Y-102900000D01*
X171890000Y-101160000D02*
X171890000Y-100750000D01*
X171890000Y-100750000D02*
X171160000Y-100020000D01*
X137030000Y-102760000D02*
X136580000Y-103210000D01*
X139230000Y-102760000D02*
X137030000Y-102760000D01*
X139240000Y-102770000D02*
X139230000Y-102760000D01*
X139630000Y-103770000D02*
X139630000Y-104350000D01*
X140630000Y-102770000D02*
X139630000Y-103770000D01*
X140640000Y-102770000D02*
X140630000Y-102770000D01*
X144540000Y-105490000D02*
X145500000Y-105490000D01*
X142840000Y-103790000D02*
X144540000Y-105490000D01*
X142840000Y-102760000D02*
X142840000Y-103790000D01*
X142850000Y-102770000D02*
X142840000Y-102760000D01*
D15*
X170990000Y-104570000D02*
X170990000Y-109060000D01*
X181230000Y-108000000D02*
X183320000Y-108000000D01*
X179220000Y-110010000D02*
X181230000Y-108000000D01*
X171940000Y-110010000D02*
X179220000Y-110010000D01*
X170990000Y-109060000D02*
X171940000Y-110010000D01*
D14*
X184070000Y-109190000D02*
X184070000Y-108750000D01*
X184070000Y-108750000D02*
X183320000Y-108000000D01*
D15*
X183320000Y-108000000D02*
X184690000Y-108000000D01*
X184690000Y-108000000D02*
X185480000Y-107210000D01*
X170990000Y-102650000D02*
X171680000Y-101960000D01*
X170990000Y-104580000D02*
X170990000Y-104570000D01*
X170990000Y-104570000D02*
X170990000Y-103500000D01*
X170990000Y-103500000D02*
X170990000Y-102650000D01*
D14*
X155800000Y-103400000D02*
X155780000Y-103380000D01*
X156400000Y-102840000D02*
X156400000Y-102800000D01*
X156400000Y-102800000D02*
X155800000Y-103400000D01*
X155780000Y-103380000D02*
X153920000Y-103380000D01*
X157820000Y-102840000D02*
X156400000Y-104260000D01*
X156400000Y-104260000D02*
X156400000Y-104300000D01*
D15*
X161040000Y-104970000D02*
X163710000Y-104970000D01*
X160010000Y-103940000D02*
X161040000Y-104970000D01*
X160010000Y-102840000D02*
X160010000Y-103940000D01*
D14*
X171840000Y-102900000D02*
X172790000Y-102900000D01*
X172790000Y-102900000D02*
X173070000Y-102620000D01*
D15*
X166730000Y-132970000D02*
X166700000Y-132940000D01*
X166700000Y-132940000D02*
X166700000Y-130200000D01*
D14*
X128970000Y-120700000D02*
X128970000Y-121680000D01*
X127980000Y-119710000D02*
X128970000Y-120700000D01*
G36*
X133973000Y-104000000D02*
X133983006Y-104049410D01*
X134011447Y-104091035D01*
X134053841Y-104118315D01*
X134100000Y-104127000D01*
X135973000Y-104127000D01*
X135973000Y-105095453D01*
X135830171Y-105238033D01*
X135695154Y-105563190D01*
X135694847Y-105915265D01*
X135829296Y-106240657D01*
X135973000Y-106384612D01*
X135973000Y-106400000D01*
X135983006Y-106449410D01*
X136011447Y-106491035D01*
X136053841Y-106518315D01*
X136100000Y-106527000D01*
X136167551Y-106527000D01*
X136403190Y-106624846D01*
X136755265Y-106625153D01*
X136992814Y-106527000D01*
X145600000Y-106527000D01*
X145649410Y-106516994D01*
X145691035Y-106488553D01*
X145718315Y-106446159D01*
X145727000Y-106400000D01*
X145727000Y-106353777D01*
X146000657Y-106240704D01*
X146249829Y-105991967D01*
X146384846Y-105666810D01*
X146385153Y-105314735D01*
X146250704Y-104989343D01*
X146001967Y-104740171D01*
X145727000Y-104625995D01*
X145727000Y-104300000D01*
X145716994Y-104250590D01*
X145688553Y-104208965D01*
X145646159Y-104181685D01*
X145600000Y-104173000D01*
X144527000Y-104173000D01*
X144527000Y-103189806D01*
X144561235Y-103155631D01*
X144656891Y-102925265D01*
X144657109Y-102675829D01*
X144561855Y-102445297D01*
X144527000Y-102410381D01*
X144527000Y-97427000D01*
X151173000Y-97427000D01*
X151173000Y-104100000D01*
X151183006Y-104149410D01*
X151211447Y-104191035D01*
X151253841Y-104218315D01*
X151300000Y-104227000D01*
X153373000Y-104227000D01*
X153373000Y-106400000D01*
X153383006Y-106449410D01*
X153411447Y-106491035D01*
X153453841Y-106518315D01*
X153500000Y-106527000D01*
X155560236Y-106527000D01*
X155274311Y-106812925D01*
X155235829Y-106812891D01*
X155005297Y-106908145D01*
X154828765Y-107084369D01*
X154733109Y-107314735D01*
X154732891Y-107564171D01*
X154828145Y-107794703D01*
X155004369Y-107971235D01*
X155234735Y-108066891D01*
X155484171Y-108067109D01*
X155714703Y-107971855D01*
X155891235Y-107795631D01*
X155986891Y-107565265D01*
X155986925Y-107525839D01*
X156838764Y-106674000D01*
X157422633Y-106674000D01*
X157668033Y-106919829D01*
X157993190Y-107054846D01*
X158345265Y-107055153D01*
X158670657Y-106920704D01*
X158919829Y-106671967D01*
X158980025Y-106527000D01*
X160075453Y-106527000D01*
X160218033Y-106669829D01*
X160543190Y-106804846D01*
X160895265Y-106805153D01*
X161220657Y-106670704D01*
X161364612Y-106527000D01*
X162500000Y-106527000D01*
X162549410Y-106516994D01*
X162591035Y-106488553D01*
X162618315Y-106446159D01*
X162627000Y-106400000D01*
X162627000Y-105517000D01*
X163005558Y-105517000D01*
X163208033Y-105719829D01*
X163533190Y-105854846D01*
X163885265Y-105855153D01*
X164210657Y-105720704D01*
X164459829Y-105471967D01*
X164594846Y-105146810D01*
X164595153Y-104794735D01*
X164460704Y-104469343D01*
X164211967Y-104220171D01*
X163886810Y-104085154D01*
X163534735Y-104084847D01*
X163209343Y-104219296D01*
X163005283Y-104423000D01*
X162627000Y-104423000D01*
X162627000Y-104100000D01*
X162616994Y-104050590D01*
X162588553Y-104008965D01*
X162546159Y-103981685D01*
X162500000Y-103973000D01*
X161727000Y-103973000D01*
X161727000Y-103131334D01*
X161766891Y-103035265D01*
X161767109Y-102785829D01*
X161727000Y-102688758D01*
X161727000Y-97527000D01*
X170673000Y-97527000D01*
X170673000Y-99263653D01*
X170659343Y-99269296D01*
X170410171Y-99518033D01*
X170275154Y-99843190D01*
X170274847Y-100195265D01*
X170409296Y-100520657D01*
X170658033Y-100769829D01*
X170673000Y-100776044D01*
X170673000Y-102193426D01*
X170603213Y-102263213D01*
X170484638Y-102440672D01*
X170443000Y-102650000D01*
X170443000Y-109060000D01*
X170484638Y-109269328D01*
X170603213Y-109446787D01*
X170673000Y-109516574D01*
X170673000Y-112573000D01*
X126527000Y-112573000D01*
X126527000Y-106127000D01*
X128300000Y-106127000D01*
X128349410Y-106116994D01*
X128391035Y-106088553D01*
X128418315Y-106046159D01*
X128427000Y-106000000D01*
X128427000Y-105504697D01*
X128554846Y-105196810D01*
X128555153Y-104844735D01*
X128427000Y-104534581D01*
X128427000Y-104000000D01*
X128416994Y-103950590D01*
X128388553Y-103908965D01*
X128346159Y-103881685D01*
X128300000Y-103873000D01*
X127427000Y-103873000D01*
X127427000Y-97427000D01*
X133973000Y-97427000D01*
X133973000Y-104000000D01*
X133973000Y-104000000D01*
G37*
X133973000Y-104000000D02*
X133983006Y-104049410D01*
X134011447Y-104091035D01*
X134053841Y-104118315D01*
X134100000Y-104127000D01*
X135973000Y-104127000D01*
X135973000Y-105095453D01*
X135830171Y-105238033D01*
X135695154Y-105563190D01*
X135694847Y-105915265D01*
X135829296Y-106240657D01*
X135973000Y-106384612D01*
X135973000Y-106400000D01*
X135983006Y-106449410D01*
X136011447Y-106491035D01*
X136053841Y-106518315D01*
X136100000Y-106527000D01*
X136167551Y-106527000D01*
X136403190Y-106624846D01*
X136755265Y-106625153D01*
X136992814Y-106527000D01*
X145600000Y-106527000D01*
X145649410Y-106516994D01*
X145691035Y-106488553D01*
X145718315Y-106446159D01*
X145727000Y-106400000D01*
X145727000Y-106353777D01*
X146000657Y-106240704D01*
X146249829Y-105991967D01*
X146384846Y-105666810D01*
X146385153Y-105314735D01*
X146250704Y-104989343D01*
X146001967Y-104740171D01*
X145727000Y-104625995D01*
X145727000Y-104300000D01*
X145716994Y-104250590D01*
X145688553Y-104208965D01*
X145646159Y-104181685D01*
X145600000Y-104173000D01*
X144527000Y-104173000D01*
X144527000Y-103189806D01*
X144561235Y-103155631D01*
X144656891Y-102925265D01*
X144657109Y-102675829D01*
X144561855Y-102445297D01*
X144527000Y-102410381D01*
X144527000Y-97427000D01*
X151173000Y-97427000D01*
X151173000Y-104100000D01*
X151183006Y-104149410D01*
X151211447Y-104191035D01*
X151253841Y-104218315D01*
X151300000Y-104227000D01*
X153373000Y-104227000D01*
X153373000Y-106400000D01*
X153383006Y-106449410D01*
X153411447Y-106491035D01*
X153453841Y-106518315D01*
X153500000Y-106527000D01*
X155560236Y-106527000D01*
X155274311Y-106812925D01*
X155235829Y-106812891D01*
X155005297Y-106908145D01*
X154828765Y-107084369D01*
X154733109Y-107314735D01*
X154732891Y-107564171D01*
X154828145Y-107794703D01*
X155004369Y-107971235D01*
X155234735Y-108066891D01*
X155484171Y-108067109D01*
X155714703Y-107971855D01*
X155891235Y-107795631D01*
X155986891Y-107565265D01*
X155986925Y-107525839D01*
X156838764Y-106674000D01*
X157422633Y-106674000D01*
X157668033Y-106919829D01*
X157993190Y-107054846D01*
X158345265Y-107055153D01*
X158670657Y-106920704D01*
X158919829Y-106671967D01*
X158980025Y-106527000D01*
X160075453Y-106527000D01*
X160218033Y-106669829D01*
X160543190Y-106804846D01*
X160895265Y-106805153D01*
X161220657Y-106670704D01*
X161364612Y-106527000D01*
X162500000Y-106527000D01*
X162549410Y-106516994D01*
X162591035Y-106488553D01*
X162618315Y-106446159D01*
X162627000Y-106400000D01*
X162627000Y-105517000D01*
X163005558Y-105517000D01*
X163208033Y-105719829D01*
X163533190Y-105854846D01*
X163885265Y-105855153D01*
X164210657Y-105720704D01*
X164459829Y-105471967D01*
X164594846Y-105146810D01*
X164595153Y-104794735D01*
X164460704Y-104469343D01*
X164211967Y-104220171D01*
X163886810Y-104085154D01*
X163534735Y-104084847D01*
X163209343Y-104219296D01*
X163005283Y-104423000D01*
X162627000Y-104423000D01*
X162627000Y-104100000D01*
X162616994Y-104050590D01*
X162588553Y-104008965D01*
X162546159Y-103981685D01*
X162500000Y-103973000D01*
X161727000Y-103973000D01*
X161727000Y-103131334D01*
X161766891Y-103035265D01*
X161767109Y-102785829D01*
X161727000Y-102688758D01*
X161727000Y-97527000D01*
X170673000Y-97527000D01*
X170673000Y-99263653D01*
X170659343Y-99269296D01*
X170410171Y-99518033D01*
X170275154Y-99843190D01*
X170274847Y-100195265D01*
X170409296Y-100520657D01*
X170658033Y-100769829D01*
X170673000Y-100776044D01*
X170673000Y-102193426D01*
X170603213Y-102263213D01*
X170484638Y-102440672D01*
X170443000Y-102650000D01*
X170443000Y-109060000D01*
X170484638Y-109269328D01*
X170603213Y-109446787D01*
X170673000Y-109516574D01*
X170673000Y-112573000D01*
X126527000Y-112573000D01*
X126527000Y-106127000D01*
X128300000Y-106127000D01*
X128349410Y-106116994D01*
X128391035Y-106088553D01*
X128418315Y-106046159D01*
X128427000Y-106000000D01*
X128427000Y-105504697D01*
X128554846Y-105196810D01*
X128555153Y-104844735D01*
X128427000Y-104534581D01*
X128427000Y-104000000D01*
X128416994Y-103950590D01*
X128388553Y-103908965D01*
X128346159Y-103881685D01*
X128300000Y-103873000D01*
X127427000Y-103873000D01*
X127427000Y-97427000D01*
X133973000Y-97427000D01*
X133973000Y-104000000D01*
G36*
X134873000Y-96873000D02*
X126800000Y-96873000D01*
X126750590Y-96883006D01*
X126708965Y-96911447D01*
X126681685Y-96953841D01*
X126673000Y-97000000D01*
X126673000Y-102173000D01*
X125799085Y-102173000D01*
X125775265Y-102163109D01*
X125525829Y-102162891D01*
X125501363Y-102173000D01*
X123609085Y-102173000D01*
X123585265Y-102163109D01*
X123335829Y-102162891D01*
X123311363Y-102173000D01*
X122199085Y-102173000D01*
X122175265Y-102163109D01*
X121925829Y-102162891D01*
X121901363Y-102173000D01*
X121427000Y-102173000D01*
X121427000Y-97000000D01*
X121416994Y-96950590D01*
X121388553Y-96908965D01*
X121346159Y-96881685D01*
X121300000Y-96873000D01*
X118127000Y-96873000D01*
X118127000Y-57167869D01*
X118541412Y-56169854D01*
X118542585Y-54826400D01*
X118127000Y-53820609D01*
X118127000Y-36896845D01*
X134873000Y-36896845D01*
X134873000Y-96873000D01*
X134873000Y-96873000D01*
G37*
X134873000Y-96873000D02*
X126800000Y-96873000D01*
X126750590Y-96883006D01*
X126708965Y-96911447D01*
X126681685Y-96953841D01*
X126673000Y-97000000D01*
X126673000Y-102173000D01*
X125799085Y-102173000D01*
X125775265Y-102163109D01*
X125525829Y-102162891D01*
X125501363Y-102173000D01*
X123609085Y-102173000D01*
X123585265Y-102163109D01*
X123335829Y-102162891D01*
X123311363Y-102173000D01*
X122199085Y-102173000D01*
X122175265Y-102163109D01*
X121925829Y-102162891D01*
X121901363Y-102173000D01*
X121427000Y-102173000D01*
X121427000Y-97000000D01*
X121416994Y-96950590D01*
X121388553Y-96908965D01*
X121346159Y-96881685D01*
X121300000Y-96873000D01*
X118127000Y-96873000D01*
X118127000Y-57167869D01*
X118541412Y-56169854D01*
X118542585Y-54826400D01*
X118127000Y-53820609D01*
X118127000Y-36896845D01*
X134873000Y-36896845D01*
X134873000Y-96873000D01*
G36*
X152173000Y-79396824D02*
X151915414Y-79138788D01*
X150674674Y-78623588D01*
X149331220Y-78622415D01*
X148089582Y-79135450D01*
X147138788Y-80084586D01*
X146623588Y-81325326D01*
X146622415Y-82668780D01*
X147135450Y-83910418D01*
X148084586Y-84861212D01*
X149325326Y-85376412D01*
X150668780Y-85377585D01*
X151910418Y-84864550D01*
X152173000Y-84602426D01*
X152173000Y-96873000D01*
X144000000Y-96873000D01*
X143950590Y-96883006D01*
X143908965Y-96911447D01*
X143881685Y-96953841D01*
X143873000Y-97000000D01*
X143873000Y-102173000D01*
X143047251Y-102173000D01*
X142975265Y-102143109D01*
X142725829Y-102142891D01*
X142652960Y-102173000D01*
X140837251Y-102173000D01*
X140765265Y-102143109D01*
X140515829Y-102142891D01*
X140442960Y-102173000D01*
X139437251Y-102173000D01*
X139365265Y-102143109D01*
X139115829Y-102142891D01*
X139042960Y-102173000D01*
X138627000Y-102173000D01*
X138627000Y-97000000D01*
X138616994Y-96950590D01*
X138588553Y-96908965D01*
X138546159Y-96881685D01*
X138500000Y-96873000D01*
X135527000Y-96873000D01*
X135527000Y-93404171D01*
X149062891Y-93404171D01*
X149158145Y-93634703D01*
X149334369Y-93811235D01*
X149564735Y-93906891D01*
X149814171Y-93907109D01*
X150044703Y-93811855D01*
X150221235Y-93635631D01*
X150316891Y-93405265D01*
X150317109Y-93155829D01*
X150221855Y-92925297D01*
X150045631Y-92748765D01*
X149815265Y-92653109D01*
X149565829Y-92652891D01*
X149335297Y-92748145D01*
X149158765Y-92924369D01*
X149063109Y-93154735D01*
X149062891Y-93404171D01*
X135527000Y-93404171D01*
X135527000Y-90824171D01*
X150372891Y-90824171D01*
X150468145Y-91054703D01*
X150644369Y-91231235D01*
X150874735Y-91326891D01*
X151124171Y-91327109D01*
X151354703Y-91231855D01*
X151531235Y-91055631D01*
X151626891Y-90825265D01*
X151627109Y-90575829D01*
X151531855Y-90345297D01*
X151355631Y-90168765D01*
X151125265Y-90073109D01*
X150875829Y-90072891D01*
X150645297Y-90168145D01*
X150468765Y-90344369D01*
X150373109Y-90574735D01*
X150372891Y-90824171D01*
X135527000Y-90824171D01*
X135527000Y-36896845D01*
X152173000Y-36896845D01*
X152173000Y-79396824D01*
X152173000Y-79396824D01*
G37*
X152173000Y-79396824D02*
X151915414Y-79138788D01*
X150674674Y-78623588D01*
X149331220Y-78622415D01*
X148089582Y-79135450D01*
X147138788Y-80084586D01*
X146623588Y-81325326D01*
X146622415Y-82668780D01*
X147135450Y-83910418D01*
X148084586Y-84861212D01*
X149325326Y-85376412D01*
X150668780Y-85377585D01*
X151910418Y-84864550D01*
X152173000Y-84602426D01*
X152173000Y-96873000D01*
X144000000Y-96873000D01*
X143950590Y-96883006D01*
X143908965Y-96911447D01*
X143881685Y-96953841D01*
X143873000Y-97000000D01*
X143873000Y-102173000D01*
X143047251Y-102173000D01*
X142975265Y-102143109D01*
X142725829Y-102142891D01*
X142652960Y-102173000D01*
X140837251Y-102173000D01*
X140765265Y-102143109D01*
X140515829Y-102142891D01*
X140442960Y-102173000D01*
X139437251Y-102173000D01*
X139365265Y-102143109D01*
X139115829Y-102142891D01*
X139042960Y-102173000D01*
X138627000Y-102173000D01*
X138627000Y-97000000D01*
X138616994Y-96950590D01*
X138588553Y-96908965D01*
X138546159Y-96881685D01*
X138500000Y-96873000D01*
X135527000Y-96873000D01*
X135527000Y-93404171D01*
X149062891Y-93404171D01*
X149158145Y-93634703D01*
X149334369Y-93811235D01*
X149564735Y-93906891D01*
X149814171Y-93907109D01*
X150044703Y-93811855D01*
X150221235Y-93635631D01*
X150316891Y-93405265D01*
X150317109Y-93155829D01*
X150221855Y-92925297D01*
X150045631Y-92748765D01*
X149815265Y-92653109D01*
X149565829Y-92652891D01*
X149335297Y-92748145D01*
X149158765Y-92924369D01*
X149063109Y-93154735D01*
X149062891Y-93404171D01*
X135527000Y-93404171D01*
X135527000Y-90824171D01*
X150372891Y-90824171D01*
X150468145Y-91054703D01*
X150644369Y-91231235D01*
X150874735Y-91326891D01*
X151124171Y-91327109D01*
X151354703Y-91231855D01*
X151531235Y-91055631D01*
X151626891Y-90825265D01*
X151627109Y-90575829D01*
X151531855Y-90345297D01*
X151355631Y-90168765D01*
X151125265Y-90073109D01*
X150875829Y-90072891D01*
X150645297Y-90168145D01*
X150468765Y-90344369D01*
X150373109Y-90574735D01*
X150372891Y-90824171D01*
X135527000Y-90824171D01*
X135527000Y-36896845D01*
X152173000Y-36896845D01*
X152173000Y-79396824D01*
G36*
X166873000Y-59600000D02*
X166874678Y-59620575D01*
X169073000Y-73010354D01*
X169073000Y-96873000D01*
X161200000Y-96873000D01*
X161150590Y-96883006D01*
X161108965Y-96911447D01*
X161081685Y-96953841D01*
X161073000Y-97000000D01*
X161073000Y-102173000D01*
X155827000Y-102173000D01*
X155827000Y-97000000D01*
X155816994Y-96950590D01*
X155788553Y-96908965D01*
X155746159Y-96881685D01*
X155700000Y-96873000D01*
X152727000Y-96873000D01*
X152727000Y-84049392D01*
X152861212Y-83915414D01*
X153376412Y-82674674D01*
X153377585Y-81331220D01*
X152864550Y-80089582D01*
X152727000Y-79951792D01*
X152727000Y-36896845D01*
X166873000Y-36896845D01*
X166873000Y-59600000D01*
X166873000Y-59600000D01*
G37*
X166873000Y-59600000D02*
X166874678Y-59620575D01*
X169073000Y-73010354D01*
X169073000Y-96873000D01*
X161200000Y-96873000D01*
X161150590Y-96883006D01*
X161108965Y-96911447D01*
X161081685Y-96953841D01*
X161073000Y-97000000D01*
X161073000Y-102173000D01*
X155827000Y-102173000D01*
X155827000Y-97000000D01*
X155816994Y-96950590D01*
X155788553Y-96908965D01*
X155746159Y-96881685D01*
X155700000Y-96873000D01*
X152727000Y-96873000D01*
X152727000Y-84049392D01*
X152861212Y-83915414D01*
X153376412Y-82674674D01*
X153377585Y-81331220D01*
X152864550Y-80089582D01*
X152727000Y-79951792D01*
X152727000Y-36896845D01*
X166873000Y-36896845D01*
X166873000Y-59600000D01*
G36*
X117573000Y-96873000D02*
X116600000Y-96873000D01*
X116550590Y-96883006D01*
X116508965Y-96911447D01*
X116481685Y-96953841D01*
X116473000Y-97000000D01*
X116473000Y-104100000D01*
X116483006Y-104149410D01*
X116511447Y-104191035D01*
X116553841Y-104218315D01*
X116600000Y-104227000D01*
X119056000Y-104227000D01*
X119056000Y-104322633D01*
X118810171Y-104568033D01*
X118675154Y-104893190D01*
X118674847Y-105245265D01*
X118809296Y-105570657D01*
X119058033Y-105819829D01*
X119383190Y-105954846D01*
X119735265Y-105955153D01*
X120060657Y-105820704D01*
X120309829Y-105571967D01*
X120444846Y-105246810D01*
X120445153Y-104894735D01*
X120310704Y-104569343D01*
X120064000Y-104322208D01*
X120064000Y-104227000D01*
X121595037Y-104227000D01*
X121594847Y-104445265D01*
X121729296Y-104770657D01*
X121978033Y-105019829D01*
X122303190Y-105154846D01*
X122655265Y-105155153D01*
X122980657Y-105020704D01*
X123229829Y-104771967D01*
X123364846Y-104446810D01*
X123365038Y-104227000D01*
X124166357Y-104227000D01*
X124038765Y-104354369D01*
X123943109Y-104584735D01*
X123942891Y-104834171D01*
X124038145Y-105064703D01*
X124079370Y-105106000D01*
X124062731Y-105106000D01*
X123985631Y-105028765D01*
X123755265Y-104933109D01*
X123505829Y-104932891D01*
X123275297Y-105028145D01*
X123098765Y-105204369D01*
X123003109Y-105434735D01*
X123002891Y-105684171D01*
X123098145Y-105914703D01*
X123274369Y-106091235D01*
X123504735Y-106186891D01*
X123754171Y-106187109D01*
X123931108Y-106114000D01*
X124292633Y-106114000D01*
X124538033Y-106359829D01*
X124863190Y-106494846D01*
X125215265Y-106495153D01*
X125540657Y-106360704D01*
X125789829Y-106111967D01*
X125924846Y-105786810D01*
X125925153Y-105434735D01*
X125790704Y-105109343D01*
X125541967Y-104860171D01*
X125216810Y-104725154D01*
X125196987Y-104725137D01*
X125197109Y-104585829D01*
X125101855Y-104355297D01*
X124973782Y-104227000D01*
X125283251Y-104227000D01*
X125294365Y-104282873D01*
X125403618Y-104446382D01*
X125973000Y-105015764D01*
X125973000Y-113000000D01*
X125983006Y-113049410D01*
X126011447Y-113091035D01*
X126053841Y-113118315D01*
X126100000Y-113127000D01*
X156273000Y-113127000D01*
X156273000Y-123442969D01*
X151815626Y-127405079D01*
X151785344Y-127445384D01*
X151773000Y-127500000D01*
X151773000Y-145973000D01*
X119227000Y-145973000D01*
X119227000Y-131900000D01*
X119216994Y-131850590D01*
X119188553Y-131808965D01*
X119146159Y-131781685D01*
X119100000Y-131773000D01*
X108727000Y-131773000D01*
X108727000Y-130375265D01*
X126314847Y-130375265D01*
X126449296Y-130700657D01*
X126698033Y-130949829D01*
X127023190Y-131084846D01*
X127375265Y-131085153D01*
X127700657Y-130950704D01*
X127949829Y-130701967D01*
X128084846Y-130376810D01*
X128085153Y-130024735D01*
X127950704Y-129699343D01*
X127704271Y-129452479D01*
X127771235Y-129385631D01*
X127866891Y-129155265D01*
X127867109Y-128905829D01*
X127771855Y-128675297D01*
X127595631Y-128498765D01*
X127365265Y-128403109D01*
X127115829Y-128402891D01*
X126885297Y-128498145D01*
X126708765Y-128674369D01*
X126613109Y-128904735D01*
X126612891Y-129154171D01*
X126696000Y-129355310D01*
X126696000Y-129452633D01*
X126450171Y-129698033D01*
X126315154Y-130023190D01*
X126314847Y-130375265D01*
X108727000Y-130375265D01*
X108727000Y-123624171D01*
X112072891Y-123624171D01*
X112168145Y-123854703D01*
X112344369Y-124031235D01*
X112574735Y-124126891D01*
X112824171Y-124127109D01*
X113054703Y-124031855D01*
X113231235Y-123855631D01*
X113326891Y-123625265D01*
X113327109Y-123375829D01*
X113231855Y-123145297D01*
X113200784Y-123114171D01*
X122272891Y-123114171D01*
X122368145Y-123344703D01*
X122544369Y-123521235D01*
X122774735Y-123616891D01*
X123024171Y-123617109D01*
X123254703Y-123521855D01*
X123431235Y-123345631D01*
X123523192Y-123124171D01*
X124482891Y-123124171D01*
X124578145Y-123354703D01*
X124754369Y-123531235D01*
X124984735Y-123626891D01*
X125234171Y-123627109D01*
X125464703Y-123531855D01*
X125641235Y-123355631D01*
X125736891Y-123125265D01*
X125737109Y-122875829D01*
X125678578Y-122734171D01*
X136062891Y-122734171D01*
X136158145Y-122964703D01*
X136334369Y-123141235D01*
X136564735Y-123236891D01*
X136604161Y-123236925D01*
X136723618Y-123356382D01*
X136887127Y-123465635D01*
X137080000Y-123504000D01*
X137692633Y-123504000D01*
X137938033Y-123749829D01*
X138263190Y-123884846D01*
X138615265Y-123885153D01*
X138940657Y-123750704D01*
X139189829Y-123501967D01*
X139324846Y-123176810D01*
X139325153Y-122824735D01*
X139190704Y-122499343D01*
X138941967Y-122250171D01*
X138902766Y-122233893D01*
X139021235Y-122115631D01*
X139116891Y-121885265D01*
X139117109Y-121635829D01*
X139021855Y-121405297D01*
X138845631Y-121228765D01*
X138615265Y-121133109D01*
X138365829Y-121132891D01*
X138135297Y-121228145D01*
X137958765Y-121404369D01*
X137863109Y-121634735D01*
X137862891Y-121884171D01*
X137958145Y-122114703D01*
X138047777Y-122204492D01*
X137939343Y-122249296D01*
X137692208Y-122496000D01*
X137317100Y-122496000D01*
X137317109Y-122485829D01*
X137221855Y-122255297D01*
X137045631Y-122078765D01*
X136815265Y-121983109D01*
X136565829Y-121982891D01*
X136335297Y-122078145D01*
X136158765Y-122254369D01*
X136063109Y-122484735D01*
X136062891Y-122734171D01*
X125678578Y-122734171D01*
X125641855Y-122645297D01*
X125465631Y-122468765D01*
X125235265Y-122373109D01*
X124985829Y-122372891D01*
X124755297Y-122468145D01*
X124578765Y-122644369D01*
X124483109Y-122874735D01*
X124482891Y-123124171D01*
X123523192Y-123124171D01*
X123526891Y-123115265D01*
X123527109Y-122865829D01*
X123431855Y-122635297D01*
X123255631Y-122458765D01*
X123025265Y-122363109D01*
X122775829Y-122362891D01*
X122545297Y-122458145D01*
X122368765Y-122634369D01*
X122273109Y-122864735D01*
X122272891Y-123114171D01*
X113200784Y-123114171D01*
X113055631Y-122968765D01*
X112825265Y-122873109D01*
X112575829Y-122872891D01*
X112345297Y-122968145D01*
X112168765Y-123144369D01*
X112073109Y-123374735D01*
X112072891Y-123624171D01*
X108727000Y-123624171D01*
X108727000Y-122084171D01*
X115332891Y-122084171D01*
X115428145Y-122314703D01*
X115604369Y-122491235D01*
X115834735Y-122586891D01*
X116084171Y-122587109D01*
X116314703Y-122491855D01*
X116491235Y-122315631D01*
X116586891Y-122085265D01*
X116587109Y-121835829D01*
X116491855Y-121605297D01*
X116315631Y-121428765D01*
X116085265Y-121333109D01*
X115835829Y-121332891D01*
X115605297Y-121428145D01*
X115428765Y-121604369D01*
X115333109Y-121834735D01*
X115332891Y-122084171D01*
X108727000Y-122084171D01*
X108727000Y-119624171D01*
X123812891Y-119624171D01*
X123908145Y-119854703D01*
X124084369Y-120031235D01*
X124314735Y-120126891D01*
X124564171Y-120127109D01*
X124794703Y-120031855D01*
X124971235Y-119855631D01*
X125066891Y-119625265D01*
X125066891Y-119624171D01*
X125272891Y-119624171D01*
X125368145Y-119854703D01*
X125544369Y-120031235D01*
X125774735Y-120126891D01*
X126024171Y-120127109D01*
X126254703Y-120031855D01*
X126431235Y-119855631D01*
X126440145Y-119834171D01*
X127352891Y-119834171D01*
X127448145Y-120064703D01*
X127624369Y-120241235D01*
X127854735Y-120336891D01*
X127894161Y-120336925D01*
X128466000Y-120908764D01*
X128466000Y-120932633D01*
X128220171Y-121178033D01*
X128085154Y-121503190D01*
X128084847Y-121855265D01*
X128219296Y-122180657D01*
X128468033Y-122429829D01*
X128793190Y-122564846D01*
X129145265Y-122565153D01*
X129470657Y-122430704D01*
X129719829Y-122181967D01*
X129854846Y-121856810D01*
X129855153Y-121504735D01*
X129720704Y-121179343D01*
X129474000Y-120932208D01*
X129474000Y-120700000D01*
X129435635Y-120507128D01*
X129326382Y-120343618D01*
X129006935Y-120024171D01*
X132072891Y-120024171D01*
X132168145Y-120254703D01*
X132344369Y-120431235D01*
X132574735Y-120526891D01*
X132824171Y-120527109D01*
X133054703Y-120431855D01*
X133231235Y-120255631D01*
X133326891Y-120025265D01*
X133327109Y-119775829D01*
X133231855Y-119545297D01*
X133055631Y-119368765D01*
X132825265Y-119273109D01*
X132575829Y-119272891D01*
X132345297Y-119368145D01*
X132168765Y-119544369D01*
X132073109Y-119774735D01*
X132072891Y-120024171D01*
X129006935Y-120024171D01*
X128607075Y-119624311D01*
X128607109Y-119585829D01*
X128511855Y-119355297D01*
X128335631Y-119178765D01*
X128105265Y-119083109D01*
X127855829Y-119082891D01*
X127625297Y-119178145D01*
X127448765Y-119354369D01*
X127353109Y-119584735D01*
X127352891Y-119834171D01*
X126440145Y-119834171D01*
X126526891Y-119625265D01*
X126527109Y-119375829D01*
X126431855Y-119145297D01*
X126255631Y-118968765D01*
X126025265Y-118873109D01*
X125775829Y-118872891D01*
X125545297Y-118968145D01*
X125368765Y-119144369D01*
X125273109Y-119374735D01*
X125272891Y-119624171D01*
X125066891Y-119624171D01*
X125067109Y-119375829D01*
X124971855Y-119145297D01*
X124795631Y-118968765D01*
X124565265Y-118873109D01*
X124315829Y-118872891D01*
X124085297Y-118968145D01*
X123908765Y-119144369D01*
X123813109Y-119374735D01*
X123812891Y-119624171D01*
X108727000Y-119624171D01*
X108727000Y-115324171D01*
X115972891Y-115324171D01*
X116068145Y-115554703D01*
X116213287Y-115700099D01*
X116068765Y-115844369D01*
X115973109Y-116074735D01*
X115972891Y-116324171D01*
X116068145Y-116554703D01*
X116213287Y-116700099D01*
X116068765Y-116844369D01*
X115973109Y-117074735D01*
X115972891Y-117324171D01*
X116068145Y-117554703D01*
X116244369Y-117731235D01*
X116474735Y-117826891D01*
X116724171Y-117827109D01*
X116872942Y-117765638D01*
X116872891Y-117824171D01*
X116968145Y-118054703D01*
X117144369Y-118231235D01*
X117374735Y-118326891D01*
X117624171Y-118327109D01*
X117854703Y-118231855D01*
X118031235Y-118055631D01*
X118126891Y-117825265D01*
X118127109Y-117575829D01*
X118031855Y-117345297D01*
X117886713Y-117199901D01*
X118031235Y-117055631D01*
X118126891Y-116825265D01*
X118127109Y-116575829D01*
X118031855Y-116345297D01*
X117886713Y-116199901D01*
X118031235Y-116055631D01*
X118126891Y-115825265D01*
X118127109Y-115575829D01*
X118031855Y-115345297D01*
X117886713Y-115199901D01*
X118031235Y-115055631D01*
X118126891Y-114825265D01*
X118126891Y-114824171D01*
X121172891Y-114824171D01*
X121268145Y-115054703D01*
X121413287Y-115200099D01*
X121268765Y-115344369D01*
X121173109Y-115574735D01*
X121172891Y-115824171D01*
X121268145Y-116054703D01*
X121413287Y-116200099D01*
X121268765Y-116344369D01*
X121173109Y-116574735D01*
X121172891Y-116824171D01*
X121268145Y-117054703D01*
X121413287Y-117200099D01*
X121268765Y-117344369D01*
X121173109Y-117574735D01*
X121172891Y-117824171D01*
X121268145Y-118054703D01*
X121444369Y-118231235D01*
X121674735Y-118326891D01*
X121924171Y-118327109D01*
X122154703Y-118231855D01*
X122331235Y-118055631D01*
X122426891Y-117825265D01*
X122426943Y-117765523D01*
X122574735Y-117826891D01*
X122824171Y-117827109D01*
X123054703Y-117731855D01*
X123231235Y-117555631D01*
X123326891Y-117325265D01*
X123327109Y-117075829D01*
X123231855Y-116845297D01*
X123086713Y-116699901D01*
X123231235Y-116555631D01*
X123326891Y-116325265D01*
X123327109Y-116075829D01*
X123231855Y-115845297D01*
X123086713Y-115699901D01*
X123231235Y-115555631D01*
X123326891Y-115325265D01*
X123327109Y-115075829D01*
X123231855Y-114845297D01*
X123210766Y-114824171D01*
X129072891Y-114824171D01*
X129168145Y-115054703D01*
X129313287Y-115200099D01*
X129168765Y-115344369D01*
X129073109Y-115574735D01*
X129072891Y-115824171D01*
X129168145Y-116054703D01*
X129313287Y-116200099D01*
X129168765Y-116344369D01*
X129073109Y-116574735D01*
X129072891Y-116824171D01*
X129168145Y-117054703D01*
X129313287Y-117200099D01*
X129168765Y-117344369D01*
X129073109Y-117574735D01*
X129072891Y-117824171D01*
X129168145Y-118054703D01*
X129344369Y-118231235D01*
X129574735Y-118326891D01*
X129824171Y-118327109D01*
X130054703Y-118231855D01*
X130231235Y-118055631D01*
X130326891Y-117825265D01*
X130327109Y-117575829D01*
X130231855Y-117345297D01*
X130086713Y-117199901D01*
X130231235Y-117055631D01*
X130326891Y-116825265D01*
X130327109Y-116575829D01*
X130231855Y-116345297D01*
X130086713Y-116199901D01*
X130231235Y-116055631D01*
X130326891Y-115825265D01*
X130327109Y-115575829D01*
X130231855Y-115345297D01*
X130086713Y-115199901D01*
X130231235Y-115055631D01*
X130326891Y-114825265D01*
X130326891Y-114824171D01*
X141172891Y-114824171D01*
X141268145Y-115054703D01*
X141413287Y-115200099D01*
X141268765Y-115344369D01*
X141173109Y-115574735D01*
X141172891Y-115824171D01*
X141268145Y-116054703D01*
X141413287Y-116200099D01*
X141268765Y-116344369D01*
X141173109Y-116574735D01*
X141172891Y-116824171D01*
X141268145Y-117054703D01*
X141413287Y-117200099D01*
X141268765Y-117344369D01*
X141173109Y-117574735D01*
X141172891Y-117824171D01*
X141268145Y-118054703D01*
X141444369Y-118231235D01*
X141674735Y-118326891D01*
X141924171Y-118327109D01*
X142154703Y-118231855D01*
X142331235Y-118055631D01*
X142426891Y-117825265D01*
X142427109Y-117575829D01*
X142331855Y-117345297D01*
X142186713Y-117199901D01*
X142331235Y-117055631D01*
X142426891Y-116825265D01*
X142427109Y-116575829D01*
X142331855Y-116345297D01*
X142186713Y-116199901D01*
X142331235Y-116055631D01*
X142426891Y-115825265D01*
X142427109Y-115575829D01*
X142331855Y-115345297D01*
X142186713Y-115199901D01*
X142331235Y-115055631D01*
X142426891Y-114825265D01*
X142427109Y-114575829D01*
X142331855Y-114345297D01*
X142155631Y-114168765D01*
X141925265Y-114073109D01*
X141675829Y-114072891D01*
X141445297Y-114168145D01*
X141268765Y-114344369D01*
X141173109Y-114574735D01*
X141172891Y-114824171D01*
X130326891Y-114824171D01*
X130327109Y-114575829D01*
X130231855Y-114345297D01*
X130055631Y-114168765D01*
X129825265Y-114073109D01*
X129575829Y-114072891D01*
X129345297Y-114168145D01*
X129168765Y-114344369D01*
X129073109Y-114574735D01*
X129072891Y-114824171D01*
X123210766Y-114824171D01*
X123055631Y-114668765D01*
X122825265Y-114573109D01*
X122575829Y-114572891D01*
X122427058Y-114634362D01*
X122427109Y-114575829D01*
X122331855Y-114345297D01*
X122155631Y-114168765D01*
X121925265Y-114073109D01*
X121675829Y-114072891D01*
X121445297Y-114168145D01*
X121268765Y-114344369D01*
X121173109Y-114574735D01*
X121172891Y-114824171D01*
X118126891Y-114824171D01*
X118127109Y-114575829D01*
X118031855Y-114345297D01*
X117855631Y-114168765D01*
X117625265Y-114073109D01*
X117375829Y-114072891D01*
X117145297Y-114168145D01*
X116968765Y-114344369D01*
X116873109Y-114574735D01*
X116873057Y-114634477D01*
X116725265Y-114573109D01*
X116475829Y-114572891D01*
X116245297Y-114668145D01*
X116068765Y-114844369D01*
X115973109Y-115074735D01*
X115972891Y-115324171D01*
X108727000Y-115324171D01*
X108727000Y-106834171D01*
X113122891Y-106834171D01*
X113218145Y-107064703D01*
X113394369Y-107241235D01*
X113624735Y-107336891D01*
X113874171Y-107337109D01*
X114104703Y-107241855D01*
X114281235Y-107065631D01*
X114376891Y-106835265D01*
X114377109Y-106585829D01*
X114281855Y-106355297D01*
X114105631Y-106178765D01*
X113875265Y-106083109D01*
X113625829Y-106082891D01*
X113395297Y-106178145D01*
X113218765Y-106354369D01*
X113123109Y-106584735D01*
X113122891Y-106834171D01*
X108727000Y-106834171D01*
X108727000Y-102285265D01*
X110504847Y-102285265D01*
X110639296Y-102610657D01*
X110888033Y-102859829D01*
X111213190Y-102994846D01*
X111565265Y-102995153D01*
X111890657Y-102860704D01*
X112139829Y-102611967D01*
X112274846Y-102286810D01*
X112275153Y-101934735D01*
X112140704Y-101609343D01*
X112132070Y-101600694D01*
X112235689Y-101497075D01*
X112274171Y-101497109D01*
X112504703Y-101401855D01*
X112681235Y-101225631D01*
X112776891Y-100995265D01*
X112777109Y-100745829D01*
X112681855Y-100515297D01*
X112505631Y-100338765D01*
X112275265Y-100243109D01*
X112025829Y-100242891D01*
X111795297Y-100338145D01*
X111618765Y-100514369D01*
X111523109Y-100744735D01*
X111523075Y-100784161D01*
X111033618Y-101273618D01*
X111009560Y-101309623D01*
X110889343Y-101359296D01*
X110640171Y-101608033D01*
X110505154Y-101933190D01*
X110504847Y-102285265D01*
X108727000Y-102285265D01*
X108727000Y-99885265D01*
X113314847Y-99885265D01*
X113449296Y-100210657D01*
X113698033Y-100459829D01*
X114023190Y-100594846D01*
X114375265Y-100595153D01*
X114700657Y-100460704D01*
X114949829Y-100211967D01*
X115084846Y-99886810D01*
X115085153Y-99534735D01*
X114950704Y-99209343D01*
X114716103Y-98974332D01*
X114794703Y-98941855D01*
X114971235Y-98765631D01*
X115066891Y-98535265D01*
X115067109Y-98285829D01*
X114971855Y-98055297D01*
X114795631Y-97878765D01*
X114565265Y-97783109D01*
X114315829Y-97782891D01*
X114085297Y-97878145D01*
X113908765Y-98054369D01*
X113813109Y-98284735D01*
X113813061Y-98339349D01*
X113734365Y-98457127D01*
X113732050Y-98468765D01*
X113696000Y-98650000D01*
X113696000Y-98962633D01*
X113450171Y-99208033D01*
X113315154Y-99533190D01*
X113314847Y-99885265D01*
X108727000Y-99885265D01*
X108727000Y-90234171D01*
X112112891Y-90234171D01*
X112208145Y-90464703D01*
X112384369Y-90641235D01*
X112614735Y-90736891D01*
X112654161Y-90736925D01*
X112915124Y-90997888D01*
X112914847Y-91315265D01*
X113049296Y-91640657D01*
X113298033Y-91889829D01*
X113623190Y-92024846D01*
X113975265Y-92025153D01*
X114300657Y-91890704D01*
X114549829Y-91641967D01*
X114684846Y-91316810D01*
X114685153Y-90964735D01*
X114550704Y-90639343D01*
X114301967Y-90390171D01*
X113976810Y-90255154D01*
X113624735Y-90254847D01*
X113605542Y-90262778D01*
X113367075Y-90024311D01*
X113367109Y-89985829D01*
X113271855Y-89755297D01*
X113095631Y-89578765D01*
X112865265Y-89483109D01*
X112615829Y-89482891D01*
X112385297Y-89578145D01*
X112208765Y-89754369D01*
X112113109Y-89984735D01*
X112112891Y-90234171D01*
X108727000Y-90234171D01*
X108727000Y-85927000D01*
X117573000Y-85927000D01*
X117573000Y-96873000D01*
X117573000Y-96873000D01*
G37*
X117573000Y-96873000D02*
X116600000Y-96873000D01*
X116550590Y-96883006D01*
X116508965Y-96911447D01*
X116481685Y-96953841D01*
X116473000Y-97000000D01*
X116473000Y-104100000D01*
X116483006Y-104149410D01*
X116511447Y-104191035D01*
X116553841Y-104218315D01*
X116600000Y-104227000D01*
X119056000Y-104227000D01*
X119056000Y-104322633D01*
X118810171Y-104568033D01*
X118675154Y-104893190D01*
X118674847Y-105245265D01*
X118809296Y-105570657D01*
X119058033Y-105819829D01*
X119383190Y-105954846D01*
X119735265Y-105955153D01*
X120060657Y-105820704D01*
X120309829Y-105571967D01*
X120444846Y-105246810D01*
X120445153Y-104894735D01*
X120310704Y-104569343D01*
X120064000Y-104322208D01*
X120064000Y-104227000D01*
X121595037Y-104227000D01*
X121594847Y-104445265D01*
X121729296Y-104770657D01*
X121978033Y-105019829D01*
X122303190Y-105154846D01*
X122655265Y-105155153D01*
X122980657Y-105020704D01*
X123229829Y-104771967D01*
X123364846Y-104446810D01*
X123365038Y-104227000D01*
X124166357Y-104227000D01*
X124038765Y-104354369D01*
X123943109Y-104584735D01*
X123942891Y-104834171D01*
X124038145Y-105064703D01*
X124079370Y-105106000D01*
X124062731Y-105106000D01*
X123985631Y-105028765D01*
X123755265Y-104933109D01*
X123505829Y-104932891D01*
X123275297Y-105028145D01*
X123098765Y-105204369D01*
X123003109Y-105434735D01*
X123002891Y-105684171D01*
X123098145Y-105914703D01*
X123274369Y-106091235D01*
X123504735Y-106186891D01*
X123754171Y-106187109D01*
X123931108Y-106114000D01*
X124292633Y-106114000D01*
X124538033Y-106359829D01*
X124863190Y-106494846D01*
X125215265Y-106495153D01*
X125540657Y-106360704D01*
X125789829Y-106111967D01*
X125924846Y-105786810D01*
X125925153Y-105434735D01*
X125790704Y-105109343D01*
X125541967Y-104860171D01*
X125216810Y-104725154D01*
X125196987Y-104725137D01*
X125197109Y-104585829D01*
X125101855Y-104355297D01*
X124973782Y-104227000D01*
X125283251Y-104227000D01*
X125294365Y-104282873D01*
X125403618Y-104446382D01*
X125973000Y-105015764D01*
X125973000Y-113000000D01*
X125983006Y-113049410D01*
X126011447Y-113091035D01*
X126053841Y-113118315D01*
X126100000Y-113127000D01*
X156273000Y-113127000D01*
X156273000Y-123442969D01*
X151815626Y-127405079D01*
X151785344Y-127445384D01*
X151773000Y-127500000D01*
X151773000Y-145973000D01*
X119227000Y-145973000D01*
X119227000Y-131900000D01*
X119216994Y-131850590D01*
X119188553Y-131808965D01*
X119146159Y-131781685D01*
X119100000Y-131773000D01*
X108727000Y-131773000D01*
X108727000Y-130375265D01*
X126314847Y-130375265D01*
X126449296Y-130700657D01*
X126698033Y-130949829D01*
X127023190Y-131084846D01*
X127375265Y-131085153D01*
X127700657Y-130950704D01*
X127949829Y-130701967D01*
X128084846Y-130376810D01*
X128085153Y-130024735D01*
X127950704Y-129699343D01*
X127704271Y-129452479D01*
X127771235Y-129385631D01*
X127866891Y-129155265D01*
X127867109Y-128905829D01*
X127771855Y-128675297D01*
X127595631Y-128498765D01*
X127365265Y-128403109D01*
X127115829Y-128402891D01*
X126885297Y-128498145D01*
X126708765Y-128674369D01*
X126613109Y-128904735D01*
X126612891Y-129154171D01*
X126696000Y-129355310D01*
X126696000Y-129452633D01*
X126450171Y-129698033D01*
X126315154Y-130023190D01*
X126314847Y-130375265D01*
X108727000Y-130375265D01*
X108727000Y-123624171D01*
X112072891Y-123624171D01*
X112168145Y-123854703D01*
X112344369Y-124031235D01*
X112574735Y-124126891D01*
X112824171Y-124127109D01*
X113054703Y-124031855D01*
X113231235Y-123855631D01*
X113326891Y-123625265D01*
X113327109Y-123375829D01*
X113231855Y-123145297D01*
X113200784Y-123114171D01*
X122272891Y-123114171D01*
X122368145Y-123344703D01*
X122544369Y-123521235D01*
X122774735Y-123616891D01*
X123024171Y-123617109D01*
X123254703Y-123521855D01*
X123431235Y-123345631D01*
X123523192Y-123124171D01*
X124482891Y-123124171D01*
X124578145Y-123354703D01*
X124754369Y-123531235D01*
X124984735Y-123626891D01*
X125234171Y-123627109D01*
X125464703Y-123531855D01*
X125641235Y-123355631D01*
X125736891Y-123125265D01*
X125737109Y-122875829D01*
X125678578Y-122734171D01*
X136062891Y-122734171D01*
X136158145Y-122964703D01*
X136334369Y-123141235D01*
X136564735Y-123236891D01*
X136604161Y-123236925D01*
X136723618Y-123356382D01*
X136887127Y-123465635D01*
X137080000Y-123504000D01*
X137692633Y-123504000D01*
X137938033Y-123749829D01*
X138263190Y-123884846D01*
X138615265Y-123885153D01*
X138940657Y-123750704D01*
X139189829Y-123501967D01*
X139324846Y-123176810D01*
X139325153Y-122824735D01*
X139190704Y-122499343D01*
X138941967Y-122250171D01*
X138902766Y-122233893D01*
X139021235Y-122115631D01*
X139116891Y-121885265D01*
X139117109Y-121635829D01*
X139021855Y-121405297D01*
X138845631Y-121228765D01*
X138615265Y-121133109D01*
X138365829Y-121132891D01*
X138135297Y-121228145D01*
X137958765Y-121404369D01*
X137863109Y-121634735D01*
X137862891Y-121884171D01*
X137958145Y-122114703D01*
X138047777Y-122204492D01*
X137939343Y-122249296D01*
X137692208Y-122496000D01*
X137317100Y-122496000D01*
X137317109Y-122485829D01*
X137221855Y-122255297D01*
X137045631Y-122078765D01*
X136815265Y-121983109D01*
X136565829Y-121982891D01*
X136335297Y-122078145D01*
X136158765Y-122254369D01*
X136063109Y-122484735D01*
X136062891Y-122734171D01*
X125678578Y-122734171D01*
X125641855Y-122645297D01*
X125465631Y-122468765D01*
X125235265Y-122373109D01*
X124985829Y-122372891D01*
X124755297Y-122468145D01*
X124578765Y-122644369D01*
X124483109Y-122874735D01*
X124482891Y-123124171D01*
X123523192Y-123124171D01*
X123526891Y-123115265D01*
X123527109Y-122865829D01*
X123431855Y-122635297D01*
X123255631Y-122458765D01*
X123025265Y-122363109D01*
X122775829Y-122362891D01*
X122545297Y-122458145D01*
X122368765Y-122634369D01*
X122273109Y-122864735D01*
X122272891Y-123114171D01*
X113200784Y-123114171D01*
X113055631Y-122968765D01*
X112825265Y-122873109D01*
X112575829Y-122872891D01*
X112345297Y-122968145D01*
X112168765Y-123144369D01*
X112073109Y-123374735D01*
X112072891Y-123624171D01*
X108727000Y-123624171D01*
X108727000Y-122084171D01*
X115332891Y-122084171D01*
X115428145Y-122314703D01*
X115604369Y-122491235D01*
X115834735Y-122586891D01*
X116084171Y-122587109D01*
X116314703Y-122491855D01*
X116491235Y-122315631D01*
X116586891Y-122085265D01*
X116587109Y-121835829D01*
X116491855Y-121605297D01*
X116315631Y-121428765D01*
X116085265Y-121333109D01*
X115835829Y-121332891D01*
X115605297Y-121428145D01*
X115428765Y-121604369D01*
X115333109Y-121834735D01*
X115332891Y-122084171D01*
X108727000Y-122084171D01*
X108727000Y-119624171D01*
X123812891Y-119624171D01*
X123908145Y-119854703D01*
X124084369Y-120031235D01*
X124314735Y-120126891D01*
X124564171Y-120127109D01*
X124794703Y-120031855D01*
X124971235Y-119855631D01*
X125066891Y-119625265D01*
X125066891Y-119624171D01*
X125272891Y-119624171D01*
X125368145Y-119854703D01*
X125544369Y-120031235D01*
X125774735Y-120126891D01*
X126024171Y-120127109D01*
X126254703Y-120031855D01*
X126431235Y-119855631D01*
X126440145Y-119834171D01*
X127352891Y-119834171D01*
X127448145Y-120064703D01*
X127624369Y-120241235D01*
X127854735Y-120336891D01*
X127894161Y-120336925D01*
X128466000Y-120908764D01*
X128466000Y-120932633D01*
X128220171Y-121178033D01*
X128085154Y-121503190D01*
X128084847Y-121855265D01*
X128219296Y-122180657D01*
X128468033Y-122429829D01*
X128793190Y-122564846D01*
X129145265Y-122565153D01*
X129470657Y-122430704D01*
X129719829Y-122181967D01*
X129854846Y-121856810D01*
X129855153Y-121504735D01*
X129720704Y-121179343D01*
X129474000Y-120932208D01*
X129474000Y-120700000D01*
X129435635Y-120507128D01*
X129326382Y-120343618D01*
X129006935Y-120024171D01*
X132072891Y-120024171D01*
X132168145Y-120254703D01*
X132344369Y-120431235D01*
X132574735Y-120526891D01*
X132824171Y-120527109D01*
X133054703Y-120431855D01*
X133231235Y-120255631D01*
X133326891Y-120025265D01*
X133327109Y-119775829D01*
X133231855Y-119545297D01*
X133055631Y-119368765D01*
X132825265Y-119273109D01*
X132575829Y-119272891D01*
X132345297Y-119368145D01*
X132168765Y-119544369D01*
X132073109Y-119774735D01*
X132072891Y-120024171D01*
X129006935Y-120024171D01*
X128607075Y-119624311D01*
X128607109Y-119585829D01*
X128511855Y-119355297D01*
X128335631Y-119178765D01*
X128105265Y-119083109D01*
X127855829Y-119082891D01*
X127625297Y-119178145D01*
X127448765Y-119354369D01*
X127353109Y-119584735D01*
X127352891Y-119834171D01*
X126440145Y-119834171D01*
X126526891Y-119625265D01*
X126527109Y-119375829D01*
X126431855Y-119145297D01*
X126255631Y-118968765D01*
X126025265Y-118873109D01*
X125775829Y-118872891D01*
X125545297Y-118968145D01*
X125368765Y-119144369D01*
X125273109Y-119374735D01*
X125272891Y-119624171D01*
X125066891Y-119624171D01*
X125067109Y-119375829D01*
X124971855Y-119145297D01*
X124795631Y-118968765D01*
X124565265Y-118873109D01*
X124315829Y-118872891D01*
X124085297Y-118968145D01*
X123908765Y-119144369D01*
X123813109Y-119374735D01*
X123812891Y-119624171D01*
X108727000Y-119624171D01*
X108727000Y-115324171D01*
X115972891Y-115324171D01*
X116068145Y-115554703D01*
X116213287Y-115700099D01*
X116068765Y-115844369D01*
X115973109Y-116074735D01*
X115972891Y-116324171D01*
X116068145Y-116554703D01*
X116213287Y-116700099D01*
X116068765Y-116844369D01*
X115973109Y-117074735D01*
X115972891Y-117324171D01*
X116068145Y-117554703D01*
X116244369Y-117731235D01*
X116474735Y-117826891D01*
X116724171Y-117827109D01*
X116872942Y-117765638D01*
X116872891Y-117824171D01*
X116968145Y-118054703D01*
X117144369Y-118231235D01*
X117374735Y-118326891D01*
X117624171Y-118327109D01*
X117854703Y-118231855D01*
X118031235Y-118055631D01*
X118126891Y-117825265D01*
X118127109Y-117575829D01*
X118031855Y-117345297D01*
X117886713Y-117199901D01*
X118031235Y-117055631D01*
X118126891Y-116825265D01*
X118127109Y-116575829D01*
X118031855Y-116345297D01*
X117886713Y-116199901D01*
X118031235Y-116055631D01*
X118126891Y-115825265D01*
X118127109Y-115575829D01*
X118031855Y-115345297D01*
X117886713Y-115199901D01*
X118031235Y-115055631D01*
X118126891Y-114825265D01*
X118126891Y-114824171D01*
X121172891Y-114824171D01*
X121268145Y-115054703D01*
X121413287Y-115200099D01*
X121268765Y-115344369D01*
X121173109Y-115574735D01*
X121172891Y-115824171D01*
X121268145Y-116054703D01*
X121413287Y-116200099D01*
X121268765Y-116344369D01*
X121173109Y-116574735D01*
X121172891Y-116824171D01*
X121268145Y-117054703D01*
X121413287Y-117200099D01*
X121268765Y-117344369D01*
X121173109Y-117574735D01*
X121172891Y-117824171D01*
X121268145Y-118054703D01*
X121444369Y-118231235D01*
X121674735Y-118326891D01*
X121924171Y-118327109D01*
X122154703Y-118231855D01*
X122331235Y-118055631D01*
X122426891Y-117825265D01*
X122426943Y-117765523D01*
X122574735Y-117826891D01*
X122824171Y-117827109D01*
X123054703Y-117731855D01*
X123231235Y-117555631D01*
X123326891Y-117325265D01*
X123327109Y-117075829D01*
X123231855Y-116845297D01*
X123086713Y-116699901D01*
X123231235Y-116555631D01*
X123326891Y-116325265D01*
X123327109Y-116075829D01*
X123231855Y-115845297D01*
X123086713Y-115699901D01*
X123231235Y-115555631D01*
X123326891Y-115325265D01*
X123327109Y-115075829D01*
X123231855Y-114845297D01*
X123210766Y-114824171D01*
X129072891Y-114824171D01*
X129168145Y-115054703D01*
X129313287Y-115200099D01*
X129168765Y-115344369D01*
X129073109Y-115574735D01*
X129072891Y-115824171D01*
X129168145Y-116054703D01*
X129313287Y-116200099D01*
X129168765Y-116344369D01*
X129073109Y-116574735D01*
X129072891Y-116824171D01*
X129168145Y-117054703D01*
X129313287Y-117200099D01*
X129168765Y-117344369D01*
X129073109Y-117574735D01*
X129072891Y-117824171D01*
X129168145Y-118054703D01*
X129344369Y-118231235D01*
X129574735Y-118326891D01*
X129824171Y-118327109D01*
X130054703Y-118231855D01*
X130231235Y-118055631D01*
X130326891Y-117825265D01*
X130327109Y-117575829D01*
X130231855Y-117345297D01*
X130086713Y-117199901D01*
X130231235Y-117055631D01*
X130326891Y-116825265D01*
X130327109Y-116575829D01*
X130231855Y-116345297D01*
X130086713Y-116199901D01*
X130231235Y-116055631D01*
X130326891Y-115825265D01*
X130327109Y-115575829D01*
X130231855Y-115345297D01*
X130086713Y-115199901D01*
X130231235Y-115055631D01*
X130326891Y-114825265D01*
X130326891Y-114824171D01*
X141172891Y-114824171D01*
X141268145Y-115054703D01*
X141413287Y-115200099D01*
X141268765Y-115344369D01*
X141173109Y-115574735D01*
X141172891Y-115824171D01*
X141268145Y-116054703D01*
X141413287Y-116200099D01*
X141268765Y-116344369D01*
X141173109Y-116574735D01*
X141172891Y-116824171D01*
X141268145Y-117054703D01*
X141413287Y-117200099D01*
X141268765Y-117344369D01*
X141173109Y-117574735D01*
X141172891Y-117824171D01*
X141268145Y-118054703D01*
X141444369Y-118231235D01*
X141674735Y-118326891D01*
X141924171Y-118327109D01*
X142154703Y-118231855D01*
X142331235Y-118055631D01*
X142426891Y-117825265D01*
X142427109Y-117575829D01*
X142331855Y-117345297D01*
X142186713Y-117199901D01*
X142331235Y-117055631D01*
X142426891Y-116825265D01*
X142427109Y-116575829D01*
X142331855Y-116345297D01*
X142186713Y-116199901D01*
X142331235Y-116055631D01*
X142426891Y-115825265D01*
X142427109Y-115575829D01*
X142331855Y-115345297D01*
X142186713Y-115199901D01*
X142331235Y-115055631D01*
X142426891Y-114825265D01*
X142427109Y-114575829D01*
X142331855Y-114345297D01*
X142155631Y-114168765D01*
X141925265Y-114073109D01*
X141675829Y-114072891D01*
X141445297Y-114168145D01*
X141268765Y-114344369D01*
X141173109Y-114574735D01*
X141172891Y-114824171D01*
X130326891Y-114824171D01*
X130327109Y-114575829D01*
X130231855Y-114345297D01*
X130055631Y-114168765D01*
X129825265Y-114073109D01*
X129575829Y-114072891D01*
X129345297Y-114168145D01*
X129168765Y-114344369D01*
X129073109Y-114574735D01*
X129072891Y-114824171D01*
X123210766Y-114824171D01*
X123055631Y-114668765D01*
X122825265Y-114573109D01*
X122575829Y-114572891D01*
X122427058Y-114634362D01*
X122427109Y-114575829D01*
X122331855Y-114345297D01*
X122155631Y-114168765D01*
X121925265Y-114073109D01*
X121675829Y-114072891D01*
X121445297Y-114168145D01*
X121268765Y-114344369D01*
X121173109Y-114574735D01*
X121172891Y-114824171D01*
X118126891Y-114824171D01*
X118127109Y-114575829D01*
X118031855Y-114345297D01*
X117855631Y-114168765D01*
X117625265Y-114073109D01*
X117375829Y-114072891D01*
X117145297Y-114168145D01*
X116968765Y-114344369D01*
X116873109Y-114574735D01*
X116873057Y-114634477D01*
X116725265Y-114573109D01*
X116475829Y-114572891D01*
X116245297Y-114668145D01*
X116068765Y-114844369D01*
X115973109Y-115074735D01*
X115972891Y-115324171D01*
X108727000Y-115324171D01*
X108727000Y-106834171D01*
X113122891Y-106834171D01*
X113218145Y-107064703D01*
X113394369Y-107241235D01*
X113624735Y-107336891D01*
X113874171Y-107337109D01*
X114104703Y-107241855D01*
X114281235Y-107065631D01*
X114376891Y-106835265D01*
X114377109Y-106585829D01*
X114281855Y-106355297D01*
X114105631Y-106178765D01*
X113875265Y-106083109D01*
X113625829Y-106082891D01*
X113395297Y-106178145D01*
X113218765Y-106354369D01*
X113123109Y-106584735D01*
X113122891Y-106834171D01*
X108727000Y-106834171D01*
X108727000Y-102285265D01*
X110504847Y-102285265D01*
X110639296Y-102610657D01*
X110888033Y-102859829D01*
X111213190Y-102994846D01*
X111565265Y-102995153D01*
X111890657Y-102860704D01*
X112139829Y-102611967D01*
X112274846Y-102286810D01*
X112275153Y-101934735D01*
X112140704Y-101609343D01*
X112132070Y-101600694D01*
X112235689Y-101497075D01*
X112274171Y-101497109D01*
X112504703Y-101401855D01*
X112681235Y-101225631D01*
X112776891Y-100995265D01*
X112777109Y-100745829D01*
X112681855Y-100515297D01*
X112505631Y-100338765D01*
X112275265Y-100243109D01*
X112025829Y-100242891D01*
X111795297Y-100338145D01*
X111618765Y-100514369D01*
X111523109Y-100744735D01*
X111523075Y-100784161D01*
X111033618Y-101273618D01*
X111009560Y-101309623D01*
X110889343Y-101359296D01*
X110640171Y-101608033D01*
X110505154Y-101933190D01*
X110504847Y-102285265D01*
X108727000Y-102285265D01*
X108727000Y-99885265D01*
X113314847Y-99885265D01*
X113449296Y-100210657D01*
X113698033Y-100459829D01*
X114023190Y-100594846D01*
X114375265Y-100595153D01*
X114700657Y-100460704D01*
X114949829Y-100211967D01*
X115084846Y-99886810D01*
X115085153Y-99534735D01*
X114950704Y-99209343D01*
X114716103Y-98974332D01*
X114794703Y-98941855D01*
X114971235Y-98765631D01*
X115066891Y-98535265D01*
X115067109Y-98285829D01*
X114971855Y-98055297D01*
X114795631Y-97878765D01*
X114565265Y-97783109D01*
X114315829Y-97782891D01*
X114085297Y-97878145D01*
X113908765Y-98054369D01*
X113813109Y-98284735D01*
X113813061Y-98339349D01*
X113734365Y-98457127D01*
X113732050Y-98468765D01*
X113696000Y-98650000D01*
X113696000Y-98962633D01*
X113450171Y-99208033D01*
X113315154Y-99533190D01*
X113314847Y-99885265D01*
X108727000Y-99885265D01*
X108727000Y-90234171D01*
X112112891Y-90234171D01*
X112208145Y-90464703D01*
X112384369Y-90641235D01*
X112614735Y-90736891D01*
X112654161Y-90736925D01*
X112915124Y-90997888D01*
X112914847Y-91315265D01*
X113049296Y-91640657D01*
X113298033Y-91889829D01*
X113623190Y-92024846D01*
X113975265Y-92025153D01*
X114300657Y-91890704D01*
X114549829Y-91641967D01*
X114684846Y-91316810D01*
X114685153Y-90964735D01*
X114550704Y-90639343D01*
X114301967Y-90390171D01*
X113976810Y-90255154D01*
X113624735Y-90254847D01*
X113605542Y-90262778D01*
X113367075Y-90024311D01*
X113367109Y-89985829D01*
X113271855Y-89755297D01*
X113095631Y-89578765D01*
X112865265Y-89483109D01*
X112615829Y-89482891D01*
X112385297Y-89578145D01*
X112208765Y-89754369D01*
X112113109Y-89984735D01*
X112112891Y-90234171D01*
X108727000Y-90234171D01*
X108727000Y-85927000D01*
X117573000Y-85927000D01*
X117573000Y-96873000D01*
G36*
X117573000Y-85373000D02*
X108200000Y-85373000D01*
X108150590Y-85383006D01*
X108108965Y-85411447D01*
X108081685Y-85453841D01*
X108073000Y-85500000D01*
X108073000Y-132300000D01*
X108083006Y-132349410D01*
X108111447Y-132391035D01*
X108153841Y-132418315D01*
X108200000Y-132427000D01*
X118473000Y-132427000D01*
X118473000Y-146500000D01*
X118483006Y-146549410D01*
X118511447Y-146591035D01*
X118553841Y-146618315D01*
X118600000Y-146627000D01*
X152200000Y-146627000D01*
X152249410Y-146616994D01*
X152291035Y-146588553D01*
X152318315Y-146546159D01*
X152327000Y-146500000D01*
X152327000Y-130375265D01*
X165814847Y-130375265D01*
X165949296Y-130700657D01*
X166153000Y-130904717D01*
X166153000Y-132724584D01*
X166103109Y-132844735D01*
X166102891Y-133094171D01*
X166198145Y-133324703D01*
X166374369Y-133501235D01*
X166604735Y-133596891D01*
X166854171Y-133597109D01*
X167084703Y-133501855D01*
X167261235Y-133325631D01*
X167356891Y-133095265D01*
X167357109Y-132845829D01*
X167261855Y-132615297D01*
X167247000Y-132600416D01*
X167247000Y-130904442D01*
X167449829Y-130701967D01*
X167584846Y-130376810D01*
X167585153Y-130024735D01*
X167450704Y-129699343D01*
X167201967Y-129450171D01*
X166876810Y-129315154D01*
X166524735Y-129314847D01*
X166199343Y-129449296D01*
X165950171Y-129698033D01*
X165815154Y-130023190D01*
X165814847Y-130375265D01*
X152327000Y-130375265D01*
X152327000Y-127857865D01*
X156883335Y-123895835D01*
X156914054Y-123855863D01*
X156927000Y-123800000D01*
X156927000Y-122644171D01*
X157252891Y-122644171D01*
X157348145Y-122874703D01*
X157524369Y-123051235D01*
X157754735Y-123146891D01*
X157794161Y-123146925D01*
X158093618Y-123446382D01*
X158257128Y-123555635D01*
X158450000Y-123594000D01*
X158552633Y-123594000D01*
X158798033Y-123839829D01*
X159123190Y-123974846D01*
X159475265Y-123975153D01*
X159800657Y-123840704D01*
X160049829Y-123591967D01*
X160184846Y-123266810D01*
X160185153Y-122914735D01*
X160050704Y-122589343D01*
X159801967Y-122340171D01*
X159476810Y-122205154D01*
X159124735Y-122204847D01*
X158799343Y-122339296D01*
X158605532Y-122532768D01*
X158507075Y-122434311D01*
X158507109Y-122395829D01*
X158411855Y-122165297D01*
X158235631Y-121988765D01*
X158005265Y-121893109D01*
X157755829Y-121892891D01*
X157525297Y-121988145D01*
X157348765Y-122164369D01*
X157253109Y-122394735D01*
X157252891Y-122644171D01*
X156927000Y-122644171D01*
X156927000Y-120454171D01*
X161402891Y-120454171D01*
X161498145Y-120684703D01*
X161674369Y-120861235D01*
X161904735Y-120956891D01*
X162154171Y-120957109D01*
X162384703Y-120861855D01*
X162561235Y-120685631D01*
X162656891Y-120455265D01*
X162657109Y-120205829D01*
X162594446Y-120054171D01*
X170572891Y-120054171D01*
X170668145Y-120284703D01*
X170844369Y-120461235D01*
X171074735Y-120556891D01*
X171324171Y-120557109D01*
X171554703Y-120461855D01*
X171731235Y-120285631D01*
X171826891Y-120055265D01*
X171827109Y-119805829D01*
X171731855Y-119575297D01*
X171555631Y-119398765D01*
X171325265Y-119303109D01*
X171075829Y-119302891D01*
X170845297Y-119398145D01*
X170668765Y-119574369D01*
X170573109Y-119804735D01*
X170572891Y-120054171D01*
X162594446Y-120054171D01*
X162561855Y-119975297D01*
X162385631Y-119798765D01*
X162155265Y-119703109D01*
X161905829Y-119702891D01*
X161675297Y-119798145D01*
X161498765Y-119974369D01*
X161403109Y-120204735D01*
X161402891Y-120454171D01*
X156927000Y-120454171D01*
X156927000Y-117525265D01*
X173484847Y-117525265D01*
X173619296Y-117850657D01*
X173868033Y-118099829D01*
X174193190Y-118234846D01*
X174545265Y-118235153D01*
X174870657Y-118100704D01*
X175119829Y-117851967D01*
X175235251Y-117574000D01*
X175277182Y-117574000D01*
X175304369Y-117601235D01*
X175534735Y-117696891D01*
X175784171Y-117697109D01*
X176014703Y-117601855D01*
X176191235Y-117425631D01*
X176286891Y-117195265D01*
X176287109Y-116945829D01*
X176191855Y-116715297D01*
X176015631Y-116538765D01*
X175785265Y-116443109D01*
X175535829Y-116442891D01*
X175305297Y-116538145D01*
X175277393Y-116566000D01*
X174789674Y-116566000D01*
X174546810Y-116465154D01*
X174194735Y-116464847D01*
X173869343Y-116599296D01*
X173620171Y-116848033D01*
X173485154Y-117173190D01*
X173484847Y-117525265D01*
X156927000Y-117525265D01*
X156927000Y-113127000D01*
X171200000Y-113127000D01*
X171249410Y-113116994D01*
X171291035Y-113088553D01*
X171318315Y-113046159D01*
X171327000Y-113000000D01*
X171327000Y-111995265D01*
X174944847Y-111995265D01*
X175079296Y-112320657D01*
X175326000Y-112567792D01*
X175326000Y-113170000D01*
X175364365Y-113362873D01*
X175473618Y-113526382D01*
X176072925Y-114125689D01*
X176072891Y-114164171D01*
X176168145Y-114394703D01*
X176344369Y-114571235D01*
X176574735Y-114666891D01*
X176824171Y-114667109D01*
X177054703Y-114571855D01*
X177231235Y-114395631D01*
X177326891Y-114165265D01*
X177327109Y-113915829D01*
X177231855Y-113685297D01*
X177055631Y-113508765D01*
X176825265Y-113413109D01*
X176785839Y-113413075D01*
X176334000Y-112961236D01*
X176334000Y-112864171D01*
X183472891Y-112864171D01*
X183568145Y-113094703D01*
X183744369Y-113271235D01*
X183974735Y-113366891D01*
X184224171Y-113367109D01*
X184454703Y-113271855D01*
X184631235Y-113095631D01*
X184726891Y-112865265D01*
X184727109Y-112615829D01*
X184631855Y-112385297D01*
X184455631Y-112208765D01*
X184225265Y-112113109D01*
X183975829Y-112112891D01*
X183745297Y-112208145D01*
X183568765Y-112384369D01*
X183473109Y-112614735D01*
X183472891Y-112864171D01*
X176334000Y-112864171D01*
X176334000Y-112567367D01*
X176579829Y-112321967D01*
X176714846Y-111996810D01*
X176715153Y-111644735D01*
X176580704Y-111319343D01*
X176331967Y-111070171D01*
X176006810Y-110935154D01*
X175654735Y-110934847D01*
X175329343Y-111069296D01*
X175080171Y-111318033D01*
X174945154Y-111643190D01*
X174944847Y-111995265D01*
X171327000Y-111995265D01*
X171327000Y-110170574D01*
X171553213Y-110396787D01*
X171730672Y-110515362D01*
X171940000Y-110557000D01*
X176495215Y-110557000D01*
X176413109Y-110754735D01*
X176412891Y-111004171D01*
X176508145Y-111234703D01*
X176684369Y-111411235D01*
X176914735Y-111506891D01*
X177164171Y-111507109D01*
X177268088Y-111464171D01*
X178312891Y-111464171D01*
X178408145Y-111694703D01*
X178584369Y-111871235D01*
X178814735Y-111966891D01*
X179064171Y-111967109D01*
X179294703Y-111871855D01*
X179322607Y-111844000D01*
X180225101Y-111844000D01*
X180224847Y-112135265D01*
X180359296Y-112460657D01*
X180608033Y-112709829D01*
X180933190Y-112844846D01*
X181285265Y-112845153D01*
X181610657Y-112710704D01*
X181859829Y-112461967D01*
X181994846Y-112136810D01*
X181995153Y-111784735D01*
X181860704Y-111459343D01*
X181795646Y-111394171D01*
X185342891Y-111394171D01*
X185438145Y-111624703D01*
X185614369Y-111801235D01*
X185844735Y-111896891D01*
X185884161Y-111896925D01*
X186123618Y-112136382D01*
X186287127Y-112245635D01*
X186480000Y-112284000D01*
X186822633Y-112284000D01*
X187068033Y-112529829D01*
X187393190Y-112664846D01*
X187745265Y-112665153D01*
X188070657Y-112530704D01*
X188319829Y-112281967D01*
X188454846Y-111956810D01*
X188455153Y-111604735D01*
X188320704Y-111279343D01*
X188071967Y-111030171D01*
X187746810Y-110895154D01*
X187394735Y-110894847D01*
X187069343Y-111029296D01*
X186822208Y-111276000D01*
X186688764Y-111276000D01*
X186597075Y-111184311D01*
X186597109Y-111145829D01*
X186501855Y-110915297D01*
X186325631Y-110738765D01*
X186095265Y-110643109D01*
X185845829Y-110642891D01*
X185615297Y-110738145D01*
X185438765Y-110914369D01*
X185343109Y-111144735D01*
X185342891Y-111394171D01*
X181795646Y-111394171D01*
X181611967Y-111210171D01*
X181286810Y-111075154D01*
X180937614Y-111074850D01*
X180846382Y-110983618D01*
X180682873Y-110874365D01*
X180490000Y-110836000D01*
X179322818Y-110836000D01*
X179295631Y-110808765D01*
X179065265Y-110713109D01*
X178815829Y-110712891D01*
X178585297Y-110808145D01*
X178408765Y-110984369D01*
X178313109Y-111214735D01*
X178312891Y-111464171D01*
X177268088Y-111464171D01*
X177394703Y-111411855D01*
X177571235Y-111235631D01*
X177666891Y-111005265D01*
X177667109Y-110755829D01*
X177584954Y-110557000D01*
X179220000Y-110557000D01*
X179429328Y-110515362D01*
X179606787Y-110396787D01*
X181456575Y-108547000D01*
X183154236Y-108547000D01*
X183312865Y-108705629D01*
X183185154Y-109013190D01*
X183184847Y-109365265D01*
X183319296Y-109690657D01*
X183568033Y-109939829D01*
X183893190Y-110074846D01*
X184245265Y-110075153D01*
X184570657Y-109940704D01*
X184819829Y-109691967D01*
X184954846Y-109366810D01*
X184955153Y-109014735D01*
X184820704Y-108689343D01*
X184678609Y-108547000D01*
X184690000Y-108547000D01*
X184899328Y-108505362D01*
X185076787Y-108386787D01*
X185568309Y-107895265D01*
X187214847Y-107895265D01*
X187349296Y-108220657D01*
X187598033Y-108469829D01*
X187923190Y-108604846D01*
X188275265Y-108605153D01*
X188600657Y-108470704D01*
X188849829Y-108221967D01*
X188984846Y-107896810D01*
X188985116Y-107587648D01*
X189245689Y-107327075D01*
X189284171Y-107327109D01*
X189514703Y-107231855D01*
X189691235Y-107055631D01*
X189786891Y-106825265D01*
X189787109Y-106575829D01*
X189691855Y-106345297D01*
X189515631Y-106168765D01*
X189285265Y-106073109D01*
X189035829Y-106072891D01*
X188805297Y-106168145D01*
X188628765Y-106344369D01*
X188533109Y-106574735D01*
X188533075Y-106614161D01*
X188301733Y-106845503D01*
X188276810Y-106835154D01*
X187924735Y-106834847D01*
X187599343Y-106969296D01*
X187350171Y-107218033D01*
X187215154Y-107543190D01*
X187214847Y-107895265D01*
X185568309Y-107895265D01*
X185642164Y-107821411D01*
X185834703Y-107741855D01*
X186011235Y-107565631D01*
X186106891Y-107335265D01*
X186107109Y-107085829D01*
X186011855Y-106855297D01*
X185835631Y-106678765D01*
X185605265Y-106583109D01*
X185355829Y-106582891D01*
X185125297Y-106678145D01*
X184948765Y-106854369D01*
X184868318Y-107048107D01*
X184463426Y-107453000D01*
X181230000Y-107453000D01*
X181020672Y-107494638D01*
X180843212Y-107613213D01*
X178993426Y-109463000D01*
X173013766Y-109463000D01*
X173071235Y-109405631D01*
X173166891Y-109175265D01*
X173167109Y-108925829D01*
X173071855Y-108695297D01*
X172895631Y-108518765D01*
X172665265Y-108423109D01*
X172415829Y-108422891D01*
X172185297Y-108518145D01*
X172008765Y-108694369D01*
X171913109Y-108924735D01*
X171912891Y-109174171D01*
X171937639Y-109234065D01*
X171537000Y-108833426D01*
X171537000Y-104919764D01*
X172623616Y-106006379D01*
X172623618Y-106006382D01*
X172787128Y-106115635D01*
X172980000Y-106154000D01*
X174193236Y-106154000D01*
X173447365Y-106899871D01*
X173279343Y-106969296D01*
X173030171Y-107218033D01*
X172895154Y-107543190D01*
X172894847Y-107895265D01*
X173029296Y-108220657D01*
X173278033Y-108469829D01*
X173603190Y-108604846D01*
X173955265Y-108605153D01*
X174280657Y-108470704D01*
X174529829Y-108221967D01*
X174664846Y-107896810D01*
X174665153Y-107544735D01*
X174537346Y-107235418D01*
X174780111Y-106992653D01*
X174818145Y-107084703D01*
X174994369Y-107261235D01*
X175224735Y-107356891D01*
X175254153Y-107356917D01*
X176175150Y-108277914D01*
X176174847Y-108625265D01*
X176309296Y-108950657D01*
X176558033Y-109199829D01*
X176883190Y-109334846D01*
X177235265Y-109335153D01*
X177560657Y-109200704D01*
X177809829Y-108951967D01*
X177944846Y-108626810D01*
X177945153Y-108274735D01*
X177810704Y-107949343D01*
X177561967Y-107700171D01*
X177236810Y-107565154D01*
X176887614Y-107564850D01*
X175977067Y-106654303D01*
X175977109Y-106605829D01*
X175881855Y-106375297D01*
X175705631Y-106198765D01*
X175683566Y-106189603D01*
X175726891Y-106085265D01*
X175727109Y-105835829D01*
X175661305Y-105676572D01*
X175854735Y-105756891D01*
X176104171Y-105757109D01*
X176234651Y-105703196D01*
X176349296Y-105980657D01*
X176598033Y-106229829D01*
X176923190Y-106364846D01*
X177275265Y-106365153D01*
X177600657Y-106230704D01*
X177849829Y-105981967D01*
X177984846Y-105656810D01*
X177985153Y-105304735D01*
X177850704Y-104979343D01*
X177775493Y-104904000D01*
X179747693Y-104904000D01*
X179615154Y-105223190D01*
X179614847Y-105575265D01*
X179749296Y-105900657D01*
X179996000Y-106147792D01*
X179996000Y-106317182D01*
X179968765Y-106344369D01*
X179873109Y-106574735D01*
X179872891Y-106824171D01*
X179968145Y-107054703D01*
X180144369Y-107231235D01*
X180374735Y-107326891D01*
X180624171Y-107327109D01*
X180854703Y-107231855D01*
X181031235Y-107055631D01*
X181126891Y-106825265D01*
X181127109Y-106575829D01*
X181031855Y-106345297D01*
X181004000Y-106317393D01*
X181004000Y-106147367D01*
X181249829Y-105901967D01*
X181384846Y-105576810D01*
X181385153Y-105224735D01*
X181252628Y-104904000D01*
X181910000Y-104904000D01*
X181995701Y-104886953D01*
X182174171Y-104887109D01*
X182404703Y-104791855D01*
X182432607Y-104764000D01*
X182671236Y-104764000D01*
X183115150Y-105207914D01*
X183114847Y-105555265D01*
X183249296Y-105880657D01*
X183498033Y-106129829D01*
X183823190Y-106264846D01*
X184175265Y-106265153D01*
X184500657Y-106130704D01*
X184749829Y-105881967D01*
X184884846Y-105556810D01*
X184885153Y-105204735D01*
X184750704Y-104879343D01*
X184501967Y-104630171D01*
X184176810Y-104495154D01*
X183827614Y-104494850D01*
X183236382Y-103903618D01*
X183072873Y-103794365D01*
X183020765Y-103784000D01*
X185322633Y-103784000D01*
X185568033Y-104029829D01*
X185893190Y-104164846D01*
X186245265Y-104165153D01*
X186570657Y-104030704D01*
X186819829Y-103781967D01*
X186954846Y-103456810D01*
X186955153Y-103104735D01*
X186820704Y-102779343D01*
X186571967Y-102530171D01*
X186246810Y-102395154D01*
X185894735Y-102394847D01*
X185569343Y-102529296D01*
X185322208Y-102776000D01*
X182292749Y-102776000D01*
X182236704Y-102719857D01*
X182411235Y-102545631D01*
X182506891Y-102315265D01*
X182506925Y-102275838D01*
X182938763Y-101844000D01*
X182962633Y-101844000D01*
X183208033Y-102089829D01*
X183533190Y-102224846D01*
X183885265Y-102225153D01*
X184210657Y-102090704D01*
X184459829Y-101841967D01*
X184594846Y-101516810D01*
X184595153Y-101164735D01*
X184460704Y-100839343D01*
X184211967Y-100590171D01*
X183886810Y-100455154D01*
X183534735Y-100454847D01*
X183209343Y-100589296D01*
X182962208Y-100836000D01*
X182730005Y-100836000D01*
X182730000Y-100835999D01*
X182559072Y-100870000D01*
X182537128Y-100874365D01*
X182441377Y-100938343D01*
X182431855Y-100915297D01*
X182404000Y-100887393D01*
X182404000Y-99418764D01*
X182507914Y-99314850D01*
X182855265Y-99315153D01*
X183180657Y-99180704D01*
X183429829Y-98931967D01*
X183564846Y-98606810D01*
X183565153Y-98254735D01*
X183430704Y-97929343D01*
X183315562Y-97814000D01*
X183361236Y-97814000D01*
X184912925Y-99365689D01*
X184912891Y-99404171D01*
X185008145Y-99634703D01*
X185184369Y-99811235D01*
X185414735Y-99906891D01*
X185664171Y-99907109D01*
X185894703Y-99811855D01*
X186071235Y-99635631D01*
X186166891Y-99405265D01*
X186167109Y-99155829D01*
X186071855Y-98925297D01*
X185895631Y-98748765D01*
X185665265Y-98653109D01*
X185625839Y-98653075D01*
X184282762Y-97309998D01*
X184647234Y-97309998D01*
X184802925Y-97465689D01*
X184802891Y-97504171D01*
X184898145Y-97734703D01*
X185074369Y-97911235D01*
X185304735Y-98006891D01*
X185554171Y-98007109D01*
X185784703Y-97911855D01*
X185961235Y-97735631D01*
X186056891Y-97505265D01*
X186057109Y-97255829D01*
X185961855Y-97025297D01*
X185785631Y-96848765D01*
X185555265Y-96753109D01*
X185515839Y-96753075D01*
X185212380Y-96449616D01*
X185048871Y-96340363D01*
X184855998Y-96301998D01*
X180084730Y-96301998D01*
X180194846Y-96036810D01*
X180195153Y-95684735D01*
X180060704Y-95359343D01*
X179811967Y-95110171D01*
X179486810Y-94975154D01*
X179134735Y-94974847D01*
X178809343Y-95109296D01*
X178761971Y-95156586D01*
X178711855Y-95035297D01*
X178535631Y-94858765D01*
X178305265Y-94763109D01*
X178055829Y-94762891D01*
X177825297Y-94858145D01*
X177797393Y-94886000D01*
X174808764Y-94886000D01*
X171889791Y-91967027D01*
X171984171Y-91967109D01*
X172214703Y-91871855D01*
X172391235Y-91695631D01*
X172412674Y-91644000D01*
X180811547Y-91644000D01*
X180753109Y-91784735D01*
X180752891Y-92034171D01*
X180848145Y-92264703D01*
X181024369Y-92441235D01*
X181254735Y-92536891D01*
X181294161Y-92536925D01*
X181651250Y-92894014D01*
X181585154Y-93053190D01*
X181584847Y-93405265D01*
X181719296Y-93730657D01*
X181968033Y-93979829D01*
X182293190Y-94114846D01*
X182645265Y-94115153D01*
X182970657Y-93980704D01*
X183219829Y-93731967D01*
X183354846Y-93406810D01*
X183355046Y-93177810D01*
X186806000Y-96628764D01*
X186806000Y-99943480D01*
X186625297Y-100018145D01*
X186448765Y-100194369D01*
X186353109Y-100424735D01*
X186352891Y-100674171D01*
X186448145Y-100904703D01*
X186624369Y-101081235D01*
X186854735Y-101176891D01*
X187104171Y-101177109D01*
X187334703Y-101081855D01*
X187511235Y-100905631D01*
X187606891Y-100675265D01*
X187606925Y-100635838D01*
X187666379Y-100576384D01*
X187666382Y-100576382D01*
X187775635Y-100412872D01*
X187814000Y-100220000D01*
X187814000Y-96420005D01*
X187814001Y-96420000D01*
X187775635Y-96227128D01*
X187666382Y-96063618D01*
X182386382Y-90783618D01*
X182222873Y-90674365D01*
X182030000Y-90636000D01*
X172271366Y-90636000D01*
X172269328Y-90634638D01*
X172060000Y-90593000D01*
X171850673Y-90634638D01*
X171729878Y-90715350D01*
X171505297Y-90808145D01*
X171328765Y-90984369D01*
X171233109Y-91214735D01*
X171233026Y-91310262D01*
X170914000Y-90991236D01*
X170914000Y-88424171D01*
X173002891Y-88424171D01*
X173098145Y-88654703D01*
X173274369Y-88831235D01*
X173504735Y-88926891D01*
X173544161Y-88926925D01*
X173651250Y-89034014D01*
X173585154Y-89193190D01*
X173584847Y-89545265D01*
X173719296Y-89870657D01*
X173968033Y-90119829D01*
X174293190Y-90254846D01*
X174645265Y-90255153D01*
X174970657Y-90120704D01*
X175219829Y-89871967D01*
X175354846Y-89546810D01*
X175355153Y-89194735D01*
X175220704Y-88869343D01*
X174971967Y-88620171D01*
X174646810Y-88485154D01*
X174527814Y-88485050D01*
X174257075Y-88214311D01*
X174257109Y-88175829D01*
X174161855Y-87945297D01*
X173985631Y-87768765D01*
X173755265Y-87673109D01*
X173505829Y-87672891D01*
X173275297Y-87768145D01*
X173098765Y-87944369D01*
X173003109Y-88174735D01*
X173002891Y-88424171D01*
X170914000Y-88424171D01*
X170914000Y-87575265D01*
X177024847Y-87575265D01*
X177159296Y-87900657D01*
X177406000Y-88147792D01*
X177406000Y-89460000D01*
X177444365Y-89652873D01*
X177553618Y-89816382D01*
X177712925Y-89975689D01*
X177712891Y-90014171D01*
X177808145Y-90244703D01*
X177984369Y-90421235D01*
X178214735Y-90516891D01*
X178464171Y-90517109D01*
X178694703Y-90421855D01*
X178871235Y-90245631D01*
X178966891Y-90015265D01*
X178967109Y-89765829D01*
X178871855Y-89535297D01*
X178695631Y-89358765D01*
X178465265Y-89263109D01*
X178425839Y-89263075D01*
X178414000Y-89251236D01*
X178414000Y-88147367D01*
X178659829Y-87901967D01*
X178794846Y-87576810D01*
X178795153Y-87224735D01*
X178660704Y-86899343D01*
X178411967Y-86650171D01*
X178086810Y-86515154D01*
X177734735Y-86514847D01*
X177409343Y-86649296D01*
X177160171Y-86898033D01*
X177025154Y-87223190D01*
X177024847Y-87575265D01*
X170914000Y-87575265D01*
X170914000Y-79804171D01*
X171982891Y-79804171D01*
X172078145Y-80034703D01*
X172254369Y-80211235D01*
X172484735Y-80306891D01*
X172584214Y-80306978D01*
X181542925Y-89265689D01*
X181542891Y-89304171D01*
X181638145Y-89534703D01*
X181814369Y-89711235D01*
X182044735Y-89806891D01*
X182294171Y-89807109D01*
X182524703Y-89711855D01*
X182701235Y-89535631D01*
X182796891Y-89305265D01*
X182797109Y-89055829D01*
X182701855Y-88825297D01*
X182674000Y-88797393D01*
X182674000Y-88087419D01*
X182889829Y-87871967D01*
X183024846Y-87546810D01*
X183025153Y-87194735D01*
X182890704Y-86869343D01*
X182641967Y-86620171D01*
X182316810Y-86485154D01*
X181964735Y-86484847D01*
X181639343Y-86619296D01*
X181390171Y-86868033D01*
X181255154Y-87193190D01*
X181254847Y-87545265D01*
X181259648Y-87556884D01*
X173221981Y-79519217D01*
X173141855Y-79325297D01*
X172965631Y-79148765D01*
X172735265Y-79053109D01*
X172485829Y-79052891D01*
X172255297Y-79148145D01*
X172078765Y-79324369D01*
X171983109Y-79554735D01*
X171982891Y-79804171D01*
X170914000Y-79804171D01*
X170914000Y-78874171D01*
X180562891Y-78874171D01*
X180658145Y-79104703D01*
X180834369Y-79281235D01*
X181064735Y-79376891D01*
X181314171Y-79377109D01*
X181544703Y-79281855D01*
X181721235Y-79105631D01*
X181816891Y-78875265D01*
X181817109Y-78625829D01*
X181721855Y-78395297D01*
X181545631Y-78218765D01*
X181315265Y-78123109D01*
X181065829Y-78122891D01*
X180835297Y-78218145D01*
X180658765Y-78394369D01*
X180563109Y-78624735D01*
X180562891Y-78874171D01*
X170914000Y-78874171D01*
X170914000Y-74274171D01*
X177902891Y-74274171D01*
X177998145Y-74504703D01*
X178174369Y-74681235D01*
X178404735Y-74776891D01*
X178654171Y-74777109D01*
X178675523Y-74768287D01*
X183092925Y-79185689D01*
X183092891Y-79224171D01*
X183188145Y-79454703D01*
X183364369Y-79631235D01*
X183594735Y-79726891D01*
X183844171Y-79727109D01*
X184074703Y-79631855D01*
X184102607Y-79604000D01*
X184602633Y-79604000D01*
X184848033Y-79849829D01*
X185173190Y-79984846D01*
X185525265Y-79985153D01*
X185850657Y-79850704D01*
X186099829Y-79601967D01*
X186234846Y-79276810D01*
X186235153Y-78924735D01*
X186100704Y-78599343D01*
X185851967Y-78350171D01*
X185526810Y-78215154D01*
X185174735Y-78214847D01*
X184849343Y-78349296D01*
X184602208Y-78596000D01*
X184102818Y-78596000D01*
X184075631Y-78568765D01*
X183845265Y-78473109D01*
X183805839Y-78473075D01*
X179126382Y-73793618D01*
X178962873Y-73684365D01*
X178948204Y-73681447D01*
X178885631Y-73618765D01*
X178655265Y-73523109D01*
X178405829Y-73522891D01*
X178175297Y-73618145D01*
X177998765Y-73794369D01*
X177903109Y-74024735D01*
X177902891Y-74274171D01*
X170914000Y-74274171D01*
X170914000Y-70925265D01*
X177844847Y-70925265D01*
X177979296Y-71250657D01*
X178228033Y-71499829D01*
X178553190Y-71634846D01*
X178905265Y-71635153D01*
X178960593Y-71612292D01*
X179120000Y-71644000D01*
X179777182Y-71644000D01*
X179804369Y-71671235D01*
X180034735Y-71766891D01*
X180284171Y-71767109D01*
X180514703Y-71671855D01*
X180691235Y-71495631D01*
X180786891Y-71265265D01*
X180787109Y-71015829D01*
X180782293Y-71004171D01*
X182132891Y-71004171D01*
X182228145Y-71234703D01*
X182404369Y-71411235D01*
X182634735Y-71506891D01*
X182709240Y-71506956D01*
X182767128Y-71545635D01*
X182960000Y-71584000D01*
X183372633Y-71584000D01*
X183618033Y-71829829D01*
X183943190Y-71964846D01*
X184295265Y-71965153D01*
X184620657Y-71830704D01*
X184869829Y-71581967D01*
X185004846Y-71256810D01*
X185005153Y-70904735D01*
X184870704Y-70579343D01*
X184621967Y-70330171D01*
X184296810Y-70195154D01*
X183944735Y-70194847D01*
X183619343Y-70329296D01*
X183372208Y-70576000D01*
X183312805Y-70576000D01*
X183291855Y-70525297D01*
X183115631Y-70348765D01*
X182885265Y-70253109D01*
X182635829Y-70252891D01*
X182405297Y-70348145D01*
X182228765Y-70524369D01*
X182133109Y-70754735D01*
X182132891Y-71004171D01*
X180782293Y-71004171D01*
X180691855Y-70785297D01*
X180515631Y-70608765D01*
X180285265Y-70513109D01*
X180035829Y-70512891D01*
X179805297Y-70608145D01*
X179777393Y-70636000D01*
X179615100Y-70636000D01*
X179615153Y-70574735D01*
X179480704Y-70249343D01*
X179231967Y-70000171D01*
X178906810Y-69865154D01*
X178554735Y-69864847D01*
X178229343Y-69999296D01*
X177980171Y-70248033D01*
X177845154Y-70573190D01*
X177844847Y-70925265D01*
X170914000Y-70925265D01*
X170914000Y-69422784D01*
X170961235Y-69375631D01*
X171056891Y-69145265D01*
X171057109Y-68895829D01*
X170961855Y-68665297D01*
X170934000Y-68637393D01*
X170934000Y-68020000D01*
X170920698Y-67953129D01*
X170964846Y-67846810D01*
X170965144Y-67504171D01*
X185662891Y-67504171D01*
X185758145Y-67734703D01*
X185934369Y-67911235D01*
X186164735Y-68006891D01*
X186414171Y-68007109D01*
X186644703Y-67911855D01*
X186821235Y-67735631D01*
X186916891Y-67505265D01*
X186917109Y-67255829D01*
X186821855Y-67025297D01*
X186645631Y-66848765D01*
X186415265Y-66753109D01*
X186165829Y-66752891D01*
X185935297Y-66848145D01*
X185758765Y-67024369D01*
X185663109Y-67254735D01*
X185662891Y-67504171D01*
X170965144Y-67504171D01*
X170965153Y-67494735D01*
X170830704Y-67169343D01*
X170581967Y-66920171D01*
X170256810Y-66785154D01*
X169904735Y-66784847D01*
X169579343Y-66919296D01*
X169330171Y-67168033D01*
X169195154Y-67493190D01*
X169194847Y-67845265D01*
X169329296Y-68170657D01*
X169578033Y-68419829D01*
X169903190Y-68554846D01*
X169926000Y-68554866D01*
X169926000Y-68637182D01*
X169898765Y-68664369D01*
X169803109Y-68894735D01*
X169802891Y-69144171D01*
X169898145Y-69374703D01*
X169906000Y-69382572D01*
X169906000Y-91200000D01*
X169944365Y-91392873D01*
X170053618Y-91556382D01*
X172700341Y-94203105D01*
X172455829Y-94202891D01*
X172225297Y-94298145D01*
X172048765Y-94474369D01*
X171953109Y-94704735D01*
X171952960Y-94874736D01*
X171775297Y-94948145D01*
X171598765Y-95124369D01*
X171503109Y-95354735D01*
X171502891Y-95604171D01*
X171598145Y-95834703D01*
X171774369Y-96011235D01*
X172004735Y-96106891D01*
X172254171Y-96107109D01*
X172484703Y-96011855D01*
X172661235Y-95835631D01*
X172723329Y-95686093D01*
X174199616Y-97162380D01*
X174363125Y-97271633D01*
X174555998Y-97309998D01*
X178307238Y-97309998D01*
X176733618Y-98883618D01*
X176624365Y-99047127D01*
X176624365Y-99047128D01*
X176586000Y-99240000D01*
X176586000Y-99898470D01*
X175915062Y-100569408D01*
X175915153Y-100464735D01*
X175780704Y-100139343D01*
X175531967Y-99890171D01*
X175206810Y-99755154D01*
X174854735Y-99754847D01*
X174529343Y-99889296D01*
X174280171Y-100138033D01*
X174145154Y-100463190D01*
X174144847Y-100815265D01*
X174158625Y-100848611D01*
X173901236Y-101106000D01*
X173168764Y-101106000D01*
X173144000Y-101081236D01*
X173144000Y-100622818D01*
X173171235Y-100595631D01*
X173266891Y-100365265D01*
X173267109Y-100115829D01*
X173171855Y-99885297D01*
X172995631Y-99708765D01*
X172765265Y-99613109D01*
X172515829Y-99612891D01*
X172285297Y-99708145D01*
X172108765Y-99884369D01*
X172044985Y-100037970D01*
X172045153Y-99844735D01*
X171910704Y-99519343D01*
X171661967Y-99270171D01*
X171336810Y-99135154D01*
X171327000Y-99135145D01*
X171327000Y-97000000D01*
X171316994Y-96950590D01*
X171288553Y-96908965D01*
X171246159Y-96881685D01*
X171200000Y-96873000D01*
X169627000Y-96873000D01*
X169627000Y-73000000D01*
X169625325Y-72979439D01*
X168503914Y-66144171D01*
X180902891Y-66144171D01*
X180998145Y-66374703D01*
X181174369Y-66551235D01*
X181404735Y-66646891D01*
X181654171Y-66647109D01*
X181884703Y-66551855D01*
X182061235Y-66375631D01*
X182156891Y-66145265D01*
X182157109Y-65895829D01*
X182061855Y-65665297D01*
X181885631Y-65488765D01*
X181655265Y-65393109D01*
X181405829Y-65392891D01*
X181175297Y-65488145D01*
X180998765Y-65664369D01*
X180903109Y-65894735D01*
X180902891Y-66144171D01*
X168503914Y-66144171D01*
X168026492Y-63234171D01*
X183292891Y-63234171D01*
X183388145Y-63464703D01*
X183564369Y-63641235D01*
X183794735Y-63736891D01*
X184044171Y-63737109D01*
X184274703Y-63641855D01*
X184451235Y-63465631D01*
X184546891Y-63235265D01*
X184546909Y-63214171D01*
X185622891Y-63214171D01*
X185718145Y-63444703D01*
X185894369Y-63621235D01*
X186124735Y-63716891D01*
X186374171Y-63717109D01*
X186604703Y-63621855D01*
X186781235Y-63445631D01*
X186876891Y-63215265D01*
X186876926Y-63174171D01*
X189482891Y-63174171D01*
X189578145Y-63404703D01*
X189754369Y-63581235D01*
X189984735Y-63676891D01*
X190234171Y-63677109D01*
X190464703Y-63581855D01*
X190641235Y-63405631D01*
X190736891Y-63175265D01*
X190737109Y-62925829D01*
X190641855Y-62695297D01*
X190465631Y-62518765D01*
X190235265Y-62423109D01*
X189985829Y-62422891D01*
X189755297Y-62518145D01*
X189578765Y-62694369D01*
X189483109Y-62924735D01*
X189482891Y-63174171D01*
X186876926Y-63174171D01*
X186877109Y-62965829D01*
X186781855Y-62735297D01*
X186605631Y-62558765D01*
X186375265Y-62463109D01*
X186125829Y-62462891D01*
X185895297Y-62558145D01*
X185718765Y-62734369D01*
X185623109Y-62964735D01*
X185622891Y-63214171D01*
X184546909Y-63214171D01*
X184547109Y-62985829D01*
X184451855Y-62755297D01*
X184275631Y-62578765D01*
X184045265Y-62483109D01*
X183795829Y-62482891D01*
X183565297Y-62578145D01*
X183388765Y-62754369D01*
X183293109Y-62984735D01*
X183292891Y-63234171D01*
X168026492Y-63234171D01*
X167549534Y-60327000D01*
X180200000Y-60327000D01*
X180249410Y-60316994D01*
X180291035Y-60288553D01*
X180318315Y-60246159D01*
X180327000Y-60200000D01*
X180327000Y-36896845D01*
X191548000Y-36896845D01*
X191548000Y-154103180D01*
X107362000Y-154103180D01*
X107362000Y-36896845D01*
X117573000Y-36896845D01*
X117573000Y-85373000D01*
X117573000Y-85373000D01*
G37*
X117573000Y-85373000D02*
X108200000Y-85373000D01*
X108150590Y-85383006D01*
X108108965Y-85411447D01*
X108081685Y-85453841D01*
X108073000Y-85500000D01*
X108073000Y-132300000D01*
X108083006Y-132349410D01*
X108111447Y-132391035D01*
X108153841Y-132418315D01*
X108200000Y-132427000D01*
X118473000Y-132427000D01*
X118473000Y-146500000D01*
X118483006Y-146549410D01*
X118511447Y-146591035D01*
X118553841Y-146618315D01*
X118600000Y-146627000D01*
X152200000Y-146627000D01*
X152249410Y-146616994D01*
X152291035Y-146588553D01*
X152318315Y-146546159D01*
X152327000Y-146500000D01*
X152327000Y-130375265D01*
X165814847Y-130375265D01*
X165949296Y-130700657D01*
X166153000Y-130904717D01*
X166153000Y-132724584D01*
X166103109Y-132844735D01*
X166102891Y-133094171D01*
X166198145Y-133324703D01*
X166374369Y-133501235D01*
X166604735Y-133596891D01*
X166854171Y-133597109D01*
X167084703Y-133501855D01*
X167261235Y-133325631D01*
X167356891Y-133095265D01*
X167357109Y-132845829D01*
X167261855Y-132615297D01*
X167247000Y-132600416D01*
X167247000Y-130904442D01*
X167449829Y-130701967D01*
X167584846Y-130376810D01*
X167585153Y-130024735D01*
X167450704Y-129699343D01*
X167201967Y-129450171D01*
X166876810Y-129315154D01*
X166524735Y-129314847D01*
X166199343Y-129449296D01*
X165950171Y-129698033D01*
X165815154Y-130023190D01*
X165814847Y-130375265D01*
X152327000Y-130375265D01*
X152327000Y-127857865D01*
X156883335Y-123895835D01*
X156914054Y-123855863D01*
X156927000Y-123800000D01*
X156927000Y-122644171D01*
X157252891Y-122644171D01*
X157348145Y-122874703D01*
X157524369Y-123051235D01*
X157754735Y-123146891D01*
X157794161Y-123146925D01*
X158093618Y-123446382D01*
X158257128Y-123555635D01*
X158450000Y-123594000D01*
X158552633Y-123594000D01*
X158798033Y-123839829D01*
X159123190Y-123974846D01*
X159475265Y-123975153D01*
X159800657Y-123840704D01*
X160049829Y-123591967D01*
X160184846Y-123266810D01*
X160185153Y-122914735D01*
X160050704Y-122589343D01*
X159801967Y-122340171D01*
X159476810Y-122205154D01*
X159124735Y-122204847D01*
X158799343Y-122339296D01*
X158605532Y-122532768D01*
X158507075Y-122434311D01*
X158507109Y-122395829D01*
X158411855Y-122165297D01*
X158235631Y-121988765D01*
X158005265Y-121893109D01*
X157755829Y-121892891D01*
X157525297Y-121988145D01*
X157348765Y-122164369D01*
X157253109Y-122394735D01*
X157252891Y-122644171D01*
X156927000Y-122644171D01*
X156927000Y-120454171D01*
X161402891Y-120454171D01*
X161498145Y-120684703D01*
X161674369Y-120861235D01*
X161904735Y-120956891D01*
X162154171Y-120957109D01*
X162384703Y-120861855D01*
X162561235Y-120685631D01*
X162656891Y-120455265D01*
X162657109Y-120205829D01*
X162594446Y-120054171D01*
X170572891Y-120054171D01*
X170668145Y-120284703D01*
X170844369Y-120461235D01*
X171074735Y-120556891D01*
X171324171Y-120557109D01*
X171554703Y-120461855D01*
X171731235Y-120285631D01*
X171826891Y-120055265D01*
X171827109Y-119805829D01*
X171731855Y-119575297D01*
X171555631Y-119398765D01*
X171325265Y-119303109D01*
X171075829Y-119302891D01*
X170845297Y-119398145D01*
X170668765Y-119574369D01*
X170573109Y-119804735D01*
X170572891Y-120054171D01*
X162594446Y-120054171D01*
X162561855Y-119975297D01*
X162385631Y-119798765D01*
X162155265Y-119703109D01*
X161905829Y-119702891D01*
X161675297Y-119798145D01*
X161498765Y-119974369D01*
X161403109Y-120204735D01*
X161402891Y-120454171D01*
X156927000Y-120454171D01*
X156927000Y-117525265D01*
X173484847Y-117525265D01*
X173619296Y-117850657D01*
X173868033Y-118099829D01*
X174193190Y-118234846D01*
X174545265Y-118235153D01*
X174870657Y-118100704D01*
X175119829Y-117851967D01*
X175235251Y-117574000D01*
X175277182Y-117574000D01*
X175304369Y-117601235D01*
X175534735Y-117696891D01*
X175784171Y-117697109D01*
X176014703Y-117601855D01*
X176191235Y-117425631D01*
X176286891Y-117195265D01*
X176287109Y-116945829D01*
X176191855Y-116715297D01*
X176015631Y-116538765D01*
X175785265Y-116443109D01*
X175535829Y-116442891D01*
X175305297Y-116538145D01*
X175277393Y-116566000D01*
X174789674Y-116566000D01*
X174546810Y-116465154D01*
X174194735Y-116464847D01*
X173869343Y-116599296D01*
X173620171Y-116848033D01*
X173485154Y-117173190D01*
X173484847Y-117525265D01*
X156927000Y-117525265D01*
X156927000Y-113127000D01*
X171200000Y-113127000D01*
X171249410Y-113116994D01*
X171291035Y-113088553D01*
X171318315Y-113046159D01*
X171327000Y-113000000D01*
X171327000Y-111995265D01*
X174944847Y-111995265D01*
X175079296Y-112320657D01*
X175326000Y-112567792D01*
X175326000Y-113170000D01*
X175364365Y-113362873D01*
X175473618Y-113526382D01*
X176072925Y-114125689D01*
X176072891Y-114164171D01*
X176168145Y-114394703D01*
X176344369Y-114571235D01*
X176574735Y-114666891D01*
X176824171Y-114667109D01*
X177054703Y-114571855D01*
X177231235Y-114395631D01*
X177326891Y-114165265D01*
X177327109Y-113915829D01*
X177231855Y-113685297D01*
X177055631Y-113508765D01*
X176825265Y-113413109D01*
X176785839Y-113413075D01*
X176334000Y-112961236D01*
X176334000Y-112864171D01*
X183472891Y-112864171D01*
X183568145Y-113094703D01*
X183744369Y-113271235D01*
X183974735Y-113366891D01*
X184224171Y-113367109D01*
X184454703Y-113271855D01*
X184631235Y-113095631D01*
X184726891Y-112865265D01*
X184727109Y-112615829D01*
X184631855Y-112385297D01*
X184455631Y-112208765D01*
X184225265Y-112113109D01*
X183975829Y-112112891D01*
X183745297Y-112208145D01*
X183568765Y-112384369D01*
X183473109Y-112614735D01*
X183472891Y-112864171D01*
X176334000Y-112864171D01*
X176334000Y-112567367D01*
X176579829Y-112321967D01*
X176714846Y-111996810D01*
X176715153Y-111644735D01*
X176580704Y-111319343D01*
X176331967Y-111070171D01*
X176006810Y-110935154D01*
X175654735Y-110934847D01*
X175329343Y-111069296D01*
X175080171Y-111318033D01*
X174945154Y-111643190D01*
X174944847Y-111995265D01*
X171327000Y-111995265D01*
X171327000Y-110170574D01*
X171553213Y-110396787D01*
X171730672Y-110515362D01*
X171940000Y-110557000D01*
X176495215Y-110557000D01*
X176413109Y-110754735D01*
X176412891Y-111004171D01*
X176508145Y-111234703D01*
X176684369Y-111411235D01*
X176914735Y-111506891D01*
X177164171Y-111507109D01*
X177268088Y-111464171D01*
X178312891Y-111464171D01*
X178408145Y-111694703D01*
X178584369Y-111871235D01*
X178814735Y-111966891D01*
X179064171Y-111967109D01*
X179294703Y-111871855D01*
X179322607Y-111844000D01*
X180225101Y-111844000D01*
X180224847Y-112135265D01*
X180359296Y-112460657D01*
X180608033Y-112709829D01*
X180933190Y-112844846D01*
X181285265Y-112845153D01*
X181610657Y-112710704D01*
X181859829Y-112461967D01*
X181994846Y-112136810D01*
X181995153Y-111784735D01*
X181860704Y-111459343D01*
X181795646Y-111394171D01*
X185342891Y-111394171D01*
X185438145Y-111624703D01*
X185614369Y-111801235D01*
X185844735Y-111896891D01*
X185884161Y-111896925D01*
X186123618Y-112136382D01*
X186287127Y-112245635D01*
X186480000Y-112284000D01*
X186822633Y-112284000D01*
X187068033Y-112529829D01*
X187393190Y-112664846D01*
X187745265Y-112665153D01*
X188070657Y-112530704D01*
X188319829Y-112281967D01*
X188454846Y-111956810D01*
X188455153Y-111604735D01*
X188320704Y-111279343D01*
X188071967Y-111030171D01*
X187746810Y-110895154D01*
X187394735Y-110894847D01*
X187069343Y-111029296D01*
X186822208Y-111276000D01*
X186688764Y-111276000D01*
X186597075Y-111184311D01*
X186597109Y-111145829D01*
X186501855Y-110915297D01*
X186325631Y-110738765D01*
X186095265Y-110643109D01*
X185845829Y-110642891D01*
X185615297Y-110738145D01*
X185438765Y-110914369D01*
X185343109Y-111144735D01*
X185342891Y-111394171D01*
X181795646Y-111394171D01*
X181611967Y-111210171D01*
X181286810Y-111075154D01*
X180937614Y-111074850D01*
X180846382Y-110983618D01*
X180682873Y-110874365D01*
X180490000Y-110836000D01*
X179322818Y-110836000D01*
X179295631Y-110808765D01*
X179065265Y-110713109D01*
X178815829Y-110712891D01*
X178585297Y-110808145D01*
X178408765Y-110984369D01*
X178313109Y-111214735D01*
X178312891Y-111464171D01*
X177268088Y-111464171D01*
X177394703Y-111411855D01*
X177571235Y-111235631D01*
X177666891Y-111005265D01*
X177667109Y-110755829D01*
X177584954Y-110557000D01*
X179220000Y-110557000D01*
X179429328Y-110515362D01*
X179606787Y-110396787D01*
X181456575Y-108547000D01*
X183154236Y-108547000D01*
X183312865Y-108705629D01*
X183185154Y-109013190D01*
X183184847Y-109365265D01*
X183319296Y-109690657D01*
X183568033Y-109939829D01*
X183893190Y-110074846D01*
X184245265Y-110075153D01*
X184570657Y-109940704D01*
X184819829Y-109691967D01*
X184954846Y-109366810D01*
X184955153Y-109014735D01*
X184820704Y-108689343D01*
X184678609Y-108547000D01*
X184690000Y-108547000D01*
X184899328Y-108505362D01*
X185076787Y-108386787D01*
X185568309Y-107895265D01*
X187214847Y-107895265D01*
X187349296Y-108220657D01*
X187598033Y-108469829D01*
X187923190Y-108604846D01*
X188275265Y-108605153D01*
X188600657Y-108470704D01*
X188849829Y-108221967D01*
X188984846Y-107896810D01*
X188985116Y-107587648D01*
X189245689Y-107327075D01*
X189284171Y-107327109D01*
X189514703Y-107231855D01*
X189691235Y-107055631D01*
X189786891Y-106825265D01*
X189787109Y-106575829D01*
X189691855Y-106345297D01*
X189515631Y-106168765D01*
X189285265Y-106073109D01*
X189035829Y-106072891D01*
X188805297Y-106168145D01*
X188628765Y-106344369D01*
X188533109Y-106574735D01*
X188533075Y-106614161D01*
X188301733Y-106845503D01*
X188276810Y-106835154D01*
X187924735Y-106834847D01*
X187599343Y-106969296D01*
X187350171Y-107218033D01*
X187215154Y-107543190D01*
X187214847Y-107895265D01*
X185568309Y-107895265D01*
X185642164Y-107821411D01*
X185834703Y-107741855D01*
X186011235Y-107565631D01*
X186106891Y-107335265D01*
X186107109Y-107085829D01*
X186011855Y-106855297D01*
X185835631Y-106678765D01*
X185605265Y-106583109D01*
X185355829Y-106582891D01*
X185125297Y-106678145D01*
X184948765Y-106854369D01*
X184868318Y-107048107D01*
X184463426Y-107453000D01*
X181230000Y-107453000D01*
X181020672Y-107494638D01*
X180843212Y-107613213D01*
X178993426Y-109463000D01*
X173013766Y-109463000D01*
X173071235Y-109405631D01*
X173166891Y-109175265D01*
X173167109Y-108925829D01*
X173071855Y-108695297D01*
X172895631Y-108518765D01*
X172665265Y-108423109D01*
X172415829Y-108422891D01*
X172185297Y-108518145D01*
X172008765Y-108694369D01*
X171913109Y-108924735D01*
X171912891Y-109174171D01*
X171937639Y-109234065D01*
X171537000Y-108833426D01*
X171537000Y-104919764D01*
X172623616Y-106006379D01*
X172623618Y-106006382D01*
X172787128Y-106115635D01*
X172980000Y-106154000D01*
X174193236Y-106154000D01*
X173447365Y-106899871D01*
X173279343Y-106969296D01*
X173030171Y-107218033D01*
X172895154Y-107543190D01*
X172894847Y-107895265D01*
X173029296Y-108220657D01*
X173278033Y-108469829D01*
X173603190Y-108604846D01*
X173955265Y-108605153D01*
X174280657Y-108470704D01*
X174529829Y-108221967D01*
X174664846Y-107896810D01*
X174665153Y-107544735D01*
X174537346Y-107235418D01*
X174780111Y-106992653D01*
X174818145Y-107084703D01*
X174994369Y-107261235D01*
X175224735Y-107356891D01*
X175254153Y-107356917D01*
X176175150Y-108277914D01*
X176174847Y-108625265D01*
X176309296Y-108950657D01*
X176558033Y-109199829D01*
X176883190Y-109334846D01*
X177235265Y-109335153D01*
X177560657Y-109200704D01*
X177809829Y-108951967D01*
X177944846Y-108626810D01*
X177945153Y-108274735D01*
X177810704Y-107949343D01*
X177561967Y-107700171D01*
X177236810Y-107565154D01*
X176887614Y-107564850D01*
X175977067Y-106654303D01*
X175977109Y-106605829D01*
X175881855Y-106375297D01*
X175705631Y-106198765D01*
X175683566Y-106189603D01*
X175726891Y-106085265D01*
X175727109Y-105835829D01*
X175661305Y-105676572D01*
X175854735Y-105756891D01*
X176104171Y-105757109D01*
X176234651Y-105703196D01*
X176349296Y-105980657D01*
X176598033Y-106229829D01*
X176923190Y-106364846D01*
X177275265Y-106365153D01*
X177600657Y-106230704D01*
X177849829Y-105981967D01*
X177984846Y-105656810D01*
X177985153Y-105304735D01*
X177850704Y-104979343D01*
X177775493Y-104904000D01*
X179747693Y-104904000D01*
X179615154Y-105223190D01*
X179614847Y-105575265D01*
X179749296Y-105900657D01*
X179996000Y-106147792D01*
X179996000Y-106317182D01*
X179968765Y-106344369D01*
X179873109Y-106574735D01*
X179872891Y-106824171D01*
X179968145Y-107054703D01*
X180144369Y-107231235D01*
X180374735Y-107326891D01*
X180624171Y-107327109D01*
X180854703Y-107231855D01*
X181031235Y-107055631D01*
X181126891Y-106825265D01*
X181127109Y-106575829D01*
X181031855Y-106345297D01*
X181004000Y-106317393D01*
X181004000Y-106147367D01*
X181249829Y-105901967D01*
X181384846Y-105576810D01*
X181385153Y-105224735D01*
X181252628Y-104904000D01*
X181910000Y-104904000D01*
X181995701Y-104886953D01*
X182174171Y-104887109D01*
X182404703Y-104791855D01*
X182432607Y-104764000D01*
X182671236Y-104764000D01*
X183115150Y-105207914D01*
X183114847Y-105555265D01*
X183249296Y-105880657D01*
X183498033Y-106129829D01*
X183823190Y-106264846D01*
X184175265Y-106265153D01*
X184500657Y-106130704D01*
X184749829Y-105881967D01*
X184884846Y-105556810D01*
X184885153Y-105204735D01*
X184750704Y-104879343D01*
X184501967Y-104630171D01*
X184176810Y-104495154D01*
X183827614Y-104494850D01*
X183236382Y-103903618D01*
X183072873Y-103794365D01*
X183020765Y-103784000D01*
X185322633Y-103784000D01*
X185568033Y-104029829D01*
X185893190Y-104164846D01*
X186245265Y-104165153D01*
X186570657Y-104030704D01*
X186819829Y-103781967D01*
X186954846Y-103456810D01*
X186955153Y-103104735D01*
X186820704Y-102779343D01*
X186571967Y-102530171D01*
X186246810Y-102395154D01*
X185894735Y-102394847D01*
X185569343Y-102529296D01*
X185322208Y-102776000D01*
X182292749Y-102776000D01*
X182236704Y-102719857D01*
X182411235Y-102545631D01*
X182506891Y-102315265D01*
X182506925Y-102275838D01*
X182938763Y-101844000D01*
X182962633Y-101844000D01*
X183208033Y-102089829D01*
X183533190Y-102224846D01*
X183885265Y-102225153D01*
X184210657Y-102090704D01*
X184459829Y-101841967D01*
X184594846Y-101516810D01*
X184595153Y-101164735D01*
X184460704Y-100839343D01*
X184211967Y-100590171D01*
X183886810Y-100455154D01*
X183534735Y-100454847D01*
X183209343Y-100589296D01*
X182962208Y-100836000D01*
X182730005Y-100836000D01*
X182730000Y-100835999D01*
X182559072Y-100870000D01*
X182537128Y-100874365D01*
X182441377Y-100938343D01*
X182431855Y-100915297D01*
X182404000Y-100887393D01*
X182404000Y-99418764D01*
X182507914Y-99314850D01*
X182855265Y-99315153D01*
X183180657Y-99180704D01*
X183429829Y-98931967D01*
X183564846Y-98606810D01*
X183565153Y-98254735D01*
X183430704Y-97929343D01*
X183315562Y-97814000D01*
X183361236Y-97814000D01*
X184912925Y-99365689D01*
X184912891Y-99404171D01*
X185008145Y-99634703D01*
X185184369Y-99811235D01*
X185414735Y-99906891D01*
X185664171Y-99907109D01*
X185894703Y-99811855D01*
X186071235Y-99635631D01*
X186166891Y-99405265D01*
X186167109Y-99155829D01*
X186071855Y-98925297D01*
X185895631Y-98748765D01*
X185665265Y-98653109D01*
X185625839Y-98653075D01*
X184282762Y-97309998D01*
X184647234Y-97309998D01*
X184802925Y-97465689D01*
X184802891Y-97504171D01*
X184898145Y-97734703D01*
X185074369Y-97911235D01*
X185304735Y-98006891D01*
X185554171Y-98007109D01*
X185784703Y-97911855D01*
X185961235Y-97735631D01*
X186056891Y-97505265D01*
X186057109Y-97255829D01*
X185961855Y-97025297D01*
X185785631Y-96848765D01*
X185555265Y-96753109D01*
X185515839Y-96753075D01*
X185212380Y-96449616D01*
X185048871Y-96340363D01*
X184855998Y-96301998D01*
X180084730Y-96301998D01*
X180194846Y-96036810D01*
X180195153Y-95684735D01*
X180060704Y-95359343D01*
X179811967Y-95110171D01*
X179486810Y-94975154D01*
X179134735Y-94974847D01*
X178809343Y-95109296D01*
X178761971Y-95156586D01*
X178711855Y-95035297D01*
X178535631Y-94858765D01*
X178305265Y-94763109D01*
X178055829Y-94762891D01*
X177825297Y-94858145D01*
X177797393Y-94886000D01*
X174808764Y-94886000D01*
X171889791Y-91967027D01*
X171984171Y-91967109D01*
X172214703Y-91871855D01*
X172391235Y-91695631D01*
X172412674Y-91644000D01*
X180811547Y-91644000D01*
X180753109Y-91784735D01*
X180752891Y-92034171D01*
X180848145Y-92264703D01*
X181024369Y-92441235D01*
X181254735Y-92536891D01*
X181294161Y-92536925D01*
X181651250Y-92894014D01*
X181585154Y-93053190D01*
X181584847Y-93405265D01*
X181719296Y-93730657D01*
X181968033Y-93979829D01*
X182293190Y-94114846D01*
X182645265Y-94115153D01*
X182970657Y-93980704D01*
X183219829Y-93731967D01*
X183354846Y-93406810D01*
X183355046Y-93177810D01*
X186806000Y-96628764D01*
X186806000Y-99943480D01*
X186625297Y-100018145D01*
X186448765Y-100194369D01*
X186353109Y-100424735D01*
X186352891Y-100674171D01*
X186448145Y-100904703D01*
X186624369Y-101081235D01*
X186854735Y-101176891D01*
X187104171Y-101177109D01*
X187334703Y-101081855D01*
X187511235Y-100905631D01*
X187606891Y-100675265D01*
X187606925Y-100635838D01*
X187666379Y-100576384D01*
X187666382Y-100576382D01*
X187775635Y-100412872D01*
X187814000Y-100220000D01*
X187814000Y-96420005D01*
X187814001Y-96420000D01*
X187775635Y-96227128D01*
X187666382Y-96063618D01*
X182386382Y-90783618D01*
X182222873Y-90674365D01*
X182030000Y-90636000D01*
X172271366Y-90636000D01*
X172269328Y-90634638D01*
X172060000Y-90593000D01*
X171850673Y-90634638D01*
X171729878Y-90715350D01*
X171505297Y-90808145D01*
X171328765Y-90984369D01*
X171233109Y-91214735D01*
X171233026Y-91310262D01*
X170914000Y-90991236D01*
X170914000Y-88424171D01*
X173002891Y-88424171D01*
X173098145Y-88654703D01*
X173274369Y-88831235D01*
X173504735Y-88926891D01*
X173544161Y-88926925D01*
X173651250Y-89034014D01*
X173585154Y-89193190D01*
X173584847Y-89545265D01*
X173719296Y-89870657D01*
X173968033Y-90119829D01*
X174293190Y-90254846D01*
X174645265Y-90255153D01*
X174970657Y-90120704D01*
X175219829Y-89871967D01*
X175354846Y-89546810D01*
X175355153Y-89194735D01*
X175220704Y-88869343D01*
X174971967Y-88620171D01*
X174646810Y-88485154D01*
X174527814Y-88485050D01*
X174257075Y-88214311D01*
X174257109Y-88175829D01*
X174161855Y-87945297D01*
X173985631Y-87768765D01*
X173755265Y-87673109D01*
X173505829Y-87672891D01*
X173275297Y-87768145D01*
X173098765Y-87944369D01*
X173003109Y-88174735D01*
X173002891Y-88424171D01*
X170914000Y-88424171D01*
X170914000Y-87575265D01*
X177024847Y-87575265D01*
X177159296Y-87900657D01*
X177406000Y-88147792D01*
X177406000Y-89460000D01*
X177444365Y-89652873D01*
X177553618Y-89816382D01*
X177712925Y-89975689D01*
X177712891Y-90014171D01*
X177808145Y-90244703D01*
X177984369Y-90421235D01*
X178214735Y-90516891D01*
X178464171Y-90517109D01*
X178694703Y-90421855D01*
X178871235Y-90245631D01*
X178966891Y-90015265D01*
X178967109Y-89765829D01*
X178871855Y-89535297D01*
X178695631Y-89358765D01*
X178465265Y-89263109D01*
X178425839Y-89263075D01*
X178414000Y-89251236D01*
X178414000Y-88147367D01*
X178659829Y-87901967D01*
X178794846Y-87576810D01*
X178795153Y-87224735D01*
X178660704Y-86899343D01*
X178411967Y-86650171D01*
X178086810Y-86515154D01*
X177734735Y-86514847D01*
X177409343Y-86649296D01*
X177160171Y-86898033D01*
X177025154Y-87223190D01*
X177024847Y-87575265D01*
X170914000Y-87575265D01*
X170914000Y-79804171D01*
X171982891Y-79804171D01*
X172078145Y-80034703D01*
X172254369Y-80211235D01*
X172484735Y-80306891D01*
X172584214Y-80306978D01*
X181542925Y-89265689D01*
X181542891Y-89304171D01*
X181638145Y-89534703D01*
X181814369Y-89711235D01*
X182044735Y-89806891D01*
X182294171Y-89807109D01*
X182524703Y-89711855D01*
X182701235Y-89535631D01*
X182796891Y-89305265D01*
X182797109Y-89055829D01*
X182701855Y-88825297D01*
X182674000Y-88797393D01*
X182674000Y-88087419D01*
X182889829Y-87871967D01*
X183024846Y-87546810D01*
X183025153Y-87194735D01*
X182890704Y-86869343D01*
X182641967Y-86620171D01*
X182316810Y-86485154D01*
X181964735Y-86484847D01*
X181639343Y-86619296D01*
X181390171Y-86868033D01*
X181255154Y-87193190D01*
X181254847Y-87545265D01*
X181259648Y-87556884D01*
X173221981Y-79519217D01*
X173141855Y-79325297D01*
X172965631Y-79148765D01*
X172735265Y-79053109D01*
X172485829Y-79052891D01*
X172255297Y-79148145D01*
X172078765Y-79324369D01*
X171983109Y-79554735D01*
X171982891Y-79804171D01*
X170914000Y-79804171D01*
X170914000Y-78874171D01*
X180562891Y-78874171D01*
X180658145Y-79104703D01*
X180834369Y-79281235D01*
X181064735Y-79376891D01*
X181314171Y-79377109D01*
X181544703Y-79281855D01*
X181721235Y-79105631D01*
X181816891Y-78875265D01*
X181817109Y-78625829D01*
X181721855Y-78395297D01*
X181545631Y-78218765D01*
X181315265Y-78123109D01*
X181065829Y-78122891D01*
X180835297Y-78218145D01*
X180658765Y-78394369D01*
X180563109Y-78624735D01*
X180562891Y-78874171D01*
X170914000Y-78874171D01*
X170914000Y-74274171D01*
X177902891Y-74274171D01*
X177998145Y-74504703D01*
X178174369Y-74681235D01*
X178404735Y-74776891D01*
X178654171Y-74777109D01*
X178675523Y-74768287D01*
X183092925Y-79185689D01*
X183092891Y-79224171D01*
X183188145Y-79454703D01*
X183364369Y-79631235D01*
X183594735Y-79726891D01*
X183844171Y-79727109D01*
X184074703Y-79631855D01*
X184102607Y-79604000D01*
X184602633Y-79604000D01*
X184848033Y-79849829D01*
X185173190Y-79984846D01*
X185525265Y-79985153D01*
X185850657Y-79850704D01*
X186099829Y-79601967D01*
X186234846Y-79276810D01*
X186235153Y-78924735D01*
X186100704Y-78599343D01*
X185851967Y-78350171D01*
X185526810Y-78215154D01*
X185174735Y-78214847D01*
X184849343Y-78349296D01*
X184602208Y-78596000D01*
X184102818Y-78596000D01*
X184075631Y-78568765D01*
X183845265Y-78473109D01*
X183805839Y-78473075D01*
X179126382Y-73793618D01*
X178962873Y-73684365D01*
X178948204Y-73681447D01*
X178885631Y-73618765D01*
X178655265Y-73523109D01*
X178405829Y-73522891D01*
X178175297Y-73618145D01*
X177998765Y-73794369D01*
X177903109Y-74024735D01*
X177902891Y-74274171D01*
X170914000Y-74274171D01*
X170914000Y-70925265D01*
X177844847Y-70925265D01*
X177979296Y-71250657D01*
X178228033Y-71499829D01*
X178553190Y-71634846D01*
X178905265Y-71635153D01*
X178960593Y-71612292D01*
X179120000Y-71644000D01*
X179777182Y-71644000D01*
X179804369Y-71671235D01*
X180034735Y-71766891D01*
X180284171Y-71767109D01*
X180514703Y-71671855D01*
X180691235Y-71495631D01*
X180786891Y-71265265D01*
X180787109Y-71015829D01*
X180782293Y-71004171D01*
X182132891Y-71004171D01*
X182228145Y-71234703D01*
X182404369Y-71411235D01*
X182634735Y-71506891D01*
X182709240Y-71506956D01*
X182767128Y-71545635D01*
X182960000Y-71584000D01*
X183372633Y-71584000D01*
X183618033Y-71829829D01*
X183943190Y-71964846D01*
X184295265Y-71965153D01*
X184620657Y-71830704D01*
X184869829Y-71581967D01*
X185004846Y-71256810D01*
X185005153Y-70904735D01*
X184870704Y-70579343D01*
X184621967Y-70330171D01*
X184296810Y-70195154D01*
X183944735Y-70194847D01*
X183619343Y-70329296D01*
X183372208Y-70576000D01*
X183312805Y-70576000D01*
X183291855Y-70525297D01*
X183115631Y-70348765D01*
X182885265Y-70253109D01*
X182635829Y-70252891D01*
X182405297Y-70348145D01*
X182228765Y-70524369D01*
X182133109Y-70754735D01*
X182132891Y-71004171D01*
X180782293Y-71004171D01*
X180691855Y-70785297D01*
X180515631Y-70608765D01*
X180285265Y-70513109D01*
X180035829Y-70512891D01*
X179805297Y-70608145D01*
X179777393Y-70636000D01*
X179615100Y-70636000D01*
X179615153Y-70574735D01*
X179480704Y-70249343D01*
X179231967Y-70000171D01*
X178906810Y-69865154D01*
X178554735Y-69864847D01*
X178229343Y-69999296D01*
X177980171Y-70248033D01*
X177845154Y-70573190D01*
X177844847Y-70925265D01*
X170914000Y-70925265D01*
X170914000Y-69422784D01*
X170961235Y-69375631D01*
X171056891Y-69145265D01*
X171057109Y-68895829D01*
X170961855Y-68665297D01*
X170934000Y-68637393D01*
X170934000Y-68020000D01*
X170920698Y-67953129D01*
X170964846Y-67846810D01*
X170965144Y-67504171D01*
X185662891Y-67504171D01*
X185758145Y-67734703D01*
X185934369Y-67911235D01*
X186164735Y-68006891D01*
X186414171Y-68007109D01*
X186644703Y-67911855D01*
X186821235Y-67735631D01*
X186916891Y-67505265D01*
X186917109Y-67255829D01*
X186821855Y-67025297D01*
X186645631Y-66848765D01*
X186415265Y-66753109D01*
X186165829Y-66752891D01*
X185935297Y-66848145D01*
X185758765Y-67024369D01*
X185663109Y-67254735D01*
X185662891Y-67504171D01*
X170965144Y-67504171D01*
X170965153Y-67494735D01*
X170830704Y-67169343D01*
X170581967Y-66920171D01*
X170256810Y-66785154D01*
X169904735Y-66784847D01*
X169579343Y-66919296D01*
X169330171Y-67168033D01*
X169195154Y-67493190D01*
X169194847Y-67845265D01*
X169329296Y-68170657D01*
X169578033Y-68419829D01*
X169903190Y-68554846D01*
X169926000Y-68554866D01*
X169926000Y-68637182D01*
X169898765Y-68664369D01*
X169803109Y-68894735D01*
X169802891Y-69144171D01*
X169898145Y-69374703D01*
X169906000Y-69382572D01*
X169906000Y-91200000D01*
X169944365Y-91392873D01*
X170053618Y-91556382D01*
X172700341Y-94203105D01*
X172455829Y-94202891D01*
X172225297Y-94298145D01*
X172048765Y-94474369D01*
X171953109Y-94704735D01*
X171952960Y-94874736D01*
X171775297Y-94948145D01*
X171598765Y-95124369D01*
X171503109Y-95354735D01*
X171502891Y-95604171D01*
X171598145Y-95834703D01*
X171774369Y-96011235D01*
X172004735Y-96106891D01*
X172254171Y-96107109D01*
X172484703Y-96011855D01*
X172661235Y-95835631D01*
X172723329Y-95686093D01*
X174199616Y-97162380D01*
X174363125Y-97271633D01*
X174555998Y-97309998D01*
X178307238Y-97309998D01*
X176733618Y-98883618D01*
X176624365Y-99047127D01*
X176624365Y-99047128D01*
X176586000Y-99240000D01*
X176586000Y-99898470D01*
X175915062Y-100569408D01*
X175915153Y-100464735D01*
X175780704Y-100139343D01*
X175531967Y-99890171D01*
X175206810Y-99755154D01*
X174854735Y-99754847D01*
X174529343Y-99889296D01*
X174280171Y-100138033D01*
X174145154Y-100463190D01*
X174144847Y-100815265D01*
X174158625Y-100848611D01*
X173901236Y-101106000D01*
X173168764Y-101106000D01*
X173144000Y-101081236D01*
X173144000Y-100622818D01*
X173171235Y-100595631D01*
X173266891Y-100365265D01*
X173267109Y-100115829D01*
X173171855Y-99885297D01*
X172995631Y-99708765D01*
X172765265Y-99613109D01*
X172515829Y-99612891D01*
X172285297Y-99708145D01*
X172108765Y-99884369D01*
X172044985Y-100037970D01*
X172045153Y-99844735D01*
X171910704Y-99519343D01*
X171661967Y-99270171D01*
X171336810Y-99135154D01*
X171327000Y-99135145D01*
X171327000Y-97000000D01*
X171316994Y-96950590D01*
X171288553Y-96908965D01*
X171246159Y-96881685D01*
X171200000Y-96873000D01*
X169627000Y-96873000D01*
X169627000Y-73000000D01*
X169625325Y-72979439D01*
X168503914Y-66144171D01*
X180902891Y-66144171D01*
X180998145Y-66374703D01*
X181174369Y-66551235D01*
X181404735Y-66646891D01*
X181654171Y-66647109D01*
X181884703Y-66551855D01*
X182061235Y-66375631D01*
X182156891Y-66145265D01*
X182157109Y-65895829D01*
X182061855Y-65665297D01*
X181885631Y-65488765D01*
X181655265Y-65393109D01*
X181405829Y-65392891D01*
X181175297Y-65488145D01*
X180998765Y-65664369D01*
X180903109Y-65894735D01*
X180902891Y-66144171D01*
X168503914Y-66144171D01*
X168026492Y-63234171D01*
X183292891Y-63234171D01*
X183388145Y-63464703D01*
X183564369Y-63641235D01*
X183794735Y-63736891D01*
X184044171Y-63737109D01*
X184274703Y-63641855D01*
X184451235Y-63465631D01*
X184546891Y-63235265D01*
X184546909Y-63214171D01*
X185622891Y-63214171D01*
X185718145Y-63444703D01*
X185894369Y-63621235D01*
X186124735Y-63716891D01*
X186374171Y-63717109D01*
X186604703Y-63621855D01*
X186781235Y-63445631D01*
X186876891Y-63215265D01*
X186876926Y-63174171D01*
X189482891Y-63174171D01*
X189578145Y-63404703D01*
X189754369Y-63581235D01*
X189984735Y-63676891D01*
X190234171Y-63677109D01*
X190464703Y-63581855D01*
X190641235Y-63405631D01*
X190736891Y-63175265D01*
X190737109Y-62925829D01*
X190641855Y-62695297D01*
X190465631Y-62518765D01*
X190235265Y-62423109D01*
X189985829Y-62422891D01*
X189755297Y-62518145D01*
X189578765Y-62694369D01*
X189483109Y-62924735D01*
X189482891Y-63174171D01*
X186876926Y-63174171D01*
X186877109Y-62965829D01*
X186781855Y-62735297D01*
X186605631Y-62558765D01*
X186375265Y-62463109D01*
X186125829Y-62462891D01*
X185895297Y-62558145D01*
X185718765Y-62734369D01*
X185623109Y-62964735D01*
X185622891Y-63214171D01*
X184546909Y-63214171D01*
X184547109Y-62985829D01*
X184451855Y-62755297D01*
X184275631Y-62578765D01*
X184045265Y-62483109D01*
X183795829Y-62482891D01*
X183565297Y-62578145D01*
X183388765Y-62754369D01*
X183293109Y-62984735D01*
X183292891Y-63234171D01*
X168026492Y-63234171D01*
X167549534Y-60327000D01*
X180200000Y-60327000D01*
X180249410Y-60316994D01*
X180291035Y-60288553D01*
X180318315Y-60246159D01*
X180327000Y-60200000D01*
X180327000Y-36896845D01*
X191548000Y-36896845D01*
X191548000Y-154103180D01*
X107362000Y-154103180D01*
X107362000Y-36896845D01*
X117573000Y-36896845D01*
X117573000Y-85373000D01*
G36*
X179240171Y-99368033D02*
X179105154Y-99693190D01*
X179104916Y-99966000D01*
X179012818Y-99966000D01*
X178985631Y-99938765D01*
X178755265Y-99843109D01*
X178505829Y-99842891D01*
X178275297Y-99938145D01*
X178124000Y-100089178D01*
X178124000Y-99828764D01*
X178598764Y-99354000D01*
X179254229Y-99354000D01*
X179240171Y-99368033D01*
X179240171Y-99368033D01*
G37*
X179240171Y-99368033D02*
X179105154Y-99693190D01*
X179104916Y-99966000D01*
X179012818Y-99966000D01*
X178985631Y-99938765D01*
X178755265Y-99843109D01*
X178505829Y-99842891D01*
X178275297Y-99938145D01*
X178124000Y-100089178D01*
X178124000Y-99828764D01*
X178598764Y-99354000D01*
X179254229Y-99354000D01*
X179240171Y-99368033D01*
G36*
X155173000Y-102876000D02*
X154667367Y-102876000D01*
X154421967Y-102630171D01*
X154096810Y-102495154D01*
X153744735Y-102494847D01*
X153419343Y-102629296D01*
X153170171Y-102878033D01*
X153035154Y-103203190D01*
X153034847Y-103555265D01*
X153083494Y-103673000D01*
X151827000Y-103673000D01*
X151827000Y-97427000D01*
X155173000Y-97427000D01*
X155173000Y-102876000D01*
X155173000Y-102876000D01*
G37*
X155173000Y-102876000D02*
X154667367Y-102876000D01*
X154421967Y-102630171D01*
X154096810Y-102495154D01*
X153744735Y-102494847D01*
X153419343Y-102629296D01*
X153170171Y-102878033D01*
X153035154Y-103203190D01*
X153034847Y-103555265D01*
X153083494Y-103673000D01*
X151827000Y-103673000D01*
X151827000Y-97427000D01*
X155173000Y-97427000D01*
X155173000Y-102876000D01*
G36*
X137973000Y-102256000D02*
X137030000Y-102256000D01*
X136837127Y-102294365D01*
X136777926Y-102333922D01*
X136756810Y-102325154D01*
X136404735Y-102324847D01*
X136079343Y-102459296D01*
X135830171Y-102708033D01*
X135695154Y-103033190D01*
X135694847Y-103385265D01*
X135772417Y-103573000D01*
X134627000Y-103573000D01*
X134627000Y-97427000D01*
X137973000Y-97427000D01*
X137973000Y-102256000D01*
X137973000Y-102256000D01*
G37*
X137973000Y-102256000D02*
X137030000Y-102256000D01*
X136837127Y-102294365D01*
X136777926Y-102333922D01*
X136756810Y-102325154D01*
X136404735Y-102324847D01*
X136079343Y-102459296D01*
X135830171Y-102708033D01*
X135695154Y-103033190D01*
X135694847Y-103385265D01*
X135772417Y-103573000D01*
X134627000Y-103573000D01*
X134627000Y-97427000D01*
X137973000Y-97427000D01*
X137973000Y-102256000D01*
G36*
X120873000Y-102296000D02*
X120450000Y-102296000D01*
X120257127Y-102334365D01*
X120093618Y-102443618D01*
X119203618Y-103333618D01*
X119094365Y-103497127D01*
X119094365Y-103497128D01*
X119059382Y-103673000D01*
X117027000Y-103673000D01*
X117027000Y-97427000D01*
X120873000Y-97427000D01*
X120873000Y-102296000D01*
X120873000Y-102296000D01*
G37*
X120873000Y-102296000D02*
X120450000Y-102296000D01*
X120257127Y-102334365D01*
X120093618Y-102443618D01*
X119203618Y-103333618D01*
X119094365Y-103497127D01*
X119094365Y-103497128D01*
X119059382Y-103673000D01*
X117027000Y-103673000D01*
X117027000Y-97427000D01*
X120873000Y-97427000D01*
X120873000Y-102296000D01*
G36*
X179673000Y-59673000D02*
X167627000Y-59673000D01*
X167627000Y-36896845D01*
X179673000Y-36896845D01*
X179673000Y-59673000D01*
X179673000Y-59673000D01*
G37*
X179673000Y-59673000D02*
X167627000Y-59673000D01*
X167627000Y-36896845D01*
X179673000Y-36896845D01*
X179673000Y-59673000D01*
M02*
