G04 #@! TF.FileFunction,Soldermask,Bot*
%FSLAX46Y46*%
G04 Gerber Fmt 4.6, Leading zero omitted, Abs format (unit mm)*
G04 Created by KiCad (PCBNEW 4.0.6) date 02/16/18 09:44:27*
%MOMM*%
%LPD*%
G01*
G04 APERTURE LIST*
%ADD10C,0.100000*%
%ADD11C,0.900000*%
%ADD12C,2.900000*%
%ADD13C,5.400000*%
G04 APERTURE END LIST*
D10*
D11*
X120000000Y-107400000D03*
X120000000Y-106400000D03*
X120000000Y-105400000D03*
X120000000Y-104400000D03*
X120000000Y-103400000D03*
X119000000Y-107400000D03*
X119000000Y-107400000D03*
X119000000Y-106400000D03*
X119000000Y-105400000D03*
X119000000Y-104400000D03*
X119000000Y-103400000D03*
X118000000Y-107400000D03*
X118000000Y-106400000D03*
X118000000Y-105400000D03*
X118000000Y-104400000D03*
X118000000Y-103400000D03*
X106300000Y-88600000D03*
X106300000Y-92600000D03*
X107200000Y-94100000D03*
X108100000Y-87600000D03*
X108100000Y-86600000D03*
X108100000Y-84600000D03*
X108100000Y-85600000D03*
X175600000Y-111600000D03*
X176800000Y-106000000D03*
X171000000Y-104800000D03*
X174460000Y-85150000D03*
X171310000Y-86410000D03*
X169550000Y-96700000D03*
X174530000Y-95690000D03*
X183400000Y-99100000D03*
X181500000Y-104300000D03*
X158100000Y-118100000D03*
X128700000Y-115900000D03*
X161000000Y-112200000D03*
X161000000Y-111200000D03*
X160100000Y-112700000D03*
X160100000Y-111700000D03*
X160100000Y-110700000D03*
X154800000Y-112200000D03*
X154800000Y-111200000D03*
X154000000Y-112700000D03*
X154000000Y-111700000D03*
X154000000Y-110700000D03*
X137800000Y-113700000D03*
X137800000Y-112700000D03*
X137800000Y-111700000D03*
X137800000Y-110700000D03*
X125700000Y-113700000D03*
X125700000Y-112700000D03*
X125700000Y-111700000D03*
X125700000Y-110700000D03*
X118700000Y-113200000D03*
X118700000Y-112200000D03*
X118700000Y-111200000D03*
X117800000Y-113700000D03*
X117800000Y-112700000D03*
X117800000Y-111700000D03*
X117800000Y-110700000D03*
X112600000Y-113200000D03*
X112600000Y-112200000D03*
X112600000Y-111200000D03*
X113500000Y-113700000D03*
X113500000Y-112700000D03*
X113500000Y-111700000D03*
X113500000Y-110700000D03*
X121900000Y-115500000D03*
X114500000Y-116900000D03*
X108700000Y-119500000D03*
X156680000Y-99570000D03*
X139800000Y-99600000D03*
X122700000Y-99800000D03*
X98800000Y-102500000D03*
X98800000Y-104500000D03*
X98800000Y-106500000D03*
X98800000Y-108500000D03*
X98800000Y-91240000D03*
X98800000Y-89440000D03*
X98800000Y-87640000D03*
X98800000Y-85840000D03*
X104900000Y-84740000D03*
X107200000Y-93100000D03*
X107200000Y-86140000D03*
X107200000Y-87140000D03*
X107200000Y-88140000D03*
X161800000Y-107600000D03*
X161800000Y-106600000D03*
X161800000Y-105600000D03*
X161800000Y-104600000D03*
X161800000Y-103600000D03*
X149800000Y-118600000D03*
X148800000Y-118600000D03*
X147800000Y-118600000D03*
X146800000Y-118600000D03*
X149800000Y-117000000D03*
X148800000Y-117000000D03*
X147800000Y-117000000D03*
X146800000Y-117000000D03*
X149800000Y-116000000D03*
X148800000Y-116000000D03*
X147800000Y-116000000D03*
X139000000Y-118600000D03*
X138000000Y-118600000D03*
X137000000Y-118600000D03*
X146800000Y-116000000D03*
X139000000Y-116000000D03*
X138000000Y-117000000D03*
X138000000Y-116000000D03*
X139000000Y-117000000D03*
X137000000Y-117000000D03*
X137000000Y-116000000D03*
X136000000Y-118600000D03*
X136000000Y-117000000D03*
X136000000Y-116000000D03*
X160100000Y-107600000D03*
X160100000Y-106600000D03*
X160100000Y-105600000D03*
X160100000Y-104600000D03*
X160100000Y-103600000D03*
X154000000Y-107600000D03*
X154000000Y-106600000D03*
X154000000Y-105600000D03*
X154000000Y-104600000D03*
X154000000Y-103600000D03*
X147900000Y-107600000D03*
X147900000Y-106600000D03*
X147900000Y-105600000D03*
X147900000Y-104600000D03*
X147900000Y-103600000D03*
X146500000Y-107600000D03*
X146500000Y-106600000D03*
X146500000Y-105600000D03*
X146500000Y-104600000D03*
X146500000Y-103600000D03*
X138500000Y-107600000D03*
X138500000Y-106600000D03*
X138500000Y-105600000D03*
X138500000Y-104600000D03*
X138500000Y-103600000D03*
X137000000Y-107600000D03*
X137000000Y-106600000D03*
X137000000Y-105600000D03*
X137000000Y-104600000D03*
X137000000Y-103600000D03*
X124800000Y-107400000D03*
X124800000Y-106400000D03*
X124800000Y-105400000D03*
X124800000Y-104400000D03*
X124800000Y-103400000D03*
X123300000Y-107400000D03*
X123300000Y-106400000D03*
X123300000Y-105400000D03*
X123300000Y-104400000D03*
X123300000Y-103400000D03*
X113100000Y-107400000D03*
X113100000Y-106400000D03*
X113100000Y-105400000D03*
X113100000Y-104400000D03*
X113100000Y-103400000D03*
X113100000Y-102400000D03*
X113100000Y-101400000D03*
X113100000Y-100400000D03*
X107200000Y-92100000D03*
X107200000Y-91100000D03*
X107200000Y-90100000D03*
X107200000Y-89100000D03*
X107200000Y-85100000D03*
X103100000Y-84740000D03*
X109600000Y-96200000D03*
X109600000Y-95200000D03*
X109600000Y-94240000D03*
X109600000Y-90840000D03*
X109600000Y-89640000D03*
X114500000Y-98000000D03*
X114500000Y-97000000D03*
X114500000Y-96000000D03*
X114500000Y-95000000D03*
X114500000Y-94000000D03*
X132000000Y-97800000D03*
X132000000Y-96800000D03*
X132000000Y-95800000D03*
X132000000Y-94800000D03*
X132000000Y-93800000D03*
X149200000Y-97800000D03*
X149200000Y-96800000D03*
X149200000Y-95800000D03*
X149200000Y-94800000D03*
X149200000Y-93800000D03*
X147000000Y-86700000D03*
X149700000Y-72400000D03*
X125000000Y-90340000D03*
X125000000Y-89360000D03*
X125000000Y-88380000D03*
X125000000Y-87400000D03*
X125000000Y-86420000D03*
X125000000Y-85440000D03*
X125000000Y-84460000D03*
X125000000Y-83480000D03*
X125000000Y-82500000D03*
X124020000Y-90340000D03*
X124020000Y-89360000D03*
X124020000Y-88380000D03*
X124020000Y-87400000D03*
X124020000Y-86420000D03*
X124020000Y-85440000D03*
X124020000Y-84460000D03*
X124020000Y-83480000D03*
X124020000Y-82500000D03*
X123040000Y-90340000D03*
X123040000Y-89360000D03*
X123040000Y-88380000D03*
X123040000Y-87400000D03*
X123040000Y-86420000D03*
X123040000Y-85440000D03*
X123040000Y-84460000D03*
X123040000Y-83480000D03*
X123040000Y-82500000D03*
X122060000Y-90340000D03*
X122060000Y-89360000D03*
X122060000Y-88380000D03*
X122060000Y-87400000D03*
X122060000Y-86420000D03*
X122060000Y-85440000D03*
X122060000Y-84460000D03*
X122060000Y-83480000D03*
X122060000Y-82500000D03*
X121080000Y-90340000D03*
X121080000Y-89360000D03*
X121080000Y-88380000D03*
X121080000Y-87400000D03*
X121080000Y-86420000D03*
X121080000Y-85440000D03*
X121080000Y-84460000D03*
X121080000Y-83480000D03*
X121080000Y-82500000D03*
X120100000Y-90340000D03*
X120100000Y-89360000D03*
X120100000Y-88380000D03*
X120100000Y-87400000D03*
X120100000Y-86420000D03*
X120100000Y-85440000D03*
X120100000Y-84460000D03*
X120100000Y-83480000D03*
X120100000Y-82500000D03*
X119120000Y-90340000D03*
X119120000Y-89360000D03*
X119120000Y-88380000D03*
X119120000Y-87400000D03*
X119120000Y-86420000D03*
X119120000Y-85440000D03*
X119120000Y-84460000D03*
X119120000Y-83480000D03*
X119120000Y-82500000D03*
X118140000Y-90340000D03*
X118140000Y-89360000D03*
X118140000Y-88380000D03*
X118140000Y-87400000D03*
X118140000Y-86420000D03*
X118140000Y-85440000D03*
X118140000Y-84460000D03*
X118140000Y-83480000D03*
X118140000Y-82500000D03*
X117160000Y-90340000D03*
X117160000Y-89360000D03*
X117160000Y-88380000D03*
X117160000Y-87400000D03*
X117160000Y-86420000D03*
X117160000Y-85440000D03*
X117160000Y-84460000D03*
X117160000Y-83480000D03*
X117160000Y-82500000D03*
X116180000Y-90340000D03*
X116180000Y-89360000D03*
X116180000Y-88380000D03*
X116180000Y-87400000D03*
X116180000Y-86420000D03*
X116180000Y-85440000D03*
X116180000Y-84460000D03*
X116180000Y-83480000D03*
X116180000Y-82500000D03*
X115200000Y-90340000D03*
X115200000Y-89360000D03*
X115200000Y-88380000D03*
X115200000Y-87400000D03*
X115200000Y-86420000D03*
X115200000Y-85440000D03*
X115200000Y-84460000D03*
X115200000Y-83480000D03*
X115200000Y-82500000D03*
X149500000Y-82500000D03*
X142100000Y-90340000D03*
X142100000Y-89360000D03*
X142100000Y-88380000D03*
X142100000Y-87400000D03*
X142100000Y-86420000D03*
X142100000Y-85440000D03*
X142100000Y-84460000D03*
X142100000Y-83480000D03*
X142100000Y-82500000D03*
X141120000Y-90340000D03*
X141120000Y-89360000D03*
X141120000Y-88380000D03*
X141120000Y-87400000D03*
X141120000Y-86420000D03*
X141120000Y-85440000D03*
X141120000Y-84460000D03*
X141120000Y-83480000D03*
X141120000Y-82500000D03*
X140140000Y-90340000D03*
X140140000Y-89360000D03*
X140140000Y-88380000D03*
X140140000Y-87400000D03*
X140140000Y-86420000D03*
X140140000Y-85440000D03*
X140140000Y-84460000D03*
X140140000Y-83480000D03*
X140140000Y-82500000D03*
X139160000Y-90340000D03*
X139160000Y-89360000D03*
X139160000Y-88380000D03*
X139160000Y-87400000D03*
X139160000Y-86420000D03*
X139160000Y-85440000D03*
X139160000Y-84460000D03*
X139160000Y-83480000D03*
X139160000Y-82500000D03*
X138180000Y-90340000D03*
X138180000Y-89360000D03*
X138180000Y-88380000D03*
X138180000Y-87400000D03*
X138180000Y-86420000D03*
X138180000Y-85440000D03*
X138180000Y-84460000D03*
X138180000Y-83480000D03*
X138180000Y-82500000D03*
X137200000Y-90340000D03*
X137200000Y-89360000D03*
X137200000Y-88380000D03*
X137200000Y-87400000D03*
X137200000Y-86420000D03*
X137200000Y-85440000D03*
X137200000Y-84460000D03*
X137200000Y-83480000D03*
X137200000Y-82500000D03*
X136220000Y-90340000D03*
X136220000Y-89360000D03*
X136220000Y-88380000D03*
X136220000Y-87400000D03*
X136220000Y-86420000D03*
X136220000Y-85440000D03*
X136220000Y-84460000D03*
X136220000Y-83480000D03*
X136220000Y-82500000D03*
X135240000Y-90340000D03*
X135240000Y-89360000D03*
X135240000Y-88380000D03*
X135240000Y-87400000D03*
X135240000Y-86420000D03*
X135240000Y-85440000D03*
X135240000Y-84460000D03*
X135240000Y-83480000D03*
X135240000Y-82500000D03*
X134260000Y-90340000D03*
X134260000Y-89360000D03*
X134260000Y-88380000D03*
X134260000Y-87400000D03*
X134260000Y-86420000D03*
X134260000Y-85440000D03*
X134260000Y-84460000D03*
X134260000Y-83480000D03*
X134260000Y-82500000D03*
X133280000Y-90340000D03*
X133280000Y-89360000D03*
X133280000Y-88380000D03*
X133280000Y-87400000D03*
X133280000Y-86420000D03*
X133280000Y-85440000D03*
X133280000Y-84460000D03*
X133280000Y-83480000D03*
X133280000Y-82500000D03*
X132300000Y-90340000D03*
X132300000Y-89360000D03*
X132300000Y-88380000D03*
X132300000Y-87400000D03*
X132300000Y-86420000D03*
X132300000Y-85440000D03*
X132300000Y-84460000D03*
X132300000Y-83480000D03*
X132300000Y-82500000D03*
X159300000Y-90340000D03*
X159300000Y-89360000D03*
X159300000Y-88380000D03*
X159300000Y-87400000D03*
X159300000Y-86420000D03*
X159300000Y-85440000D03*
X159300000Y-84460000D03*
X159300000Y-83480000D03*
X159300000Y-82500000D03*
X158320000Y-90340000D03*
X158320000Y-89360000D03*
X158320000Y-88380000D03*
X158320000Y-87400000D03*
X158320000Y-86420000D03*
X158320000Y-85440000D03*
X158320000Y-84460000D03*
X158320000Y-83480000D03*
X158320000Y-82500000D03*
X157340000Y-90340000D03*
X157340000Y-89360000D03*
X157340000Y-88380000D03*
X157340000Y-87400000D03*
X157340000Y-86420000D03*
X157340000Y-85440000D03*
X157340000Y-84460000D03*
X157340000Y-83480000D03*
X157340000Y-82500000D03*
X156360000Y-90340000D03*
X156360000Y-89360000D03*
X156360000Y-88380000D03*
X156360000Y-87400000D03*
X156360000Y-86420000D03*
X156360000Y-85440000D03*
X156360000Y-84460000D03*
X156360000Y-83480000D03*
X156360000Y-82500000D03*
X155380000Y-90340000D03*
X155380000Y-89360000D03*
X155380000Y-88380000D03*
X155380000Y-87400000D03*
X155380000Y-86420000D03*
X155380000Y-85440000D03*
X155380000Y-84460000D03*
X155380000Y-83480000D03*
X155380000Y-82500000D03*
X154400000Y-90340000D03*
X154400000Y-89360000D03*
X154400000Y-88380000D03*
X154400000Y-87400000D03*
X154400000Y-86420000D03*
X154400000Y-85440000D03*
X154400000Y-84460000D03*
X154400000Y-83480000D03*
X154400000Y-82500000D03*
X153420000Y-90340000D03*
X153420000Y-89360000D03*
X153420000Y-88380000D03*
X153420000Y-87400000D03*
X153420000Y-86420000D03*
X153420000Y-85440000D03*
X153420000Y-84460000D03*
X153420000Y-83480000D03*
X153420000Y-82500000D03*
X152440000Y-90340000D03*
X152440000Y-89360000D03*
X152440000Y-88380000D03*
X152440000Y-87400000D03*
X152440000Y-86420000D03*
X152440000Y-85440000D03*
X152440000Y-84460000D03*
X152440000Y-83480000D03*
X152440000Y-82500000D03*
X151460000Y-90340000D03*
X151460000Y-89360000D03*
X151460000Y-88380000D03*
X151460000Y-87400000D03*
X151460000Y-86420000D03*
X151460000Y-85440000D03*
X151460000Y-84460000D03*
X151460000Y-83480000D03*
X151460000Y-82500000D03*
X150480000Y-90340000D03*
X150480000Y-89360000D03*
X150480000Y-88380000D03*
X150480000Y-87400000D03*
X150480000Y-86420000D03*
X150480000Y-85440000D03*
X150480000Y-84460000D03*
X150480000Y-83480000D03*
X150500000Y-82500000D03*
X149500000Y-90340000D03*
X149500000Y-89360000D03*
X149500000Y-88380000D03*
X149500000Y-87400000D03*
X149500000Y-86420000D03*
X149500000Y-85440000D03*
X149500000Y-84460000D03*
X149500000Y-83480000D03*
D12*
X111800000Y-78430000D03*
X104800000Y-86930000D03*
X104800000Y-102930000D03*
X104800000Y-94930000D03*
X104800000Y-110930000D03*
X120100000Y-78430000D03*
X137200000Y-78430000D03*
X154400000Y-78430000D03*
D13*
X100000000Y-118000000D03*
X188000000Y-118000000D03*
X188000000Y-73000000D03*
X100000000Y-73000000D03*
D11*
X167200000Y-115930000D03*
X174940000Y-107340000D03*
X167860000Y-87340000D03*
X182980000Y-96550000D03*
X184430000Y-87140000D03*
X120440000Y-115500000D03*
X111960000Y-117960000D03*
X171660000Y-113070000D03*
X171630000Y-117680000D03*
X173040000Y-106880000D03*
X180100000Y-108740000D03*
X174370000Y-97210000D03*
X158030000Y-116330000D03*
X121110000Y-119000000D03*
X153880000Y-118520000D03*
X116740000Y-71670000D03*
X167700000Y-83010000D03*
X168130000Y-91480000D03*
X146140000Y-72950000D03*
X175340000Y-93970000D03*
X168540000Y-105050000D03*
X176240000Y-94160000D03*
X171940000Y-80940000D03*
X166210000Y-80300000D03*
X152020000Y-73620000D03*
X145690000Y-89280000D03*
X181430000Y-93380000D03*
X168580000Y-90830000D03*
X175360000Y-85260000D03*
X174180000Y-91390000D03*
X174360000Y-96430000D03*
X173650000Y-85710000D03*
X134490000Y-117760000D03*
X174370000Y-98170000D03*
X120570000Y-100710000D03*
X171350000Y-102730000D03*
X171100000Y-101960000D03*
X120530000Y-99560000D03*
X171980000Y-101130000D03*
X137750000Y-100820000D03*
X154940000Y-100480000D03*
X167690000Y-100280000D03*
X178050000Y-100260000D03*
X178160000Y-98760000D03*
X186440000Y-79210000D03*
X177650000Y-99460000D03*
X177360000Y-84520000D03*
X169100000Y-99920000D03*
X154910000Y-99590000D03*
X181540000Y-95280000D03*
X137680000Y-99550000D03*
X169100000Y-100810000D03*
X176660000Y-94850000D03*
X122740000Y-98810000D03*
X167890000Y-97160000D03*
X167680000Y-97960000D03*
X187530000Y-99970000D03*
X140030000Y-98800000D03*
X157140000Y-98910000D03*
X167840000Y-98900000D03*
X109750000Y-102710000D03*
M02*
