M48
;DRILL file {KiCad 4.0.6} date 02/16/18 09:44:30
;FORMAT={-:-/ absolute / inch / decimal}
FMAT,2
INCH,TZ
T1C0.012
T2C0.059
T3C0.118
%
G90
G05
M72
T1
X3.8898Y-3.3795
X3.8898Y-3.4504
X3.8898Y-3.5213
X3.8898Y-3.5921
X3.8898Y-4.0354
X3.8898Y-4.1142
X3.8898Y-4.1929
X3.8898Y-4.2717
X4.0591Y-3.3362
X4.1299Y-3.3362
X4.185Y-3.4882
X4.185Y-3.6457
X4.2205Y-3.3504
X4.2205Y-3.3913
X4.2205Y-3.4307
X4.2205Y-3.4701
X4.2205Y-3.5079
X4.2205Y-3.5472
X4.2205Y-3.5866
X4.2205Y-3.626
X4.2205Y-3.6654
X4.2205Y-3.7047
X4.2559Y-3.3307
X4.2559Y-3.3701
X4.2559Y-3.4094
X4.2559Y-3.4488
X4.2795Y-4.7047
X4.315Y-3.5291
X4.315Y-3.5764
X4.315Y-3.7102
X4.315Y-3.748
X4.315Y-3.7874
X4.3209Y-4.0437
X4.4079Y-4.6441
X4.4331Y-4.378
X4.4331Y-4.4173
X4.4331Y-4.4567
X4.4528Y-3.9528
X4.4528Y-3.9921
X4.4528Y-4.0315
X4.4528Y-4.0709
X4.4528Y-4.1102
X4.4528Y-4.1496
X4.4528Y-4.189
X4.4528Y-4.2283
X4.4685Y-4.3583
X4.4685Y-4.3976
X4.4685Y-4.437
X4.4685Y-4.4764
X4.5079Y-3.7008
X4.5079Y-3.7402
X4.5079Y-3.7795
X4.5079Y-3.8189
X4.5079Y-3.8583
X4.5079Y-4.6024
X4.5354Y-3.248
X4.5354Y-3.2866
X4.5354Y-3.3252
X4.5354Y-3.3638
X4.5354Y-3.4024
X4.5354Y-3.4409
X4.5354Y-3.4795
X4.5354Y-3.5181
X4.5354Y-3.5567
X4.574Y-3.248
X4.574Y-3.2866
X4.574Y-3.3252
X4.574Y-3.3638
X4.574Y-3.4024
X4.574Y-3.4409
X4.574Y-3.4795
X4.574Y-3.5181
X4.574Y-3.5567
X4.5961Y-2.8217
X4.6126Y-3.248
X4.6126Y-3.2866
X4.6126Y-3.3252
X4.6126Y-3.3638
X4.6126Y-3.4024
X4.6126Y-3.4409
X4.6126Y-3.4795
X4.6126Y-3.5181
X4.6126Y-3.5567
X4.6378Y-4.3583
X4.6378Y-4.3976
X4.6378Y-4.437
X4.6378Y-4.4764
X4.6457Y-4.0709
X4.6457Y-4.1102
X4.6457Y-4.1496
X4.6457Y-4.189
X4.6457Y-4.2283
X4.6512Y-3.248
X4.6512Y-3.2866
X4.6512Y-3.3252
X4.6512Y-3.3638
X4.6512Y-3.4024
X4.6512Y-3.4409
X4.6512Y-3.4795
X4.6512Y-3.5181
X4.6512Y-3.5567
X4.6732Y-4.378
X4.6732Y-4.4173
X4.6732Y-4.4567
X4.685Y-4.0709
X4.685Y-4.1102
X4.685Y-4.1496
X4.685Y-4.189
X4.685Y-4.2283
X4.685Y-4.2283
X4.6898Y-3.248
X4.6898Y-3.2866
X4.6898Y-3.3252
X4.6898Y-3.3638
X4.6898Y-3.4024
X4.6898Y-3.4409
X4.6898Y-3.4795
X4.6898Y-3.5181
X4.6898Y-3.5567
X4.7244Y-4.0709
X4.7244Y-4.1102
X4.7244Y-4.1496
X4.7244Y-4.189
X4.7244Y-4.2283
X4.7283Y-3.248
X4.7283Y-3.2866
X4.7283Y-3.3252
X4.7283Y-3.3638
X4.7283Y-3.4024
X4.7283Y-3.4409
X4.7283Y-3.4795
X4.7283Y-3.5181
X4.7283Y-3.5567
X4.7417Y-4.5472
X4.7453Y-3.9197
X4.7469Y-3.965
X4.7669Y-3.248
X4.7669Y-3.2866
X4.7669Y-3.3252
X4.7669Y-3.3638
X4.7669Y-3.4024
X4.7669Y-3.4409
X4.7669Y-3.4795
X4.7669Y-3.5181
X4.7669Y-3.5567
X4.7681Y-4.685
X4.7992Y-4.5472
X4.8055Y-3.248
X4.8055Y-3.2866
X4.8055Y-3.3252
X4.8055Y-3.3638
X4.8055Y-3.4024
X4.8055Y-3.4409
X4.8055Y-3.4795
X4.8055Y-3.5181
X4.8055Y-3.5567
X4.8307Y-3.9291
X4.8323Y-3.8902
X4.8441Y-3.248
X4.8441Y-3.2866
X4.8441Y-3.3252
X4.8441Y-3.3638
X4.8441Y-3.4024
X4.8441Y-3.4409
X4.8441Y-3.4795
X4.8441Y-3.5181
X4.8441Y-3.5567
X4.8543Y-4.0709
X4.8543Y-4.1102
X4.8543Y-4.1496
X4.8543Y-4.189
X4.8543Y-4.2283
X4.8827Y-3.248
X4.8827Y-3.2866
X4.8827Y-3.3252
X4.8827Y-3.3638
X4.8827Y-3.4024
X4.8827Y-3.4409
X4.8827Y-3.4795
X4.8827Y-3.5181
X4.8827Y-3.5567
X4.9134Y-4.0709
X4.9134Y-4.1102
X4.9134Y-4.1496
X4.9134Y-4.189
X4.9134Y-4.2283
X4.9213Y-3.248
X4.9213Y-3.2866
X4.9213Y-3.3252
X4.9213Y-3.3638
X4.9213Y-3.4024
X4.9213Y-3.4409
X4.9213Y-3.4795
X4.9213Y-3.5181
X4.9213Y-3.5567
X4.9488Y-4.3583
X4.9488Y-4.3976
X4.9488Y-4.437
X4.9488Y-4.4764
X5.0669Y-4.563
X5.1969Y-3.6929
X5.1969Y-3.7323
X5.1969Y-3.7717
X5.1969Y-3.811
X5.1969Y-3.8504
X5.2087Y-3.248
X5.2087Y-3.2866
X5.2087Y-3.3252
X5.2087Y-3.3638
X5.2087Y-3.4024
X5.2087Y-3.4409
X5.2087Y-3.4795
X5.2087Y-3.5181
X5.2087Y-3.5567
X5.2472Y-3.248
X5.2472Y-3.2866
X5.2472Y-3.3252
X5.2472Y-3.3638
X5.2472Y-3.4024
X5.2472Y-3.4409
X5.2472Y-3.4795
X5.2472Y-3.5181
X5.2472Y-3.5567
X5.2858Y-3.248
X5.2858Y-3.2866
X5.2858Y-3.3252
X5.2858Y-3.3638
X5.2858Y-3.4024
X5.2858Y-3.4409
X5.2858Y-3.4795
X5.2858Y-3.5181
X5.2858Y-3.5567
X5.2949Y-4.6362
X5.3244Y-3.248
X5.3244Y-3.2866
X5.3244Y-3.3252
X5.3244Y-3.3638
X5.3244Y-3.4024
X5.3244Y-3.4409
X5.3244Y-3.4795
X5.3244Y-3.5181
X5.3244Y-3.5567
X5.3543Y-4.5669
X5.3543Y-4.6063
X5.3543Y-4.6693
X5.363Y-3.248
X5.363Y-3.2866
X5.363Y-3.3252
X5.363Y-3.3638
X5.363Y-3.4024
X5.363Y-3.4409
X5.363Y-3.4795
X5.363Y-3.5181
X5.363Y-3.5567
X5.3937Y-4.0787
X5.3937Y-4.1181
X5.3937Y-4.1575
X5.3937Y-4.1969
X5.3937Y-4.2362
X5.3937Y-4.5669
X5.3937Y-4.6063
X5.3937Y-4.6693
X5.4016Y-3.248
X5.4016Y-3.2866
X5.4016Y-3.3252
X5.4016Y-3.3638
X5.4016Y-3.4024
X5.4016Y-3.4409
X5.4016Y-3.4795
X5.4016Y-3.5181
X5.4016Y-3.5567
X5.4205Y-3.9193
X5.4232Y-3.9693
X5.4252Y-4.3583
X5.4252Y-4.3976
X5.4252Y-4.437
X5.4252Y-4.4764
X5.4331Y-4.5669
X5.4331Y-4.6063
X5.4331Y-4.6693
X5.4402Y-3.248
X5.4402Y-3.2866
X5.4402Y-3.3252
X5.4402Y-3.3638
X5.4402Y-3.4024
X5.4402Y-3.4409
X5.4402Y-3.4795
X5.4402Y-3.5181
X5.4402Y-3.5567
X5.4528Y-4.0787
X5.4528Y-4.1181
X5.4528Y-4.1575
X5.4528Y-4.1969
X5.4528Y-4.2362
X5.4724Y-4.5669
X5.4724Y-4.6063
X5.4724Y-4.6693
X5.4787Y-3.248
X5.4787Y-3.2866
X5.4787Y-3.3252
X5.4787Y-3.3638
X5.4787Y-3.4024
X5.4787Y-3.4409
X5.4787Y-3.4795
X5.4787Y-3.5181
X5.4787Y-3.5567
X5.5039Y-3.9213
X5.513Y-3.8898
X5.5173Y-3.248
X5.5173Y-3.2866
X5.5173Y-3.3252
X5.5173Y-3.3638
X5.5173Y-3.4024
X5.5173Y-3.4409
X5.5173Y-3.4795
X5.5173Y-3.5181
X5.5173Y-3.5567
X5.5559Y-3.248
X5.5559Y-3.2866
X5.5559Y-3.3252
X5.5559Y-3.3638
X5.5559Y-3.4024
X5.5559Y-3.4409
X5.5559Y-3.4795
X5.5559Y-3.5181
X5.5559Y-3.5567
X5.5945Y-3.248
X5.5945Y-3.2866
X5.5945Y-3.3252
X5.5945Y-3.3638
X5.5945Y-3.4024
X5.5945Y-3.4409
X5.5945Y-3.4795
X5.5945Y-3.5181
X5.5945Y-3.5567
X5.7358Y-3.515
X5.7535Y-2.872
X5.7677Y-4.0787
X5.7677Y-4.1181
X5.7677Y-4.1575
X5.7677Y-4.1969
X5.7677Y-4.2362
X5.7795Y-4.5669
X5.7795Y-4.6063
X5.7795Y-4.6693
X5.7874Y-3.4134
X5.8189Y-4.5669
X5.8189Y-4.6063
X5.8189Y-4.6693
X5.8228Y-4.0787
X5.8228Y-4.1181
X5.8228Y-4.1575
X5.8228Y-4.1969
X5.8228Y-4.2362
X5.8583Y-4.5669
X5.8583Y-4.6063
X5.8583Y-4.6693
X5.874Y-3.6929
X5.874Y-3.7323
X5.874Y-3.7717
X5.874Y-3.811
X5.874Y-3.8504
X5.8858Y-3.248
X5.8858Y-3.2866
X5.8858Y-3.3252
X5.8858Y-3.3638
X5.8858Y-3.4024
X5.8858Y-3.4409
X5.8858Y-3.4795
X5.8858Y-3.5181
X5.8858Y-3.5567
X5.8937Y-2.8504
X5.8976Y-4.5669
X5.8976Y-4.6063
X5.8976Y-4.6693
X5.9244Y-3.2866
X5.9244Y-3.3252
X5.9244Y-3.3638
X5.9244Y-3.4024
X5.9244Y-3.4409
X5.9244Y-3.4795
X5.9244Y-3.5181
X5.9244Y-3.5567
X5.9252Y-3.248
X5.963Y-3.248
X5.963Y-3.2866
X5.963Y-3.3252
X5.963Y-3.3638
X5.963Y-3.4024
X5.963Y-3.4409
X5.963Y-3.4795
X5.963Y-3.5181
X5.963Y-3.5567
X5.985Y-2.8984
X6.0016Y-3.248
X6.0016Y-3.2866
X6.0016Y-3.3252
X6.0016Y-3.3638
X6.0016Y-3.4024
X6.0016Y-3.4409
X6.0016Y-3.4795
X6.0016Y-3.5181
X6.0016Y-3.5567
X6.0402Y-3.248
X6.0402Y-3.2866
X6.0402Y-3.3252
X6.0402Y-3.3638
X6.0402Y-3.4024
X6.0402Y-3.4409
X6.0402Y-3.4795
X6.0402Y-3.5181
X6.0402Y-3.5567
X6.0583Y-4.6661
X6.063Y-4.0787
X6.063Y-4.1181
X6.063Y-4.1575
X6.063Y-4.1969
X6.063Y-4.2362
X6.063Y-4.3583
X6.063Y-4.3976
X6.063Y-4.437
X6.0787Y-3.248
X6.0787Y-3.2866
X6.0787Y-3.3252
X6.0787Y-3.3638
X6.0787Y-3.4024
X6.0787Y-3.4409
X6.0787Y-3.4795
X6.0787Y-3.5181
X6.0787Y-3.5567
X6.0945Y-4.378
X6.0945Y-4.4173
X6.0988Y-3.9209
X6.1Y-3.9559
X6.1173Y-3.248
X6.1173Y-3.2866
X6.1173Y-3.3252
X6.1173Y-3.3638
X6.1173Y-3.4024
X6.1173Y-3.4409
X6.1173Y-3.4795
X6.1173Y-3.5181
X6.1173Y-3.5567
X6.1559Y-3.248
X6.1559Y-3.2866
X6.1559Y-3.3252
X6.1559Y-3.3638
X6.1559Y-3.4024
X6.1559Y-3.4409
X6.1559Y-3.4795
X6.1559Y-3.5181
X6.1559Y-3.5567
X6.1685Y-3.9201
X6.1866Y-3.8941
X6.1945Y-3.248
X6.1945Y-3.2866
X6.1945Y-3.3252
X6.1945Y-3.3638
X6.1945Y-3.4024
X6.1945Y-3.4409
X6.1945Y-3.4795
X6.1945Y-3.5181
X6.1945Y-3.5567
X6.2217Y-4.5799
X6.2244Y-4.6496
X6.2331Y-3.248
X6.2331Y-3.2866
X6.2331Y-3.3252
X6.2331Y-3.3638
X6.2331Y-3.4024
X6.2331Y-3.4409
X6.2331Y-3.4795
X6.2331Y-3.5181
X6.2331Y-3.5567
X6.2717Y-3.248
X6.2717Y-3.2866
X6.2717Y-3.3252
X6.2717Y-3.3638
X6.2717Y-3.4024
X6.2717Y-3.4409
X6.2717Y-3.4795
X6.2717Y-3.5181
X6.2717Y-3.5567
X6.3031Y-4.0787
X6.3031Y-4.1181
X6.3031Y-4.1575
X6.3031Y-4.1969
X6.3031Y-4.2362
X6.3031Y-4.3583
X6.3031Y-4.3976
X6.3031Y-4.437
X6.3386Y-4.378
X6.3386Y-4.4173
X6.3701Y-4.0787
X6.3701Y-4.1181
X6.3701Y-4.1575
X6.3701Y-4.1969
X6.3701Y-4.2362
X6.5437Y-3.1614
X6.5827Y-4.5642
X6.6016Y-3.8567
X6.602Y-3.948
X6.6024Y-3.2681
X6.6079Y-3.8937
X6.6087Y-3.4386
X6.6098Y-3.8252
X6.6193Y-3.6016
X6.6354Y-4.1358
X6.637Y-3.576
X6.6575Y-3.9339
X6.6575Y-3.9689
X6.6752Y-3.8071
X6.7323Y-4.126
X6.7362Y-4.0142
X6.7445Y-3.402
X6.7461Y-4.0445
X6.7571Y-4.6331
X6.7583Y-4.4516
X6.7693Y-3.1866
X6.7709Y-3.9815
X6.8126Y-4.2079
X6.8366Y-3.3744
X6.8575Y-3.598
X6.8646Y-3.7965
X6.865Y-3.8272
X6.865Y-3.865
X6.8685Y-3.3524
X6.8713Y-3.7673
X6.8874Y-4.226
X6.9031Y-3.6996
X6.9039Y-3.3567
X6.9134Y-4.3937
X6.9386Y-3.7071
X6.9551Y-3.7343
X6.9606Y-4.1732
X6.9827Y-3.3276
X6.9941Y-3.9157
X7.0098Y-3.9472
X7.0142Y-3.8882
X7.0906Y-4.2811
X7.1429Y-3.6764
X7.1457Y-4.1063
X7.1472Y-3.7512
X7.2039Y-3.8012
X7.2205Y-3.9016
X7.261Y-3.4307
X7.3402Y-3.1185
X7.3831Y-3.9358
T2
X4.126Y-3.4224
X4.126Y-3.7374
X4.126Y-4.0524
X4.126Y-4.3673
X4.4016Y-3.0878
X4.7283Y-3.0878
X5.4016Y-3.0878
X6.0787Y-3.0878
T3
X3.937Y-2.874
X3.937Y-4.6457
X7.4016Y-2.874
X7.4016Y-4.6457
T0
M30
